<svg width="900" height="2040" viewBox="0 0 900 2040" class="keymap" xmlns="http://www.w3.org/2000/svg" xmlns:xlink="http://www.w3.org/1999/xlink">
<style>/* inherit to force styles through use tags */
svg path {
    fill: inherit;
}

/* font and background color specifications */
svg.keymap {
    font-family: SFMono-Regular,Consolas,Liberation Mono,Menlo,monospace;
    font-size: 14px;
    font-kerning: normal;
    text-rendering: optimizeLegibility;
    fill: #24292e;
}

/* default key styling */
rect.key {
    fill: #f6f8fa;
}

rect.key, rect.combo {
    stroke: #c9cccf;
    stroke-width: 1;
}

/* default key side styling, only used is draw_key_sides is set */
rect.side {
    filter: brightness(90%);
}

/* color accent for combo boxes */
rect.combo, rect.combo-separate {
    fill: #cdf;
}

/* color accent for held keys */
rect.held, rect.combo.held {
    fill: #fdd;
}

/* color accent for ghost (optional) keys */
rect.ghost, rect.combo.ghost {
    stroke-dasharray: 4, 4;
    stroke-width: 2;
}

text {
    text-anchor: middle;
    dominant-baseline: middle;
}

/* styling for layer labels */
text.label {
    font-weight: bold;
    text-anchor: start;
    stroke: white;
    stroke-width: 4;
    paint-order: stroke;
}

/* styling for optional footer */
text.footer {
    text-anchor: end;
    dominant-baseline: auto;
    stroke: white;
    stroke-width: 4;
    paint-order: stroke;
}

/* styling for combo tap, and key non-tap label text */
text.combo, text.hold, text.shifted, text.left, text.right {
    font-size: 11px;
}

text.hold {
    text-anchor: middle;
    dominant-baseline: auto;
}

text.shifted {
    text-anchor: middle;
    dominant-baseline: hanging;
}

text.left {
    text-anchor: start;
}

text.right {
    text-anchor: end;
}

text.layer-activator {
    text-decoration: underline;
}

/* styling for hold/shifted label text in combo box */
text.combo.hold, text.combo.shifted, text.combo.left, text.combo.right {
    font-size: 8px;
}

/* lighter symbol for transparent keys */
text.trans {
    fill: #7b7e81;
}

/* styling for combo dendrons */
path.combo {
    stroke-width: 1;
    stroke: gray;
    fill: none;
}

/* Start Tabler Icons Cleanup */
/* cannot use height/width with glyphs */
.icon-tabler > path {
    fill: inherit;
    stroke: inherit;
    stroke-width: 2;
}
/* hide tabler's default box */
.icon-tabler > path[stroke="none"][fill="none"] {
    visibility: hidden;
}
/* End Tabler Icons Cleanup */
</style>
<g transform="translate(30, 0)" class="layer-0">
<text x="0" y="28" class="label" id="x_x">0:</text>
<g transform="translate(0, 56)">
<g transform="translate(28, 49)" class="key ghost keypos-0">
<rect rx="6" ry="6" x="-26" y="-26" width="52" height="52" class="key ghost"/>
</g>
<g transform="translate(84, 49)" class="key ghost keypos-1">
<rect rx="6" ry="6" x="-26" y="-26" width="52" height="52" class="key ghost"/>
<text x="0" y="0" class="key ghost tap">Q</text>
</g>
<g transform="translate(140, 35)" class="key keypos-2">
<rect rx="6" ry="6" x="-26" y="-26" width="52" height="52" class="key"/>
<text x="0" y="0" class="key tap">W</text>
</g>
<g transform="translate(196, 28)" class="key keypos-3">
<rect rx="6" ry="6" x="-26" y="-26" width="52" height="52" class="key"/>
<text x="0" y="0" class="key tap">E</text>
</g>
<g transform="translate(252, 35)" class="key ghost keypos-4">
<rect rx="6" ry="6" x="-26" y="-26" width="52" height="52" class="key ghost"/>
<text x="0" y="0" class="key ghost tap">R</text>
</g>
<g transform="translate(308, 42)" class="key ghost keypos-5">
<rect rx="6" ry="6" x="-26" y="-26" width="52" height="52" class="key ghost"/>
<text x="0" y="0" class="key ghost tap">T</text>
</g>
<g transform="translate(532, 42)" class="key ghost keypos-6">
<rect rx="6" ry="6" x="-26" y="-26" width="52" height="52" class="key ghost"/>
<text x="0" y="0" class="key ghost tap">Y</text>
</g>
<g transform="translate(588, 35)" class="key ghost keypos-7">
<rect rx="6" ry="6" x="-26" y="-26" width="52" height="52" class="key ghost"/>
<text x="0" y="0" class="key ghost tap">U</text>
</g>
<g transform="translate(644, 28)" class="key keypos-8">
<rect rx="6" ry="6" x="-26" y="-26" width="52" height="52" class="key"/>
<text x="0" y="0" class="key tap">I</text>
</g>
<g transform="translate(700, 35)" class="key keypos-9">
<rect rx="6" ry="6" x="-26" y="-26" width="52" height="52" class="key"/>
<text x="0" y="0" class="key tap">O</text>
</g>
<g transform="translate(756, 49)" class="key ghost keypos-10">
<rect rx="6" ry="6" x="-26" y="-26" width="52" height="52" class="key ghost"/>
<text x="0" y="0" class="key ghost tap">P</text>
</g>
<g transform="translate(812, 49)" class="key ghost keypos-11">
<rect rx="6" ry="6" x="-26" y="-26" width="52" height="52" class="key ghost"/>
</g>
<g transform="translate(28, 105)" class="key ghost keypos-12">
<rect rx="6" ry="6" x="-26" y="-26" width="52" height="52" class="key ghost"/>
</g>
<g transform="translate(84, 105)" class="key keypos-13">
<rect rx="6" ry="6" x="-26" y="-26" width="52" height="52" class="key"/>
<text x="0" y="0" class="key tap">A</text>
<text x="0" y="24" class="key hold">LGUI</text>
</g>
<g transform="translate(140, 91)" class="key keypos-14">
<rect rx="6" ry="6" x="-26" y="-26" width="52" height="52" class="key"/>
<text x="0" y="0" class="key tap">S</text>
<text x="0" y="24" class="key hold">LALT</text>
</g>
<g transform="translate(196, 84)" class="key keypos-15">
<rect rx="6" ry="6" x="-26" y="-26" width="52" height="52" class="key"/>
<text x="0" y="0" class="key tap">D</text>
<text x="0" y="24" class="key hold">LCTRL</text>
</g>
<g transform="translate(252, 91)" class="key keypos-16">
<rect rx="6" ry="6" x="-26" y="-26" width="52" height="52" class="key"/>
<text x="0" y="0" class="key tap">F</text>
<text x="0" y="24" class="key hold">LSHFT</text>
</g>
<g transform="translate(308, 98)" class="key ghost keypos-17">
<rect rx="6" ry="6" x="-26" y="-26" width="52" height="52" class="key ghost"/>
<text x="0" y="0" class="key ghost tap">G</text>
</g>
<g transform="translate(532, 98)" class="key ghost keypos-18">
<rect rx="6" ry="6" x="-26" y="-26" width="52" height="52" class="key ghost"/>
<text x="0" y="0" class="key ghost tap">H</text>
</g>
<g transform="translate(588, 91)" class="key keypos-19">
<rect rx="6" ry="6" x="-26" y="-26" width="52" height="52" class="key"/>
<text x="0" y="0" class="key tap">J</text>
<text x="0" y="24" class="key hold">LSHFT</text>
</g>
<g transform="translate(644, 84)" class="key keypos-20">
<rect rx="6" ry="6" x="-26" y="-26" width="52" height="52" class="key"/>
<text x="0" y="0" class="key tap">K</text>
<text x="0" y="24" class="key hold">LCTRL</text>
</g>
<g transform="translate(700, 91)" class="key keypos-21">
<rect rx="6" ry="6" x="-26" y="-26" width="52" height="52" class="key"/>
<text x="0" y="0" class="key tap">L</text>
<text x="0" y="24" class="key hold">LALT</text>
</g>
<g transform="translate(756, 105)" class="key keypos-22">
<rect rx="6" ry="6" x="-26" y="-26" width="52" height="52" class="key"/>
<text x="0" y="0" class="key tap">;</text>
<text x="0" y="24" class="key hold">LGUI</text>
</g>
<g transform="translate(812, 105)" class="key ghost keypos-23">
<rect rx="6" ry="6" x="-26" y="-26" width="52" height="52" class="key ghost"/>
</g>
<g transform="translate(28, 161)" class="key ghost keypos-24">
<rect rx="6" ry="6" x="-26" y="-26" width="52" height="52" class="key ghost"/>
</g>
<g transform="translate(84, 161)" class="key ghost keypos-25">
<rect rx="6" ry="6" x="-26" y="-26" width="52" height="52" class="key ghost"/>
<text x="0" y="0" class="key ghost tap">Z</text>
</g>
<g transform="translate(140, 147)" class="key ghost keypos-26">
<rect rx="6" ry="6" x="-26" y="-26" width="52" height="52" class="key ghost"/>
<text x="0" y="0" class="key ghost tap">X</text>
</g>
<g transform="translate(196, 140)" class="key ghost keypos-27">
<rect rx="6" ry="6" x="-26" y="-26" width="52" height="52" class="key ghost"/>
<text x="0" y="0" class="key ghost tap">C</text>
</g>
<g transform="translate(252, 147)" class="key keypos-28">
<rect rx="6" ry="6" x="-26" y="-26" width="52" height="52" class="key"/>
<text x="0" y="0" class="key tap">V</text>
</g>
<g transform="translate(308, 154)" class="key ghost keypos-29">
<rect rx="6" ry="6" x="-26" y="-26" width="52" height="52" class="key ghost"/>
<text x="0" y="0" class="key ghost tap">B</text>
</g>
<g transform="translate(532, 154)" class="key ghost keypos-30">
<rect rx="6" ry="6" x="-26" y="-26" width="52" height="52" class="key ghost"/>
<text x="0" y="0" class="key ghost tap">N</text>
</g>
<g transform="translate(588, 147)" class="key keypos-31">
<rect rx="6" ry="6" x="-26" y="-26" width="52" height="52" class="key"/>
<text x="0" y="0" class="key tap">M</text>
</g>
<g transform="translate(644, 140)" class="key ghost keypos-32">
<rect rx="6" ry="6" x="-26" y="-26" width="52" height="52" class="key ghost"/>
<text x="0" y="0" class="key ghost tap">,</text>
</g>
<g transform="translate(700, 147)" class="key ghost keypos-33">
<rect rx="6" ry="6" x="-26" y="-26" width="52" height="52" class="key ghost"/>
<text x="0" y="0" class="key ghost tap">.</text>
</g>
<g transform="translate(756, 161)" class="key ghost keypos-34">
<rect rx="6" ry="6" x="-26" y="-26" width="52" height="52" class="key ghost"/>
<text x="0" y="0" class="key ghost tap">/</text>
</g>
<g transform="translate(812, 161)" class="key ghost keypos-35">
<rect rx="6" ry="6" x="-26" y="-26" width="52" height="52" class="key ghost"/>
</g>
<g transform="translate(224, 205)" class="key keypos-36">
<rect rx="6" ry="6" x="-26" y="-26" width="52" height="52" class="key"/>
<text x="0" y="0" class="key tap">SPACE</text>
<a href="#x_x">
<text x="0" y="24" class="key hold layer-activator">1</text>
</a></g>
<g transform="translate(286, 213) rotate(15.0)" class="key keypos-37">
<rect rx="6" ry="6" x="-26" y="-26" width="52" height="52" class="key"/>
<text x="0" y="0" class="key tap">&#x27;</text>
<a href="#x_x">
<text x="0" y="24" class="key hold layer-activator">2</text>
</a></g>
<g transform="translate(351, 224) rotate(30.0)" class="key ghost keypos-38">
<rect rx="6" ry="6" x="-26" y="-40" width="52" height="80" class="key ghost"/>
</g>
<g transform="translate(489, 224) rotate(-30.0)" class="key ghost keypos-39">
<rect rx="6" ry="6" x="-26" y="-40" width="52" height="80" class="key ghost"/>
</g>
<g transform="translate(554, 213) rotate(-15.0)" class="key keypos-40">
<rect rx="6" ry="6" x="-26" y="-26" width="52" height="52" class="key"/>
<text x="0" y="0" class="key tap">[</text>
<a href="#x_x">
<text x="0" y="24" class="key hold layer-activator">3</text>
</a></g>
<g transform="translate(616, 205)" class="key keypos-41">
<rect rx="6" ry="6" x="-26" y="-26" width="52" height="52" class="key"/>
<text x="0" y="0" class="key tap">]</text>
<a href="#x_x">
<text x="0" y="24" class="key hold layer-activator">4</text>
</a></g>
<g class="combo combopos-0">
<rect rx="6" ry="6" x="241" y="196" width="28" height="26" class="combo"/>
<text x="255" y="209" class="combo tap">B</text>
</g>
<g class="combo combopos-1">
<rect rx="6" ry="6" x="571" y="196" width="28" height="26" class="combo"/>
<text x="585" y="209" class="combo tap">,</text>
</g>
</g>
</g>
<g transform="translate(30, 331)" class="layer-1">
<text x="0" y="28" class="label" id="x_x">1:</text>
<g transform="translate(0, 56)">
<g transform="translate(28, 49)" class="key ghost keypos-0">
<rect rx="6" ry="6" x="-26" y="-26" width="52" height="52" class="key ghost"/>
</g>
<g transform="translate(84, 49)" class="key ghost keypos-1">
<rect rx="6" ry="6" x="-26" y="-26" width="52" height="52" class="key ghost"/>
</g>
<g transform="translate(140, 35)" class="key keypos-2">
<rect rx="6" ry="6" x="-26" y="-26" width="52" height="52" class="key"/>
<text x="0" y="0" class="key tap">-</text>
</g>
<g transform="translate(196, 28)" class="key keypos-3">
<rect rx="6" ry="6" x="-26" y="-26" width="52" height="52" class="key"/>
<text x="0" y="0" class="key tap">=</text>
</g>
<g transform="translate(252, 35)" class="key ghost keypos-4">
<rect rx="6" ry="6" x="-26" y="-26" width="52" height="52" class="key ghost"/>
</g>
<g transform="translate(308, 42)" class="key ghost keypos-5">
<rect rx="6" ry="6" x="-26" y="-26" width="52" height="52" class="key ghost"/>
</g>
<g transform="translate(532, 42)" class="key ghost keypos-6">
<rect rx="6" ry="6" x="-26" y="-26" width="52" height="52" class="key ghost"/>
</g>
<g transform="translate(588, 35)" class="key ghost keypos-7">
<rect rx="6" ry="6" x="-26" y="-26" width="52" height="52" class="key ghost"/>
</g>
<g transform="translate(644, 28)" class="key keypos-8">
<rect rx="6" ry="6" x="-26" y="-26" width="52" height="52" class="key"/>
<text x="0" y="0" class="key tap">\</text>
</g>
<g transform="translate(700, 35)" class="key keypos-9">
<rect rx="6" ry="6" x="-26" y="-26" width="52" height="52" class="key"/>
<text x="0" y="0" class="key tap">`</text>
</g>
<g transform="translate(756, 49)" class="key ghost keypos-10">
<rect rx="6" ry="6" x="-26" y="-26" width="52" height="52" class="key ghost"/>
</g>
<g transform="translate(812, 49)" class="key ghost keypos-11">
<rect rx="6" ry="6" x="-26" y="-26" width="52" height="52" class="key ghost"/>
</g>
<g transform="translate(28, 105)" class="key ghost keypos-12">
<rect rx="6" ry="6" x="-26" y="-26" width="52" height="52" class="key ghost"/>
</g>
<g transform="translate(84, 105)" class="key keypos-13">
<rect rx="6" ry="6" x="-26" y="-26" width="52" height="52" class="key"/>
<a href="#x_x">
<text x="0" y="0" class="key tap layer-activator">1</text>
</a><text x="0" y="24" class="key hold">LGUI</text>
</g>
<g transform="translate(140, 91)" class="key keypos-14">
<rect rx="6" ry="6" x="-26" y="-26" width="52" height="52" class="key"/>
<a href="#x_x">
<text x="0" y="0" class="key tap layer-activator">2</text>
</a><text x="0" y="24" class="key hold">LALT</text>
</g>
<g transform="translate(196, 84)" class="key keypos-15">
<rect rx="6" ry="6" x="-26" y="-26" width="52" height="52" class="key"/>
<a href="#x_x">
<text x="0" y="0" class="key tap layer-activator">3</text>
</a><text x="0" y="24" class="key hold">LCTRL</text>
</g>
<g transform="translate(252, 91)" class="key keypos-16">
<rect rx="6" ry="6" x="-26" y="-26" width="52" height="52" class="key"/>
<a href="#x_x">
<text x="0" y="0" class="key tap layer-activator">4</text>
</a><text x="0" y="24" class="key hold">LSHFT</text>
</g>
<g transform="translate(308, 98)" class="key ghost keypos-17">
<rect rx="6" ry="6" x="-26" y="-26" width="52" height="52" class="key ghost"/>
</g>
<g transform="translate(532, 98)" class="key ghost keypos-18">
<rect rx="6" ry="6" x="-26" y="-26" width="52" height="52" class="key ghost"/>
</g>
<g transform="translate(588, 91)" class="key keypos-19">
<rect rx="6" ry="6" x="-26" y="-26" width="52" height="52" class="key"/>
<text x="0" y="0" class="key tap">7</text>
<text x="0" y="24" class="key hold">LSHFT</text>
</g>
<g transform="translate(644, 84)" class="key keypos-20">
<rect rx="6" ry="6" x="-26" y="-26" width="52" height="52" class="key"/>
<text x="0" y="0" class="key tap">8</text>
<text x="0" y="24" class="key hold">LCTRL</text>
</g>
<g transform="translate(700, 91)" class="key keypos-21">
<rect rx="6" ry="6" x="-26" y="-26" width="52" height="52" class="key"/>
<text x="0" y="0" class="key tap">9</text>
<text x="0" y="24" class="key hold">LALT</text>
</g>
<g transform="translate(756, 105)" class="key keypos-22">
<rect rx="6" ry="6" x="-26" y="-26" width="52" height="52" class="key"/>
<a href="#x_x">
<text x="0" y="0" class="key tap layer-activator">0</text>
</a><text x="0" y="24" class="key hold">LGUI</text>
</g>
<g transform="translate(812, 105)" class="key ghost keypos-23">
<rect rx="6" ry="6" x="-26" y="-26" width="52" height="52" class="key ghost"/>
</g>
<g transform="translate(28, 161)" class="key ghost keypos-24">
<rect rx="6" ry="6" x="-26" y="-26" width="52" height="52" class="key ghost"/>
</g>
<g transform="translate(84, 161)" class="key ghost keypos-25">
<rect rx="6" ry="6" x="-26" y="-26" width="52" height="52" class="key ghost"/>
</g>
<g transform="translate(140, 147)" class="key ghost keypos-26">
<rect rx="6" ry="6" x="-26" y="-26" width="52" height="52" class="key ghost"/>
</g>
<g transform="translate(196, 140)" class="key ghost keypos-27">
<rect rx="6" ry="6" x="-26" y="-26" width="52" height="52" class="key ghost"/>
</g>
<g transform="translate(252, 147)" class="key keypos-28">
<rect rx="6" ry="6" x="-26" y="-26" width="52" height="52" class="key"/>
<a href="#x_x">
<text x="0" y="0" class="key tap layer-activator">5</text>
</a></g>
<g transform="translate(308, 154)" class="key ghost keypos-29">
<rect rx="6" ry="6" x="-26" y="-26" width="52" height="52" class="key ghost"/>
</g>
<g transform="translate(532, 154)" class="key ghost keypos-30">
<rect rx="6" ry="6" x="-26" y="-26" width="52" height="52" class="key ghost"/>
</g>
<g transform="translate(588, 147)" class="key keypos-31">
<rect rx="6" ry="6" x="-26" y="-26" width="52" height="52" class="key"/>
<text x="0" y="0" class="key tap">6</text>
</g>
<g transform="translate(644, 140)" class="key ghost keypos-32">
<rect rx="6" ry="6" x="-26" y="-26" width="52" height="52" class="key ghost"/>
</g>
<g transform="translate(700, 147)" class="key ghost keypos-33">
<rect rx="6" ry="6" x="-26" y="-26" width="52" height="52" class="key ghost"/>
</g>
<g transform="translate(756, 161)" class="key ghost keypos-34">
<rect rx="6" ry="6" x="-26" y="-26" width="52" height="52" class="key ghost"/>
</g>
<g transform="translate(812, 161)" class="key ghost keypos-35">
<rect rx="6" ry="6" x="-26" y="-26" width="52" height="52" class="key ghost"/>
</g>
<g transform="translate(224, 205)" class="key held keypos-36">
<rect rx="6" ry="6" x="-26" y="-26" width="52" height="52" class="key held"/>
</g>
<g transform="translate(286, 213) rotate(15.0)" class="key trans keypos-37">
<rect rx="6" ry="6" x="-26" y="-26" width="52" height="52" class="key trans"/>
<text x="0" y="0" class="key trans tap">▽</text>
</g>
<g transform="translate(351, 224) rotate(30.0)" class="key ghost keypos-38">
<rect rx="6" ry="6" x="-26" y="-40" width="52" height="80" class="key ghost"/>
</g>
<g transform="translate(489, 224) rotate(-30.0)" class="key ghost keypos-39">
<rect rx="6" ry="6" x="-26" y="-40" width="52" height="80" class="key ghost"/>
</g>
<g transform="translate(554, 213) rotate(-15.0)" class="key trans keypos-40">
<rect rx="6" ry="6" x="-26" y="-26" width="52" height="52" class="key trans"/>
<text x="0" y="0" class="key trans tap">▽</text>
</g>
<g transform="translate(616, 205)" class="key trans keypos-41">
<rect rx="6" ry="6" x="-26" y="-26" width="52" height="52" class="key trans"/>
<text x="0" y="0" class="key trans tap">▽</text>
</g>
</g>
</g>
<g transform="translate(30, 661)" class="layer-2">
<text x="0" y="28" class="label" id="x_x">2:</text>
<g transform="translate(0, 56)">
<g transform="translate(28, 49)" class="key ghost keypos-0">
<rect rx="6" ry="6" x="-26" y="-26" width="52" height="52" class="key ghost"/>
</g>
<g transform="translate(84, 49)" class="key ghost keypos-1">
<rect rx="6" ry="6" x="-26" y="-26" width="52" height="52" class="key ghost"/>
</g>
<g transform="translate(140, 35)" class="key keypos-2">
<rect rx="6" ry="6" x="-26" y="-26" width="52" height="52" class="key"/>
<text x="0" y="0" class="key tap">
<tspan x="0" dy="-0.6em">Gui+Sft</tspan><tspan x="0" dy="1.2em">+6</tspan>
</text>
</g>
<g transform="translate(196, 28)" class="key keypos-3">
<rect rx="6" ry="6" x="-26" y="-26" width="52" height="52" class="key"/>
<text x="0" y="0" class="key tap">
<tspan x="0" dy="-0.0em">Gui+Sft</tspan><tspan x="0" dy="1.2em">+3</tspan>
</text>
<text x="0" y="-24" class="key shifted"><tspan style="font-size: 78%">Gui+Sft+2</tspan></text>
</g>
<g transform="translate(252, 35)" class="key ghost keypos-4">
<rect rx="6" ry="6" x="-26" y="-26" width="52" height="52" class="key ghost"/>
</g>
<g transform="translate(308, 42)" class="key ghost keypos-5">
<rect rx="6" ry="6" x="-26" y="-26" width="52" height="52" class="key ghost"/>
</g>
<g transform="translate(532, 42)" class="key ghost keypos-6">
<rect rx="6" ry="6" x="-26" y="-26" width="52" height="52" class="key ghost"/>
</g>
<g transform="translate(588, 35)" class="key ghost keypos-7">
<rect rx="6" ry="6" x="-26" y="-26" width="52" height="52" class="key ghost"/>
</g>
<g transform="translate(644, 28)" class="key keypos-8">
<rect rx="6" ry="6" x="-26" y="-26" width="52" height="52" class="key"/>
</g>
<g transform="translate(700, 35)" class="key keypos-9">
<rect rx="6" ry="6" x="-26" y="-26" width="52" height="52" class="key"/>
</g>
<g transform="translate(756, 49)" class="key ghost keypos-10">
<rect rx="6" ry="6" x="-26" y="-26" width="52" height="52" class="key ghost"/>
</g>
<g transform="translate(812, 49)" class="key ghost keypos-11">
<rect rx="6" ry="6" x="-26" y="-26" width="52" height="52" class="key ghost"/>
</g>
<g transform="translate(28, 105)" class="key ghost keypos-12">
<rect rx="6" ry="6" x="-26" y="-26" width="52" height="52" class="key ghost"/>
</g>
<g transform="translate(84, 105)" class="key keypos-13">
<rect rx="6" ry="6" x="-26" y="-26" width="52" height="52" class="key"/>
</g>
<g transform="translate(140, 91)" class="key keypos-14">
<rect rx="6" ry="6" x="-26" y="-26" width="52" height="52" class="key"/>
<text x="0" y="0" class="key tap">
<tspan x="0" dy="-0.6em">Gui+Sft</tspan><tspan x="0" dy="1.2em">+7</tspan>
</text>
</g>
<g transform="translate(196, 84)" class="key keypos-15">
<rect rx="6" ry="6" x="-26" y="-26" width="52" height="52" class="key"/>
<text x="0" y="0" class="key tap">
<tspan x="0" dy="-0.0em">Gui+Sft</tspan><tspan x="0" dy="1.2em">+1</tspan>
</text>
<text x="0" y="-24" class="key shifted"><tspan style="font-size: 78%">Gui+Sft+4</tspan></text>
</g>
<g transform="translate(252, 91)" class="key keypos-16">
<rect rx="6" ry="6" x="-26" y="-26" width="52" height="52" class="key"/>
</g>
<g transform="translate(308, 98)" class="key ghost keypos-17">
<rect rx="6" ry="6" x="-26" y="-26" width="52" height="52" class="key ghost"/>
</g>
<g transform="translate(532, 98)" class="key ghost keypos-18">
<rect rx="6" ry="6" x="-26" y="-26" width="52" height="52" class="key ghost"/>
</g>
<g transform="translate(588, 91)" class="key keypos-19">
<rect rx="6" ry="6" x="-26" y="-26" width="52" height="52" class="key"/>
</g>
<g transform="translate(644, 84)" class="key keypos-20">
<rect rx="6" ry="6" x="-26" y="-26" width="52" height="52" class="key"/>
</g>
<g transform="translate(700, 91)" class="key keypos-21">
<rect rx="6" ry="6" x="-26" y="-26" width="52" height="52" class="key"/>
</g>
<g transform="translate(756, 105)" class="key keypos-22">
<rect rx="6" ry="6" x="-26" y="-26" width="52" height="52" class="key"/>
</g>
<g transform="translate(812, 105)" class="key ghost keypos-23">
<rect rx="6" ry="6" x="-26" y="-26" width="52" height="52" class="key ghost"/>
</g>
<g transform="translate(28, 161)" class="key ghost keypos-24">
<rect rx="6" ry="6" x="-26" y="-26" width="52" height="52" class="key ghost"/>
</g>
<g transform="translate(84, 161)" class="key ghost keypos-25">
<rect rx="6" ry="6" x="-26" y="-26" width="52" height="52" class="key ghost"/>
</g>
<g transform="translate(140, 147)" class="key ghost keypos-26">
<rect rx="6" ry="6" x="-26" y="-26" width="52" height="52" class="key ghost"/>
</g>
<g transform="translate(196, 140)" class="key ghost keypos-27">
<rect rx="6" ry="6" x="-26" y="-26" width="52" height="52" class="key ghost"/>
</g>
<g transform="translate(252, 147)" class="key keypos-28">
<rect rx="6" ry="6" x="-26" y="-26" width="52" height="52" class="key"/>
</g>
<g transform="translate(308, 154)" class="key ghost keypos-29">
<rect rx="6" ry="6" x="-26" y="-26" width="52" height="52" class="key ghost"/>
</g>
<g transform="translate(532, 154)" class="key ghost keypos-30">
<rect rx="6" ry="6" x="-26" y="-26" width="52" height="52" class="key ghost"/>
</g>
<g transform="translate(588, 147)" class="key keypos-31">
<rect rx="6" ry="6" x="-26" y="-26" width="52" height="52" class="key"/>
</g>
<g transform="translate(644, 140)" class="key ghost keypos-32">
<rect rx="6" ry="6" x="-26" y="-26" width="52" height="52" class="key ghost"/>
</g>
<g transform="translate(700, 147)" class="key ghost keypos-33">
<rect rx="6" ry="6" x="-26" y="-26" width="52" height="52" class="key ghost"/>
</g>
<g transform="translate(756, 161)" class="key ghost keypos-34">
<rect rx="6" ry="6" x="-26" y="-26" width="52" height="52" class="key ghost"/>
</g>
<g transform="translate(812, 161)" class="key ghost keypos-35">
<rect rx="6" ry="6" x="-26" y="-26" width="52" height="52" class="key ghost"/>
</g>
<g transform="translate(224, 205)" class="key trans keypos-36">
<rect rx="6" ry="6" x="-26" y="-26" width="52" height="52" class="key trans"/>
<text x="0" y="0" class="key trans tap">▽</text>
</g>
<g transform="translate(286, 213) rotate(15.0)" class="key held keypos-37">
<rect rx="6" ry="6" x="-26" y="-26" width="52" height="52" class="key held"/>
</g>
<g transform="translate(351, 224) rotate(30.0)" class="key ghost keypos-38">
<rect rx="6" ry="6" x="-26" y="-40" width="52" height="80" class="key ghost"/>
</g>
<g transform="translate(489, 224) rotate(-30.0)" class="key ghost keypos-39">
<rect rx="6" ry="6" x="-26" y="-40" width="52" height="80" class="key ghost"/>
</g>
<g transform="translate(554, 213) rotate(-15.0)" class="key trans keypos-40">
<rect rx="6" ry="6" x="-26" y="-26" width="52" height="52" class="key trans"/>
<text x="0" y="0" class="key trans tap">▽</text>
</g>
<g transform="translate(616, 205)" class="key trans keypos-41">
<rect rx="6" ry="6" x="-26" y="-26" width="52" height="52" class="key trans"/>
<text x="0" y="0" class="key trans tap">▽</text>
</g>
</g>
</g>
<g transform="translate(30, 992)" class="layer-3">
<text x="0" y="28" class="label" id="x_x">3:</text>
<g transform="translate(0, 56)">
<g transform="translate(28, 49)" class="key ghost keypos-0">
<rect rx="6" ry="6" x="-26" y="-26" width="52" height="52" class="key ghost"/>
</g>
<g transform="translate(84, 49)" class="key ghost keypos-1">
<rect rx="6" ry="6" x="-26" y="-26" width="52" height="52" class="key ghost"/>
</g>
<g transform="translate(140, 35)" class="key keypos-2">
<rect rx="6" ry="6" x="-26" y="-26" width="52" height="52" class="key"/>
</g>
<g transform="translate(196, 28)" class="key keypos-3">
<rect rx="6" ry="6" x="-26" y="-26" width="52" height="52" class="key"/>
</g>
<g transform="translate(252, 35)" class="key ghost keypos-4">
<rect rx="6" ry="6" x="-26" y="-26" width="52" height="52" class="key ghost"/>
</g>
<g transform="translate(308, 42)" class="key ghost keypos-5">
<rect rx="6" ry="6" x="-26" y="-26" width="52" height="52" class="key ghost"/>
</g>
<g transform="translate(532, 42)" class="key ghost keypos-6">
<rect rx="6" ry="6" x="-26" y="-26" width="52" height="52" class="key ghost"/>
</g>
<g transform="translate(588, 35)" class="key ghost keypos-7">
<rect rx="6" ry="6" x="-26" y="-26" width="52" height="52" class="key ghost"/>
<text x="0" y="0" class="key ghost tap">PREV</text>
</g>
<g transform="translate(644, 28)" class="key keypos-8">
<rect rx="6" ry="6" x="-26" y="-26" width="52" height="52" class="key"/>
<text x="0" y="0" class="key tap">
<tspan x="0" dy="-0.6em">VOL</tspan><tspan x="0" dy="1.2em">UP</tspan>
</text>
</g>
<g transform="translate(700, 35)" class="key keypos-9">
<rect rx="6" ry="6" x="-26" y="-26" width="52" height="52" class="key"/>
<text x="0" y="0" class="key tap">
<tspan x="0" dy="-0.6em">BRI</tspan><tspan x="0" dy="1.2em">UP</tspan>
</text>
</g>
<g transform="translate(756, 49)" class="key ghost keypos-10">
<rect rx="6" ry="6" x="-26" y="-26" width="52" height="52" class="key ghost"/>
</g>
<g transform="translate(812, 49)" class="key ghost keypos-11">
<rect rx="6" ry="6" x="-26" y="-26" width="52" height="52" class="key ghost"/>
</g>
<g transform="translate(28, 105)" class="key ghost keypos-12">
<rect rx="6" ry="6" x="-26" y="-26" width="52" height="52" class="key ghost"/>
</g>
<g transform="translate(84, 105)" class="key keypos-13">
<rect rx="6" ry="6" x="-26" y="-26" width="52" height="52" class="key"/>
</g>
<g transform="translate(140, 91)" class="key keypos-14">
<rect rx="6" ry="6" x="-26" y="-26" width="52" height="52" class="key"/>
</g>
<g transform="translate(196, 84)" class="key keypos-15">
<rect rx="6" ry="6" x="-26" y="-26" width="52" height="52" class="key"/>
</g>
<g transform="translate(252, 91)" class="key keypos-16">
<rect rx="6" ry="6" x="-26" y="-26" width="52" height="52" class="key"/>
</g>
<g transform="translate(308, 98)" class="key ghost keypos-17">
<rect rx="6" ry="6" x="-26" y="-26" width="52" height="52" class="key ghost"/>
</g>
<g transform="translate(532, 98)" class="key ghost keypos-18">
<rect rx="6" ry="6" x="-26" y="-26" width="52" height="52" class="key ghost"/>
</g>
<g transform="translate(588, 91)" class="key keypos-19">
<rect rx="6" ry="6" x="-26" y="-26" width="52" height="52" class="key"/>
<text x="0" y="0" class="key tap">MUTE</text>
</g>
<g transform="translate(644, 84)" class="key keypos-20">
<rect rx="6" ry="6" x="-26" y="-26" width="52" height="52" class="key"/>
<text x="0" y="0" class="key tap">PP</text>
</g>
<g transform="translate(700, 91)" class="key keypos-21">
<rect rx="6" ry="6" x="-26" y="-26" width="52" height="52" class="key"/>
<text x="0" y="0" class="key tap">
<tspan x="0" dy="-0.6em">BRI</tspan><tspan x="0" dy="1.2em">DN</tspan>
</text>
</g>
<g transform="translate(756, 105)" class="key keypos-22">
<rect rx="6" ry="6" x="-26" y="-26" width="52" height="52" class="key"/>
<text x="0" y="0" class="key tap">
<tspan x="0" dy="-0.6em">Gui+Ctl</tspan><tspan x="0" dy="1.2em">+Q</tspan>
</text>
</g>
<g transform="translate(812, 105)" class="key ghost keypos-23">
<rect rx="6" ry="6" x="-26" y="-26" width="52" height="52" class="key ghost"/>
</g>
<g transform="translate(28, 161)" class="key ghost keypos-24">
<rect rx="6" ry="6" x="-26" y="-26" width="52" height="52" class="key ghost"/>
</g>
<g transform="translate(84, 161)" class="key ghost keypos-25">
<rect rx="6" ry="6" x="-26" y="-26" width="52" height="52" class="key ghost"/>
</g>
<g transform="translate(140, 147)" class="key ghost keypos-26">
<rect rx="6" ry="6" x="-26" y="-26" width="52" height="52" class="key ghost"/>
</g>
<g transform="translate(196, 140)" class="key ghost keypos-27">
<rect rx="6" ry="6" x="-26" y="-26" width="52" height="52" class="key ghost"/>
</g>
<g transform="translate(252, 147)" class="key keypos-28">
<rect rx="6" ry="6" x="-26" y="-26" width="52" height="52" class="key"/>
</g>
<g transform="translate(308, 154)" class="key ghost keypos-29">
<rect rx="6" ry="6" x="-26" y="-26" width="52" height="52" class="key ghost"/>
</g>
<g transform="translate(532, 154)" class="key ghost keypos-30">
<rect rx="6" ry="6" x="-26" y="-26" width="52" height="52" class="key ghost"/>
</g>
<g transform="translate(588, 147)" class="key keypos-31">
<rect rx="6" ry="6" x="-26" y="-26" width="52" height="52" class="key"/>
<text x="0" y="0" class="key tap">NEXT</text>
</g>
<g transform="translate(644, 140)" class="key ghost keypos-32">
<rect rx="6" ry="6" x="-26" y="-26" width="52" height="52" class="key ghost"/>
<text x="0" y="0" class="key ghost tap">
<tspan x="0" dy="-0.6em">VOL</tspan><tspan x="0" dy="1.2em">DN</tspan>
</text>
</g>
<g transform="translate(700, 147)" class="key ghost keypos-33">
<rect rx="6" ry="6" x="-26" y="-26" width="52" height="52" class="key ghost"/>
</g>
<g transform="translate(756, 161)" class="key ghost keypos-34">
<rect rx="6" ry="6" x="-26" y="-26" width="52" height="52" class="key ghost"/>
</g>
<g transform="translate(812, 161)" class="key ghost keypos-35">
<rect rx="6" ry="6" x="-26" y="-26" width="52" height="52" class="key ghost"/>
</g>
<g transform="translate(224, 205)" class="key trans keypos-36">
<rect rx="6" ry="6" x="-26" y="-26" width="52" height="52" class="key trans"/>
<text x="0" y="0" class="key trans tap">▽</text>
</g>
<g transform="translate(286, 213) rotate(15.0)" class="key trans keypos-37">
<rect rx="6" ry="6" x="-26" y="-26" width="52" height="52" class="key trans"/>
<text x="0" y="0" class="key trans tap">▽</text>
</g>
<g transform="translate(351, 224) rotate(30.0)" class="key ghost keypos-38">
<rect rx="6" ry="6" x="-26" y="-40" width="52" height="80" class="key ghost"/>
</g>
<g transform="translate(489, 224) rotate(-30.0)" class="key ghost keypos-39">
<rect rx="6" ry="6" x="-26" y="-40" width="52" height="80" class="key ghost"/>
</g>
<g transform="translate(554, 213) rotate(-15.0)" class="key held keypos-40">
<rect rx="6" ry="6" x="-26" y="-26" width="52" height="52" class="key held"/>
</g>
<g transform="translate(616, 205)" class="key trans keypos-41">
<rect rx="6" ry="6" x="-26" y="-26" width="52" height="52" class="key trans"/>
<text x="0" y="0" class="key trans tap">▽</text>
</g>
</g>
</g>
<g transform="translate(30, 1323)" class="layer-4">
<text x="0" y="28" class="label" id="x_x">4:</text>
<g transform="translate(0, 56)">
<g transform="translate(28, 49)" class="key ghost keypos-0">
<rect rx="6" ry="6" x="-26" y="-26" width="52" height="52" class="key ghost"/>
</g>
<g transform="translate(84, 49)" class="key ghost keypos-1">
<rect rx="6" ry="6" x="-26" y="-26" width="52" height="52" class="key ghost"/>
</g>
<g transform="translate(140, 35)" class="key keypos-2">
<rect rx="6" ry="6" x="-26" y="-26" width="52" height="52" class="key"/>
<text x="0" y="0" class="key tap">ESC</text>
</g>
<g transform="translate(196, 28)" class="key keypos-3">
<rect rx="6" ry="6" x="-26" y="-26" width="52" height="52" class="key"/>
<text x="0" y="0" class="key tap">TAB</text>
</g>
<g transform="translate(252, 35)" class="key ghost keypos-4">
<rect rx="6" ry="6" x="-26" y="-26" width="52" height="52" class="key ghost"/>
</g>
<g transform="translate(308, 42)" class="key ghost keypos-5">
<rect rx="6" ry="6" x="-26" y="-26" width="52" height="52" class="key ghost"/>
</g>
<g transform="translate(532, 42)" class="key ghost keypos-6">
<rect rx="6" ry="6" x="-26" y="-26" width="52" height="52" class="key ghost"/>
</g>
<g transform="translate(588, 35)" class="key ghost keypos-7">
<rect rx="6" ry="6" x="-26" y="-26" width="52" height="52" class="key ghost"/>
</g>
<g transform="translate(644, 28)" class="key keypos-8">
<rect rx="6" ry="6" x="-26" y="-26" width="52" height="52" class="key"/>
<text x="0" y="0" class="key tap">BSPC</text>
<text x="0" y="-24" class="key shifted">DEL</text>
</g>
<g transform="translate(700, 35)" class="key keypos-9">
<rect rx="6" ry="6" x="-26" y="-26" width="52" height="52" class="key"/>
<text x="0" y="0" class="key tap">ENTER</text>
</g>
<g transform="translate(756, 49)" class="key ghost keypos-10">
<rect rx="6" ry="6" x="-26" y="-26" width="52" height="52" class="key ghost"/>
</g>
<g transform="translate(812, 49)" class="key ghost keypos-11">
<rect rx="6" ry="6" x="-26" y="-26" width="52" height="52" class="key ghost"/>
</g>
<g transform="translate(28, 105)" class="key ghost keypos-12">
<rect rx="6" ry="6" x="-26" y="-26" width="52" height="52" class="key ghost"/>
</g>
<g transform="translate(84, 105)" class="key keypos-13">
<rect rx="6" ry="6" x="-26" y="-26" width="52" height="52" class="key"/>
</g>
<g transform="translate(140, 91)" class="key keypos-14">
<rect rx="6" ry="6" x="-26" y="-26" width="52" height="52" class="key"/>
</g>
<g transform="translate(196, 84)" class="key keypos-15">
<rect rx="6" ry="6" x="-26" y="-26" width="52" height="52" class="key"/>
</g>
<g transform="translate(252, 91)" class="key keypos-16">
<rect rx="6" ry="6" x="-26" y="-26" width="52" height="52" class="key"/>
</g>
<g transform="translate(308, 98)" class="key ghost keypos-17">
<rect rx="6" ry="6" x="-26" y="-26" width="52" height="52" class="key ghost"/>
</g>
<g transform="translate(532, 98)" class="key ghost keypos-18">
<rect rx="6" ry="6" x="-26" y="-26" width="52" height="52" class="key ghost"/>
<text x="0" y="0" class="key ghost tap">LEFT</text>
</g>
<g transform="translate(588, 91)" class="key keypos-19">
<rect rx="6" ry="6" x="-26" y="-26" width="52" height="52" class="key"/>
<text x="0" y="0" class="key tap">DOWN</text>
</g>
<g transform="translate(644, 84)" class="key keypos-20">
<rect rx="6" ry="6" x="-26" y="-26" width="52" height="52" class="key"/>
<text x="0" y="0" class="key tap">UP</text>
</g>
<g transform="translate(700, 91)" class="key keypos-21">
<rect rx="6" ry="6" x="-26" y="-26" width="52" height="52" class="key"/>
<text x="0" y="0" class="key tap">RIGHT</text>
</g>
<g transform="translate(756, 105)" class="key keypos-22">
<rect rx="6" ry="6" x="-26" y="-26" width="52" height="52" class="key"/>
</g>
<g transform="translate(812, 105)" class="key ghost keypos-23">
<rect rx="6" ry="6" x="-26" y="-26" width="52" height="52" class="key ghost"/>
</g>
<g transform="translate(28, 161)" class="key ghost keypos-24">
<rect rx="6" ry="6" x="-26" y="-26" width="52" height="52" class="key ghost"/>
</g>
<g transform="translate(84, 161)" class="key ghost keypos-25">
<rect rx="6" ry="6" x="-26" y="-26" width="52" height="52" class="key ghost"/>
</g>
<g transform="translate(140, 147)" class="key ghost keypos-26">
<rect rx="6" ry="6" x="-26" y="-26" width="52" height="52" class="key ghost"/>
</g>
<g transform="translate(196, 140)" class="key ghost keypos-27">
<rect rx="6" ry="6" x="-26" y="-26" width="52" height="52" class="key ghost"/>
</g>
<g transform="translate(252, 147)" class="key keypos-28">
<rect rx="6" ry="6" x="-26" y="-26" width="52" height="52" class="key"/>
</g>
<g transform="translate(308, 154)" class="key ghost keypos-29">
<rect rx="6" ry="6" x="-26" y="-26" width="52" height="52" class="key ghost"/>
</g>
<g transform="translate(532, 154)" class="key ghost keypos-30">
<rect rx="6" ry="6" x="-26" y="-26" width="52" height="52" class="key ghost"/>
</g>
<g transform="translate(588, 147)" class="key keypos-31">
<rect rx="6" ry="6" x="-26" y="-26" width="52" height="52" class="key"/>
</g>
<g transform="translate(644, 140)" class="key ghost keypos-32">
<rect rx="6" ry="6" x="-26" y="-26" width="52" height="52" class="key ghost"/>
</g>
<g transform="translate(700, 147)" class="key ghost keypos-33">
<rect rx="6" ry="6" x="-26" y="-26" width="52" height="52" class="key ghost"/>
</g>
<g transform="translate(756, 161)" class="key ghost keypos-34">
<rect rx="6" ry="6" x="-26" y="-26" width="52" height="52" class="key ghost"/>
</g>
<g transform="translate(812, 161)" class="key ghost keypos-35">
<rect rx="6" ry="6" x="-26" y="-26" width="52" height="52" class="key ghost"/>
</g>
<g transform="translate(224, 205)" class="key trans keypos-36">
<rect rx="6" ry="6" x="-26" y="-26" width="52" height="52" class="key trans"/>
<text x="0" y="0" class="key trans tap">▽</text>
</g>
<g transform="translate(286, 213) rotate(15.0)" class="key trans keypos-37">
<rect rx="6" ry="6" x="-26" y="-26" width="52" height="52" class="key trans"/>
<text x="0" y="0" class="key trans tap">▽</text>
</g>
<g transform="translate(351, 224) rotate(30.0)" class="key ghost keypos-38">
<rect rx="6" ry="6" x="-26" y="-40" width="52" height="80" class="key ghost"/>
</g>
<g transform="translate(489, 224) rotate(-30.0)" class="key ghost keypos-39">
<rect rx="6" ry="6" x="-26" y="-40" width="52" height="80" class="key ghost"/>
</g>
<g transform="translate(554, 213) rotate(-15.0)" class="key trans keypos-40">
<rect rx="6" ry="6" x="-26" y="-26" width="52" height="52" class="key trans"/>
<text x="0" y="0" class="key trans tap">▽</text>
</g>
<g transform="translate(616, 205)" class="key held keypos-41">
<rect rx="6" ry="6" x="-26" y="-26" width="52" height="52" class="key held"/>
</g>
</g>
</g>
<g transform="translate(30, 1653)" class="layer-5">
<text x="0" y="28" class="label" id="x_x">5:</text>
<g transform="translate(0, 56)">
<g transform="translate(28, 49)" class="key ghost keypos-0">
<rect rx="6" ry="6" x="-26" y="-26" width="52" height="52" class="key ghost"/>
</g>
<g transform="translate(84, 49)" class="key ghost keypos-1">
<rect rx="6" ry="6" x="-26" y="-26" width="52" height="52" class="key ghost"/>
</g>
<g transform="translate(140, 35)" class="key keypos-2">
<rect rx="6" ry="6" x="-26" y="-26" width="52" height="52" class="key"/>
<text x="0" y="0" class="key tap">
<tspan x="0" dy="-0.6em">BT</tspan><tspan x="0" dy="1.2em">CLR</tspan>
</text>
</g>
<g transform="translate(196, 28)" class="key keypos-3">
<rect rx="6" ry="6" x="-26" y="-26" width="52" height="52" class="key"/>
<text x="0" y="0" class="key tap"><tspan style="font-size: 64%">&amp;bootloader</tspan></text>
</g>
<g transform="translate(252, 35)" class="key ghost keypos-4">
<rect rx="6" ry="6" x="-26" y="-26" width="52" height="52" class="key ghost"/>
</g>
<g transform="translate(308, 42)" class="key ghost keypos-5">
<rect rx="6" ry="6" x="-26" y="-26" width="52" height="52" class="key ghost"/>
</g>
<g transform="translate(532, 42)" class="key ghost keypos-6">
<rect rx="6" ry="6" x="-26" y="-26" width="52" height="52" class="key ghost"/>
</g>
<g transform="translate(588, 35)" class="key ghost keypos-7">
<rect rx="6" ry="6" x="-26" y="-26" width="52" height="52" class="key ghost"/>
</g>
<g transform="translate(644, 28)" class="key keypos-8">
<rect rx="6" ry="6" x="-26" y="-26" width="52" height="52" class="key"/>
<text x="0" y="0" class="key tap"><tspan style="font-size: 64%">&amp;bootloader</tspan></text>
</g>
<g transform="translate(700, 35)" class="key keypos-9">
<rect rx="6" ry="6" x="-26" y="-26" width="52" height="52" class="key"/>
<text x="0" y="0" class="key tap">
<tspan x="0" dy="-0.6em">BT</tspan><tspan x="0" dy="1.2em">CLR</tspan>
</text>
</g>
<g transform="translate(756, 49)" class="key ghost keypos-10">
<rect rx="6" ry="6" x="-26" y="-26" width="52" height="52" class="key ghost"/>
</g>
<g transform="translate(812, 49)" class="key ghost keypos-11">
<rect rx="6" ry="6" x="-26" y="-26" width="52" height="52" class="key ghost"/>
</g>
<g transform="translate(28, 105)" class="key ghost keypos-12">
<rect rx="6" ry="6" x="-26" y="-26" width="52" height="52" class="key ghost"/>
</g>
<g transform="translate(84, 105)" class="key keypos-13">
<rect rx="6" ry="6" x="-26" y="-26" width="52" height="52" class="key"/>
<text x="0" y="0" class="key tap">BT</text>
<a href="#x_x">
<text x="0" y="24" class="key hold layer-activator">1</text>
</a></g>
<g transform="translate(140, 91)" class="key keypos-14">
<rect rx="6" ry="6" x="-26" y="-26" width="52" height="52" class="key"/>
<text x="0" y="0" class="key tap">BT</text>
<a href="#x_x">
<text x="0" y="24" class="key hold layer-activator">2</text>
</a></g>
<g transform="translate(196, 84)" class="key keypos-15">
<rect rx="6" ry="6" x="-26" y="-26" width="52" height="52" class="key"/>
<text x="0" y="0" class="key tap">BT</text>
<a href="#x_x">
<text x="0" y="24" class="key hold layer-activator">3</text>
</a></g>
<g transform="translate(252, 91)" class="key keypos-16">
<rect rx="6" ry="6" x="-26" y="-26" width="52" height="52" class="key"/>
<text x="0" y="0" class="key tap">BT</text>
<a href="#x_x">
<text x="0" y="24" class="key hold layer-activator">4</text>
</a></g>
<g transform="translate(308, 98)" class="key ghost keypos-17">
<rect rx="6" ry="6" x="-26" y="-26" width="52" height="52" class="key ghost"/>
</g>
<g transform="translate(532, 98)" class="key ghost keypos-18">
<rect rx="6" ry="6" x="-26" y="-26" width="52" height="52" class="key ghost"/>
</g>
<g transform="translate(588, 91)" class="key keypos-19">
<rect rx="6" ry="6" x="-26" y="-26" width="52" height="52" class="key"/>
<text x="0" y="0" class="key tap">BT</text>
<text x="0" y="24" class="key hold">7</text>
</g>
<g transform="translate(644, 84)" class="key keypos-20">
<rect rx="6" ry="6" x="-26" y="-26" width="52" height="52" class="key"/>
<text x="0" y="0" class="key tap">BT</text>
<text x="0" y="24" class="key hold">8</text>
</g>
<g transform="translate(700, 91)" class="key keypos-21">
<rect rx="6" ry="6" x="-26" y="-26" width="52" height="52" class="key"/>
<text x="0" y="0" class="key tap">BT</text>
<text x="0" y="24" class="key hold">9</text>
</g>
<g transform="translate(756, 105)" class="key keypos-22">
<rect rx="6" ry="6" x="-26" y="-26" width="52" height="52" class="key"/>
<text x="0" y="0" class="key tap">BT</text>
<a href="#x_x">
<text x="0" y="24" class="key hold layer-activator">0</text>
</a></g>
<g transform="translate(812, 105)" class="key ghost keypos-23">
<rect rx="6" ry="6" x="-26" y="-26" width="52" height="52" class="key ghost"/>
</g>
<g transform="translate(28, 161)" class="key ghost keypos-24">
<rect rx="6" ry="6" x="-26" y="-26" width="52" height="52" class="key ghost"/>
</g>
<g transform="translate(84, 161)" class="key ghost keypos-25">
<rect rx="6" ry="6" x="-26" y="-26" width="52" height="52" class="key ghost"/>
<a href="#x_x">
<text x="0" y="0" class="key ghost tap layer-activator">0</text>
</a></g>
<g transform="translate(140, 147)" class="key ghost keypos-26">
<rect rx="6" ry="6" x="-26" y="-26" width="52" height="52" class="key ghost"/>
</g>
<g transform="translate(196, 140)" class="key ghost keypos-27">
<rect rx="6" ry="6" x="-26" y="-26" width="52" height="52" class="key ghost"/>
</g>
<g transform="translate(252, 147)" class="key keypos-28">
<rect rx="6" ry="6" x="-26" y="-26" width="52" height="52" class="key"/>
<text x="0" y="0" class="key tap">BT</text>
<a href="#x_x">
<text x="0" y="24" class="key hold layer-activator">5</text>
</a></g>
<g transform="translate(308, 154)" class="key ghost keypos-29">
<rect rx="6" ry="6" x="-26" y="-26" width="52" height="52" class="key ghost"/>
</g>
<g transform="translate(532, 154)" class="key ghost keypos-30">
<rect rx="6" ry="6" x="-26" y="-26" width="52" height="52" class="key ghost"/>
</g>
<g transform="translate(588, 147)" class="key keypos-31">
<rect rx="6" ry="6" x="-26" y="-26" width="52" height="52" class="key"/>
<text x="0" y="0" class="key tap">BT</text>
<text x="0" y="24" class="key hold">6</text>
</g>
<g transform="translate(644, 140)" class="key ghost keypos-32">
<rect rx="6" ry="6" x="-26" y="-26" width="52" height="52" class="key ghost"/>
</g>
<g transform="translate(700, 147)" class="key ghost keypos-33">
<rect rx="6" ry="6" x="-26" y="-26" width="52" height="52" class="key ghost"/>
</g>
<g transform="translate(756, 161)" class="key ghost keypos-34">
<rect rx="6" ry="6" x="-26" y="-26" width="52" height="52" class="key ghost"/>
</g>
<g transform="translate(812, 161)" class="key ghost keypos-35">
<rect rx="6" ry="6" x="-26" y="-26" width="52" height="52" class="key ghost"/>
</g>
<g transform="translate(224, 205)" class="key trans keypos-36">
<rect rx="6" ry="6" x="-26" y="-26" width="52" height="52" class="key trans"/>
<text x="0" y="0" class="key trans tap">▽</text>
</g>
<g transform="translate(286, 213) rotate(15.0)" class="key held keypos-37">
<rect rx="6" ry="6" x="-26" y="-26" width="52" height="52" class="key held"/>
</g>
<g transform="translate(351, 224) rotate(30.0)" class="key ghost keypos-38">
<rect rx="6" ry="6" x="-26" y="-40" width="52" height="80" class="key ghost"/>
</g>
<g transform="translate(489, 224) rotate(-30.0)" class="key ghost keypos-39">
<rect rx="6" ry="6" x="-26" y="-40" width="52" height="80" class="key ghost"/>
</g>
<g transform="translate(554, 213) rotate(-15.0)" class="key held keypos-40">
<rect rx="6" ry="6" x="-26" y="-26" width="52" height="52" class="key held"/>
</g>
<g transform="translate(616, 205)" class="key trans keypos-41">
<rect rx="6" ry="6" x="-26" y="-26" width="52" height="52" class="key trans"/>
<text x="0" y="0" class="key trans tap">▽</text>
</g>
</g>
</g>
</svg>
