  0
SECTION
  2
HEADER
  9
$ACADVER
  1
AC1009
  9
$FILLMODE
 70
 0
  9
$SPLFRAME
 70
 1
  9
$EXTMIN
 10
0
 20
0
 30
0.0
  9
$EXTMAX
 10
41.6667
 20
41.6667
 30
0.0
  0
ENDSEC
  0
SECTION
  2
TABLES
  0
TABLE
  2
LAYER
 70
1
  0
LAYER
  2
0
 70
     0
 62
     7
  6
CONTINUOUS
  0
ENDTAB
  0
ENDSEC
  0
SECTION
  2
ENTITIES
  0
POLYLINE
  8
0
 62
     173
 66
     1
 10
0
 20
0
 30
0.0
 40
0.425197
 41
0.425197
  0
VERTEX
  8
0
 10
4.82319
 20
3.30067
 30
0.0
 40
0.00590551
 41
0.00590551
  0
VERTEX
  8
0
 10
4.82281
 20
3.53608
 30
0.0
 40
0.00590551
 41
0.00590551
  0
SEQEND
 8
0
  0
POLYLINE
  8
0
 62
     173
 66
     1
 10
0
 20
0
 30
0.0
 40
0.425197
 41
0.425197
  0
VERTEX
  8
0
 10
4.82281
 20
3.53608
 30
0.0
 40
0.00590551
 41
0.00590551
  0
VERTEX
  8
0
 10
3.07206
 20
3.53608
 30
0.0
 40
0.00590551
 41
0.00590551
  0
SEQEND
 8
0
  0
POLYLINE
  8
0
 62
     173
 66
     1
 10
0
 20
0
 30
0.0
 40
0.425197
 41
0.425197
  0
VERTEX
  8
0
 10
0.865235
 20
2.80485
 30
0.0
 40
0.00590551
 41
0.00590551
  0
VERTEX
  8
0
 10
0.865235
 20
3.00749
 30
0.0
 40
0.00590551
 41
0.00590551
  0
SEQEND
 8
0
  0
POLYLINE
  8
0
 62
     173
 66
     1
 10
0
 20
0
 30
0.0
 40
0.425197
 41
0.425197
  0
VERTEX
  8
0
 10
1.51693
 20
3.31956
 30
0.0
 40
0.00590551
 41
0.00590551
  0
VERTEX
  8
0
 10
0.884874
 20
3.31956
 30
0.0
 40
0.00590551
 41
0.00590551
  0
SEQEND
 8
0
  0
POLYLINE
  8
0
 62
     173
 66
     1
 10
0
 20
0
 30
0.0
 40
0.425197
 41
0.425197
  0
VERTEX
  8
0
 10
0.847601
 20
2.35499
 30
0.0
 40
0.00590551
 41
0.00590551
  0
VERTEX
  8
0
 10
0.844075
 20
2.35499
 30
0.0
 40
0.00590551
 41
0.00590551
  0
VERTEX
  8
0
 10
0.833658
 20
2.34924
 30
0.0
 40
0.00590551
 41
0.00590551
  0
VERTEX
  8
0
 10
0.827908
 20
2.33882
 30
0.0
 40
0.00590551
 41
0.00590551
  0
VERTEX
  8
0
 10
0.827908
 20
2.33529
 30
0.0
 40
0.00590551
 41
0.00590551
  0
SEQEND
 8
0
  0
POLYLINE
  8
0
 62
     173
 66
     1
 10
0
 20
0
 30
0.0
 40
0.425197
 41
0.425197
  0
VERTEX
  8
0
 10
0.827908
 20
2.33529
 30
0.0
 40
0.00590551
 41
0.00590551
  0
VERTEX
  8
0
 10
0.827908
 20
2.13271
 30
0.0
 40
0.00590551
 41
0.00590551
  0
SEQEND
 8
0
  0
POLYLINE
  8
0
 62
     173
 66
     1
 10
0
 20
0
 30
0.0
 40
0.425197
 41
0.425197
  0
VERTEX
  8
0
 10
0.865235
 20
2.33529
 30
0.0
 40
0.00590551
 41
0.00590551
  0
VERTEX
  8
0
 10
0.865235
 20
2.3386
 30
0.0
 40
0.00590551
 41
0.00590551
  0
VERTEX
  8
0
 10
0.860135
 20
2.34853
 30
0.0
 40
0.00590551
 41
0.00590551
  0
VERTEX
  8
0
 10
0.850097
 20
2.35471
 30
0.0
 40
0.00590551
 41
0.00590551
  0
VERTEX
  8
0
 10
0.847601
 20
2.35499
 30
0.0
 40
0.00590551
 41
0.00590551
  0
SEQEND
 8
0
  0
POLYLINE
  8
0
 62
     173
 66
     1
 10
0
 20
0
 30
0.0
 70
     1
 40
0.425197
 41
0.425197
  0
VERTEX
  8
0
 10
0.967665
 20
1.95469
 30
0.0
 40
0.00590551
 41
0.00590551
  0
VERTEX
  8
0
 10
0.967665
 20
1.96376
 30
0.0
 40
0.00590551
 41
0.00590551
  0
VERTEX
  8
0
 10
0.960558
 20
1.99089
 30
0.0
 40
0.00590551
 41
0.00590551
  0
VERTEX
  8
0
 10
0.941786
 20
2.01671
 30
0.0
 40
0.00590551
 41
0.00590551
  0
VERTEX
  8
0
 10
0.91531
 20
2.03222
 30
0.0
 40
0.00590551
 41
0.00590551
  0
VERTEX
  8
0
 10
0.884983
 20
2.03737
 30
0.0
 40
0.00590551
 41
0.00590551
  0
VERTEX
  8
0
 10
0.854656
 20
2.03222
 30
0.0
 40
0.00590551
 41
0.00590551
  0
VERTEX
  8
0
 10
0.828179
 20
2.01671
 30
0.0
 40
0.00590551
 41
0.00590551
  0
VERTEX
  8
0
 10
0.809407
 20
1.99089
 30
0.0
 40
0.00590551
 41
0.00590551
  0
VERTEX
  8
0
 10
0.802354
 20
1.96376
 30
0.0
 40
0.00590551
 41
0.00590551
  0
VERTEX
  8
0
 10
0.802354
 20
1.95469
 30
0.0
 40
0.00590551
 41
0.00590551
  0
VERTEX
  8
0
 10
0.802354
 20
1.94569
 30
0.0
 40
0.00590551
 41
0.00590551
  0
VERTEX
  8
0
 10
0.809407
 20
1.91857
 30
0.0
 40
0.00590551
 41
0.00590551
  0
VERTEX
  8
0
 10
0.828179
 20
1.89268
 30
0.0
 40
0.00590551
 41
0.00590551
  0
VERTEX
  8
0
 10
0.854656
 20
1.87722
 30
0.0
 40
0.00590551
 41
0.00590551
  0
VERTEX
  8
0
 10
0.884983
 20
1.87201
 30
0.0
 40
0.00590551
 41
0.00590551
  0
VERTEX
  8
0
 10
0.91531
 20
1.87722
 30
0.0
 40
0.00590551
 41
0.00590551
  0
VERTEX
  8
0
 10
0.941786
 20
1.89268
 30
0.0
 40
0.00590551
 41
0.00590551
  0
VERTEX
  8
0
 10
0.960558
 20
1.91857
 30
0.0
 40
0.00590551
 41
0.00590551
  0
VERTEX
  8
0
 10
0.967665
 20
1.94569
 30
0.0
 40
0.00590551
 41
0.00590551
  0
VERTEX
  8
0
 10
0.967665
 20
1.95469
 30
0.0
 40
0.00590551
 41
0.00590551
  0
SEQEND
 8
0
  0
POLYLINE
  8
0
 62
     173
 66
     1
 10
0
 20
0
 30
0.0
 40
0.425197
 41
0.425197
  0
VERTEX
  8
0
 10
0.865235
 20
1.2723
 30
0.0
 40
0.00590551
 41
0.00590551
  0
VERTEX
  8
0
 10
0.865235
 20
1.26883
 30
0.0
 40
0.00590551
 41
0.00590551
  0
VERTEX
  8
0
 10
0.870985
 20
1.25841
 30
0.0
 40
0.00590551
 41
0.00590551
  0
VERTEX
  8
0
 10
0.881401
 20
1.25266
 30
0.0
 40
0.00590551
 41
0.00590551
  0
VERTEX
  8
0
 10
0.884874
 20
1.25266
 30
0.0
 40
0.00590551
 41
0.00590551
  0
SEQEND
 8
0
  0
POLYLINE
  8
0
 62
     173
 66
     1
 10
0
 20
0
 30
0.0
 40
0.425197
 41
0.425197
  0
VERTEX
  8
0
 10
0.827908
 20
1.65213
 30
0.0
 40
0.00590551
 41
0.00590551
  0
VERTEX
  8
0
 10
0.827908
 20
1.2723
 30
0.0
 40
0.00590551
 41
0.00590551
  0
SEQEND
 8
0
  0
POLYLINE
  8
0
 62
     173
 66
     1
 10
0
 20
0
 30
0.0
 40
0.425197
 41
0.425197
  0
VERTEX
  8
0
 10
0.808268
 20
3.31956
 30
0.0
 40
0.00590551
 41
0.00590551
  0
VERTEX
  8
0
 10
0.158637
 20
3.31956
 30
0.0
 40
0.00590551
 41
0.00590551
  0
SEQEND
 8
0
  0
POLYLINE
  8
0
 62
     173
 66
     1
 10
0
 20
0
 30
0.0
 40
0.425197
 41
0.425197
  0
VERTEX
  8
0
 10
0.138943
 20
3.29986
 30
0.0
 40
0.00590551
 41
0.00590551
  0
VERTEX
  8
0
 10
0.138943
 20
1.2723
 30
0.0
 40
0.00590551
 41
0.00590551
  0
SEQEND
 8
0
  0
POLYLINE
  8
0
 62
     173
 66
     1
 10
0
 20
0
 30
0.0
 40
0.425197
 41
0.425197
  0
VERTEX
  8
0
 10
2.28461
 20
3.61486
 30
0.0
 40
0.00590551
 41
0.00590551
  0
VERTEX
  8
0
 10
2.28108
 20
3.61486
 30
0.0
 40
0.00590551
 41
0.00590551
  0
VERTEX
  8
0
 10
2.27067
 20
3.6091
 30
0.0
 40
0.00590551
 41
0.00590551
  0
VERTEX
  8
0
 10
2.26492
 20
3.59868
 30
0.0
 40
0.00590551
 41
0.00590551
  0
VERTEX
  8
0
 10
2.26492
 20
3.59517
 30
0.0
 40
0.00590551
 41
0.00590551
  0
SEQEND
 8
0
  0
POLYLINE
  8
0
 62
     173
 66
     1
 10
0
 20
0
 30
0.0
 40
0.425197
 41
0.425197
  0
VERTEX
  8
0
 10
0.827908
 20
3.23508
 30
0.0
 40
0.00590551
 41
0.00590551
  0
VERTEX
  8
0
 10
0.827908
 20
3.23161
 30
0.0
 40
0.00590551
 41
0.00590551
  0
VERTEX
  8
0
 10
0.833658
 20
3.22119
 30
0.0
 40
0.00590551
 41
0.00590551
  0
VERTEX
  8
0
 10
0.844075
 20
3.21539
 30
0.0
 40
0.00590551
 41
0.00590551
  0
VERTEX
  8
0
 10
0.847601
 20
3.21539
 30
0.0
 40
0.00590551
 41
0.00590551
  0
SEQEND
 8
0
  0
POLYLINE
  8
0
 62
     173
 66
     1
 10
0
 20
0
 30
0.0
 40
0.425197
 41
0.425197
  0
VERTEX
  8
0
 10
5.49328
 20
0.996744
 30
0.0
 40
0.00590551
 41
0.00590551
  0
VERTEX
  8
0
 10
5.50521
 20
1.01785
 30
0.0
 40
0.00590551
 41
0.00590551
  0
VERTEX
  8
0
 10
5.54899
 20
1.12988
 30
0.0
 40
0.00590551
 41
0.00590551
  0
VERTEX
  8
0
 10
5.57101
 20
1.2481
 30
0.0
 40
0.00590551
 41
0.00590551
  0
VERTEX
  8
0
 10
5.57206
 20
1.2723
 30
0.0
 40
0.00590551
 41
0.00590551
  0
SEQEND
 8
0
  0
POLYLINE
  8
0
 62
     173
 66
     1
 10
0
 20
0
 30
0.0
 40
0.425197
 41
0.425197
  0
VERTEX
  8
0
 10
0.884874
 20
3.31956
 30
0.0
 40
0.00590551
 41
0.00590551
  0
VERTEX
  8
0
 10
0.881401
 20
3.31956
 30
0.0
 40
0.00590551
 41
0.00590551
  0
VERTEX
  8
0
 10
0.870985
 20
3.31381
 30
0.0
 40
0.00590551
 41
0.00590551
  0
VERTEX
  8
0
 10
0.865235
 20
3.30339
 30
0.0
 40
0.00590551
 41
0.00590551
  0
VERTEX
  8
0
 10
0.865235
 20
3.29986
 30
0.0
 40
0.00590551
 41
0.00590551
  0
SEQEND
 8
0
  0
POLYLINE
  8
0
 62
     173
 66
     1
 10
0
 20
0
 30
0.0
 40
0.425197
 41
0.425197
  0
VERTEX
  8
0
 10
0.158637
 20
3.31956
 30
0.0
 40
0.00590551
 41
0.00590551
  0
VERTEX
  8
0
 10
0.155111
 20
3.31956
 30
0.0
 40
0.00590551
 41
0.00590551
  0
VERTEX
  8
0
 10
0.144694
 20
3.31381
 30
0.0
 40
0.00590551
 41
0.00590551
  0
VERTEX
  8
0
 10
0.138943
 20
3.30339
 30
0.0
 40
0.00590551
 41
0.00590551
  0
VERTEX
  8
0
 10
0.138943
 20
3.29986
 30
0.0
 40
0.00590551
 41
0.00590551
  0
SEQEND
 8
0
  0
POLYLINE
  8
0
 62
     173
 66
     1
 10
0
 20
0
 30
0.0
 70
     1
 40
0.425197
 41
0.425197
  0
VERTEX
  8
0
 10
5.53271
 20
3.4656
 30
0.0
 40
0.00590551
 41
0.00590551
  0
VERTEX
  8
0
 10
5.53271
 20
3.47385
 30
0.0
 40
0.00590551
 41
0.00590551
  0
VERTEX
  8
0
 10
5.51899
 20
3.49849
 30
0.0
 40
0.00590551
 41
0.00590551
  0
VERTEX
  8
0
 10
5.48893
 20
3.50939
 30
0.0
 40
0.00590551
 41
0.00590551
  0
VERTEX
  8
0
 10
5.45882
 20
3.49849
 30
0.0
 40
0.00590551
 41
0.00590551
  0
VERTEX
  8
0
 10
5.44515
 20
3.47385
 30
0.0
 40
0.00590551
 41
0.00590551
  0
VERTEX
  8
0
 10
5.44515
 20
3.4656
 30
0.0
 40
0.00590551
 41
0.00590551
  0
VERTEX
  8
0
 10
5.44515
 20
3.45742
 30
0.0
 40
0.00590551
 41
0.00590551
  0
VERTEX
  8
0
 10
5.45882
 20
3.43278
 30
0.0
 40
0.00590551
 41
0.00590551
  0
VERTEX
  8
0
 10
5.48893
 20
3.42182
 30
0.0
 40
0.00590551
 41
0.00590551
  0
VERTEX
  8
0
 10
5.51899
 20
3.43278
 30
0.0
 40
0.00590551
 41
0.00590551
  0
VERTEX
  8
0
 10
5.53271
 20
3.45742
 30
0.0
 40
0.00590551
 41
0.00590551
  0
VERTEX
  8
0
 10
5.53271
 20
3.4656
 30
0.0
 40
0.00590551
 41
0.00590551
  0
SEQEND
 8
0
  0
POLYLINE
  8
0
 62
     173
 66
     1
 10
0
 20
0
 30
0.0
 70
     1
 40
0.425197
 41
0.425197
  0
VERTEX
  8
0
 10
1.67649
 20
2.81506
 30
0.0
 40
0.00590551
 41
0.00590551
  0
VERTEX
  8
0
 10
1.67649
 20
2.82411
 30
0.0
 40
0.00590551
 41
0.00590551
  0
VERTEX
  8
0
 10
1.66938
 20
2.85124
 30
0.0
 40
0.00590551
 41
0.00590551
  0
VERTEX
  8
0
 10
1.65061
 20
2.87706
 30
0.0
 40
0.00590551
 41
0.00590551
  0
VERTEX
  8
0
 10
1.62414
 20
2.89258
 30
0.0
 40
0.00590551
 41
0.00590551
  0
VERTEX
  8
0
 10
1.59381
 20
2.89774
 30
0.0
 40
0.00590551
 41
0.00590551
  0
VERTEX
  8
0
 10
1.56347
 20
2.89258
 30
0.0
 40
0.00590551
 41
0.00590551
  0
VERTEX
  8
0
 10
1.537
 20
2.87706
 30
0.0
 40
0.00590551
 41
0.00590551
  0
VERTEX
  8
0
 10
1.51824
 20
2.85124
 30
0.0
 40
0.00590551
 41
0.00590551
  0
VERTEX
  8
0
 10
1.51118
 20
2.82411
 30
0.0
 40
0.00590551
 41
0.00590551
  0
VERTEX
  8
0
 10
1.51118
 20
2.81506
 30
0.0
 40
0.00590551
 41
0.00590551
  0
VERTEX
  8
0
 10
1.51118
 20
2.80604
 30
0.0
 40
0.00590551
 41
0.00590551
  0
VERTEX
  8
0
 10
1.51824
 20
2.77892
 30
0.0
 40
0.00590551
 41
0.00590551
  0
VERTEX
  8
0
 10
1.537
 20
2.75304
 30
0.0
 40
0.00590551
 41
0.00590551
  0
VERTEX
  8
0
 10
1.56347
 20
2.73757
 30
0.0
 40
0.00590551
 41
0.00590551
  0
VERTEX
  8
0
 10
1.59381
 20
2.73236
 30
0.0
 40
0.00590551
 41
0.00590551
  0
VERTEX
  8
0
 10
1.62414
 20
2.73757
 30
0.0
 40
0.00590551
 41
0.00590551
  0
VERTEX
  8
0
 10
1.65061
 20
2.75304
 30
0.0
 40
0.00590551
 41
0.00590551
  0
VERTEX
  8
0
 10
1.66938
 20
2.77892
 30
0.0
 40
0.00590551
 41
0.00590551
  0
VERTEX
  8
0
 10
1.67649
 20
2.80604
 30
0.0
 40
0.00590551
 41
0.00590551
  0
VERTEX
  8
0
 10
1.67649
 20
2.81506
 30
0.0
 40
0.00590551
 41
0.00590551
  0
SEQEND
 8
0
  0
POLYLINE
  8
0
 62
     173
 66
     1
 10
0
 20
0
 30
0.0
 40
0.425197
 41
0.425197
  0
VERTEX
  8
0
 10
5.17833
 20
3.53608
 30
0.0
 40
0.00590551
 41
0.00590551
  0
VERTEX
  8
0
 10
5.17833
 20
3.30067
 30
0.0
 40
0.00590551
 41
0.00590551
  0
SEQEND
 8
0
  0
POLYLINE
  8
0
 62
     173
 66
     1
 10
0
 20
0
 30
0.0
 40
0.425197
 41
0.425197
  0
VERTEX
  8
0
 10
1.53657
 20
3.33925
 30
0.0
 40
0.00590551
 41
0.00590551
  0
VERTEX
  8
0
 10
1.53657
 20
3.49675
 30
0.0
 40
0.00590551
 41
0.00590551
  0
SEQEND
 8
0
  0
POLYLINE
  8
0
 62
     173
 66
     1
 10
0
 20
0
 30
0.0
 40
0.425197
 41
0.425197
  0
VERTEX
  8
0
 10
0.865235
 20
1.65213
 30
0.0
 40
0.00590551
 41
0.00590551
  0
VERTEX
  8
0
 10
0.865235
 20
1.65543
 30
0.0
 40
0.00590551
 41
0.00590551
  0
VERTEX
  8
0
 10
0.860135
 20
1.66531
 30
0.0
 40
0.00590551
 41
0.00590551
  0
VERTEX
  8
0
 10
0.850097
 20
1.6715
 30
0.0
 40
0.00590551
 41
0.00590551
  0
VERTEX
  8
0
 10
0.847601
 20
1.67176
 30
0.0
 40
0.00590551
 41
0.00590551
  0
SEQEND
 8
0
  0
POLYLINE
  8
0
 62
     173
 66
     1
 10
0
 20
0
 30
0.0
 40
0.425197
 41
0.425197
  0
VERTEX
  8
0
 10
0.827908
 20
3.29986
 30
0.0
 40
0.00590551
 41
0.00590551
  0
VERTEX
  8
0
 10
0.827908
 20
3.23508
 30
0.0
 40
0.00590551
 41
0.00590551
  0
SEQEND
 8
0
  0
POLYLINE
  8
0
 62
     173
 66
     1
 10
0
 20
0
 30
0.0
 40
0.425197
 41
0.425197
  0
VERTEX
  8
0
 10
1.55626
 20
3.51644
 30
0.0
 40
0.00590551
 41
0.00590551
  0
VERTEX
  8
0
 10
1.55274
 20
3.51644
 30
0.0
 40
0.00590551
 41
0.00590551
  0
VERTEX
  8
0
 10
1.54232
 20
3.51069
 30
0.0
 40
0.00590551
 41
0.00590551
  0
VERTEX
  8
0
 10
1.53657
 20
3.50028
 30
0.0
 40
0.00590551
 41
0.00590551
  0
VERTEX
  8
0
 10
1.53657
 20
3.49675
 30
0.0
 40
0.00590551
 41
0.00590551
  0
SEQEND
 8
0
  0
POLYLINE
  8
0
 62
     173
 66
     1
 10
0
 20
0
 30
0.0
 40
0.425197
 41
0.425197
  0
VERTEX
  8
0
 10
2.24522
 20
3.51644
 30
0.0
 40
0.00590551
 41
0.00590551
  0
VERTEX
  8
0
 10
2.24869
 20
3.51644
 30
0.0
 40
0.00590551
 41
0.00590551
  0
VERTEX
  8
0
 10
2.25911
 20
3.52219
 30
0.0
 40
0.00590551
 41
0.00590551
  0
VERTEX
  8
0
 10
2.26492
 20
3.53261
 30
0.0
 40
0.00590551
 41
0.00590551
  0
VERTEX
  8
0
 10
2.26492
 20
3.53608
 30
0.0
 40
0.00590551
 41
0.00590551
  0
SEQEND
 8
0
  0
POLYLINE
  8
0
 62
     173
 66
     1
 10
0
 20
0
 30
0.0
 40
0.425197
 41
0.425197
  0
VERTEX
  8
0
 10
5.57206
 20
3.51644
 30
0.0
 40
0.00590551
 41
0.00590551
  0
VERTEX
  8
0
 10
5.57206
 20
1.2723
 30
0.0
 40
0.00590551
 41
0.00590551
  0
SEQEND
 8
0
  0
POLYLINE
  8
0
 62
     173
 66
     1
 10
0
 20
0
 30
0.0
 70
     1
 40
0.425197
 41
0.425197
  0
VERTEX
  8
0
 10
2.63108
 20
1.21327
 30
0.0
 40
0.00590551
 41
0.00590551
  0
VERTEX
  8
0
 10
2.63108
 20
1.22233
 30
0.0
 40
0.00590551
 41
0.00590551
  0
VERTEX
  8
0
 10
2.62397
 20
1.24946
 30
0.0
 40
0.00590551
 41
0.00590551
  0
VERTEX
  8
0
 10
2.60519
 20
1.27528
 30
0.0
 40
0.00590551
 41
0.00590551
  0
VERTEX
  8
0
 10
2.57872
 20
1.2908
 30
0.0
 40
0.00590551
 41
0.00590551
  0
VERTEX
  8
0
 10
2.54839
 20
1.29595
 30
0.0
 40
0.00590551
 41
0.00590551
  0
VERTEX
  8
0
 10
2.51801
 20
1.2908
 30
0.0
 40
0.00590551
 41
0.00590551
  0
VERTEX
  8
0
 10
2.49154
 20
1.27528
 30
0.0
 40
0.00590551
 41
0.00590551
  0
VERTEX
  8
0
 10
2.47276
 20
1.24946
 30
0.0
 40
0.00590551
 41
0.00590551
  0
VERTEX
  8
0
 10
2.46571
 20
1.22233
 30
0.0
 40
0.00590551
 41
0.00590551
  0
VERTEX
  8
0
 10
2.46571
 20
1.21327
 30
0.0
 40
0.00590551
 41
0.00590551
  0
VERTEX
  8
0
 10
2.46571
 20
1.20426
 30
0.0
 40
0.00590551
 41
0.00590551
  0
VERTEX
  8
0
 10
2.47276
 20
1.17714
 30
0.0
 40
0.00590551
 41
0.00590551
  0
VERTEX
  8
0
 10
2.49154
 20
1.15126
 30
0.0
 40
0.00590551
 41
0.00590551
  0
VERTEX
  8
0
 10
2.51801
 20
1.1358
 30
0.0
 40
0.00590551
 41
0.00590551
  0
VERTEX
  8
0
 10
2.54839
 20
1.13059
 30
0.0
 40
0.00590551
 41
0.00590551
  0
VERTEX
  8
0
 10
2.57872
 20
1.1358
 30
0.0
 40
0.00590551
 41
0.00590551
  0
VERTEX
  8
0
 10
2.60519
 20
1.15126
 30
0.0
 40
0.00590551
 41
0.00590551
  0
VERTEX
  8
0
 10
2.62397
 20
1.17714
 30
0.0
 40
0.00590551
 41
0.00590551
  0
VERTEX
  8
0
 10
2.63108
 20
1.20426
 30
0.0
 40
0.00590551
 41
0.00590551
  0
VERTEX
  8
0
 10
2.63108
 20
1.21327
 30
0.0
 40
0.00590551
 41
0.00590551
  0
SEQEND
 8
0
  0
POLYLINE
  8
0
 62
     173
 66
     1
 10
0
 20
0
 30
0.0
 40
0.425197
 41
0.425197
  0
VERTEX
  8
0
 10
0.827908
 20
3.00749
 30
0.0
 40
0.00590551
 41
0.00590551
  0
VERTEX
  8
0
 10
0.827908
 20
2.80485
 30
0.0
 40
0.00590551
 41
0.00590551
  0
SEQEND
 8
0
  0
POLYLINE
  8
0
 62
     173
 66
     1
 10
0
 20
0
 30
0.0
 40
0.425197
 41
0.425197
  0
VERTEX
  8
0
 10
0.827908
 20
3.29986
 30
0.0
 40
0.00590551
 41
0.00590551
  0
VERTEX
  8
0
 10
0.827908
 20
3.30339
 30
0.0
 40
0.00590551
 41
0.00590551
  0
VERTEX
  8
0
 10
0.822157
 20
3.31381
 30
0.0
 40
0.00590551
 41
0.00590551
  0
VERTEX
  8
0
 10
0.81174
 20
3.31956
 30
0.0
 40
0.00590551
 41
0.00590551
  0
VERTEX
  8
0
 10
0.808268
 20
3.31956
 30
0.0
 40
0.00590551
 41
0.00590551
  0
SEQEND
 8
0
  0
POLYLINE
  8
0
 62
     173
 66
     1
 10
0
 20
0
 30
0.0
 40
0.425197
 41
0.425197
  0
VERTEX
  8
0
 10
3.05236
 20
3.59517
 30
0.0
 40
0.00590551
 41
0.00590551
  0
VERTEX
  8
0
 10
3.05236
 20
3.59868
 30
0.0
 40
0.00590551
 41
0.00590551
  0
VERTEX
  8
0
 10
3.04656
 20
3.6091
 30
0.0
 40
0.00590551
 41
0.00590551
  0
VERTEX
  8
0
 10
3.03614
 20
3.61486
 30
0.0
 40
0.00590551
 41
0.00590551
  0
VERTEX
  8
0
 10
3.03267
 20
3.61486
 30
0.0
 40
0.00590551
 41
0.00590551
  0
SEQEND
 8
0
  0
POLYLINE
  8
0
 62
     173
 66
     1
 10
0
 20
0
 30
0.0
 40
0.425197
 41
0.425197
  0
VERTEX
  8
0
 10
0.865235
 20
3.00749
 30
0.0
 40
0.00590551
 41
0.00590551
  0
VERTEX
  8
0
 10
0.865235
 20
3.01079
 30
0.0
 40
0.00590551
 41
0.00590551
  0
VERTEX
  8
0
 10
0.860135
 20
3.02072
 30
0.0
 40
0.00590551
 41
0.00590551
  0
VERTEX
  8
0
 10
0.850097
 20
3.02692
 30
0.0
 40
0.00590551
 41
0.00590551
  0
VERTEX
  8
0
 10
0.847601
 20
3.02718
 30
0.0
 40
0.00590551
 41
0.00590551
  0
SEQEND
 8
0
  0
POLYLINE
  8
0
 62
     173
 66
     1
 10
0
 20
0
 30
0.0
 70
     1
 40
0.425197
 41
0.425197
  0
VERTEX
  8
0
 10
0.967665
 20
2.62424
 30
0.0
 40
0.00590551
 41
0.00590551
  0
VERTEX
  8
0
 10
0.967665
 20
2.63331
 30
0.0
 40
0.00590551
 41
0.00590551
  0
VERTEX
  8
0
 10
0.960558
 20
2.66043
 30
0.0
 40
0.00590551
 41
0.00590551
  0
VERTEX
  8
0
 10
0.941786
 20
2.68625
 30
0.0
 40
0.00590551
 41
0.00590551
  0
VERTEX
  8
0
 10
0.91531
 20
2.70176
 30
0.0
 40
0.00590551
 41
0.00590551
  0
VERTEX
  8
0
 10
0.884983
 20
2.70692
 30
0.0
 40
0.00590551
 41
0.00590551
  0
VERTEX
  8
0
 10
0.854656
 20
2.70176
 30
0.0
 40
0.00590551
 41
0.00590551
  0
VERTEX
  8
0
 10
0.828179
 20
2.68625
 30
0.0
 40
0.00590551
 41
0.00590551
  0
VERTEX
  8
0
 10
0.809407
 20
2.66043
 30
0.0
 40
0.00590551
 41
0.00590551
  0
VERTEX
  8
0
 10
0.802354
 20
2.63331
 30
0.0
 40
0.00590551
 41
0.00590551
  0
VERTEX
  8
0
 10
0.802354
 20
2.62424
 30
0.0
 40
0.00590551
 41
0.00590551
  0
VERTEX
  8
0
 10
0.802354
 20
2.61524
 30
0.0
 40
0.00590551
 41
0.00590551
  0
VERTEX
  8
0
 10
0.809407
 20
2.58811
 30
0.0
 40
0.00590551
 41
0.00590551
  0
VERTEX
  8
0
 10
0.828179
 20
2.56222
 30
0.0
 40
0.00590551
 41
0.00590551
  0
VERTEX
  8
0
 10
0.854656
 20
2.54676
 30
0.0
 40
0.00590551
 41
0.00590551
  0
VERTEX
  8
0
 10
0.884983
 20
2.54156
 30
0.0
 40
0.00590551
 41
0.00590551
  0
VERTEX
  8
0
 10
0.91531
 20
2.54676
 30
0.0
 40
0.00590551
 41
0.00590551
  0
VERTEX
  8
0
 10
0.941786
 20
2.56222
 30
0.0
 40
0.00590551
 41
0.00590551
  0
VERTEX
  8
0
 10
0.960558
 20
2.58811
 30
0.0
 40
0.00590551
 41
0.00590551
  0
VERTEX
  8
0
 10
0.967665
 20
2.61524
 30
0.0
 40
0.00590551
 41
0.00590551
  0
VERTEX
  8
0
 10
0.967665
 20
2.62424
 30
0.0
 40
0.00590551
 41
0.00590551
  0
SEQEND
 8
0
  0
POLYLINE
  8
0
 62
     173
 66
     1
 10
0
 20
0
 30
0.0
 40
0.425197
 41
0.425197
  0
VERTEX
  8
0
 10
0.808268
 20
1.25266
 30
0.0
 40
0.00590551
 41
0.00590551
  0
VERTEX
  8
0
 10
0.158637
 20
1.25266
 30
0.0
 40
0.00590551
 41
0.00590551
  0
SEQEND
 8
0
  0
POLYLINE
  8
0
 62
     173
 66
     1
 10
0
 20
0
 30
0.0
 40
0.425197
 41
0.425197
  0
VERTEX
  8
0
 10
2.26492
 20
3.59517
 30
0.0
 40
0.00590551
 41
0.00590551
  0
VERTEX
  8
0
 10
2.26492
 20
3.53608
 30
0.0
 40
0.00590551
 41
0.00590551
  0
SEQEND
 8
0
  0
POLYLINE
  8
0
 62
     173
 66
     1
 10
0
 20
0
 30
0.0
 40
0.425197
 41
0.425197
  0
VERTEX
  8
0
 10
4.62711
 20
0.0912001
 30
0.0
 40
0.00590551
 41
0.00590551
  0
VERTEX
  8
0
 10
4.53157
 20
0.153321
 30
0.0
 40
0.00590551
 41
0.00590551
  0
VERTEX
  8
0
 10
4.22569
 20
0.309842
 30
0.0
 40
0.00590551
 41
0.00590551
  0
VERTEX
  8
0
 10
3.7979
 20
0.46289
 30
0.0
 40
0.00590551
 41
0.00590551
  0
VERTEX
  8
0
 10
3.35161
 20
0.548232
 30
0.0
 40
0.00590551
 41
0.00590551
  0
VERTEX
  8
0
 10
3.00863
 20
0.568685
 30
0.0
 40
0.00590551
 41
0.00590551
  0
VERTEX
  8
0
 10
2.89486
 20
0.563639
 30
0.0
 40
0.00590551
 41
0.00590551
  0
SEQEND
 8
0
  0
POLYLINE
  8
0
 62
     173
 66
     1
 10
0
 20
0
 30
0.0
 40
0.425197
 41
0.425197
  0
VERTEX
  8
0
 10
2.28461
 20
3.61486
 30
0.0
 40
0.00590551
 41
0.00590551
  0
VERTEX
  8
0
 10
3.03267
 20
3.61486
 30
0.0
 40
0.00590551
 41
0.00590551
  0
SEQEND
 8
0
  0
POLYLINE
  8
0
 62
     173
 66
     1
 10
0
 20
0
 30
0.0
 40
0.425197
 41
0.425197
  0
VERTEX
  8
0
 10
0.847601
 20
3.21539
 30
0.0
 40
0.00590551
 41
0.00590551
  0
VERTEX
  8
0
 10
0.850097
 20
3.21571
 30
0.0
 40
0.00590551
 41
0.00590551
  0
VERTEX
  8
0
 10
0.860135
 20
3.2219
 30
0.0
 40
0.00590551
 41
0.00590551
  0
VERTEX
  8
0
 10
0.865235
 20
3.23182
 30
0.0
 40
0.00590551
 41
0.00590551
  0
VERTEX
  8
0
 10
0.865235
 20
3.23508
 30
0.0
 40
0.00590551
 41
0.00590551
  0
SEQEND
 8
0
  0
POLYLINE
  8
0
 62
     173
 66
     1
 10
0
 20
0
 30
0.0
 70
     1
 40
0.425197
 41
0.425197
  0
VERTEX
  8
0
 10
5.53271
 20
1.42535
 30
0.0
 40
0.00590551
 41
0.00590551
  0
VERTEX
  8
0
 10
5.53271
 20
1.4336
 30
0.0
 40
0.00590551
 41
0.00590551
  0
VERTEX
  8
0
 10
5.51899
 20
1.45822
 30
0.0
 40
0.00590551
 41
0.00590551
  0
VERTEX
  8
0
 10
5.48893
 20
1.46913
 30
0.0
 40
0.00590551
 41
0.00590551
  0
VERTEX
  8
0
 10
5.45882
 20
1.45822
 30
0.0
 40
0.00590551
 41
0.00590551
  0
VERTEX
  8
0
 10
5.44515
 20
1.4336
 30
0.0
 40
0.00590551
 41
0.00590551
  0
VERTEX
  8
0
 10
5.44515
 20
1.42535
 30
0.0
 40
0.00590551
 41
0.00590551
  0
VERTEX
  8
0
 10
5.44515
 20
1.41715
 30
0.0
 40
0.00590551
 41
0.00590551
  0
VERTEX
  8
0
 10
5.45882
 20
1.39253
 30
0.0
 40
0.00590551
 41
0.00590551
  0
VERTEX
  8
0
 10
5.48893
 20
1.38157
 30
0.0
 40
0.00590551
 41
0.00590551
  0
VERTEX
  8
0
 10
5.51899
 20
1.39253
 30
0.0
 40
0.00590551
 41
0.00590551
  0
VERTEX
  8
0
 10
5.53271
 20
1.41715
 30
0.0
 40
0.00590551
 41
0.00590551
  0
VERTEX
  8
0
 10
5.53271
 20
1.42535
 30
0.0
 40
0.00590551
 41
0.00590551
  0
SEQEND
 8
0
  0
POLYLINE
  8
0
 62
     173
 66
     1
 10
0
 20
0
 30
0.0
 70
     1
 40
0.425197
 41
0.425197
  0
VERTEX
  8
0
 10
4.40272
 20
1.2723
 30
0.0
 40
0.00590551
 41
0.00590551
  0
VERTEX
  8
0
 10
4.40272
 20
1.28136
 30
0.0
 40
0.00590551
 41
0.00590551
  0
VERTEX
  8
0
 10
4.39561
 20
1.30848
 30
0.0
 40
0.00590551
 41
0.00590551
  0
VERTEX
  8
0
 10
4.37685
 20
1.33431
 30
0.0
 40
0.00590551
 41
0.00590551
  0
VERTEX
  8
0
 10
4.35037
 20
1.34983
 30
0.0
 40
0.00590551
 41
0.00590551
  0
VERTEX
  8
0
 10
4.32004
 20
1.35498
 30
0.0
 40
0.00590551
 41
0.00590551
  0
VERTEX
  8
0
 10
4.28965
 20
1.34983
 30
0.0
 40
0.00590551
 41
0.00590551
  0
VERTEX
  8
0
 10
4.26318
 20
1.33431
 30
0.0
 40
0.00590551
 41
0.00590551
  0
VERTEX
  8
0
 10
4.24442
 20
1.30848
 30
0.0
 40
0.00590551
 41
0.00590551
  0
VERTEX
  8
0
 10
4.23736
 20
1.28136
 30
0.0
 40
0.00590551
 41
0.00590551
  0
VERTEX
  8
0
 10
4.23736
 20
1.2723
 30
0.0
 40
0.00590551
 41
0.00590551
  0
VERTEX
  8
0
 10
4.23736
 20
1.26329
 30
0.0
 40
0.00590551
 41
0.00590551
  0
VERTEX
  8
0
 10
4.24442
 20
1.23617
 30
0.0
 40
0.00590551
 41
0.00590551
  0
VERTEX
  8
0
 10
4.26318
 20
1.21034
 30
0.0
 40
0.00590551
 41
0.00590551
  0
VERTEX
  8
0
 10
4.28965
 20
1.19482
 30
0.0
 40
0.00590551
 41
0.00590551
  0
VERTEX
  8
0
 10
4.32004
 20
1.18967
 30
0.0
 40
0.00590551
 41
0.00590551
  0
VERTEX
  8
0
 10
4.35037
 20
1.19482
 30
0.0
 40
0.00590551
 41
0.00590551
  0
VERTEX
  8
0
 10
4.37685
 20
1.21034
 30
0.0
 40
0.00590551
 41
0.00590551
  0
VERTEX
  8
0
 10
4.39561
 20
1.23617
 30
0.0
 40
0.00590551
 41
0.00590551
  0
VERTEX
  8
0
 10
4.40272
 20
1.26329
 30
0.0
 40
0.00590551
 41
0.00590551
  0
VERTEX
  8
0
 10
4.40272
 20
1.2723
 30
0.0
 40
0.00590551
 41
0.00590551
  0
SEQEND
 8
0
  0
POLYLINE
  8
0
 62
     173
 66
     1
 10
0
 20
0
 30
0.0
 40
0.425197
 41
0.425197
  0
VERTEX
  8
0
 10
0.808268
 20
1.25266
 30
0.0
 40
0.00590551
 41
0.00590551
  0
VERTEX
  8
0
 10
0.81174
 20
1.25266
 30
0.0
 40
0.00590551
 41
0.00590551
  0
VERTEX
  8
0
 10
0.822157
 20
1.25841
 30
0.0
 40
0.00590551
 41
0.00590551
  0
VERTEX
  8
0
 10
0.827908
 20
1.26883
 30
0.0
 40
0.00590551
 41
0.00590551
  0
VERTEX
  8
0
 10
0.827908
 20
1.2723
 30
0.0
 40
0.00590551
 41
0.00590551
  0
SEQEND
 8
0
  0
POLYLINE
  8
0
 62
     173
 66
     1
 10
0
 20
0
 30
0.0
 40
0.425197
 41
0.425197
  0
VERTEX
  8
0
 10
0.847601
 20
3.02718
 30
0.0
 40
0.00590551
 41
0.00590551
  0
VERTEX
  8
0
 10
0.844075
 20
3.02718
 30
0.0
 40
0.00590551
 41
0.00590551
  0
VERTEX
  8
0
 10
0.833658
 20
3.02143
 30
0.0
 40
0.00590551
 41
0.00590551
  0
VERTEX
  8
0
 10
0.827908
 20
3.01101
 30
0.0
 40
0.00590551
 41
0.00590551
  0
VERTEX
  8
0
 10
0.827908
 20
3.00749
 30
0.0
 40
0.00590551
 41
0.00590551
  0
SEQEND
 8
0
  0
POLYLINE
  8
0
 62
     173
 66
     1
 10
0
 20
0
 30
0.0
 40
0.425197
 41
0.425197
  0
VERTEX
  8
0
 10
3.05236
 20
3.59517
 30
0.0
 40
0.00590551
 41
0.00590551
  0
VERTEX
  8
0
 10
3.05236
 20
3.55578
 30
0.0
 40
0.00590551
 41
0.00590551
  0
SEQEND
 8
0
  0
POLYLINE
  8
0
 62
     173
 66
     1
 10
0
 20
0
 30
0.0
 70
     1
 40
0.425197
 41
0.425197
  0
VERTEX
  8
0
 10
5.49724
 20
1.23844
 30
0.0
 40
0.00590551
 41
0.00590551
  0
VERTEX
  8
0
 10
5.49724
 20
1.24707
 30
0.0
 40
0.00590551
 41
0.00590551
  0
VERTEX
  8
0
 10
5.49046
 20
1.27289
 30
0.0
 40
0.00590551
 41
0.00590551
  0
VERTEX
  8
0
 10
5.4726
 20
1.29753
 30
0.0
 40
0.00590551
 41
0.00590551
  0
VERTEX
  8
0
 10
5.44738
 20
1.31228
 30
0.0
 40
0.00590551
 41
0.00590551
  0
VERTEX
  8
0
 10
5.41846
 20
1.31722
 30
0.0
 40
0.00590551
 41
0.00590551
  0
VERTEX
  8
0
 10
5.38954
 20
1.31228
 30
0.0
 40
0.00590551
 41
0.00590551
  0
VERTEX
  8
0
 10
5.36431
 20
1.29753
 30
0.0
 40
0.00590551
 41
0.00590551
  0
VERTEX
  8
0
 10
5.34646
 20
1.27289
 30
0.0
 40
0.00590551
 41
0.00590551
  0
VERTEX
  8
0
 10
5.33974
 20
1.24707
 30
0.0
 40
0.00590551
 41
0.00590551
  0
VERTEX
  8
0
 10
5.33974
 20
1.23844
 30
0.0
 40
0.00590551
 41
0.00590551
  0
VERTEX
  8
0
 10
5.33974
 20
1.22987
 30
0.0
 40
0.00590551
 41
0.00590551
  0
VERTEX
  8
0
 10
5.34646
 20
1.20405
 30
0.0
 40
0.00590551
 41
0.00590551
  0
VERTEX
  8
0
 10
5.36431
 20
1.17942
 30
0.0
 40
0.00590551
 41
0.00590551
  0
VERTEX
  8
0
 10
5.38954
 20
1.16466
 30
0.0
 40
0.00590551
 41
0.00590551
  0
VERTEX
  8
0
 10
5.41846
 20
1.15972
 30
0.0
 40
0.00590551
 41
0.00590551
  0
VERTEX
  8
0
 10
5.44738
 20
1.16466
 30
0.0
 40
0.00590551
 41
0.00590551
  0
VERTEX
  8
0
 10
5.4726
 20
1.17942
 30
0.0
 40
0.00590551
 41
0.00590551
  0
VERTEX
  8
0
 10
5.49046
 20
1.20405
 30
0.0
 40
0.00590551
 41
0.00590551
  0
VERTEX
  8
0
 10
5.49724
 20
1.22987
 30
0.0
 40
0.00590551
 41
0.00590551
  0
VERTEX
  8
0
 10
5.49724
 20
1.23844
 30
0.0
 40
0.00590551
 41
0.00590551
  0
SEQEND
 8
0
  0
POLYLINE
  8
0
 62
     173
 66
     1
 10
0
 20
0
 30
0.0
 40
0.425197
 41
0.425197
  0
VERTEX
  8
0
 10
2.5835
 20
0.725911
 30
0.0
 40
0.00590551
 41
0.00590551
  0
VERTEX
  8
0
 10
2.59571
 20
0.706597
 30
0.0
 40
0.00590551
 41
0.00590551
  0
VERTEX
  8
0
 10
2.64285
 20
0.655057
 30
0.0
 40
0.00590551
 41
0.00590551
  0
VERTEX
  8
0
 10
2.71733
 20
0.602919
 30
0.0
 40
0.00590551
 41
0.00590551
  0
VERTEX
  8
0
 10
2.80274
 20
0.571724
 30
0.0
 40
0.00590551
 41
0.00590551
  0
VERTEX
  8
0
 10
2.87196
 20
0.562662
 30
0.0
 40
0.00590551
 41
0.00590551
  0
VERTEX
  8
0
 10
2.89486
 20
0.563639
 30
0.0
 40
0.00590551
 41
0.00590551
  0
SEQEND
 8
0
  0
POLYLINE
  8
0
 62
     173
 66
     1
 10
0
 20
0
 30
0.0
 40
0.425197
 41
0.425197
  0
VERTEX
  8
0
 10
3.05236
 20
3.55578
 30
0.0
 40
0.00590551
 41
0.00590551
  0
VERTEX
  8
0
 10
3.05236
 20
3.55231
 30
0.0
 40
0.00590551
 41
0.00590551
  0
VERTEX
  8
0
 10
3.05811
 20
3.54189
 30
0.0
 40
0.00590551
 41
0.00590551
  0
VERTEX
  8
0
 10
3.06853
 20
3.53608
 30
0.0
 40
0.00590551
 41
0.00590551
  0
VERTEX
  8
0
 10
3.07206
 20
3.53608
 30
0.0
 40
0.00590551
 41
0.00590551
  0
SEQEND
 8
0
  0
POLYLINE
  8
0
 62
     173
 66
     1
 10
0
 20
0
 30
0.0
 40
0.425197
 41
0.425197
  0
VERTEX
  8
0
 10
0.827908
 20
2.13271
 30
0.0
 40
0.00590551
 41
0.00590551
  0
VERTEX
  8
0
 10
0.827908
 20
2.12924
 30
0.0
 40
0.00590551
 41
0.00590551
  0
VERTEX
  8
0
 10
0.833658
 20
2.11882
 30
0.0
 40
0.00590551
 41
0.00590551
  0
VERTEX
  8
0
 10
0.844075
 20
2.11301
 30
0.0
 40
0.00590551
 41
0.00590551
  0
VERTEX
  8
0
 10
0.847601
 20
2.11301
 30
0.0
 40
0.00590551
 41
0.00590551
  0
SEQEND
 8
0
  0
POLYLINE
  8
0
 62
     173
 66
     1
 10
0
 20
0
 30
0.0
 40
0.425197
 41
0.425197
  0
VERTEX
  8
0
 10
0.865235
 20
3.29986
 30
0.0
 40
0.00590551
 41
0.00590551
  0
VERTEX
  8
0
 10
0.865235
 20
3.23508
 30
0.0
 40
0.00590551
 41
0.00590551
  0
SEQEND
 8
0
  0
POLYLINE
  8
0
 62
     173
 66
     1
 10
0
 20
0
 30
0.0
 40
0.425197
 41
0.425197
  0
VERTEX
  8
0
 10
0.847601
 20
2.11301
 30
0.0
 40
0.00590551
 41
0.00590551
  0
VERTEX
  8
0
 10
0.850097
 20
2.11333
 30
0.0
 40
0.00590551
 41
0.00590551
  0
VERTEX
  8
0
 10
0.860135
 20
2.11951
 30
0.0
 40
0.00590551
 41
0.00590551
  0
VERTEX
  8
0
 10
0.865235
 20
2.12944
 30
0.0
 40
0.00590551
 41
0.00590551
  0
VERTEX
  8
0
 10
0.865235
 20
2.13271
 30
0.0
 40
0.00590551
 41
0.00590551
  0
SEQEND
 8
0
  0
POLYLINE
  8
0
 62
     173
 66
     1
 10
0
 20
0
 30
0.0
 40
0.425197
 41
0.425197
  0
VERTEX
  8
0
 10
5.57206
 20
3.51644
 30
0.0
 40
0.00590551
 41
0.00590551
  0
VERTEX
  8
0
 10
5.57206
 20
3.51992
 30
0.0
 40
0.00590551
 41
0.00590551
  0
VERTEX
  8
0
 10
5.56625
 20
3.53033
 30
0.0
 40
0.00590551
 41
0.00590551
  0
VERTEX
  8
0
 10
5.55583
 20
3.53608
 30
0.0
 40
0.00590551
 41
0.00590551
  0
VERTEX
  8
0
 10
5.55236
 20
3.53608
 30
0.0
 40
0.00590551
 41
0.00590551
  0
SEQEND
 8
0
  0
POLYLINE
  8
0
 62
     173
 66
     1
 10
0
 20
0
 30
0.0
 40
0.425197
 41
0.425197
  0
VERTEX
  8
0
 10
1.55626
 20
3.51644
 30
0.0
 40
0.00590551
 41
0.00590551
  0
VERTEX
  8
0
 10
2.24522
 20
3.51644
 30
0.0
 40
0.00590551
 41
0.00590551
  0
SEQEND
 8
0
  0
POLYLINE
  8
0
 62
     173
 66
     1
 10
0
 20
0
 30
0.0
 40
0.425197
 41
0.425197
  0
VERTEX
  8
0
 10
5.17833
 20
3.30067
 30
0.0
 40
0.00590551
 41
0.00590551
  0
VERTEX
  8
0
 10
4.82319
 20
3.30067
 30
0.0
 40
0.00590551
 41
0.00590551
  0
SEQEND
 8
0
  0
POLYLINE
  8
0
 62
     173
 66
     1
 10
0
 20
0
 30
0.0
 40
0.425197
 41
0.425197
  0
VERTEX
  8
0
 10
0.847601
 20
2.78521
 30
0.0
 40
0.00590551
 41
0.00590551
  0
VERTEX
  8
0
 10
0.850097
 20
2.78549
 30
0.0
 40
0.00590551
 41
0.00590551
  0
VERTEX
  8
0
 10
0.860135
 20
2.79167
 30
0.0
 40
0.00590551
 41
0.00590551
  0
VERTEX
  8
0
 10
0.865235
 20
2.8016
 30
0.0
 40
0.00590551
 41
0.00590551
  0
VERTEX
  8
0
 10
0.865235
 20
2.80485
 30
0.0
 40
0.00590551
 41
0.00590551
  0
SEQEND
 8
0
  0
POLYLINE
  8
0
 62
     173
 66
     1
 10
0
 20
0
 30
0.0
 70
     1
 40
0.425197
 41
0.425197
  0
VERTEX
  8
0
 10
3.80404
 20
2.81506
 30
0.0
 40
0.00590551
 41
0.00590551
  0
VERTEX
  8
0
 10
3.80404
 20
2.82411
 30
0.0
 40
0.00590551
 41
0.00590551
  0
VERTEX
  8
0
 10
3.79693
 20
2.85124
 30
0.0
 40
0.00590551
 41
0.00590551
  0
VERTEX
  8
0
 10
3.77815
 20
2.87706
 30
0.0
 40
0.00590551
 41
0.00590551
  0
VERTEX
  8
0
 10
3.75168
 20
2.89258
 30
0.0
 40
0.00590551
 41
0.00590551
  0
VERTEX
  8
0
 10
3.72136
 20
2.89774
 30
0.0
 40
0.00590551
 41
0.00590551
  0
VERTEX
  8
0
 10
3.69097
 20
2.89258
 30
0.0
 40
0.00590551
 41
0.00590551
  0
VERTEX
  8
0
 10
3.6645
 20
2.87706
 30
0.0
 40
0.00590551
 41
0.00590551
  0
VERTEX
  8
0
 10
3.64572
 20
2.85124
 30
0.0
 40
0.00590551
 41
0.00590551
  0
VERTEX
  8
0
 10
3.63867
 20
2.82411
 30
0.0
 40
0.00590551
 41
0.00590551
  0
VERTEX
  8
0
 10
3.63867
 20
2.81506
 30
0.0
 40
0.00590551
 41
0.00590551
  0
VERTEX
  8
0
 10
3.63867
 20
2.80604
 30
0.0
 40
0.00590551
 41
0.00590551
  0
VERTEX
  8
0
 10
3.64572
 20
2.77892
 30
0.0
 40
0.00590551
 41
0.00590551
  0
VERTEX
  8
0
 10
3.6645
 20
2.75304
 30
0.0
 40
0.00590551
 41
0.00590551
  0
VERTEX
  8
0
 10
3.69097
 20
2.73757
 30
0.0
 40
0.00590551
 41
0.00590551
  0
VERTEX
  8
0
 10
3.72136
 20
2.73236
 30
0.0
 40
0.00590551
 41
0.00590551
  0
VERTEX
  8
0
 10
3.75168
 20
2.73757
 30
0.0
 40
0.00590551
 41
0.00590551
  0
VERTEX
  8
0
 10
3.77815
 20
2.75304
 30
0.0
 40
0.00590551
 41
0.00590551
  0
VERTEX
  8
0
 10
3.79693
 20
2.77892
 30
0.0
 40
0.00590551
 41
0.00590551
  0
VERTEX
  8
0
 10
3.80404
 20
2.80604
 30
0.0
 40
0.00590551
 41
0.00590551
  0
VERTEX
  8
0
 10
3.80404
 20
2.81506
 30
0.0
 40
0.00590551
 41
0.00590551
  0
SEQEND
 8
0
  0
POLYLINE
  8
0
 62
     173
 66
     1
 10
0
 20
0
 30
0.0
 40
0.425197
 41
0.425197
  0
VERTEX
  8
0
 10
0.865235
 20
2.13271
 30
0.0
 40
0.00590551
 41
0.00590551
  0
VERTEX
  8
0
 10
0.865235
 20
2.33529
 30
0.0
 40
0.00590551
 41
0.00590551
  0
SEQEND
 8
0
  0
POLYLINE
  8
0
 62
     173
 66
     1
 10
0
 20
0
 30
0.0
 40
0.425197
 41
0.425197
  0
VERTEX
  8
0
 10
1.51693
 20
3.31956
 30
0.0
 40
0.00590551
 41
0.00590551
  0
VERTEX
  8
0
 10
1.5204
 20
3.31956
 30
0.0
 40
0.00590551
 41
0.00590551
  0
VERTEX
  8
0
 10
1.53082
 20
3.32536
 30
0.0
 40
0.00590551
 41
0.00590551
  0
VERTEX
  8
0
 10
1.53657
 20
3.33578
 30
0.0
 40
0.00590551
 41
0.00590551
  0
VERTEX
  8
0
 10
1.53657
 20
3.33925
 30
0.0
 40
0.00590551
 41
0.00590551
  0
SEQEND
 8
0
  0
POLYLINE
  8
0
 62
     173
 66
     1
 10
0
 20
0
 30
0.0
 40
0.425197
 41
0.425197
  0
VERTEX
  8
0
 10
2.5835
 20
0.725911
 30
0.0
 40
0.00590551
 41
0.00590551
  0
VERTEX
  8
0
 10
2.56506
 20
0.7551
 30
0.0
 40
0.00590551
 41
0.00590551
  0
VERTEX
  8
0
 10
2.50271
 20
0.838108
 30
0.0
 40
0.00590551
 41
0.00590551
  0
VERTEX
  8
0
 10
2.41
 20
0.938585
 30
0.0
 40
0.00590551
 41
0.00590551
  0
VERTEX
  8
0
 10
2.30658
 20
1.02653
 30
0.0
 40
0.00590551
 41
0.00590551
  0
VERTEX
  8
0
 10
2.19379
 20
1.10124
 30
0.0
 40
0.00590551
 41
0.00590551
  0
VERTEX
  8
0
 10
2.07286
 20
1.16195
 30
0.0
 40
0.00590551
 41
0.00590551
  0
VERTEX
  8
0
 10
1.9451
 20
1.2079
 30
0.0
 40
0.00590551
 41
0.00590551
  0
VERTEX
  8
0
 10
1.81185
 20
1.23844
 30
0.0
 40
0.00590551
 41
0.00590551
  0
VERTEX
  8
0
 10
1.70882
 20
1.25125
 30
0.0
 40
0.00590551
 41
0.00590551
  0
VERTEX
  8
0
 10
1.67438
 20
1.25266
 30
0.0
 40
0.00590551
 41
0.00590551
  0
SEQEND
 8
0
  0
POLYLINE
  8
0
 62
     173
 66
     1
 10
0
 20
0
 30
0.0
 70
     1
 40
0.425197
 41
0.425197
  0
VERTEX
  8
0
 10
1.67649
 20
2.14274
 30
0.0
 40
0.00590551
 41
0.00590551
  0
VERTEX
  8
0
 10
1.67649
 20
2.15181
 30
0.0
 40
0.00590551
 41
0.00590551
  0
VERTEX
  8
0
 10
1.66938
 20
2.17893
 30
0.0
 40
0.00590551
 41
0.00590551
  0
VERTEX
  8
0
 10
1.65061
 20
2.20475
 30
0.0
 40
0.00590551
 41
0.00590551
  0
VERTEX
  8
0
 10
1.62414
 20
2.22026
 30
0.0
 40
0.00590551
 41
0.00590551
  0
VERTEX
  8
0
 10
1.59381
 20
2.22542
 30
0.0
 40
0.00590551
 41
0.00590551
  0
VERTEX
  8
0
 10
1.56347
 20
2.22026
 30
0.0
 40
0.00590551
 41
0.00590551
  0
VERTEX
  8
0
 10
1.537
 20
2.20475
 30
0.0
 40
0.00590551
 41
0.00590551
  0
VERTEX
  8
0
 10
1.51824
 20
2.17893
 30
0.0
 40
0.00590551
 41
0.00590551
  0
VERTEX
  8
0
 10
1.51118
 20
2.15181
 30
0.0
 40
0.00590551
 41
0.00590551
  0
VERTEX
  8
0
 10
1.51118
 20
2.14274
 30
0.0
 40
0.00590551
 41
0.00590551
  0
VERTEX
  8
0
 10
1.51118
 20
2.13374
 30
0.0
 40
0.00590551
 41
0.00590551
  0
VERTEX
  8
0
 10
1.51824
 20
2.10661
 30
0.0
 40
0.00590551
 41
0.00590551
  0
VERTEX
  8
0
 10
1.537
 20
2.08074
 30
0.0
 40
0.00590551
 41
0.00590551
  0
VERTEX
  8
0
 10
1.56347
 20
2.06526
 30
0.0
 40
0.00590551
 41
0.00590551
  0
VERTEX
  8
0
 10
1.59381
 20
2.06006
 30
0.0
 40
0.00590551
 41
0.00590551
  0
VERTEX
  8
0
 10
1.62414
 20
2.06526
 30
0.0
 40
0.00590551
 41
0.00590551
  0
VERTEX
  8
0
 10
1.65061
 20
2.08074
 30
0.0
 40
0.00590551
 41
0.00590551
  0
VERTEX
  8
0
 10
1.66938
 20
2.10661
 30
0.0
 40
0.00590551
 41
0.00590551
  0
VERTEX
  8
0
 10
1.67649
 20
2.13374
 30
0.0
 40
0.00590551
 41
0.00590551
  0
VERTEX
  8
0
 10
1.67649
 20
2.14274
 30
0.0
 40
0.00590551
 41
0.00590551
  0
SEQEND
 8
0
  0
POLYLINE
  8
0
 62
     173
 66
     1
 10
0
 20
0
 30
0.0
 40
0.425197
 41
0.425197
  0
VERTEX
  8
0
 10
5.02083
 20
0.169976
 30
0.0
 40
0.00590551
 41
0.00590551
  0
VERTEX
  8
0
 10
5.49328
 20
0.996744
 30
0.0
 40
0.00590551
 41
0.00590551
  0
SEQEND
 8
0
  0
POLYLINE
  8
0
 62
     173
 66
     1
 10
0
 20
0
 30
0.0
 40
0.425197
 41
0.425197
  0
VERTEX
  8
0
 10
0.847601
 20
1.67176
 30
0.0
 40
0.00590551
 41
0.00590551
  0
VERTEX
  8
0
 10
0.844075
 20
1.67176
 30
0.0
 40
0.00590551
 41
0.00590551
  0
VERTEX
  8
0
 10
0.833658
 20
1.66601
 30
0.0
 40
0.00590551
 41
0.00590551
  0
VERTEX
  8
0
 10
0.827908
 20
1.6556
 30
0.0
 40
0.00590551
 41
0.00590551
  0
VERTEX
  8
0
 10
0.827908
 20
1.65213
 30
0.0
 40
0.00590551
 41
0.00590551
  0
SEQEND
 8
0
  0
POLYLINE
  8
0
 62
     173
 66
     1
 10
0
 20
0
 30
0.0
 40
0.425197
 41
0.425197
  0
VERTEX
  8
0
 10
0.138943
 20
1.2723
 30
0.0
 40
0.00590551
 41
0.00590551
  0
VERTEX
  8
0
 10
0.138943
 20
1.26883
 30
0.0
 40
0.00590551
 41
0.00590551
  0
VERTEX
  8
0
 10
0.144694
 20
1.25841
 30
0.0
 40
0.00590551
 41
0.00590551
  0
VERTEX
  8
0
 10
0.155111
 20
1.25266
 30
0.0
 40
0.00590551
 41
0.00590551
  0
VERTEX
  8
0
 10
0.158637
 20
1.25266
 30
0.0
 40
0.00590551
 41
0.00590551
  0
SEQEND
 8
0
  0
POLYLINE
  8
0
 62
     173
 66
     1
 10
0
 20
0
 30
0.0
 40
0.425197
 41
0.425197
  0
VERTEX
  8
0
 10
1.67438
 20
1.25266
 30
0.0
 40
0.00590551
 41
0.00590551
  0
VERTEX
  8
0
 10
0.884874
 20
1.25266
 30
0.0
 40
0.00590551
 41
0.00590551
  0
SEQEND
 8
0
  0
POLYLINE
  8
0
 62
     173
 66
     1
 10
0
 20
0
 30
0.0
 40
0.425197
 41
0.425197
  0
VERTEX
  8
0
 10
4.62711
 20
0.0912001
 30
0.0
 40
0.00590551
 41
0.00590551
  0
VERTEX
  8
0
 10
4.64996
 20
0.0756293
 30
0.0
 40
0.00590551
 41
0.00590551
  0
VERTEX
  8
0
 10
4.73139
 20
0.0474718
 30
0.0
 40
0.00590551
 41
0.00590551
  0
VERTEX
  8
0
 10
4.84056
 20
0.0477431
 30
0.0
 40
0.00590551
 41
0.00590551
  0
VERTEX
  8
0
 10
4.94135
 20
0.089464
 30
0.0
 40
0.00590551
 41
0.00590551
  0
VERTEX
  8
0
 10
5.00569
 20
0.146756
 30
0.0
 40
0.00590551
 41
0.00590551
  0
VERTEX
  8
0
 10
5.02083
 20
0.169976
 30
0.0
 40
0.00590551
 41
0.00590551
  0
SEQEND
 8
0
  0
POLYLINE
  8
0
 62
     173
 66
     1
 10
0
 20
0
 30
0.0
 40
0.425197
 41
0.425197
  0
VERTEX
  8
0
 10
5.55236
 20
3.53608
 30
0.0
 40
0.00590551
 41
0.00590551
  0
VERTEX
  8
0
 10
5.17833
 20
3.53608
 30
0.0
 40
0.00590551
 41
0.00590551
  0
SEQEND
 8
0
  0
POLYLINE
  8
0
 62
     173
 66
     1
 10
0
 20
0
 30
0.0
 40
0.425197
 41
0.425197
  0
VERTEX
  8
0
 10
0.865235
 20
1.2723
 30
0.0
 40
0.00590551
 41
0.00590551
  0
VERTEX
  8
0
 10
0.865235
 20
1.65213
 30
0.0
 40
0.00590551
 41
0.00590551
  0
SEQEND
 8
0
  0
POLYLINE
  8
0
 62
     173
 66
     1
 10
0
 20
0
 30
0.0
 40
0.425197
 41
0.425197
  0
VERTEX
  8
0
 10
0.827908
 20
2.80485
 30
0.0
 40
0.00590551
 41
0.00590551
  0
VERTEX
  8
0
 10
0.827908
 20
2.80138
 30
0.0
 40
0.00590551
 41
0.00590551
  0
VERTEX
  8
0
 10
0.833658
 20
2.79096
 30
0.0
 40
0.00590551
 41
0.00590551
  0
VERTEX
  8
0
 10
0.844075
 20
2.78521
 30
0.0
 40
0.00590551
 41
0.00590551
  0
VERTEX
  8
0
 10
0.847601
 20
2.78521
 30
0.0
 40
0.00590551
 41
0.00590551
  0
SEQEND
 8
0
  0
POLYLINE
  8
0
 62
     173
 66
     1
 10
0
 20
0
 30
0.0
 40
0.340157
 41
0.340157
  0
VERTEX
  8
0
 10
5.08068
 20
2.74778
 30
0.0
 40
0.0047244
 41
0.0047244
  0
VERTEX
  8
0
 10
5.08068
 20
2.90181
 30
0.0
 40
0.0047244
 41
0.0047244
  0
SEQEND
 8
0
  0
POLYLINE
  8
0
 62
     173
 66
     1
 10
0
 20
0
 30
0.0
 40
0.340157
 41
0.340157
  0
VERTEX
  8
0
 10
4.92464
 20
2.74778
 30
0.0
 40
0.0047244
 41
0.0047244
  0
VERTEX
  8
0
 10
4.92464
 20
2.90181
 30
0.0
 40
0.0047244
 41
0.0047244
  0
SEQEND
 8
0
  0
POLYLINE
  8
0
 62
     173
 66
     1
 10
0
 20
0
 30
0.0
 40
0.340157
 41
0.340157
  0
VERTEX
  8
0
 10
5.17301
 20
3.26124
 30
0.0
 40
0.0047244
 41
0.0047244
  0
VERTEX
  8
0
 10
5.17301
 20
3.07824
 30
0.0
 40
0.0047244
 41
0.0047244
  0
SEQEND
 8
0
  0
POLYLINE
  8
0
 62
     173
 66
     1
 10
0
 20
0
 30
0.0
 40
0.340157
 41
0.340157
  0
VERTEX
  8
0
 10
4.73964
 20
2.74778
 30
0.0
 40
0.0047244
 41
0.0047244
  0
VERTEX
  8
0
 10
4.92464
 20
2.74778
 30
0.0
 40
0.0047244
 41
0.0047244
  0
SEQEND
 8
0
  0
POLYLINE
  8
0
 62
     173
 66
     1
 10
0
 20
0
 30
0.0
 40
0.340157
 41
0.340157
  0
VERTEX
  8
0
 10
4.83094
 20
3.26124
 30
0.0
 40
0.0047244
 41
0.0047244
  0
VERTEX
  8
0
 10
4.83094
 20
3.07824
 30
0.0
 40
0.0047244
 41
0.0047244
  0
SEQEND
 8
0
  0
POLYLINE
  8
0
 62
     173
 66
     1
 10
0
 20
0
 30
0.0
 40
0.340157
 41
0.340157
  0
VERTEX
  8
0
 10
5.17301
 20
3.26124
 30
0.0
 40
0.0047244
 41
0.0047244
  0
VERTEX
  8
0
 10
4.83094
 20
3.26124
 30
0.0
 40
0.0047244
 41
0.0047244
  0
SEQEND
 8
0
  0
POLYLINE
  8
0
 62
     173
 66
     1
 10
0
 20
0
 30
0.0
 40
0.340157
 41
0.340157
  0
VERTEX
  8
0
 10
4.92464
 20
2.90181
 30
0.0
 40
0.0047244
 41
0.0047244
  0
VERTEX
  8
0
 10
4.73964
 20
2.90181
 30
0.0
 40
0.0047244
 41
0.0047244
  0
SEQEND
 8
0
  0
POLYLINE
  8
0
 62
     173
 66
     1
 10
0
 20
0
 30
0.0
 40
0.340157
 41
0.340157
  0
VERTEX
  8
0
 10
5.08068
 20
2.90181
 30
0.0
 40
0.0047244
 41
0.0047244
  0
VERTEX
  8
0
 10
5.26568
 20
2.90181
 30
0.0
 40
0.0047244
 41
0.0047244
  0
SEQEND
 8
0
  0
POLYLINE
  8
0
 62
     173
 66
     1
 10
0
 20
0
 30
0.0
 40
0.340157
 41
0.340157
  0
VERTEX
  8
0
 10
4.83094
 20
3.07824
 30
0.0
 40
0.0047244
 41
0.0047244
  0
VERTEX
  8
0
 10
5.17301
 20
3.07824
 30
0.0
 40
0.0047244
 41
0.0047244
  0
SEQEND
 8
0
  0
POLYLINE
  8
0
 62
     173
 66
     1
 10
0
 20
0
 30
0.0
 40
0.340157
 41
0.340157
  0
VERTEX
  8
0
 10
5.26568
 20
2.90181
 30
0.0
 40
0.0047244
 41
0.0047244
  0
VERTEX
  8
0
 10
5.26568
 20
2.74778
 30
0.0
 40
0.0047244
 41
0.0047244
  0
SEQEND
 8
0
  0
POLYLINE
  8
0
 62
     173
 66
     1
 10
0
 20
0
 30
0.0
 40
0.340157
 41
0.340157
  0
VERTEX
  8
0
 10
4.73964
 20
2.90181
 30
0.0
 40
0.0047244
 41
0.0047244
  0
VERTEX
  8
0
 10
4.73964
 20
2.74778
 30
0.0
 40
0.0047244
 41
0.0047244
  0
SEQEND
 8
0
  0
POLYLINE
  8
0
 62
     173
 66
     1
 10
0
 20
0
 30
0.0
 40
0.340157
 41
0.340157
  0
VERTEX
  8
0
 10
5.26568
 20
2.74778
 30
0.0
 40
0.0047244
 41
0.0047244
  0
VERTEX
  8
0
 10
5.08068
 20
2.74778
 30
0.0
 40
0.0047244
 41
0.0047244
  0
SEQEND
 8
0
  0
ENDSEC
  0
EOF
