M48
; DRILL file {KiCad (6.0.0)} date Sun Feb 19 18:14:09 2023
; FORMAT={-:-/ absolute / inch / decimal}
; #@! TF.CreationDate,2023-02-19T18:14:09-06:00
; #@! TF.GenerationSoftware,Kicad,Pcbnew,(6.0.0)
; #@! TF.FileFunction,Plated,1,2,PTH
FMAT,2
INCH
; #@! TA.AperFunction,Plated,PTH,ViaDrill
T1C0.0157
; #@! TA.AperFunction,Plated,PTH,ComponentDrill
T2C0.0315
; #@! TA.AperFunction,Plated,PTH,ComponentDrill
T3C0.0394
; #@! TA.AperFunction,Plated,PTH,ComponentDrill
T4C0.0591
%
G90
G05
T1
X-4.8228Y-0.7612
X-4.8228Y-1.4449
X-4.1282Y-0.7612
X-4.1282Y-1.4447
X-3.9482Y-0.1558
X-3.4252Y-0.6116
X-3.3401Y-1.4246
X-3.1838Y0.0511
X-2.7105Y-1.1876
X-2.7099Y-0.5067
X-2.4986Y0.1463
X-2.1614Y-2.2734
X-1.9723Y-0.6104
X-1.9201Y-1.2846
X-1.7868Y0.0544
X-1.3193Y-1.0803
X-1.2472Y-1.3696
X-1.2448Y-0.033
X-1.2448Y-0.8483
X-1.2413Y-2.3563
X-0.7521Y-1.3872
X-0.7239Y-2.0786
X-0.6941Y-1.2428
X-0.6658Y-2.5668
X-0.6213Y-1.1077
X-0.6143Y-0.8952
X-0.5894Y-1.1914
X-0.5878Y-1.1386
X-0.5725Y-0.6365
X-0.567Y-1.2232
X-0.5658Y-1.3838
X-0.5652Y-1.4512
X-0.5095Y-0.7998
X-0.4669Y-0.8258
X-0.4668Y-0.7491
X-0.4526Y-1.6903
X-0.4516Y-1.3387
X-0.4457Y-0.9531
X-0.4453Y-1.1914
X-0.4056Y-0.7398
X-0.4044Y-1.6641
X-0.4022Y-1.236
X-0.383Y-1.7015
X-0.3449Y-0.9782
X-0.3449Y-1.0729
X-0.3449Y-1.3619
X-0.3449Y-1.5571
X-0.3369Y-1.8176
X-0.3138Y-1.7056
X-0.3035Y-0.8507
X-0.3031Y-0.8829
X-0.2876Y-1.4542
X-0.2717Y-2.1158
X-0.2427Y-2.1131
X-0.229Y-0.9636
X-0.2068Y-1.5942
X-0.1953Y-1.5001
X-0.1941Y-1.9913
X-0.186Y-1.7309
X-0.1817Y-1.1329
X-0.1816Y-1.3386
X-0.1814Y-1.4542
X-0.1765Y-0.7516
X-0.1717Y-0.4238
X-0.167Y-2.5161
X-0.1448Y-0.9423
X-0.144Y-0.9788
X-0.0986Y-0.7485
X-0.0964Y-2.0317
X-0.0899Y-1.5569
X-0.0883Y-0.9455
X-0.0869Y-1.2174
X-0.0869Y-1.7957
X-0.0819Y-2.1147
X-0.0767Y-1.3622
X-0.0542Y-0.7368
X-0.0428Y-1.4542
X-0.0362Y-1.75
X-0.0156Y-0.8872
X-0.0092Y-0.8577
X0.0773Y-1.4182
X0.1243Y-1.4554
X0.1862Y-1.015
X0.1906Y-0.7941
T2
X0.218Y-1.3318
X0.218Y-1.4106
X0.218Y-1.4893
T3
X-4.8691Y-1.2894
X-4.8691Y-1.9587
X-4.8671Y-0.6299
X-4.562Y-1.2894
X-4.562Y-1.9587
X-4.56Y-0.6299
X-4.1604Y-1.2894
X-4.1604Y-1.9587
X-4.1585Y-0.6299
X-3.8533Y-1.2894
X-3.8533Y-1.9587
X-3.8514Y-0.6299
X-3.4508Y-0.4331
X-3.4508Y-1.1024
X-3.4508Y-1.7717
X-3.1437Y-0.4331
X-3.1437Y-1.1024
X-3.1437Y-1.7717
X-2.7431Y-0.3445
X-2.7431Y-1.6831
X-2.7421Y-1.0138
X-2.436Y-0.3445
X-2.436Y-1.6831
X-2.435Y-1.0138
X-2.2372Y-2.5964
X-2.0335Y-1.1024
X-2.0325Y-0.4331
X-2.0325Y-1.7717
X-1.9301Y-2.5964
X-1.7264Y-1.1024
X-1.7254Y-0.4331
X-1.7254Y-1.7717
X-1.4432Y-2.6469
X-1.3258Y-0.5315
X-1.3258Y-1.2008
X-1.3258Y-1.8701
X-1.1466Y-2.7264
X-1.0187Y-0.5315
X-1.0187Y-1.2008
X-1.0187Y-1.8701
X-0.7175Y-2.1839
X-0.7175Y-2.2839
X-0.5438Y0.0222
X-0.5438Y-0.0778
X-0.5438Y-0.1778
X-0.5438Y-0.2778
X-0.5438Y-0.3778
X-0.5438Y-0.4778
X-0.5438Y-0.5778
X-0.4716Y-0.6525
X-0.4486Y-1.8898
X-0.4163Y-0.1778
X-0.4163Y-0.2778
X-0.3736Y-0.6525
X-0.3486Y-1.8898
X-0.2997Y-2.9316
X-0.2486Y-1.8898
X-0.1486Y-1.8898
X-0.1462Y-2.6657
X-0.1156Y-0.6525
X-0.0742Y-0.1778
X-0.0742Y-0.2778
X-0.0486Y-1.8898
X-0.0176Y-0.6525
X0.0532Y0.0222
X0.0532Y-0.0778
X0.0532Y-0.1778
X0.0532Y-0.2778
X0.0532Y-0.3778
X0.0532Y-0.4778
X0.0532Y-0.5778
T4
X0.218Y-1.2491
X0.218Y-1.572
T0
M30
