%TF.GenerationSoftware,KiCad,Pcbnew,(6.0.0)*%
%TF.CreationDate,2023-02-19T18:14:09-06:00*%
%TF.ProjectId,corne-chocolate,636f726e-652d-4636-986f-636f6c617465,1.0*%
%TF.SameCoordinates,Original*%
%TF.FileFunction,Soldermask,Top*%
%TF.FilePolarity,Negative*%
%FSLAX46Y46*%
G04 Gerber Fmt 4.6, Leading zero omitted, Abs format (unit mm)*
G04 Created by KiCad (PCBNEW (6.0.0)) date 2023-02-19 18:14:09*
%MOMM*%
%LPD*%
G01*
G04 APERTURE LIST*
G04 Aperture macros list*
%AMRotRect*
0 Rectangle, with rotation*
0 The origin of the aperture is its center*
0 $1 length*
0 $2 width*
0 $3 Rotation angle, in degrees counterclockwise*
0 Add horizontal line*
21,1,$1,$2,0,0,$3*%
%AMFreePoly0*
4,1,6,1.000000,0.000000,0.500000,-0.750000,-0.500000,-0.750000,-0.500000,0.750000,0.500000,0.750000,1.000000,0.000000,1.000000,0.000000,$1*%
%AMFreePoly1*
4,1,6,0.500000,-0.750000,-0.650000,-0.750000,-0.150000,0.000000,-0.650000,0.750000,0.500000,0.750000,0.500000,-0.750000,0.500000,-0.750000,$1*%
G04 Aperture macros list end*
%ADD10C,0.125000*%
%ADD11O,3.748280X1.998980*%
%ADD12C,1.998980*%
%ADD13C,1.000000*%
%ADD14O,1.998980X2.998470*%
%ADD15R,1.600000X1.600000*%
%ADD16R,1.600000X1.200000*%
%ADD17C,1.600000*%
%ADD18RotRect,1.600000X1.200000X345.000000*%
%ADD19RotRect,1.600000X1.600000X345.000000*%
%ADD20RotRect,1.600000X1.600000X60.000000*%
%ADD21RotRect,1.600000X1.200000X60.000000*%
%ADD22C,3.000000*%
%ADD23C,1.701800*%
%ADD24C,3.429000*%
%ADD25R,2.600000X2.600000*%
%ADD26RotRect,2.600000X2.600000X165.000000*%
%ADD27RotRect,2.600000X2.600000X240.000000*%
%ADD28FreePoly0,90.000000*%
%ADD29FreePoly1,90.000000*%
%ADD30FreePoly0,0.000000*%
%ADD31FreePoly1,0.000000*%
%ADD32R,1.700000X1.700000*%
%ADD33O,1.700000X1.700000*%
%ADD34O,3.500000X2.200000*%
%ADD35R,2.500000X1.500000*%
%ADD36O,2.500000X1.500000*%
G04 APERTURE END LIST*
D10*
X-91240179Y-49647380D02*
X-91049703Y-49647380D01*
X-90954465Y-49695000D01*
X-90859227Y-49790238D01*
X-90811608Y-49980714D01*
X-90811608Y-50314047D01*
X-90859227Y-50504523D01*
X-90954465Y-50599761D01*
X-91049703Y-50647380D01*
X-91240179Y-50647380D01*
X-91335417Y-50599761D01*
X-91430655Y-50504523D01*
X-91478274Y-50314047D01*
X-91478274Y-49980714D01*
X-91430655Y-49790238D01*
X-91335417Y-49695000D01*
X-91240179Y-49647380D01*
X-90383036Y-50647380D02*
X-90383036Y-49980714D01*
X-90383036Y-50171190D02*
X-90335417Y-50075952D01*
X-90287798Y-50028333D01*
X-90192560Y-49980714D01*
X-90097322Y-49980714D01*
X-89763989Y-50647380D02*
X-89763989Y-49980714D01*
X-89763989Y-49647380D02*
X-89811608Y-49695000D01*
X-89763989Y-49742619D01*
X-89716370Y-49695000D01*
X-89763989Y-49647380D01*
X-89763989Y-49742619D01*
X-88859227Y-49980714D02*
X-88859227Y-50790238D01*
X-88906846Y-50885476D01*
X-88954465Y-50933095D01*
X-89049703Y-50980714D01*
X-89192560Y-50980714D01*
X-89287798Y-50933095D01*
X-88859227Y-50599761D02*
X-88954465Y-50647380D01*
X-89144941Y-50647380D01*
X-89240179Y-50599761D01*
X-89287798Y-50552142D01*
X-89335417Y-50456904D01*
X-89335417Y-50171190D01*
X-89287798Y-50075952D01*
X-89240179Y-50028333D01*
X-89144941Y-49980714D01*
X-88954465Y-49980714D01*
X-88859227Y-50028333D01*
X-88383036Y-50647380D02*
X-88383036Y-49980714D01*
X-88383036Y-49647380D02*
X-88430655Y-49695000D01*
X-88383036Y-49742619D01*
X-88335417Y-49695000D01*
X-88383036Y-49647380D01*
X-88383036Y-49742619D01*
X-87906846Y-49980714D02*
X-87906846Y-50647380D01*
X-87906846Y-50075952D02*
X-87859227Y-50028333D01*
X-87763989Y-49980714D01*
X-87621131Y-49980714D01*
X-87525893Y-50028333D01*
X-87478274Y-50123571D01*
X-87478274Y-50647380D01*
X-86573512Y-50647380D02*
X-86573512Y-50123571D01*
X-86621131Y-50028333D01*
X-86716370Y-49980714D01*
X-86906846Y-49980714D01*
X-87002084Y-50028333D01*
X-86573512Y-50599761D02*
X-86668750Y-50647380D01*
X-86906846Y-50647380D01*
X-87002084Y-50599761D01*
X-87049703Y-50504523D01*
X-87049703Y-50409285D01*
X-87002084Y-50314047D01*
X-86906846Y-50266428D01*
X-86668750Y-50266428D01*
X-86573512Y-50218809D01*
X-85954465Y-50647380D02*
X-86049703Y-50599761D01*
X-86097322Y-50504523D01*
X-86097322Y-49647380D01*
X-84811608Y-50647380D02*
X-84811608Y-49647380D01*
X-84430655Y-49647380D01*
X-84335417Y-49695000D01*
X-84287798Y-49742619D01*
X-84240179Y-49837857D01*
X-84240179Y-49980714D01*
X-84287798Y-50075952D01*
X-84335417Y-50123571D01*
X-84430655Y-50171190D01*
X-84811608Y-50171190D01*
X-83240179Y-50552142D02*
X-83287798Y-50599761D01*
X-83430655Y-50647380D01*
X-83525893Y-50647380D01*
X-83668750Y-50599761D01*
X-83763989Y-50504523D01*
X-83811608Y-50409285D01*
X-83859227Y-50218809D01*
X-83859227Y-50075952D01*
X-83811608Y-49885476D01*
X-83763989Y-49790238D01*
X-83668750Y-49695000D01*
X-83525893Y-49647380D01*
X-83430655Y-49647380D01*
X-83287798Y-49695000D01*
X-83240179Y-49742619D01*
X-82478274Y-50123571D02*
X-82335417Y-50171190D01*
X-82287798Y-50218809D01*
X-82240179Y-50314047D01*
X-82240179Y-50456904D01*
X-82287798Y-50552142D01*
X-82335417Y-50599761D01*
X-82430655Y-50647380D01*
X-82811608Y-50647380D01*
X-82811608Y-49647380D01*
X-82478274Y-49647380D01*
X-82383036Y-49695000D01*
X-82335417Y-49742619D01*
X-82287798Y-49837857D01*
X-82287798Y-49933095D01*
X-82335417Y-50028333D01*
X-82383036Y-50075952D01*
X-82478274Y-50123571D01*
X-82811608Y-50123571D01*
X-80621131Y-50647380D02*
X-80621131Y-49647380D01*
X-80621131Y-50599761D02*
X-80716370Y-50647380D01*
X-80906846Y-50647380D01*
X-81002084Y-50599761D01*
X-81049703Y-50552142D01*
X-81097322Y-50456904D01*
X-81097322Y-50171190D01*
X-81049703Y-50075952D01*
X-81002084Y-50028333D01*
X-80906846Y-49980714D01*
X-80716370Y-49980714D01*
X-80621131Y-50028333D01*
X-79763989Y-50599761D02*
X-79859227Y-50647380D01*
X-80049703Y-50647380D01*
X-80144941Y-50599761D01*
X-80192560Y-50504523D01*
X-80192560Y-50123571D01*
X-80144941Y-50028333D01*
X-80049703Y-49980714D01*
X-79859227Y-49980714D01*
X-79763989Y-50028333D01*
X-79716370Y-50123571D01*
X-79716370Y-50218809D01*
X-80192560Y-50314047D01*
X-79335417Y-50599761D02*
X-79240179Y-50647380D01*
X-79049703Y-50647380D01*
X-78954465Y-50599761D01*
X-78906846Y-50504523D01*
X-78906846Y-50456904D01*
X-78954465Y-50361666D01*
X-79049703Y-50314047D01*
X-79192560Y-50314047D01*
X-79287798Y-50266428D01*
X-79335417Y-50171190D01*
X-79335417Y-50123571D01*
X-79287798Y-50028333D01*
X-79192560Y-49980714D01*
X-79049703Y-49980714D01*
X-78954465Y-50028333D01*
X-78478274Y-50647380D02*
X-78478274Y-49980714D01*
X-78478274Y-49647380D02*
X-78525893Y-49695000D01*
X-78478274Y-49742619D01*
X-78430655Y-49695000D01*
X-78478274Y-49647380D01*
X-78478274Y-49742619D01*
X-77573512Y-49980714D02*
X-77573512Y-50790238D01*
X-77621131Y-50885476D01*
X-77668750Y-50933095D01*
X-77763989Y-50980714D01*
X-77906846Y-50980714D01*
X-78002084Y-50933095D01*
X-77573512Y-50599761D02*
X-77668750Y-50647380D01*
X-77859227Y-50647380D01*
X-77954465Y-50599761D01*
X-78002084Y-50552142D01*
X-78049703Y-50456904D01*
X-78049703Y-50171190D01*
X-78002084Y-50075952D01*
X-77954465Y-50028333D01*
X-77859227Y-49980714D01*
X-77668750Y-49980714D01*
X-77573512Y-50028333D01*
X-77097322Y-49980714D02*
X-77097322Y-50647380D01*
X-77097322Y-50075952D02*
X-77049703Y-50028333D01*
X-76954465Y-49980714D01*
X-76811608Y-49980714D01*
X-76716370Y-50028333D01*
X-76668750Y-50123571D01*
X-76668750Y-50647380D01*
X-75811608Y-50599761D02*
X-75906846Y-50647380D01*
X-76097322Y-50647380D01*
X-76192560Y-50599761D01*
X-76240179Y-50504523D01*
X-76240179Y-50123571D01*
X-76192560Y-50028333D01*
X-76097322Y-49980714D01*
X-75906846Y-49980714D01*
X-75811608Y-50028333D01*
X-75763989Y-50123571D01*
X-75763989Y-50218809D01*
X-76240179Y-50314047D01*
X-74906846Y-50647380D02*
X-74906846Y-49647380D01*
X-74906846Y-50599761D02*
X-75002084Y-50647380D01*
X-75192560Y-50647380D01*
X-75287798Y-50599761D01*
X-75335417Y-50552142D01*
X-75383036Y-50456904D01*
X-75383036Y-50171190D01*
X-75335417Y-50075952D01*
X-75287798Y-50028333D01*
X-75192560Y-49980714D01*
X-75002084Y-49980714D01*
X-74906846Y-50028333D01*
X-73668750Y-50647380D02*
X-73668750Y-49647380D01*
X-73668750Y-50028333D02*
X-73573512Y-49980714D01*
X-73383036Y-49980714D01*
X-73287798Y-50028333D01*
X-73240179Y-50075952D01*
X-73192560Y-50171190D01*
X-73192560Y-50456904D01*
X-73240179Y-50552142D01*
X-73287798Y-50599761D01*
X-73383036Y-50647380D01*
X-73573512Y-50647380D01*
X-73668750Y-50599761D01*
X-72859227Y-49980714D02*
X-72621131Y-50647380D01*
X-72383036Y-49980714D02*
X-72621131Y-50647380D01*
X-72716370Y-50885476D01*
X-72763989Y-50933095D01*
X-72859227Y-50980714D01*
X-71383036Y-49980714D02*
X-71002084Y-49980714D01*
X-71240179Y-50647380D02*
X-71240179Y-49790238D01*
X-71192560Y-49695000D01*
X-71097322Y-49647380D01*
X-71002084Y-49647380D01*
X-70525893Y-50647380D02*
X-70621131Y-50599761D01*
X-70668750Y-50552142D01*
X-70716370Y-50456904D01*
X-70716370Y-50171190D01*
X-70668750Y-50075952D01*
X-70621131Y-50028333D01*
X-70525893Y-49980714D01*
X-70383036Y-49980714D01*
X-70287798Y-50028333D01*
X-70240179Y-50075952D01*
X-70192560Y-50171190D01*
X-70192560Y-50456904D01*
X-70240179Y-50552142D01*
X-70287798Y-50599761D01*
X-70383036Y-50647380D01*
X-70525893Y-50647380D01*
X-69621131Y-50647380D02*
X-69716370Y-50599761D01*
X-69763989Y-50552142D01*
X-69811608Y-50456904D01*
X-69811608Y-50171190D01*
X-69763989Y-50075952D01*
X-69716370Y-50028333D01*
X-69621131Y-49980714D01*
X-69478274Y-49980714D01*
X-69383036Y-50028333D01*
X-69335417Y-50075952D01*
X-69287798Y-50171190D01*
X-69287798Y-50456904D01*
X-69335417Y-50552142D01*
X-69383036Y-50599761D01*
X-69478274Y-50647380D01*
X-69621131Y-50647380D01*
X-68906846Y-50599761D02*
X-68811608Y-50647380D01*
X-68621131Y-50647380D01*
X-68525893Y-50599761D01*
X-68478274Y-50504523D01*
X-68478274Y-50456904D01*
X-68525893Y-50361666D01*
X-68621131Y-50314047D01*
X-68763989Y-50314047D01*
X-68859227Y-50266428D01*
X-68906846Y-50171190D01*
X-68906846Y-50123571D01*
X-68859227Y-50028333D01*
X-68763989Y-49980714D01*
X-68621131Y-49980714D01*
X-68525893Y-50028333D01*
X-68192560Y-49980714D02*
X-67811608Y-49980714D01*
X-68049703Y-49647380D02*
X-68049703Y-50504523D01*
X-68002084Y-50599761D01*
X-67906846Y-50647380D01*
X-67811608Y-50647380D01*
X-67049703Y-50647380D02*
X-67049703Y-50123571D01*
X-67097322Y-50028333D01*
X-67192560Y-49980714D01*
X-67383036Y-49980714D01*
X-67478274Y-50028333D01*
X-67049703Y-50599761D02*
X-67144941Y-50647380D01*
X-67383036Y-50647380D01*
X-67478274Y-50599761D01*
X-67525893Y-50504523D01*
X-67525893Y-50409285D01*
X-67478274Y-50314047D01*
X-67383036Y-50266428D01*
X-67144941Y-50266428D01*
X-67049703Y-50218809D01*
X-66573512Y-49980714D02*
X-66573512Y-50647380D01*
X-66573512Y-50075952D02*
X-66525893Y-50028333D01*
X-66430655Y-49980714D01*
X-66287798Y-49980714D01*
X-66192560Y-50028333D01*
X-66144941Y-50123571D01*
X-66144941Y-50647380D01*
X-91478274Y-51971666D02*
X-91002084Y-51971666D01*
X-91573512Y-52257380D02*
X-91240179Y-51257380D01*
X-90906846Y-52257380D01*
X-90573512Y-52257380D02*
X-90573512Y-51257380D01*
X-90573512Y-51638333D02*
X-90478274Y-51590714D01*
X-90287798Y-51590714D01*
X-90192560Y-51638333D01*
X-90144941Y-51685952D01*
X-90097322Y-51781190D01*
X-90097322Y-52066904D01*
X-90144941Y-52162142D01*
X-90192560Y-52209761D01*
X-90287798Y-52257380D01*
X-90478274Y-52257380D01*
X-90573512Y-52209761D01*
X-89525893Y-52257380D02*
X-89621131Y-52209761D01*
X-89668750Y-52162142D01*
X-89716370Y-52066904D01*
X-89716370Y-51781190D01*
X-89668750Y-51685952D01*
X-89621131Y-51638333D01*
X-89525893Y-51590714D01*
X-89383036Y-51590714D01*
X-89287798Y-51638333D01*
X-89240179Y-51685952D01*
X-89192560Y-51781190D01*
X-89192560Y-52066904D01*
X-89240179Y-52162142D01*
X-89287798Y-52209761D01*
X-89383036Y-52257380D01*
X-89525893Y-52257380D01*
X-88763989Y-52257380D02*
X-88763989Y-51590714D01*
X-88763989Y-51685952D02*
X-88716370Y-51638333D01*
X-88621131Y-51590714D01*
X-88478274Y-51590714D01*
X-88383036Y-51638333D01*
X-88335417Y-51733571D01*
X-88335417Y-52257380D01*
X-88335417Y-51733571D02*
X-88287798Y-51638333D01*
X-88192560Y-51590714D01*
X-88049703Y-51590714D01*
X-87954465Y-51638333D01*
X-87906846Y-51733571D01*
X-87906846Y-52257380D01*
X-87430655Y-52257380D02*
X-87430655Y-51590714D01*
X-87430655Y-51257380D02*
X-87478274Y-51305000D01*
X-87430655Y-51352619D01*
X-87383036Y-51305000D01*
X-87430655Y-51257380D01*
X-87430655Y-51352619D01*
X-86954465Y-51590714D02*
X-86954465Y-52257380D01*
X-86954465Y-51685952D02*
X-86906846Y-51638333D01*
X-86811608Y-51590714D01*
X-86668750Y-51590714D01*
X-86573512Y-51638333D01*
X-86525893Y-51733571D01*
X-86525893Y-52257380D01*
X-85621131Y-52257380D02*
X-85621131Y-51733571D01*
X-85668750Y-51638333D01*
X-85763989Y-51590714D01*
X-85954465Y-51590714D01*
X-86049703Y-51638333D01*
X-85621131Y-52209761D02*
X-85716370Y-52257380D01*
X-85954465Y-52257380D01*
X-86049703Y-52209761D01*
X-86097322Y-52114523D01*
X-86097322Y-52019285D01*
X-86049703Y-51924047D01*
X-85954465Y-51876428D01*
X-85716370Y-51876428D01*
X-85621131Y-51828809D01*
X-85287798Y-51590714D02*
X-84906846Y-51590714D01*
X-85144941Y-51257380D02*
X-85144941Y-52114523D01*
X-85097322Y-52209761D01*
X-85002084Y-52257380D01*
X-84906846Y-52257380D01*
X-84573512Y-52257380D02*
X-84573512Y-51590714D01*
X-84573512Y-51257380D02*
X-84621131Y-51305000D01*
X-84573512Y-51352619D01*
X-84525893Y-51305000D01*
X-84573512Y-51257380D01*
X-84573512Y-51352619D01*
X-83954465Y-52257380D02*
X-84049703Y-52209761D01*
X-84097322Y-52162142D01*
X-84144941Y-52066904D01*
X-84144941Y-51781190D01*
X-84097322Y-51685952D01*
X-84049703Y-51638333D01*
X-83954465Y-51590714D01*
X-83811608Y-51590714D01*
X-83716370Y-51638333D01*
X-83668750Y-51685952D01*
X-83621131Y-51781190D01*
X-83621131Y-52066904D01*
X-83668750Y-52162142D01*
X-83716370Y-52209761D01*
X-83811608Y-52257380D01*
X-83954465Y-52257380D01*
X-83192560Y-51590714D02*
X-83192560Y-52257380D01*
X-83192560Y-51685952D02*
X-83144941Y-51638333D01*
X-83049703Y-51590714D01*
X-82906846Y-51590714D01*
X-82811608Y-51638333D01*
X-82763989Y-51733571D01*
X-82763989Y-52257380D01*
X-81621131Y-51590714D02*
X-81383036Y-52257380D01*
X-81144941Y-51590714D01*
X-80240179Y-52257380D02*
X-80811608Y-52257380D01*
X-80525893Y-52257380D02*
X-80525893Y-51257380D01*
X-80621131Y-51400238D01*
X-80716370Y-51495476D01*
X-80811608Y-51543095D01*
X-79811608Y-52162142D02*
X-79763989Y-52209761D01*
X-79811608Y-52257380D01*
X-79859227Y-52209761D01*
X-79811608Y-52162142D01*
X-79811608Y-52257380D01*
X-79383036Y-51352619D02*
X-79335417Y-51305000D01*
X-79240179Y-51257380D01*
X-79002084Y-51257380D01*
X-78906846Y-51305000D01*
X-78859227Y-51352619D01*
X-78811608Y-51447857D01*
X-78811608Y-51543095D01*
X-78859227Y-51685952D01*
X-79430655Y-52257380D01*
X-78811608Y-52257380D01*
X-77621131Y-52257380D02*
X-77621131Y-51257380D01*
X-77621131Y-51638333D02*
X-77525893Y-51590714D01*
X-77335417Y-51590714D01*
X-77240179Y-51638333D01*
X-77192560Y-51685952D01*
X-77144941Y-51781190D01*
X-77144941Y-52066904D01*
X-77192560Y-52162142D01*
X-77240179Y-52209761D01*
X-77335417Y-52257380D01*
X-77525893Y-52257380D01*
X-77621131Y-52209761D01*
X-76811608Y-51590714D02*
X-76573512Y-52257380D01*
X-76335417Y-51590714D02*
X-76573512Y-52257380D01*
X-76668750Y-52495476D01*
X-76716370Y-52543095D01*
X-76811608Y-52590714D01*
X-75002084Y-51257380D02*
X-74811608Y-51257380D01*
X-74716370Y-51305000D01*
X-74621131Y-51400238D01*
X-74573512Y-51590714D01*
X-74573512Y-51924047D01*
X-74621131Y-52114523D01*
X-74716370Y-52209761D01*
X-74811608Y-52257380D01*
X-75002084Y-52257380D01*
X-75097322Y-52209761D01*
X-75192560Y-52114523D01*
X-75240179Y-51924047D01*
X-75240179Y-51590714D01*
X-75192560Y-51400238D01*
X-75097322Y-51305000D01*
X-75002084Y-51257380D01*
X-74144941Y-52257380D02*
X-74144941Y-51590714D01*
X-74144941Y-51781190D02*
X-74097322Y-51685952D01*
X-74049703Y-51638333D01*
X-73954465Y-51590714D01*
X-73859227Y-51590714D01*
X-73097322Y-52257380D02*
X-73097322Y-51733571D01*
X-73144941Y-51638333D01*
X-73240179Y-51590714D01*
X-73430655Y-51590714D01*
X-73525893Y-51638333D01*
X-73097322Y-52209761D02*
X-73192560Y-52257380D01*
X-73430655Y-52257380D01*
X-73525893Y-52209761D01*
X-73573512Y-52114523D01*
X-73573512Y-52019285D01*
X-73525893Y-51924047D01*
X-73430655Y-51876428D01*
X-73192560Y-51876428D01*
X-73097322Y-51828809D01*
X-72621131Y-51590714D02*
X-72621131Y-52257380D01*
X-72621131Y-51685952D02*
X-72573512Y-51638333D01*
X-72478274Y-51590714D01*
X-72335417Y-51590714D01*
X-72240179Y-51638333D01*
X-72192560Y-51733571D01*
X-72192560Y-52257380D01*
X-71287798Y-51590714D02*
X-71287798Y-52400238D01*
X-71335417Y-52495476D01*
X-71383036Y-52543095D01*
X-71478274Y-52590714D01*
X-71621131Y-52590714D01*
X-71716370Y-52543095D01*
X-71287798Y-52209761D02*
X-71383036Y-52257380D01*
X-71573512Y-52257380D01*
X-71668750Y-52209761D01*
X-71716370Y-52162142D01*
X-71763989Y-52066904D01*
X-71763989Y-51781190D01*
X-71716370Y-51685952D01*
X-71668750Y-51638333D01*
X-71573512Y-51590714D01*
X-71383036Y-51590714D01*
X-71287798Y-51638333D01*
X-70430655Y-52209761D02*
X-70525893Y-52257380D01*
X-70716370Y-52257380D01*
X-70811608Y-52209761D01*
X-70859227Y-52114523D01*
X-70859227Y-51733571D01*
X-70811608Y-51638333D01*
X-70716370Y-51590714D01*
X-70525893Y-51590714D01*
X-70430655Y-51638333D01*
X-70383036Y-51733571D01*
X-70383036Y-51828809D01*
X-70859227Y-51924047D01*
X-69383036Y-52162142D02*
X-69430655Y-52209761D01*
X-69573512Y-52257380D01*
X-69668751Y-52257380D01*
X-69811608Y-52209761D01*
X-69906846Y-52114523D01*
X-69954465Y-52019285D01*
X-70002084Y-51828809D01*
X-70002084Y-51685952D01*
X-69954465Y-51495476D01*
X-69906846Y-51400238D01*
X-69811608Y-51305000D01*
X-69668751Y-51257380D01*
X-69573512Y-51257380D01*
X-69430655Y-51305000D01*
X-69383036Y-51352619D01*
X-68954465Y-52257380D02*
X-68954465Y-51590714D01*
X-68954465Y-51781190D02*
X-68906846Y-51685952D01*
X-68859227Y-51638333D01*
X-68763989Y-51590714D01*
X-68668751Y-51590714D01*
X-67906846Y-51590714D02*
X-67906846Y-52257380D01*
X-68335417Y-51590714D02*
X-68335417Y-52114523D01*
X-68287798Y-52209761D01*
X-68192560Y-52257380D01*
X-68049703Y-52257380D01*
X-67954465Y-52209761D01*
X-67906846Y-52162142D01*
X-67478274Y-52209761D02*
X-67383036Y-52257380D01*
X-67192560Y-52257380D01*
X-67097322Y-52209761D01*
X-67049703Y-52114523D01*
X-67049703Y-52066904D01*
X-67097322Y-51971666D01*
X-67192560Y-51924047D01*
X-67335417Y-51924047D01*
X-67430655Y-51876428D01*
X-67478274Y-51781190D01*
X-67478274Y-51733571D01*
X-67430655Y-51638333D01*
X-67335417Y-51590714D01*
X-67192560Y-51590714D01*
X-67097322Y-51638333D01*
X-66192560Y-52257380D02*
X-66192560Y-51733571D01*
X-66240179Y-51638333D01*
X-66335417Y-51590714D01*
X-66525893Y-51590714D01*
X-66621131Y-51638333D01*
X-66192560Y-52209761D02*
X-66287798Y-52257380D01*
X-66525893Y-52257380D01*
X-66621131Y-52209761D01*
X-66668751Y-52114523D01*
X-66668751Y-52019285D01*
X-66621131Y-51924047D01*
X-66525893Y-51876428D01*
X-66287798Y-51876428D01*
X-66192560Y-51828809D01*
X-65287798Y-52257380D02*
X-65287798Y-51257380D01*
X-65287798Y-52209761D02*
X-65383036Y-52257380D01*
X-65573512Y-52257380D01*
X-65668751Y-52209761D01*
X-65716370Y-52162142D01*
X-65763989Y-52066904D01*
X-65763989Y-51781190D01*
X-65716370Y-51685952D01*
X-65668751Y-51638333D01*
X-65573512Y-51590714D01*
X-65383036Y-51590714D01*
X-65287798Y-51638333D01*
X-64430655Y-52209761D02*
X-64525893Y-52257380D01*
X-64716370Y-52257380D01*
X-64811608Y-52209761D01*
X-64859227Y-52114523D01*
X-64859227Y-51733571D01*
X-64811608Y-51638333D01*
X-64716370Y-51590714D01*
X-64525893Y-51590714D01*
X-64430655Y-51638333D01*
X-64383036Y-51733571D01*
X-64383036Y-51828809D01*
X-64859227Y-51924047D01*
X-63954465Y-52257380D02*
X-63954465Y-51590714D01*
X-63954465Y-51781190D02*
X-63906846Y-51685952D01*
X-63859227Y-51638333D01*
X-63763989Y-51590714D01*
X-63668751Y-51590714D01*
D11*
%TO.C,U1*%
X-14812280Y564120D03*
X-14812280Y-1975880D03*
X-14812280Y-4515880D03*
X-14812280Y-7055880D03*
X-14812280Y-9595880D03*
X-14812280Y-12135880D03*
X-14812280Y-14675880D03*
X2352280Y-14675880D03*
X2352280Y-12135880D03*
X2352280Y-9595880D03*
X2352280Y-7055880D03*
X2352280Y-4515880D03*
X2352280Y-1975880D03*
X2352280Y564120D03*
D12*
X-10573400Y-4515880D03*
X-1885400Y-4515880D03*
X-10573400Y-7055880D03*
X-1885400Y-7055880D03*
D13*
X-9495400Y-17983700D03*
D14*
X-9488700Y-17073700D03*
D13*
X-2945400Y-17983700D03*
D14*
X-2935400Y-17073700D03*
X-11977900Y-17073700D03*
X-446200Y-17073700D03*
D13*
X-455400Y-17953700D03*
X-11985400Y-17953700D03*
%TD*%
D15*
%TO.C,D1*%
X-115825000Y-16000000D03*
D16*
X-118325000Y-16000000D03*
D17*
X-123625000Y-16000000D03*
D16*
X-121125000Y-16000000D03*
%TD*%
%TO.C,D2*%
X-100325000Y-16000000D03*
D15*
X-97825000Y-16000000D03*
D16*
X-103125000Y-16000000D03*
D17*
X-105625000Y-16000000D03*
%TD*%
D15*
%TO.C,D3*%
X-79850000Y-11000000D03*
D16*
X-82350000Y-11000000D03*
X-85150000Y-11000000D03*
D17*
X-87650000Y-11000000D03*
%TD*%
D16*
%TO.C,D4*%
X-64375000Y-8750000D03*
D15*
X-61875000Y-8750000D03*
D17*
X-69675000Y-8750000D03*
D16*
X-67175000Y-8750000D03*
%TD*%
%TO.C,D5*%
X-46325000Y-11000000D03*
D15*
X-43825000Y-11000000D03*
D16*
X-49125000Y-11000000D03*
D17*
X-51625000Y-11000000D03*
%TD*%
D15*
%TO.C,D6*%
X-25875000Y-13500000D03*
D16*
X-28375000Y-13500000D03*
D17*
X-33675000Y-13500000D03*
D16*
X-31175000Y-13500000D03*
%TD*%
%TO.C,D8*%
X-100375000Y-32750000D03*
D15*
X-97875000Y-32750000D03*
D16*
X-103175000Y-32750000D03*
D17*
X-105675000Y-32750000D03*
%TD*%
D16*
%TO.C,D9*%
X-82350000Y-28000000D03*
D15*
X-79850000Y-28000000D03*
D16*
X-85150000Y-28000000D03*
D17*
X-87650000Y-28000000D03*
%TD*%
D15*
%TO.C,D10*%
X-61850000Y-25750000D03*
D16*
X-64350000Y-25750000D03*
X-67150000Y-25750000D03*
D17*
X-69650000Y-25750000D03*
%TD*%
D16*
%TO.C,D11*%
X-46350000Y-28000000D03*
D15*
X-43850000Y-28000000D03*
D16*
X-49150000Y-28000000D03*
D17*
X-51650000Y-28000000D03*
%TD*%
D15*
%TO.C,D12*%
X-25875000Y-30500000D03*
D16*
X-28375000Y-30500000D03*
X-31175000Y-30500000D03*
D17*
X-33675000Y-30500000D03*
%TD*%
D15*
%TO.C,D14*%
X-97875000Y-49750000D03*
D16*
X-100375000Y-49750000D03*
D17*
X-105675000Y-49750000D03*
D16*
X-103175000Y-49750000D03*
%TD*%
%TO.C,D15*%
X-82350000Y-45000000D03*
D15*
X-79850000Y-45000000D03*
D16*
X-85150000Y-45000000D03*
D17*
X-87650000Y-45000000D03*
%TD*%
D16*
%TO.C,D16*%
X-64375000Y-42750000D03*
D15*
X-61875000Y-42750000D03*
D17*
X-69675000Y-42750000D03*
D16*
X-67175000Y-42750000D03*
%TD*%
%TO.C,D17*%
X-46325000Y-45000000D03*
D15*
X-43825000Y-45000000D03*
D16*
X-49125000Y-45000000D03*
D17*
X-51625000Y-45000000D03*
%TD*%
D15*
%TO.C,D18*%
X-25875000Y-47500000D03*
D16*
X-28375000Y-47500000D03*
X-31175000Y-47500000D03*
D17*
X-33675000Y-47500000D03*
%TD*%
D15*
%TO.C,D19*%
X-49025000Y-65949000D03*
D16*
X-51525000Y-65949000D03*
X-54325000Y-65949000D03*
D17*
X-56825000Y-65949000D03*
%TD*%
D18*
%TO.C,D20*%
X-31537704Y-68602347D03*
D19*
X-29122889Y-69249394D03*
D18*
X-34242296Y-67877653D03*
D17*
X-36657111Y-67230606D03*
%TD*%
D20*
%TO.C,D21*%
X-3713000Y-67708501D03*
D21*
X-4963000Y-69873564D03*
X-6363000Y-72298436D03*
D17*
X-7613000Y-74463499D03*
%TD*%
D22*
%TO.C,SW1*%
X-119797200Y-5219600D03*
D23*
X-125297200Y-11169600D03*
X-114297200Y-11169600D03*
D22*
X-114797200Y-7419600D03*
X-124797200Y-7419600D03*
D24*
X-119797200Y-11169600D03*
D25*
X-116522200Y-5219600D03*
X-128072200Y-7419600D03*
%TD*%
D23*
%TO.C,SW2*%
X-96303100Y-11173400D03*
D22*
X-106803100Y-7423400D03*
D24*
X-101803100Y-11173400D03*
D22*
X-101803100Y-5223400D03*
X-96803100Y-7423400D03*
D23*
X-107303100Y-11173400D03*
D25*
X-98528100Y-5223400D03*
X-110078100Y-7423400D03*
%TD*%
D24*
%TO.C,SW3*%
X-83789000Y-6396600D03*
D23*
X-78289000Y-6396600D03*
X-89289000Y-6396600D03*
D22*
X-83789000Y-446600D03*
X-78789000Y-2646600D03*
X-88789000Y-2646600D03*
D25*
X-80514000Y-446600D03*
X-92064000Y-2646600D03*
%TD*%
D22*
%TO.C,SW4*%
X-70779000Y-236800D03*
D23*
X-71279000Y-3986800D03*
D22*
X-65779000Y1963200D03*
X-60779000Y-236800D03*
D23*
X-60279000Y-3986800D03*
D24*
X-65779000Y-3986800D03*
D25*
X-62504000Y1963200D03*
X-74054000Y-236800D03*
%TD*%
D23*
%TO.C,SW5*%
X-53263000Y-6307900D03*
X-42263000Y-6307900D03*
D22*
X-52763000Y-2557900D03*
D24*
X-47763000Y-6307900D03*
D22*
X-42763000Y-2557900D03*
X-47763000Y-357900D03*
D25*
X-44488000Y-357900D03*
X-56038000Y-2557900D03*
%TD*%
D24*
%TO.C,SW6*%
X-29750000Y-8708900D03*
D22*
X-29750000Y-2758900D03*
X-24750000Y-4958900D03*
D23*
X-24250000Y-8708900D03*
D22*
X-34750000Y-4958900D03*
D23*
X-35250000Y-8708900D03*
D25*
X-26475000Y-2758900D03*
X-38025000Y-4958900D03*
%TD*%
D22*
%TO.C,SW7*%
X-114797200Y-24402500D03*
D23*
X-114297200Y-28152500D03*
D22*
X-124797200Y-24402500D03*
D24*
X-119797200Y-28152500D03*
D23*
X-125297200Y-28152500D03*
D22*
X-119797200Y-22202500D03*
D25*
X-116522200Y-22202500D03*
X-128072200Y-24402500D03*
%TD*%
D23*
%TO.C,SW8*%
X-107303100Y-28187000D03*
D24*
X-101803100Y-28187000D03*
D22*
X-106803100Y-24437000D03*
X-96803100Y-24437000D03*
X-101803100Y-22237000D03*
D23*
X-96303100Y-28187000D03*
D25*
X-98528100Y-22237000D03*
X-110078100Y-24437000D03*
%TD*%
D23*
%TO.C,SW9*%
X-89287000Y-23385200D03*
D22*
X-78787000Y-19635200D03*
D23*
X-78287000Y-23385200D03*
D22*
X-83787000Y-17435200D03*
X-88787000Y-19635200D03*
D24*
X-83787000Y-23385200D03*
D25*
X-80512000Y-17435200D03*
X-92062000Y-19635200D03*
%TD*%
D23*
%TO.C,SW10*%
X-60272000Y-20988000D03*
X-71272000Y-20988000D03*
D22*
X-70772000Y-17238000D03*
X-65772000Y-15038000D03*
D24*
X-65772000Y-20988000D03*
D22*
X-60772000Y-17238000D03*
D25*
X-62497000Y-15038000D03*
X-74047000Y-17238000D03*
%TD*%
D22*
%TO.C,SW11*%
X-52763000Y-19572700D03*
X-42763000Y-19572700D03*
X-47763000Y-17372700D03*
D23*
X-53263000Y-23322700D03*
D24*
X-47763000Y-23322700D03*
D23*
X-42263000Y-23322700D03*
D25*
X-44488000Y-17372700D03*
X-56038000Y-19572700D03*
%TD*%
D22*
%TO.C,SW12*%
X-29750000Y-19800000D03*
D23*
X-35250000Y-25750000D03*
X-24250000Y-25750000D03*
D22*
X-34750000Y-22000000D03*
X-24750000Y-22000000D03*
D24*
X-29750000Y-25750000D03*
D25*
X-26475000Y-19800000D03*
X-38025000Y-22000000D03*
%TD*%
D22*
%TO.C,SW13*%
X-124797200Y-41433000D03*
X-114797200Y-41433000D03*
D24*
X-119797200Y-45183000D03*
D22*
X-119797200Y-39233000D03*
D23*
X-125297200Y-45183000D03*
X-114297200Y-45183000D03*
D25*
X-116522200Y-39233000D03*
X-128072200Y-41433000D03*
%TD*%
D23*
%TO.C,SW14*%
X-96303100Y-45171000D03*
D22*
X-96803100Y-41421000D03*
D23*
X-107303100Y-45171000D03*
D24*
X-101803100Y-45171000D03*
D22*
X-101803100Y-39221000D03*
X-106803100Y-41421000D03*
D25*
X-98528100Y-39221000D03*
X-110078100Y-41421000D03*
%TD*%
D22*
%TO.C,SW15*%
X-88786000Y-36648000D03*
X-78786000Y-36648000D03*
D24*
X-83786000Y-40398000D03*
D23*
X-78286000Y-40398000D03*
X-89286000Y-40398000D03*
D22*
X-83786000Y-34448000D03*
D25*
X-80511000Y-34448000D03*
X-92061000Y-36648000D03*
%TD*%
D23*
%TO.C,SW16*%
X-71283000Y-37977000D03*
D22*
X-70783000Y-34227000D03*
D23*
X-60283000Y-37977000D03*
D22*
X-65783000Y-32027000D03*
X-60783000Y-34227000D03*
D24*
X-65783000Y-37977000D03*
D25*
X-62508000Y-32027000D03*
X-74058000Y-34227000D03*
%TD*%
D22*
%TO.C,SW17*%
X-52763000Y-36564000D03*
X-42763000Y-36564000D03*
X-47763000Y-34364000D03*
D23*
X-53263000Y-40314000D03*
D24*
X-47763000Y-40314000D03*
D23*
X-42263000Y-40314000D03*
D25*
X-44488000Y-34364000D03*
X-56038000Y-36564000D03*
%TD*%
D22*
%TO.C,SW19*%
X-52815000Y-55200000D03*
D23*
X-47315000Y-61150000D03*
X-58315000Y-61150000D03*
D22*
X-57815000Y-57400000D03*
X-47815000Y-57400000D03*
D24*
X-52815000Y-61150000D03*
D25*
X-49540000Y-55200000D03*
X-61090000Y-57400000D03*
%TD*%
D22*
%TO.C,SW20*%
X-30096027Y-58115741D03*
D23*
X-36948592Y-62439495D03*
D22*
X-35495058Y-58946683D03*
D23*
X-26323408Y-65286505D03*
D24*
X-31636000Y-63863000D03*
D22*
X-25835799Y-61534873D03*
D26*
X-26932620Y-58963374D03*
X-38658465Y-58099051D03*
%TD*%
D22*
%TO.C,SW21*%
X-10562595Y-62494873D03*
D23*
X-7065000Y-63936860D03*
D22*
X-14967851Y-65725000D03*
D23*
X-12565000Y-73463140D03*
D22*
X-15562595Y-71155127D03*
D24*
X-9815000Y-68700000D03*
D27*
X-13330351Y-62888767D03*
X-17200095Y-73991360D03*
%TD*%
D23*
%TO.C,SW18*%
X-24243000Y-42740000D03*
D22*
X-29743000Y-36790000D03*
X-24743000Y-38990000D03*
D23*
X-35243000Y-42740000D03*
D22*
X-34743000Y-38990000D03*
D24*
X-29743000Y-42740000D03*
D25*
X-26468000Y-36790000D03*
X-38018000Y-38990000D03*
%TD*%
D15*
%TO.C,D13*%
X-115875000Y-49750000D03*
D16*
X-118375000Y-49750000D03*
X-121175000Y-49750000D03*
D17*
X-123675000Y-49750000D03*
%TD*%
D16*
%TO.C,D7*%
X-118375000Y-32750000D03*
D15*
X-115875000Y-32750000D03*
D17*
X-123675000Y-32750000D03*
D16*
X-121175000Y-32750000D03*
%TD*%
D28*
%TO.C,JP29*%
X-736400Y-53775000D03*
D29*
X-736400Y-52325000D03*
%TD*%
D30*
%TO.C,JP28*%
X-10210200Y-44406700D03*
D31*
X-8760200Y-44406700D03*
%TD*%
D30*
%TO.C,JP33*%
X-3656900Y-33401700D03*
D31*
X-2206900Y-33401700D03*
%TD*%
D30*
%TO.C,JP23*%
X-10210200Y-26065000D03*
D31*
X-8760200Y-26065000D03*
%TD*%
D30*
%TO.C,JP31*%
X-3656900Y-26065000D03*
D31*
X-2206900Y-26065000D03*
%TD*%
D30*
%TO.C,JP27*%
X-10210200Y-40738300D03*
D31*
X-8760200Y-40738300D03*
%TD*%
D30*
%TO.C,JP24*%
X-10210200Y-29733300D03*
D31*
X-8760200Y-29733300D03*
%TD*%
D32*
%TO.C,J9*%
X-18225000Y-58010000D03*
D33*
X-18225000Y-55470000D03*
%TD*%
D30*
%TO.C,JP22*%
X-10210200Y-22396700D03*
D31*
X-8760200Y-22396700D03*
%TD*%
D34*
%TO.C,SW23*%
X5536500Y-39928000D03*
X5536500Y-31728000D03*
D35*
X5536500Y-33828000D03*
D36*
X5536500Y-35828000D03*
X5536500Y-37828000D03*
%TD*%
D28*
%TO.C,JP20*%
X-4423100Y-53775000D03*
D29*
X-4423100Y-52325000D03*
%TD*%
D30*
%TO.C,JP34*%
X-3656900Y-37070000D03*
D31*
X-2206900Y-37070000D03*
%TD*%
D30*
%TO.C,JP37*%
X-3656900Y-22396700D03*
D31*
X-2206900Y-22396700D03*
%TD*%
D28*
%TO.C,JP16*%
X-11796400Y-53775000D03*
D29*
X-11796400Y-52325000D03*
%TD*%
D30*
%TO.C,JP36*%
X-3656900Y-44406700D03*
D31*
X-2206900Y-44406700D03*
%TD*%
D32*
%TO.C,J1*%
X-1235000Y-48000000D03*
D33*
X-3775000Y-48000000D03*
X-6315000Y-48000000D03*
X-8855000Y-48000000D03*
X-11395000Y-48000000D03*
%TD*%
D28*
%TO.C,JP18*%
X-8109800Y-53775000D03*
D29*
X-8109800Y-52325000D03*
%TD*%
D30*
%TO.C,JP25*%
X-10210200Y-33401700D03*
D31*
X-8760200Y-33401700D03*
%TD*%
D30*
%TO.C,JP32*%
X-3656900Y-29733300D03*
D31*
X-2206900Y-29733300D03*
%TD*%
D30*
%TO.C,JP35*%
X-3656900Y-40738300D03*
D31*
X-2206900Y-40738300D03*
%TD*%
D30*
%TO.C,JP26*%
X-10210200Y-37070000D03*
D31*
X-8760200Y-37070000D03*
%TD*%
M02*
