M48
; DRILL file {KiCad (6.0.0)} date Sun Feb 19 18:14:09 2023
; FORMAT={-:-/ absolute / inch / decimal}
; #@! TF.CreationDate,2023-02-19T18:14:09-06:00
; #@! TF.GenerationSoftware,Kicad,Pcbnew,(6.0.0)
; #@! TF.FileFunction,NonPlated,1,2,NPTH
FMAT,2
INCH
; #@! TA.AperFunction,NonPlated,NPTH,ComponentDrill
T1C0.0670
; #@! TA.AperFunction,NonPlated,NPTH,ComponentDrill
T2C0.1181
; #@! TA.AperFunction,NonPlated,NPTH,ComponentDrill
T3C0.1350
%
G90
G05
T1
X-4.933Y-0.4397
X-4.933Y-1.1084
X-4.933Y-1.7789
X-4.4999Y-0.4397
X-4.4999Y-1.1084
X-4.4999Y-1.7789
X-4.2245Y-0.4399
X-4.2245Y-1.1097
X-4.2245Y-1.7784
X-3.7915Y-0.4399
X-3.7915Y-1.1097
X-3.7915Y-1.7784
X-3.5153Y-0.2518
X-3.5152Y-0.9207
X-3.5152Y-1.5905
X-3.0822Y-0.2518
X-3.0822Y-0.9207
X-3.0821Y-1.5905
X-2.8064Y-1.4952
X-2.8063Y-0.157
X-2.806Y-0.8263
X-2.3733Y-1.4952
X-2.3732Y-0.157
X-2.3729Y-0.8263
X-2.2959Y-2.4075
X-2.097Y-0.2483
X-2.097Y-0.9182
X-2.097Y-1.5872
X-1.8628Y-2.4075
X-1.6639Y-0.2483
X-1.6639Y-0.9182
X-1.6639Y-1.5872
X-1.4547Y-2.4582
X-1.3878Y-0.3429
X-1.3878Y-1.0138
X-1.3875Y-1.6827
X-1.0364Y-2.5703
X-0.9547Y-0.3429
X-0.9547Y-1.0138
X-0.9544Y-1.6827
X-0.4947Y-2.8922
X-0.2781Y-2.5172
T2
X-4.9133Y-0.2921
X-4.9133Y-0.9607
X-4.9133Y-1.6312
X-4.7164Y-0.2055
X-4.7164Y-0.8741
X-4.7164Y-1.5446
X-4.5196Y-0.2921
X-4.5196Y-0.9607
X-4.5196Y-1.6312
X-4.2048Y-0.2923
X-4.2048Y-0.9621
X-4.2048Y-1.6307
X-4.008Y-0.2056
X-4.008Y-0.8755
X-4.008Y-1.5441
X-3.8111Y-0.2923
X-3.8111Y-0.9621
X-3.8111Y-1.6307
X-3.4956Y-0.1042
X-3.4956Y-0.773
X-3.4955Y-1.4428
X-3.2988Y-0.0176
X-3.2987Y-0.6864
X-3.2987Y-1.3562
X-3.1019Y-0.1042
X-3.1019Y-0.773
X-3.1018Y-1.4428
X-2.7867Y-1.3475
X-2.7866Y-0.0093
X-2.7863Y-0.6787
X-2.5899Y-1.2609
X-2.5897Y0.0773
X-2.5894Y-0.592
X-2.393Y-1.3475
X-2.3929Y-0.0093
X-2.3926Y-0.6787
X-2.2762Y-2.2598
X-2.0793Y-2.1732
X-2.0773Y-0.1007
X-2.0773Y-0.7706
X-2.0773Y-1.4395
X-1.8825Y-2.2598
X-1.8804Y-0.0141
X-1.8804Y-0.684
X-1.8804Y-1.3529
X-1.6836Y-0.1007
X-1.6836Y-0.7706
X-1.6836Y-1.4395
X-1.3974Y-2.3207
X-1.3681Y-0.1952
X-1.3681Y-0.8661
X-1.3678Y-1.535
X-1.1849Y-2.288
X-1.1713Y-0.1086
X-1.1713Y-0.7795
X-1.171Y-1.4484
X-1.0172Y-2.4226
X-0.9744Y-0.1952
X-0.9744Y-0.8661
X-0.9741Y-1.535
X-0.6127Y-2.8014
X-0.5893Y-2.5876
X-0.4159Y-2.4604
T3
X-4.7164Y-0.4397
X-4.7164Y-1.1084
X-4.7164Y-1.7789
X-4.008Y-0.4399
X-4.008Y-1.1097
X-4.008Y-1.7784
X-3.2988Y-0.2518
X-3.2987Y-0.9207
X-3.2987Y-1.5905
X-2.5899Y-1.4952
X-2.5897Y-0.157
X-2.5894Y-0.8263
X-2.0793Y-2.4075
X-1.8804Y-0.2483
X-1.8804Y-0.9182
X-1.8804Y-1.5872
X-1.2455Y-2.5143
X-1.1713Y-0.3429
X-1.1713Y-1.0138
X-1.171Y-1.6827
X-0.3864Y-2.7047
T0
M30
