%TF.GenerationSoftware,KiCad,Pcbnew,(6.0.0)*%
%TF.CreationDate,2023-02-19T18:14:09-06:00*%
%TF.ProjectId,corne-chocolate,636f726e-652d-4636-986f-636f6c617465,1.0*%
%TF.SameCoordinates,Original*%
%TF.FileFunction,Soldermask,Bot*%
%TF.FilePolarity,Negative*%
%FSLAX46Y46*%
G04 Gerber Fmt 4.6, Leading zero omitted, Abs format (unit mm)*
G04 Created by KiCad (PCBNEW (6.0.0)) date 2023-02-19 18:14:09*
%MOMM*%
%LPD*%
G01*
G04 APERTURE LIST*
G04 Aperture macros list*
%AMRoundRect*
0 Rectangle with rounded corners*
0 $1 Rounding radius*
0 $2 $3 $4 $5 $6 $7 $8 $9 X,Y pos of 4 corners*
0 Add a 4 corners polygon primitive as box body*
4,1,4,$2,$3,$4,$5,$6,$7,$8,$9,$2,$3,0*
0 Add four circle primitives for the rounded corners*
1,1,$1+$1,$2,$3*
1,1,$1+$1,$4,$5*
1,1,$1+$1,$6,$7*
1,1,$1+$1,$8,$9*
0 Add four rect primitives between the rounded corners*
20,1,$1+$1,$2,$3,$4,$5,0*
20,1,$1+$1,$4,$5,$6,$7,0*
20,1,$1+$1,$6,$7,$8,$9,0*
20,1,$1+$1,$8,$9,$2,$3,0*%
%AMRotRect*
0 Rectangle, with rotation*
0 The origin of the aperture is its center*
0 $1 length*
0 $2 width*
0 $3 Rotation angle, in degrees counterclockwise*
0 Add horizontal line*
21,1,$1,$2,0,0,$3*%
%AMFreePoly0*
4,1,6,1.000000,0.000000,0.500000,-0.750000,-0.500000,-0.750000,-0.500000,0.750000,0.500000,0.750000,1.000000,0.000000,1.000000,0.000000,$1*%
%AMFreePoly1*
4,1,6,0.500000,-0.750000,-0.650000,-0.750000,-0.150000,0.000000,-0.650000,0.750000,0.500000,0.750000,0.500000,-0.750000,0.500000,-0.750000,$1*%
G04 Aperture macros list end*
%ADD10C,0.125000*%
%ADD11O,3.748280X1.998980*%
%ADD12C,1.998980*%
%ADD13O,1.998980X2.998470*%
%ADD14C,1.000000*%
%ADD15R,1.600000X1.600000*%
%ADD16R,1.600000X1.200000*%
%ADD17C,1.600000*%
%ADD18RotRect,1.600000X1.600000X345.000000*%
%ADD19RotRect,1.600000X1.200000X345.000000*%
%ADD20RotRect,1.600000X1.200000X60.000000*%
%ADD21RotRect,1.600000X1.600000X60.000000*%
%ADD22C,3.000000*%
%ADD23C,1.701800*%
%ADD24C,3.429000*%
%ADD25R,2.600000X2.600000*%
%ADD26RotRect,2.600000X2.600000X165.000000*%
%ADD27RotRect,2.600000X2.600000X240.000000*%
%ADD28R,1.700000X1.700000*%
%ADD29O,1.700000X1.700000*%
%ADD30O,3.500000X2.200000*%
%ADD31R,2.500000X1.500000*%
%ADD32O,2.500000X1.500000*%
%ADD33FreePoly0,270.000000*%
%ADD34FreePoly1,270.000000*%
%ADD35FreePoly0,180.000000*%
%ADD36FreePoly1,180.000000*%
%ADD37RoundRect,0.150000X-0.163157X0.267404X-0.313157X0.007596X0.163157X-0.267404X0.313157X-0.007596X0*%
%ADD38RoundRect,0.175000X-0.107356X0.264054X-0.282356X-0.039054X0.107356X-0.264054X0.282356X0.039054X0*%
G04 APERTURE END LIST*
D10*
X-64259822Y-49647380D02*
X-64450298Y-49647380D01*
X-64545536Y-49695000D01*
X-64640774Y-49790238D01*
X-64688393Y-49980714D01*
X-64688393Y-50314047D01*
X-64640774Y-50504523D01*
X-64545536Y-50599761D01*
X-64450298Y-50647380D01*
X-64259822Y-50647380D01*
X-64164584Y-50599761D01*
X-64069346Y-50504523D01*
X-64021727Y-50314047D01*
X-64021727Y-49980714D01*
X-64069346Y-49790238D01*
X-64164584Y-49695000D01*
X-64259822Y-49647380D01*
X-65116965Y-50647380D02*
X-65116965Y-49980714D01*
X-65116965Y-50171190D02*
X-65164584Y-50075952D01*
X-65212203Y-50028333D01*
X-65307441Y-49980714D01*
X-65402679Y-49980714D01*
X-65736012Y-50647380D02*
X-65736012Y-49980714D01*
X-65736012Y-49647380D02*
X-65688393Y-49695000D01*
X-65736012Y-49742619D01*
X-65783631Y-49695000D01*
X-65736012Y-49647380D01*
X-65736012Y-49742619D01*
X-66640774Y-49980714D02*
X-66640774Y-50790238D01*
X-66593155Y-50885476D01*
X-66545536Y-50933095D01*
X-66450298Y-50980714D01*
X-66307441Y-50980714D01*
X-66212203Y-50933095D01*
X-66640774Y-50599761D02*
X-66545536Y-50647380D01*
X-66355060Y-50647380D01*
X-66259822Y-50599761D01*
X-66212203Y-50552142D01*
X-66164584Y-50456904D01*
X-66164584Y-50171190D01*
X-66212203Y-50075952D01*
X-66259822Y-50028333D01*
X-66355060Y-49980714D01*
X-66545536Y-49980714D01*
X-66640774Y-50028333D01*
X-67116965Y-50647380D02*
X-67116965Y-49980714D01*
X-67116965Y-49647380D02*
X-67069346Y-49695000D01*
X-67116965Y-49742619D01*
X-67164584Y-49695000D01*
X-67116965Y-49647380D01*
X-67116965Y-49742619D01*
X-67593155Y-49980714D02*
X-67593155Y-50647380D01*
X-67593155Y-50075952D02*
X-67640774Y-50028333D01*
X-67736012Y-49980714D01*
X-67878870Y-49980714D01*
X-67974108Y-50028333D01*
X-68021727Y-50123571D01*
X-68021727Y-50647380D01*
X-68926489Y-50647380D02*
X-68926489Y-50123571D01*
X-68878870Y-50028333D01*
X-68783631Y-49980714D01*
X-68593155Y-49980714D01*
X-68497917Y-50028333D01*
X-68926489Y-50599761D02*
X-68831250Y-50647380D01*
X-68593155Y-50647380D01*
X-68497917Y-50599761D01*
X-68450298Y-50504523D01*
X-68450298Y-50409285D01*
X-68497917Y-50314047D01*
X-68593155Y-50266428D01*
X-68831250Y-50266428D01*
X-68926489Y-50218809D01*
X-69545536Y-50647380D02*
X-69450298Y-50599761D01*
X-69402679Y-50504523D01*
X-69402679Y-49647380D01*
X-70688393Y-50647380D02*
X-70688393Y-49647380D01*
X-71069346Y-49647380D01*
X-71164584Y-49695000D01*
X-71212203Y-49742619D01*
X-71259822Y-49837857D01*
X-71259822Y-49980714D01*
X-71212203Y-50075952D01*
X-71164584Y-50123571D01*
X-71069346Y-50171190D01*
X-70688393Y-50171190D01*
X-72259822Y-50552142D02*
X-72212203Y-50599761D01*
X-72069346Y-50647380D01*
X-71974108Y-50647380D01*
X-71831250Y-50599761D01*
X-71736012Y-50504523D01*
X-71688393Y-50409285D01*
X-71640774Y-50218809D01*
X-71640774Y-50075952D01*
X-71688393Y-49885476D01*
X-71736012Y-49790238D01*
X-71831250Y-49695000D01*
X-71974108Y-49647380D01*
X-72069346Y-49647380D01*
X-72212203Y-49695000D01*
X-72259822Y-49742619D01*
X-73021727Y-50123571D02*
X-73164584Y-50171190D01*
X-73212203Y-50218809D01*
X-73259822Y-50314047D01*
X-73259822Y-50456904D01*
X-73212203Y-50552142D01*
X-73164584Y-50599761D01*
X-73069346Y-50647380D01*
X-72688393Y-50647380D01*
X-72688393Y-49647380D01*
X-73021727Y-49647380D01*
X-73116965Y-49695000D01*
X-73164584Y-49742619D01*
X-73212203Y-49837857D01*
X-73212203Y-49933095D01*
X-73164584Y-50028333D01*
X-73116965Y-50075952D01*
X-73021727Y-50123571D01*
X-72688393Y-50123571D01*
X-74878870Y-50647380D02*
X-74878870Y-49647380D01*
X-74878870Y-50599761D02*
X-74783631Y-50647380D01*
X-74593155Y-50647380D01*
X-74497917Y-50599761D01*
X-74450298Y-50552142D01*
X-74402679Y-50456904D01*
X-74402679Y-50171190D01*
X-74450298Y-50075952D01*
X-74497917Y-50028333D01*
X-74593155Y-49980714D01*
X-74783631Y-49980714D01*
X-74878870Y-50028333D01*
X-75736012Y-50599761D02*
X-75640774Y-50647380D01*
X-75450298Y-50647380D01*
X-75355060Y-50599761D01*
X-75307441Y-50504523D01*
X-75307441Y-50123571D01*
X-75355060Y-50028333D01*
X-75450298Y-49980714D01*
X-75640774Y-49980714D01*
X-75736012Y-50028333D01*
X-75783631Y-50123571D01*
X-75783631Y-50218809D01*
X-75307441Y-50314047D01*
X-76164584Y-50599761D02*
X-76259822Y-50647380D01*
X-76450298Y-50647380D01*
X-76545536Y-50599761D01*
X-76593155Y-50504523D01*
X-76593155Y-50456904D01*
X-76545536Y-50361666D01*
X-76450298Y-50314047D01*
X-76307441Y-50314047D01*
X-76212203Y-50266428D01*
X-76164584Y-50171190D01*
X-76164584Y-50123571D01*
X-76212203Y-50028333D01*
X-76307441Y-49980714D01*
X-76450298Y-49980714D01*
X-76545536Y-50028333D01*
X-77021727Y-50647380D02*
X-77021727Y-49980714D01*
X-77021727Y-49647380D02*
X-76974108Y-49695000D01*
X-77021727Y-49742619D01*
X-77069346Y-49695000D01*
X-77021727Y-49647380D01*
X-77021727Y-49742619D01*
X-77926489Y-49980714D02*
X-77926489Y-50790238D01*
X-77878870Y-50885476D01*
X-77831250Y-50933095D01*
X-77736012Y-50980714D01*
X-77593155Y-50980714D01*
X-77497917Y-50933095D01*
X-77926489Y-50599761D02*
X-77831250Y-50647380D01*
X-77640774Y-50647380D01*
X-77545536Y-50599761D01*
X-77497917Y-50552142D01*
X-77450298Y-50456904D01*
X-77450298Y-50171190D01*
X-77497917Y-50075952D01*
X-77545536Y-50028333D01*
X-77640774Y-49980714D01*
X-77831250Y-49980714D01*
X-77926489Y-50028333D01*
X-78402679Y-49980714D02*
X-78402679Y-50647380D01*
X-78402679Y-50075952D02*
X-78450298Y-50028333D01*
X-78545536Y-49980714D01*
X-78688393Y-49980714D01*
X-78783631Y-50028333D01*
X-78831250Y-50123571D01*
X-78831250Y-50647380D01*
X-79688393Y-50599761D02*
X-79593155Y-50647380D01*
X-79402679Y-50647380D01*
X-79307441Y-50599761D01*
X-79259822Y-50504523D01*
X-79259822Y-50123571D01*
X-79307441Y-50028333D01*
X-79402679Y-49980714D01*
X-79593155Y-49980714D01*
X-79688393Y-50028333D01*
X-79736012Y-50123571D01*
X-79736012Y-50218809D01*
X-79259822Y-50314047D01*
X-80593155Y-50647380D02*
X-80593155Y-49647380D01*
X-80593155Y-50599761D02*
X-80497917Y-50647380D01*
X-80307441Y-50647380D01*
X-80212203Y-50599761D01*
X-80164584Y-50552142D01*
X-80116965Y-50456904D01*
X-80116965Y-50171190D01*
X-80164584Y-50075952D01*
X-80212203Y-50028333D01*
X-80307441Y-49980714D01*
X-80497917Y-49980714D01*
X-80593155Y-50028333D01*
X-81831250Y-50647380D02*
X-81831250Y-49647380D01*
X-81831250Y-50028333D02*
X-81926489Y-49980714D01*
X-82116965Y-49980714D01*
X-82212203Y-50028333D01*
X-82259822Y-50075952D01*
X-82307441Y-50171190D01*
X-82307441Y-50456904D01*
X-82259822Y-50552142D01*
X-82212203Y-50599761D01*
X-82116965Y-50647380D01*
X-81926489Y-50647380D01*
X-81831250Y-50599761D01*
X-82640774Y-49980714D02*
X-82878870Y-50647380D01*
X-83116965Y-49980714D02*
X-82878870Y-50647380D01*
X-82783631Y-50885476D01*
X-82736012Y-50933095D01*
X-82640774Y-50980714D01*
X-84116965Y-49980714D02*
X-84497917Y-49980714D01*
X-84259822Y-50647380D02*
X-84259822Y-49790238D01*
X-84307441Y-49695000D01*
X-84402679Y-49647380D01*
X-84497917Y-49647380D01*
X-84974108Y-50647380D02*
X-84878870Y-50599761D01*
X-84831250Y-50552142D01*
X-84783631Y-50456904D01*
X-84783631Y-50171190D01*
X-84831250Y-50075952D01*
X-84878870Y-50028333D01*
X-84974108Y-49980714D01*
X-85116965Y-49980714D01*
X-85212203Y-50028333D01*
X-85259822Y-50075952D01*
X-85307441Y-50171190D01*
X-85307441Y-50456904D01*
X-85259822Y-50552142D01*
X-85212203Y-50599761D01*
X-85116965Y-50647380D01*
X-84974108Y-50647380D01*
X-85878870Y-50647380D02*
X-85783631Y-50599761D01*
X-85736012Y-50552142D01*
X-85688393Y-50456904D01*
X-85688393Y-50171190D01*
X-85736012Y-50075952D01*
X-85783631Y-50028333D01*
X-85878870Y-49980714D01*
X-86021727Y-49980714D01*
X-86116965Y-50028333D01*
X-86164584Y-50075952D01*
X-86212203Y-50171190D01*
X-86212203Y-50456904D01*
X-86164584Y-50552142D01*
X-86116965Y-50599761D01*
X-86021727Y-50647380D01*
X-85878870Y-50647380D01*
X-86593155Y-50599761D02*
X-86688393Y-50647380D01*
X-86878870Y-50647380D01*
X-86974108Y-50599761D01*
X-87021727Y-50504523D01*
X-87021727Y-50456904D01*
X-86974108Y-50361666D01*
X-86878870Y-50314047D01*
X-86736012Y-50314047D01*
X-86640774Y-50266428D01*
X-86593155Y-50171190D01*
X-86593155Y-50123571D01*
X-86640774Y-50028333D01*
X-86736012Y-49980714D01*
X-86878870Y-49980714D01*
X-86974108Y-50028333D01*
X-87307441Y-49980714D02*
X-87688393Y-49980714D01*
X-87450298Y-49647380D02*
X-87450298Y-50504523D01*
X-87497917Y-50599761D01*
X-87593155Y-50647380D01*
X-87688393Y-50647380D01*
X-88450298Y-50647380D02*
X-88450298Y-50123571D01*
X-88402679Y-50028333D01*
X-88307441Y-49980714D01*
X-88116965Y-49980714D01*
X-88021727Y-50028333D01*
X-88450298Y-50599761D02*
X-88355060Y-50647380D01*
X-88116965Y-50647380D01*
X-88021727Y-50599761D01*
X-87974108Y-50504523D01*
X-87974108Y-50409285D01*
X-88021727Y-50314047D01*
X-88116965Y-50266428D01*
X-88355060Y-50266428D01*
X-88450298Y-50218809D01*
X-88926489Y-49980714D02*
X-88926489Y-50647380D01*
X-88926489Y-50075952D02*
X-88974108Y-50028333D01*
X-89069346Y-49980714D01*
X-89212203Y-49980714D01*
X-89307441Y-50028333D01*
X-89355060Y-50123571D01*
X-89355060Y-50647380D01*
X-64021727Y-51971666D02*
X-64497917Y-51971666D01*
X-63926489Y-52257380D02*
X-64259822Y-51257380D01*
X-64593155Y-52257380D01*
X-64926489Y-52257380D02*
X-64926489Y-51257380D01*
X-64926489Y-51638333D02*
X-65021727Y-51590714D01*
X-65212203Y-51590714D01*
X-65307441Y-51638333D01*
X-65355060Y-51685952D01*
X-65402679Y-51781190D01*
X-65402679Y-52066904D01*
X-65355060Y-52162142D01*
X-65307441Y-52209761D01*
X-65212203Y-52257380D01*
X-65021727Y-52257380D01*
X-64926489Y-52209761D01*
X-65974108Y-52257380D02*
X-65878870Y-52209761D01*
X-65831250Y-52162142D01*
X-65783631Y-52066904D01*
X-65783631Y-51781190D01*
X-65831250Y-51685952D01*
X-65878870Y-51638333D01*
X-65974108Y-51590714D01*
X-66116965Y-51590714D01*
X-66212203Y-51638333D01*
X-66259822Y-51685952D01*
X-66307441Y-51781190D01*
X-66307441Y-52066904D01*
X-66259822Y-52162142D01*
X-66212203Y-52209761D01*
X-66116965Y-52257380D01*
X-65974108Y-52257380D01*
X-66736012Y-52257380D02*
X-66736012Y-51590714D01*
X-66736012Y-51685952D02*
X-66783631Y-51638333D01*
X-66878870Y-51590714D01*
X-67021727Y-51590714D01*
X-67116965Y-51638333D01*
X-67164584Y-51733571D01*
X-67164584Y-52257380D01*
X-67164584Y-51733571D02*
X-67212203Y-51638333D01*
X-67307441Y-51590714D01*
X-67450298Y-51590714D01*
X-67545536Y-51638333D01*
X-67593155Y-51733571D01*
X-67593155Y-52257380D01*
X-68069346Y-52257380D02*
X-68069346Y-51590714D01*
X-68069346Y-51257380D02*
X-68021727Y-51305000D01*
X-68069346Y-51352619D01*
X-68116965Y-51305000D01*
X-68069346Y-51257380D01*
X-68069346Y-51352619D01*
X-68545536Y-51590714D02*
X-68545536Y-52257380D01*
X-68545536Y-51685952D02*
X-68593155Y-51638333D01*
X-68688393Y-51590714D01*
X-68831250Y-51590714D01*
X-68926489Y-51638333D01*
X-68974108Y-51733571D01*
X-68974108Y-52257380D01*
X-69878870Y-52257380D02*
X-69878870Y-51733571D01*
X-69831250Y-51638333D01*
X-69736012Y-51590714D01*
X-69545536Y-51590714D01*
X-69450298Y-51638333D01*
X-69878870Y-52209761D02*
X-69783631Y-52257380D01*
X-69545536Y-52257380D01*
X-69450298Y-52209761D01*
X-69402679Y-52114523D01*
X-69402679Y-52019285D01*
X-69450298Y-51924047D01*
X-69545536Y-51876428D01*
X-69783631Y-51876428D01*
X-69878870Y-51828809D01*
X-70212203Y-51590714D02*
X-70593155Y-51590714D01*
X-70355060Y-51257380D02*
X-70355060Y-52114523D01*
X-70402679Y-52209761D01*
X-70497917Y-52257380D01*
X-70593155Y-52257380D01*
X-70926489Y-52257380D02*
X-70926489Y-51590714D01*
X-70926489Y-51257380D02*
X-70878870Y-51305000D01*
X-70926489Y-51352619D01*
X-70974108Y-51305000D01*
X-70926489Y-51257380D01*
X-70926489Y-51352619D01*
X-71545536Y-52257380D02*
X-71450298Y-52209761D01*
X-71402679Y-52162142D01*
X-71355060Y-52066904D01*
X-71355060Y-51781190D01*
X-71402679Y-51685952D01*
X-71450298Y-51638333D01*
X-71545536Y-51590714D01*
X-71688393Y-51590714D01*
X-71783631Y-51638333D01*
X-71831250Y-51685952D01*
X-71878870Y-51781190D01*
X-71878870Y-52066904D01*
X-71831250Y-52162142D01*
X-71783631Y-52209761D01*
X-71688393Y-52257380D01*
X-71545536Y-52257380D01*
X-72307441Y-51590714D02*
X-72307441Y-52257380D01*
X-72307441Y-51685952D02*
X-72355060Y-51638333D01*
X-72450298Y-51590714D01*
X-72593155Y-51590714D01*
X-72688393Y-51638333D01*
X-72736012Y-51733571D01*
X-72736012Y-52257380D01*
X-73878870Y-51590714D02*
X-74116965Y-52257380D01*
X-74355060Y-51590714D01*
X-75259822Y-52257380D02*
X-74688393Y-52257380D01*
X-74974108Y-52257380D02*
X-74974108Y-51257380D01*
X-74878870Y-51400238D01*
X-74783631Y-51495476D01*
X-74688393Y-51543095D01*
X-75688393Y-52162142D02*
X-75736012Y-52209761D01*
X-75688393Y-52257380D01*
X-75640774Y-52209761D01*
X-75688393Y-52162142D01*
X-75688393Y-52257380D01*
X-76116965Y-51352619D02*
X-76164584Y-51305000D01*
X-76259822Y-51257380D01*
X-76497917Y-51257380D01*
X-76593155Y-51305000D01*
X-76640774Y-51352619D01*
X-76688393Y-51447857D01*
X-76688393Y-51543095D01*
X-76640774Y-51685952D01*
X-76069346Y-52257380D01*
X-76688393Y-52257380D01*
X-77878870Y-52257380D02*
X-77878870Y-51257380D01*
X-77878870Y-51638333D02*
X-77974108Y-51590714D01*
X-78164584Y-51590714D01*
X-78259822Y-51638333D01*
X-78307441Y-51685952D01*
X-78355060Y-51781190D01*
X-78355060Y-52066904D01*
X-78307441Y-52162142D01*
X-78259822Y-52209761D01*
X-78164584Y-52257380D01*
X-77974108Y-52257380D01*
X-77878870Y-52209761D01*
X-78688393Y-51590714D02*
X-78926489Y-52257380D01*
X-79164584Y-51590714D02*
X-78926489Y-52257380D01*
X-78831250Y-52495476D01*
X-78783631Y-52543095D01*
X-78688393Y-52590714D01*
X-80497917Y-51257380D02*
X-80688393Y-51257380D01*
X-80783631Y-51305000D01*
X-80878870Y-51400238D01*
X-80926489Y-51590714D01*
X-80926489Y-51924047D01*
X-80878870Y-52114523D01*
X-80783631Y-52209761D01*
X-80688393Y-52257380D01*
X-80497917Y-52257380D01*
X-80402679Y-52209761D01*
X-80307441Y-52114523D01*
X-80259822Y-51924047D01*
X-80259822Y-51590714D01*
X-80307441Y-51400238D01*
X-80402679Y-51305000D01*
X-80497917Y-51257380D01*
X-81355060Y-52257380D02*
X-81355060Y-51590714D01*
X-81355060Y-51781190D02*
X-81402679Y-51685952D01*
X-81450298Y-51638333D01*
X-81545536Y-51590714D01*
X-81640774Y-51590714D01*
X-82402679Y-52257380D02*
X-82402679Y-51733571D01*
X-82355060Y-51638333D01*
X-82259822Y-51590714D01*
X-82069346Y-51590714D01*
X-81974108Y-51638333D01*
X-82402679Y-52209761D02*
X-82307441Y-52257380D01*
X-82069346Y-52257380D01*
X-81974108Y-52209761D01*
X-81926489Y-52114523D01*
X-81926489Y-52019285D01*
X-81974108Y-51924047D01*
X-82069346Y-51876428D01*
X-82307441Y-51876428D01*
X-82402679Y-51828809D01*
X-82878870Y-51590714D02*
X-82878870Y-52257380D01*
X-82878870Y-51685952D02*
X-82926489Y-51638333D01*
X-83021727Y-51590714D01*
X-83164584Y-51590714D01*
X-83259822Y-51638333D01*
X-83307441Y-51733571D01*
X-83307441Y-52257380D01*
X-84212203Y-51590714D02*
X-84212203Y-52400238D01*
X-84164584Y-52495476D01*
X-84116965Y-52543095D01*
X-84021727Y-52590714D01*
X-83878870Y-52590714D01*
X-83783631Y-52543095D01*
X-84212203Y-52209761D02*
X-84116965Y-52257380D01*
X-83926489Y-52257380D01*
X-83831250Y-52209761D01*
X-83783631Y-52162142D01*
X-83736012Y-52066904D01*
X-83736012Y-51781190D01*
X-83783631Y-51685952D01*
X-83831250Y-51638333D01*
X-83926489Y-51590714D01*
X-84116965Y-51590714D01*
X-84212203Y-51638333D01*
X-85069346Y-52209761D02*
X-84974108Y-52257380D01*
X-84783631Y-52257380D01*
X-84688393Y-52209761D01*
X-84640774Y-52114523D01*
X-84640774Y-51733571D01*
X-84688393Y-51638333D01*
X-84783631Y-51590714D01*
X-84974108Y-51590714D01*
X-85069346Y-51638333D01*
X-85116965Y-51733571D01*
X-85116965Y-51828809D01*
X-84640774Y-51924047D01*
X-86116965Y-52162142D02*
X-86069346Y-52209761D01*
X-85926489Y-52257380D01*
X-85831250Y-52257380D01*
X-85688393Y-52209761D01*
X-85593155Y-52114523D01*
X-85545536Y-52019285D01*
X-85497917Y-51828809D01*
X-85497917Y-51685952D01*
X-85545536Y-51495476D01*
X-85593155Y-51400238D01*
X-85688393Y-51305000D01*
X-85831250Y-51257380D01*
X-85926489Y-51257380D01*
X-86069346Y-51305000D01*
X-86116965Y-51352619D01*
X-86545536Y-52257380D02*
X-86545536Y-51590714D01*
X-86545536Y-51781190D02*
X-86593155Y-51685952D01*
X-86640774Y-51638333D01*
X-86736012Y-51590714D01*
X-86831250Y-51590714D01*
X-87593155Y-51590714D02*
X-87593155Y-52257380D01*
X-87164584Y-51590714D02*
X-87164584Y-52114523D01*
X-87212203Y-52209761D01*
X-87307441Y-52257380D01*
X-87450298Y-52257380D01*
X-87545536Y-52209761D01*
X-87593155Y-52162142D01*
X-88021727Y-52209761D02*
X-88116965Y-52257380D01*
X-88307441Y-52257380D01*
X-88402679Y-52209761D01*
X-88450298Y-52114523D01*
X-88450298Y-52066904D01*
X-88402679Y-51971666D01*
X-88307441Y-51924047D01*
X-88164584Y-51924047D01*
X-88069346Y-51876428D01*
X-88021727Y-51781190D01*
X-88021727Y-51733571D01*
X-88069346Y-51638333D01*
X-88164584Y-51590714D01*
X-88307441Y-51590714D01*
X-88402679Y-51638333D01*
X-89307441Y-52257380D02*
X-89307441Y-51733571D01*
X-89259822Y-51638333D01*
X-89164584Y-51590714D01*
X-88974108Y-51590714D01*
X-88878870Y-51638333D01*
X-89307441Y-52209761D02*
X-89212203Y-52257380D01*
X-88974108Y-52257380D01*
X-88878870Y-52209761D01*
X-88831250Y-52114523D01*
X-88831250Y-52019285D01*
X-88878870Y-51924047D01*
X-88974108Y-51876428D01*
X-89212203Y-51876428D01*
X-89307441Y-51828809D01*
X-90212203Y-52257380D02*
X-90212203Y-51257380D01*
X-90212203Y-52209761D02*
X-90116965Y-52257380D01*
X-89926489Y-52257380D01*
X-89831250Y-52209761D01*
X-89783631Y-52162142D01*
X-89736012Y-52066904D01*
X-89736012Y-51781190D01*
X-89783631Y-51685952D01*
X-89831250Y-51638333D01*
X-89926489Y-51590714D01*
X-90116965Y-51590714D01*
X-90212203Y-51638333D01*
X-91069346Y-52209761D02*
X-90974108Y-52257380D01*
X-90783631Y-52257380D01*
X-90688393Y-52209761D01*
X-90640774Y-52114523D01*
X-90640774Y-51733571D01*
X-90688393Y-51638333D01*
X-90783631Y-51590714D01*
X-90974108Y-51590714D01*
X-91069346Y-51638333D01*
X-91116965Y-51733571D01*
X-91116965Y-51828809D01*
X-90640774Y-51924047D01*
X-91545536Y-52257380D02*
X-91545536Y-51590714D01*
X-91545536Y-51781190D02*
X-91593155Y-51685952D01*
X-91640774Y-51638333D01*
X-91736012Y-51590714D01*
X-91831250Y-51590714D01*
D11*
%TO.C,U1*%
X-14812280Y564120D03*
X-14812280Y-1975880D03*
X-14812280Y-4515880D03*
X-14812280Y-7055880D03*
X-14812280Y-9595880D03*
X-14812280Y-12135880D03*
X-14812280Y-14675880D03*
X2352280Y-14675880D03*
X2352280Y-12135880D03*
X2352280Y-9595880D03*
X2352280Y-7055880D03*
X2352280Y-4515880D03*
X2352280Y-1975880D03*
X2352280Y564120D03*
D12*
X-10573400Y-4515880D03*
X-1885400Y-4515880D03*
X-10573400Y-7055880D03*
X-1885400Y-7055880D03*
D13*
X-9488700Y-17073700D03*
D14*
X-2945400Y-17933700D03*
D13*
X-2935400Y-17073700D03*
D14*
X-9485400Y-17953700D03*
D13*
X-11977900Y-17073700D03*
D14*
X-455400Y-17933700D03*
X-12005400Y-17973700D03*
D13*
X-446200Y-17073700D03*
%TD*%
D15*
%TO.C,D1*%
X-115825000Y-16000000D03*
D16*
X-118325000Y-16000000D03*
X-121125000Y-16000000D03*
D17*
X-123625000Y-16000000D03*
%TD*%
D16*
%TO.C,D2*%
X-100325000Y-16000000D03*
D15*
X-97825000Y-16000000D03*
D16*
X-103125000Y-16000000D03*
D17*
X-105625000Y-16000000D03*
%TD*%
D15*
%TO.C,D3*%
X-79850000Y-11000000D03*
D16*
X-82350000Y-11000000D03*
X-85150000Y-11000000D03*
D17*
X-87650000Y-11000000D03*
%TD*%
D16*
%TO.C,D4*%
X-64375000Y-8750000D03*
D15*
X-61875000Y-8750000D03*
D16*
X-67175000Y-8750000D03*
D17*
X-69675000Y-8750000D03*
%TD*%
D16*
%TO.C,D5*%
X-46325000Y-11000000D03*
D15*
X-43825000Y-11000000D03*
D16*
X-49125000Y-11000000D03*
D17*
X-51625000Y-11000000D03*
%TD*%
D15*
%TO.C,D6*%
X-25875000Y-13500000D03*
D16*
X-28375000Y-13500000D03*
D17*
X-33675000Y-13500000D03*
D16*
X-31175000Y-13500000D03*
%TD*%
%TO.C,D8*%
X-100375000Y-32750000D03*
D15*
X-97875000Y-32750000D03*
D16*
X-103175000Y-32750000D03*
D17*
X-105675000Y-32750000D03*
%TD*%
D16*
%TO.C,D9*%
X-82350000Y-28000000D03*
D15*
X-79850000Y-28000000D03*
D17*
X-87650000Y-28000000D03*
D16*
X-85150000Y-28000000D03*
%TD*%
D15*
%TO.C,D10*%
X-61850000Y-25750000D03*
D16*
X-64350000Y-25750000D03*
X-67150000Y-25750000D03*
D17*
X-69650000Y-25750000D03*
%TD*%
D16*
%TO.C,D11*%
X-46350000Y-28000000D03*
D15*
X-43850000Y-28000000D03*
D16*
X-49150000Y-28000000D03*
D17*
X-51650000Y-28000000D03*
%TD*%
D16*
%TO.C,D12*%
X-28375000Y-30500000D03*
D15*
X-25875000Y-30500000D03*
D16*
X-31175000Y-30500000D03*
D17*
X-33675000Y-30500000D03*
%TD*%
D15*
%TO.C,D14*%
X-97875000Y-49750000D03*
D16*
X-100375000Y-49750000D03*
D17*
X-105675000Y-49750000D03*
D16*
X-103175000Y-49750000D03*
%TD*%
%TO.C,D15*%
X-82350000Y-45000000D03*
D15*
X-79850000Y-45000000D03*
D16*
X-85150000Y-45000000D03*
D17*
X-87650000Y-45000000D03*
%TD*%
D16*
%TO.C,D16*%
X-64375000Y-42750000D03*
D15*
X-61875000Y-42750000D03*
D16*
X-67175000Y-42750000D03*
D17*
X-69675000Y-42750000D03*
%TD*%
D16*
%TO.C,D17*%
X-46325000Y-45000000D03*
D15*
X-43825000Y-45000000D03*
D16*
X-49125000Y-45000000D03*
D17*
X-51625000Y-45000000D03*
%TD*%
D16*
%TO.C,D18*%
X-28375000Y-47500000D03*
D15*
X-25875000Y-47500000D03*
D17*
X-33675000Y-47500000D03*
D16*
X-31175000Y-47500000D03*
%TD*%
D15*
%TO.C,D19*%
X-49025000Y-65949000D03*
D16*
X-51525000Y-65949000D03*
X-54325000Y-65949000D03*
D17*
X-56825000Y-65949000D03*
%TD*%
D18*
%TO.C,D20*%
X-29122889Y-69249394D03*
D19*
X-31537704Y-68602347D03*
X-34242296Y-67877653D03*
D17*
X-36657111Y-67230606D03*
%TD*%
D20*
%TO.C,D21*%
X-4963000Y-69873564D03*
D21*
X-3713000Y-67708501D03*
D20*
X-6363000Y-72298436D03*
D17*
X-7613000Y-74463499D03*
%TD*%
D22*
%TO.C,SW1*%
X-119797200Y-5219600D03*
D23*
X-125297200Y-11169600D03*
X-114297200Y-11169600D03*
D22*
X-114797200Y-7419600D03*
X-124797200Y-7419600D03*
D24*
X-119797200Y-11169600D03*
D25*
X-123072200Y-5219600D03*
X-111522200Y-7419600D03*
%TD*%
D23*
%TO.C,SW2*%
X-96303100Y-11173400D03*
D22*
X-106803100Y-7423400D03*
D24*
X-101803100Y-11173400D03*
D22*
X-101803100Y-5223400D03*
X-96803100Y-7423400D03*
D23*
X-107303100Y-11173400D03*
D25*
X-105078100Y-5223400D03*
X-93528100Y-7423400D03*
%TD*%
D24*
%TO.C,SW3*%
X-83789000Y-6396600D03*
D23*
X-78289000Y-6396600D03*
X-89289000Y-6396600D03*
D22*
X-83789000Y-446600D03*
X-78789000Y-2646600D03*
X-88789000Y-2646600D03*
D25*
X-87064000Y-446600D03*
X-75514000Y-2646600D03*
%TD*%
D22*
%TO.C,SW4*%
X-70779000Y-236800D03*
D23*
X-71279000Y-3986800D03*
D22*
X-65779000Y1963200D03*
X-60779000Y-236800D03*
D23*
X-60279000Y-3986800D03*
D24*
X-65779000Y-3986800D03*
D25*
X-69054000Y1963200D03*
X-57504000Y-236800D03*
%TD*%
D23*
%TO.C,SW5*%
X-53263000Y-6307900D03*
X-42263000Y-6307900D03*
D22*
X-52763000Y-2557900D03*
D24*
X-47763000Y-6307900D03*
D22*
X-42763000Y-2557900D03*
X-47763000Y-357900D03*
D25*
X-51038000Y-357900D03*
X-39488000Y-2557900D03*
%TD*%
D24*
%TO.C,SW6*%
X-29750000Y-8708900D03*
D22*
X-29750000Y-2758900D03*
X-24750000Y-4958900D03*
D23*
X-24250000Y-8708900D03*
D22*
X-34750000Y-4958900D03*
D23*
X-35250000Y-8708900D03*
D25*
X-33025000Y-2758900D03*
X-21475000Y-4958900D03*
%TD*%
D22*
%TO.C,SW7*%
X-114797200Y-24402500D03*
D23*
X-114297200Y-28152500D03*
D22*
X-124797200Y-24402500D03*
D24*
X-119797200Y-28152500D03*
D23*
X-125297200Y-28152500D03*
D22*
X-119797200Y-22202500D03*
D25*
X-123072200Y-22202500D03*
X-111522200Y-24402500D03*
%TD*%
D23*
%TO.C,SW8*%
X-107303100Y-28187000D03*
D24*
X-101803100Y-28187000D03*
D22*
X-106803100Y-24437000D03*
X-96803100Y-24437000D03*
X-101803100Y-22237000D03*
D23*
X-96303100Y-28187000D03*
D25*
X-105078100Y-22237000D03*
X-93528100Y-24437000D03*
%TD*%
D23*
%TO.C,SW9*%
X-89287000Y-23385200D03*
D22*
X-78787000Y-19635200D03*
D23*
X-78287000Y-23385200D03*
D22*
X-83787000Y-17435200D03*
X-88787000Y-19635200D03*
D24*
X-83787000Y-23385200D03*
D25*
X-87062000Y-17435200D03*
X-75512000Y-19635200D03*
%TD*%
D23*
%TO.C,SW10*%
X-60272000Y-20988000D03*
X-71272000Y-20988000D03*
D22*
X-70772000Y-17238000D03*
X-65772000Y-15038000D03*
D24*
X-65772000Y-20988000D03*
D22*
X-60772000Y-17238000D03*
D25*
X-69047000Y-15038000D03*
X-57497000Y-17238000D03*
%TD*%
D22*
%TO.C,SW11*%
X-52763000Y-19572700D03*
X-42763000Y-19572700D03*
X-47763000Y-17372700D03*
D23*
X-53263000Y-23322700D03*
D24*
X-47763000Y-23322700D03*
D23*
X-42263000Y-23322700D03*
D25*
X-51038000Y-17372700D03*
X-39488000Y-19572700D03*
%TD*%
D22*
%TO.C,SW12*%
X-29750000Y-19800000D03*
D23*
X-35250000Y-25750000D03*
X-24250000Y-25750000D03*
D22*
X-34750000Y-22000000D03*
X-24750000Y-22000000D03*
D24*
X-29750000Y-25750000D03*
D25*
X-33025000Y-19800000D03*
X-21475000Y-22000000D03*
%TD*%
D22*
%TO.C,SW13*%
X-124797200Y-41433000D03*
X-114797200Y-41433000D03*
D24*
X-119797200Y-45183000D03*
D22*
X-119797200Y-39233000D03*
D23*
X-125297200Y-45183000D03*
X-114297200Y-45183000D03*
D25*
X-123072200Y-39233000D03*
X-111522200Y-41433000D03*
%TD*%
D23*
%TO.C,SW14*%
X-96303100Y-45171000D03*
D22*
X-96803100Y-41421000D03*
D23*
X-107303100Y-45171000D03*
D24*
X-101803100Y-45171000D03*
D22*
X-101803100Y-39221000D03*
X-106803100Y-41421000D03*
D25*
X-105078100Y-39221000D03*
X-93528100Y-41421000D03*
%TD*%
D22*
%TO.C,SW15*%
X-88786000Y-36648000D03*
X-78786000Y-36648000D03*
D24*
X-83786000Y-40398000D03*
D23*
X-78286000Y-40398000D03*
X-89286000Y-40398000D03*
D22*
X-83786000Y-34448000D03*
D25*
X-87061000Y-34448000D03*
X-75511000Y-36648000D03*
%TD*%
D23*
%TO.C,SW16*%
X-71283000Y-37977000D03*
D22*
X-70783000Y-34227000D03*
D23*
X-60283000Y-37977000D03*
D22*
X-65783000Y-32027000D03*
X-60783000Y-34227000D03*
D24*
X-65783000Y-37977000D03*
D25*
X-69058000Y-32027000D03*
X-57508000Y-34227000D03*
%TD*%
D22*
%TO.C,SW17*%
X-52763000Y-36564000D03*
X-42763000Y-36564000D03*
X-47763000Y-34364000D03*
D23*
X-53263000Y-40314000D03*
D24*
X-47763000Y-40314000D03*
D23*
X-42263000Y-40314000D03*
D25*
X-51038000Y-34364000D03*
X-39488000Y-36564000D03*
%TD*%
D22*
%TO.C,SW19*%
X-52815000Y-55200000D03*
D23*
X-47315000Y-61150000D03*
X-58315000Y-61150000D03*
D22*
X-57815000Y-57400000D03*
X-47815000Y-57400000D03*
D24*
X-52815000Y-61150000D03*
D25*
X-56090000Y-55200000D03*
X-44540000Y-57400000D03*
%TD*%
D22*
%TO.C,SW20*%
X-30096027Y-58115741D03*
D23*
X-36948592Y-62439495D03*
D22*
X-35495058Y-58946683D03*
D23*
X-26323408Y-65286505D03*
D24*
X-31636000Y-63863000D03*
D22*
X-25835799Y-61534873D03*
D26*
X-33259434Y-57268109D03*
X-22672392Y-62382506D03*
%TD*%
D22*
%TO.C,SW21*%
X-10562595Y-62494873D03*
D23*
X-7065000Y-63936860D03*
D22*
X-14967851Y-65725000D03*
D23*
X-12565000Y-73463140D03*
D22*
X-15562595Y-71155127D03*
D24*
X-9815000Y-68700000D03*
D27*
X-16605351Y-68561233D03*
X-8925095Y-59658640D03*
%TD*%
D23*
%TO.C,SW18*%
X-24243000Y-42740000D03*
D22*
X-29743000Y-36790000D03*
X-24743000Y-38990000D03*
D23*
X-35243000Y-42740000D03*
D22*
X-34743000Y-38990000D03*
D24*
X-29743000Y-42740000D03*
D25*
X-33018000Y-36790000D03*
X-21468000Y-38990000D03*
%TD*%
D16*
%TO.C,D13*%
X-118375000Y-49750000D03*
D15*
X-115875000Y-49750000D03*
D16*
X-121175000Y-49750000D03*
D17*
X-123675000Y-49750000D03*
%TD*%
D16*
%TO.C,D7*%
X-118375000Y-32750000D03*
D15*
X-115875000Y-32750000D03*
D17*
X-123675000Y-32750000D03*
D16*
X-121175000Y-32750000D03*
%TD*%
D28*
%TO.C,J9*%
X-18225000Y-58010000D03*
D29*
X-18225000Y-55470000D03*
%TD*%
D30*
%TO.C,SW23*%
X5536500Y-39928000D03*
X5536500Y-31728000D03*
D31*
X5536500Y-33828000D03*
D32*
X5536500Y-35828000D03*
X5536500Y-37828000D03*
%TD*%
D28*
%TO.C,J1*%
X-1235000Y-48000000D03*
D29*
X-3775000Y-48000000D03*
X-6315000Y-48000000D03*
X-8855000Y-48000000D03*
X-11395000Y-48000000D03*
%TD*%
D33*
%TO.C,JP10*%
X-8109800Y-52325000D03*
D34*
X-8109800Y-53775000D03*
%TD*%
D35*
%TO.C,JP38*%
X-2206900Y-22396700D03*
D36*
X-3656900Y-22396700D03*
%TD*%
D33*
%TO.C,JP1*%
X-11796400Y-52325000D03*
D34*
X-11796400Y-53775000D03*
%TD*%
D35*
%TO.C,JP43*%
X-2206900Y-40738300D03*
D36*
X-3656900Y-40738300D03*
%TD*%
D35*
%TO.C,JP9*%
X-8760200Y-44406700D03*
D36*
X-10210200Y-44406700D03*
%TD*%
D35*
%TO.C,JP41*%
X-2206900Y-33401700D03*
D36*
X-3656900Y-33401700D03*
%TD*%
D35*
%TO.C,JP5*%
X-8760200Y-29733300D03*
D36*
X-10210200Y-29733300D03*
%TD*%
D35*
%TO.C,JP8*%
X-8760200Y-40738300D03*
D36*
X-10210200Y-40738300D03*
%TD*%
D35*
%TO.C,JP3*%
X-8760200Y-22396700D03*
D36*
X-10210200Y-22396700D03*
%TD*%
D37*
%TO.C,J8*%
X-3053798Y-57572885D03*
X-3653798Y-58612115D03*
D38*
X790448Y-58464456D03*
X-959552Y-61495544D03*
%TD*%
D35*
%TO.C,JP44*%
X-2206900Y-44406700D03*
D36*
X-3656900Y-44406700D03*
%TD*%
D35*
%TO.C,JP6*%
X-8760200Y-33401700D03*
D36*
X-10210200Y-33401700D03*
%TD*%
D35*
%TO.C,JP40*%
X-2206900Y-29733300D03*
D36*
X-3656900Y-29733300D03*
%TD*%
D33*
%TO.C,JP14*%
X-736400Y-52325000D03*
D34*
X-736400Y-53775000D03*
%TD*%
D35*
%TO.C,JP7*%
X-8760200Y-37070000D03*
D36*
X-10210200Y-37070000D03*
%TD*%
D33*
%TO.C,JP12*%
X-4423100Y-52325000D03*
D34*
X-4423100Y-53775000D03*
%TD*%
D35*
%TO.C,JP39*%
X-2206900Y-26065000D03*
D36*
X-3656900Y-26065000D03*
%TD*%
D35*
%TO.C,JP42*%
X-2206900Y-37070000D03*
D36*
X-3656900Y-37070000D03*
%TD*%
D35*
%TO.C,JP4*%
X-8760200Y-26065000D03*
D36*
X-10210200Y-26065000D03*
%TD*%
M02*
