%TF.GenerationSoftware,KiCad,Pcbnew,(6.0.0)*%
%TF.CreationDate,2023-02-19T18:14:09-06:00*%
%TF.ProjectId,corne-chocolate,636f726e-652d-4636-986f-636f6c617465,1.0*%
%TF.SameCoordinates,Original*%
%TF.FileFunction,Legend,Bot*%
%TF.FilePolarity,Positive*%
%FSLAX46Y46*%
G04 Gerber Fmt 4.6, Leading zero omitted, Abs format (unit mm)*
G04 Created by KiCad (PCBNEW (6.0.0)) date 2023-02-19 18:14:09*
%MOMM*%
%LPD*%
G01*
G04 APERTURE LIST*
G04 Aperture macros list*
%AMRoundRect*
0 Rectangle with rounded corners*
0 $1 Rounding radius*
0 $2 $3 $4 $5 $6 $7 $8 $9 X,Y pos of 4 corners*
0 Add a 4 corners polygon primitive as box body*
4,1,4,$2,$3,$4,$5,$6,$7,$8,$9,$2,$3,0*
0 Add four circle primitives for the rounded corners*
1,1,$1+$1,$2,$3*
1,1,$1+$1,$4,$5*
1,1,$1+$1,$6,$7*
1,1,$1+$1,$8,$9*
0 Add four rect primitives between the rounded corners*
20,1,$1+$1,$2,$3,$4,$5,0*
20,1,$1+$1,$4,$5,$6,$7,0*
20,1,$1+$1,$6,$7,$8,$9,0*
20,1,$1+$1,$8,$9,$2,$3,0*%
%AMRotRect*
0 Rectangle, with rotation*
0 The origin of the aperture is its center*
0 $1 length*
0 $2 width*
0 $3 Rotation angle, in degrees counterclockwise*
0 Add horizontal line*
21,1,$1,$2,0,0,$3*%
%AMFreePoly0*
4,1,6,1.000000,0.000000,0.500000,-0.750000,-0.500000,-0.750000,-0.500000,0.750000,0.500000,0.750000,1.000000,0.000000,1.000000,0.000000,$1*%
%AMFreePoly1*
4,1,6,0.500000,-0.750000,-0.650000,-0.750000,-0.150000,0.000000,-0.650000,0.750000,0.500000,0.750000,0.500000,-0.750000,0.500000,-0.750000,$1*%
G04 Aperture macros list end*
%ADD10C,0.150000*%
%ADD11C,0.120000*%
%ADD12R,1.600000X1.600000*%
%ADD13C,1.600000*%
%ADD14RotRect,1.600000X1.600000X345.000000*%
%ADD15RotRect,1.600000X1.600000X60.000000*%
%ADD16C,0.125000*%
%ADD17O,3.748280X1.998980*%
%ADD18C,1.998980*%
%ADD19O,1.998980X2.998470*%
%ADD20C,1.000000*%
%ADD21R,1.600000X1.200000*%
%ADD22RotRect,1.600000X1.200000X345.000000*%
%ADD23RotRect,1.600000X1.200000X60.000000*%
%ADD24C,3.000000*%
%ADD25C,1.701800*%
%ADD26C,3.429000*%
%ADD27R,2.600000X2.600000*%
%ADD28RotRect,2.600000X2.600000X165.000000*%
%ADD29RotRect,2.600000X2.600000X240.000000*%
%ADD30R,1.700000X1.700000*%
%ADD31O,1.700000X1.700000*%
%ADD32O,3.500000X2.200000*%
%ADD33R,2.500000X1.500000*%
%ADD34O,2.500000X1.500000*%
%ADD35FreePoly0,270.000000*%
%ADD36FreePoly1,270.000000*%
%ADD37FreePoly0,180.000000*%
%ADD38FreePoly1,180.000000*%
%ADD39RoundRect,0.150000X-0.163157X0.267404X-0.313157X0.007596X0.163157X-0.267404X0.313157X-0.007596X0*%
%ADD40RoundRect,0.175000X-0.107356X0.264054X-0.282356X-0.039054X0.107356X-0.264054X0.282356X0.039054X0*%
G04 APERTURE END LIST*
D10*
X6488880Y-42238603D02*
X6298404Y-42238603D01*
X6203166Y-42286223D01*
X6107928Y-42381461D01*
X6060309Y-42571937D01*
X6060309Y-42905270D01*
X6107928Y-43095746D01*
X6203166Y-43190984D01*
X6298404Y-43238603D01*
X6488880Y-43238603D01*
X6584119Y-43190984D01*
X6679357Y-43095746D01*
X6726976Y-42905270D01*
X6726976Y-42571937D01*
X6679357Y-42381461D01*
X6584119Y-42286223D01*
X6488880Y-42238603D01*
X5298404Y-42714794D02*
X5631738Y-42714794D01*
X5631738Y-43238603D02*
X5631738Y-42238603D01*
X5155547Y-42238603D01*
X4441261Y-42714794D02*
X4774595Y-42714794D01*
X4774595Y-43238603D02*
X4774595Y-42238603D01*
X4298404Y-42238603D01*
X6155547Y-28202380D02*
X5965071Y-28202380D01*
X5869833Y-28250000D01*
X5774595Y-28345238D01*
X5726976Y-28535714D01*
X5726976Y-28869047D01*
X5774595Y-29059523D01*
X5869833Y-29154761D01*
X5965071Y-29202380D01*
X6155547Y-29202380D01*
X6250785Y-29154761D01*
X6346023Y-29059523D01*
X6393642Y-28869047D01*
X6393642Y-28535714D01*
X6346023Y-28345238D01*
X6250785Y-28250000D01*
X6155547Y-28202380D01*
X5298404Y-29202380D02*
X5298404Y-28202380D01*
X4726976Y-29202380D01*
X4726976Y-28202380D01*
X-15419048Y-58151428D02*
X-16180953Y-58151428D01*
X-15800000Y-58532380D02*
X-15800000Y-57770476D01*
X-4479048Y-56581428D02*
X-5240953Y-56581428D01*
X-4860000Y-56962380D02*
X-4860000Y-56200476D01*
X-18712620Y-30184761D02*
X-19188810Y-29851428D01*
X-18712620Y-29613333D02*
X-19712620Y-29613333D01*
X-19712620Y-29994285D01*
X-19665000Y-30089523D01*
X-19617381Y-30137142D01*
X-19522143Y-30184761D01*
X-19379286Y-30184761D01*
X-19284048Y-30137142D01*
X-19236429Y-30089523D01*
X-19188810Y-29994285D01*
X-19188810Y-29613333D01*
X-18712620Y-30613333D02*
X-19379286Y-30613333D01*
X-19712620Y-30613333D02*
X-19665000Y-30565714D01*
X-19617381Y-30613333D01*
X-19665000Y-30660952D01*
X-19712620Y-30613333D01*
X-19617381Y-30613333D01*
X-19379286Y-31518095D02*
X-18569762Y-31518095D01*
X-18474524Y-31470476D01*
X-18426905Y-31422857D01*
X-18379286Y-31327619D01*
X-18379286Y-31184761D01*
X-18426905Y-31089523D01*
X-18760239Y-31518095D02*
X-18712620Y-31422857D01*
X-18712620Y-31232380D01*
X-18760239Y-31137142D01*
X-18807858Y-31089523D01*
X-18903096Y-31041904D01*
X-19188810Y-31041904D01*
X-19284048Y-31089523D01*
X-19331667Y-31137142D01*
X-19379286Y-31232380D01*
X-19379286Y-31422857D01*
X-19331667Y-31518095D01*
X-18712620Y-31994285D02*
X-19712620Y-31994285D01*
X-18712620Y-32422857D02*
X-19236429Y-32422857D01*
X-19331667Y-32375238D01*
X-19379286Y-32280000D01*
X-19379286Y-32137142D01*
X-19331667Y-32041904D01*
X-19284048Y-31994285D01*
X-19379286Y-32756190D02*
X-19379286Y-33137142D01*
X-19712620Y-32899047D02*
X-18855477Y-32899047D01*
X-18760239Y-32946666D01*
X-18712620Y-33041904D01*
X-18712620Y-33137142D01*
X-18760239Y-34184761D02*
X-18712620Y-34327619D01*
X-18712620Y-34565714D01*
X-18760239Y-34660952D01*
X-18807858Y-34708571D01*
X-18903096Y-34756190D01*
X-18998334Y-34756190D01*
X-19093572Y-34708571D01*
X-19141191Y-34660952D01*
X-19188810Y-34565714D01*
X-19236429Y-34375238D01*
X-19284048Y-34280000D01*
X-19331667Y-34232380D01*
X-19426905Y-34184761D01*
X-19522143Y-34184761D01*
X-19617381Y-34232380D01*
X-19665000Y-34280000D01*
X-19712620Y-34375238D01*
X-19712620Y-34613333D01*
X-19665000Y-34756190D01*
X-18712620Y-35184761D02*
X-19379286Y-35184761D01*
X-19712620Y-35184761D02*
X-19665000Y-35137142D01*
X-19617381Y-35184761D01*
X-19665000Y-35232380D01*
X-19712620Y-35184761D01*
X-19617381Y-35184761D01*
X-18712620Y-36089523D02*
X-19712620Y-36089523D01*
X-18760239Y-36089523D02*
X-18712620Y-35994285D01*
X-18712620Y-35803809D01*
X-18760239Y-35708571D01*
X-18807858Y-35660952D01*
X-18903096Y-35613333D01*
X-19188810Y-35613333D01*
X-19284048Y-35660952D01*
X-19331667Y-35708571D01*
X-19379286Y-35803809D01*
X-19379286Y-35994285D01*
X-19331667Y-36089523D01*
X-18760239Y-36946666D02*
X-18712620Y-36851428D01*
X-18712620Y-36660952D01*
X-18760239Y-36565714D01*
X-18855477Y-36518095D01*
X-19236429Y-36518095D01*
X-19331667Y-36565714D01*
X-19379286Y-36660952D01*
X-19379286Y-36851428D01*
X-19331667Y-36946666D01*
X-19236429Y-36994285D01*
X-19141191Y-36994285D01*
X-19045953Y-36518095D01*
X-18102620Y-27994285D02*
X-17102620Y-28660952D01*
X-18102620Y-28660952D02*
X-17102620Y-27994285D01*
X-17102620Y-29041904D02*
X-18102620Y-29041904D01*
X-17388334Y-29470476D02*
X-17388334Y-29946666D01*
X-17102620Y-29375238D02*
X-18102620Y-29708571D01*
X-17102620Y-30041904D01*
X-18102620Y-30565714D02*
X-18102620Y-30756190D01*
X-18055000Y-30851428D01*
X-17959762Y-30946666D01*
X-17769286Y-30994285D01*
X-17435953Y-30994285D01*
X-17245477Y-30946666D01*
X-17150239Y-30851428D01*
X-17102620Y-30756190D01*
X-17102620Y-30565714D01*
X-17150239Y-30470476D01*
X-17245477Y-30375238D01*
X-17435953Y-30327619D01*
X-17769286Y-30327619D01*
X-17959762Y-30375238D01*
X-18055000Y-30470476D01*
X-18102620Y-30565714D01*
X-18102620Y-32041904D02*
X-18102620Y-32613333D01*
X-17102620Y-32327619D02*
X-18102620Y-32327619D01*
X-17102620Y-32946666D02*
X-18102620Y-32946666D01*
X-17102620Y-33375238D02*
X-17626429Y-33375238D01*
X-17721667Y-33327619D01*
X-17769286Y-33232380D01*
X-17769286Y-33089523D01*
X-17721667Y-32994285D01*
X-17674048Y-32946666D01*
X-17102620Y-33851428D02*
X-17769286Y-33851428D01*
X-18102620Y-33851428D02*
X-18055000Y-33803809D01*
X-18007381Y-33851428D01*
X-18055000Y-33899047D01*
X-18102620Y-33851428D01*
X-18007381Y-33851428D01*
X-17150239Y-34280000D02*
X-17102620Y-34375238D01*
X-17102620Y-34565714D01*
X-17150239Y-34660952D01*
X-17245477Y-34708571D01*
X-17293096Y-34708571D01*
X-17388334Y-34660952D01*
X-17435953Y-34565714D01*
X-17435953Y-34422857D01*
X-17483572Y-34327619D01*
X-17578810Y-34280000D01*
X-17626429Y-34280000D01*
X-17721667Y-34327619D01*
X-17769286Y-34422857D01*
X-17769286Y-34565714D01*
X-17721667Y-34660952D01*
X-17150239Y-35851428D02*
X-17102620Y-35946666D01*
X-17102620Y-36137142D01*
X-17150239Y-36232380D01*
X-17245477Y-36280000D01*
X-17293096Y-36280000D01*
X-17388334Y-36232380D01*
X-17435953Y-36137142D01*
X-17435953Y-35994285D01*
X-17483572Y-35899047D01*
X-17578810Y-35851428D01*
X-17626429Y-35851428D01*
X-17721667Y-35899047D01*
X-17769286Y-35994285D01*
X-17769286Y-36137142D01*
X-17721667Y-36232380D01*
X-17102620Y-36708571D02*
X-17769286Y-36708571D01*
X-18102620Y-36708571D02*
X-18055000Y-36660952D01*
X-18007381Y-36708571D01*
X-18055000Y-36756190D01*
X-18102620Y-36708571D01*
X-18007381Y-36708571D01*
X-17102620Y-37613333D02*
X-18102620Y-37613333D01*
X-17150239Y-37613333D02*
X-17102620Y-37518095D01*
X-17102620Y-37327619D01*
X-17150239Y-37232380D01*
X-17197858Y-37184761D01*
X-17293096Y-37137142D01*
X-17578810Y-37137142D01*
X-17674048Y-37184761D01*
X-17721667Y-37232380D01*
X-17769286Y-37327619D01*
X-17769286Y-37518095D01*
X-17721667Y-37613333D01*
X-17150239Y-38470476D02*
X-17102620Y-38375238D01*
X-17102620Y-38184761D01*
X-17150239Y-38089523D01*
X-17245477Y-38041904D01*
X-17626429Y-38041904D01*
X-17721667Y-38089523D01*
X-17769286Y-38184761D01*
X-17769286Y-38375238D01*
X-17721667Y-38470476D01*
X-17626429Y-38518095D01*
X-17531191Y-38518095D01*
X-17435953Y-38041904D01*
X-15540239Y-26256190D02*
X-15492620Y-26399047D01*
X-15492620Y-26637142D01*
X-15540239Y-26732380D01*
X-15587858Y-26780000D01*
X-15683096Y-26827619D01*
X-15778334Y-26827619D01*
X-15873572Y-26780000D01*
X-15921191Y-26732380D01*
X-15968810Y-26637142D01*
X-16016429Y-26446666D01*
X-16064048Y-26351428D01*
X-16111667Y-26303809D01*
X-16206905Y-26256190D01*
X-16302143Y-26256190D01*
X-16397381Y-26303809D01*
X-16445000Y-26351428D01*
X-16492620Y-26446666D01*
X-16492620Y-26684761D01*
X-16445000Y-26827619D01*
X-15492620Y-27399047D02*
X-15540239Y-27303809D01*
X-15587858Y-27256190D01*
X-15683096Y-27208571D01*
X-15968810Y-27208571D01*
X-16064048Y-27256190D01*
X-16111667Y-27303809D01*
X-16159286Y-27399047D01*
X-16159286Y-27541904D01*
X-16111667Y-27637142D01*
X-16064048Y-27684761D01*
X-15968810Y-27732380D01*
X-15683096Y-27732380D01*
X-15587858Y-27684761D01*
X-15540239Y-27637142D01*
X-15492620Y-27541904D01*
X-15492620Y-27399047D01*
X-15492620Y-28303809D02*
X-15540239Y-28208571D01*
X-15635477Y-28160952D01*
X-16492620Y-28160952D01*
X-15492620Y-29113333D02*
X-16492620Y-29113333D01*
X-15540239Y-29113333D02*
X-15492620Y-29018095D01*
X-15492620Y-28827619D01*
X-15540239Y-28732380D01*
X-15587858Y-28684761D01*
X-15683096Y-28637142D01*
X-15968810Y-28637142D01*
X-16064048Y-28684761D01*
X-16111667Y-28732380D01*
X-16159286Y-28827619D01*
X-16159286Y-29018095D01*
X-16111667Y-29113333D01*
X-15540239Y-29970476D02*
X-15492620Y-29875238D01*
X-15492620Y-29684761D01*
X-15540239Y-29589523D01*
X-15635477Y-29541904D01*
X-16016429Y-29541904D01*
X-16111667Y-29589523D01*
X-16159286Y-29684761D01*
X-16159286Y-29875238D01*
X-16111667Y-29970476D01*
X-16016429Y-30018095D01*
X-15921191Y-30018095D01*
X-15825953Y-29541904D01*
X-15492620Y-30446666D02*
X-16159286Y-30446666D01*
X-15968810Y-30446666D02*
X-16064048Y-30494285D01*
X-16111667Y-30541904D01*
X-16159286Y-30637142D01*
X-16159286Y-30732380D01*
X-15492620Y-32256190D02*
X-16016429Y-32256190D01*
X-16111667Y-32208571D01*
X-16159286Y-32113333D01*
X-16159286Y-31922857D01*
X-16111667Y-31827619D01*
X-15540239Y-32256190D02*
X-15492620Y-32160952D01*
X-15492620Y-31922857D01*
X-15540239Y-31827619D01*
X-15635477Y-31779999D01*
X-15730715Y-31779999D01*
X-15825953Y-31827619D01*
X-15873572Y-31922857D01*
X-15873572Y-32160952D01*
X-15921191Y-32256190D01*
X-15492620Y-32875238D02*
X-15540239Y-32779999D01*
X-15635477Y-32732380D01*
X-16492620Y-32732380D01*
X-15492620Y-33399047D02*
X-15540239Y-33303809D01*
X-15635477Y-33256190D01*
X-16492620Y-33256190D01*
X-16492620Y-34827619D02*
X-15778334Y-34827619D01*
X-15635477Y-34779999D01*
X-15540239Y-34684761D01*
X-15492620Y-34541904D01*
X-15492620Y-34446666D01*
X-16159286Y-35732380D02*
X-15492620Y-35732380D01*
X-16159286Y-35303809D02*
X-15635477Y-35303809D01*
X-15540239Y-35351428D01*
X-15492620Y-35446666D01*
X-15492620Y-35589523D01*
X-15540239Y-35684761D01*
X-15587858Y-35732380D01*
X-15492620Y-36208571D02*
X-16159286Y-36208571D01*
X-16064048Y-36208571D02*
X-16111667Y-36256190D01*
X-16159286Y-36351428D01*
X-16159286Y-36494285D01*
X-16111667Y-36589523D01*
X-16016429Y-36637142D01*
X-15492620Y-36637142D01*
X-16016429Y-36637142D02*
X-16111667Y-36684761D01*
X-16159286Y-36779999D01*
X-16159286Y-36922857D01*
X-16111667Y-37018095D01*
X-16016429Y-37065714D01*
X-15492620Y-37065714D01*
X-16159286Y-37541904D02*
X-15159286Y-37541904D01*
X-16111667Y-37541904D02*
X-16159286Y-37637142D01*
X-16159286Y-37827619D01*
X-16111667Y-37922857D01*
X-16064048Y-37970476D01*
X-15968810Y-38018095D01*
X-15683096Y-38018095D01*
X-15587858Y-37970476D01*
X-15540239Y-37922857D01*
X-15492620Y-37827619D01*
X-15492620Y-37637142D01*
X-15540239Y-37541904D01*
X-15540239Y-38827619D02*
X-15492620Y-38732380D01*
X-15492620Y-38541904D01*
X-15540239Y-38446666D01*
X-15635477Y-38399047D01*
X-16016429Y-38399047D01*
X-16111667Y-38446666D01*
X-16159286Y-38541904D01*
X-16159286Y-38732380D01*
X-16111667Y-38827619D01*
X-16016429Y-38875238D01*
X-15921191Y-38875238D01*
X-15825953Y-38399047D01*
X-15492620Y-39303809D02*
X-16159286Y-39303809D01*
X-15968810Y-39303809D02*
X-16064048Y-39351428D01*
X-16111667Y-39399047D01*
X-16159286Y-39494285D01*
X-16159286Y-39589523D01*
X-15540239Y-39875238D02*
X-15492620Y-39970476D01*
X-15492620Y-40160952D01*
X-15540239Y-40256190D01*
X-15635477Y-40303809D01*
X-15683096Y-40303809D01*
X-15778334Y-40256190D01*
X-15825953Y-40160952D01*
X-15825953Y-40018095D01*
X-15873572Y-39922857D01*
X-15968810Y-39875238D01*
X-16016429Y-39875238D01*
X-16111667Y-39922857D01*
X-16159286Y-40018095D01*
X-16159286Y-40160952D01*
X-16111667Y-40256190D01*
X-13882620Y-28851428D02*
X-13930239Y-28756190D01*
X-13977858Y-28708571D01*
X-14073096Y-28660952D01*
X-14358810Y-28660952D01*
X-14454048Y-28708571D01*
X-14501667Y-28756190D01*
X-14549286Y-28851428D01*
X-14549286Y-28994285D01*
X-14501667Y-29089523D01*
X-14454048Y-29137142D01*
X-14358810Y-29184761D01*
X-14073096Y-29184761D01*
X-13977858Y-29137142D01*
X-13930239Y-29089523D01*
X-13882620Y-28994285D01*
X-13882620Y-28851428D01*
X-14549286Y-29613333D02*
X-13882620Y-29613333D01*
X-14454048Y-29613333D02*
X-14501667Y-29660952D01*
X-14549286Y-29756190D01*
X-14549286Y-29899047D01*
X-14501667Y-29994285D01*
X-14406429Y-30041904D01*
X-13882620Y-30041904D01*
X-14549286Y-31137142D02*
X-14549286Y-31518095D01*
X-14882620Y-31280000D02*
X-14025477Y-31280000D01*
X-13930239Y-31327619D01*
X-13882620Y-31422857D01*
X-13882620Y-31518095D01*
X-13882620Y-31851428D02*
X-14882620Y-31851428D01*
X-13882620Y-32280000D02*
X-14406429Y-32280000D01*
X-14501667Y-32232380D01*
X-14549286Y-32137142D01*
X-14549286Y-31994285D01*
X-14501667Y-31899047D01*
X-14454048Y-31851428D01*
X-13882620Y-32756190D02*
X-14549286Y-32756190D01*
X-14882620Y-32756190D02*
X-14835000Y-32708571D01*
X-14787381Y-32756190D01*
X-14835000Y-32803809D01*
X-14882620Y-32756190D01*
X-14787381Y-32756190D01*
X-13930239Y-33184761D02*
X-13882620Y-33280000D01*
X-13882620Y-33470476D01*
X-13930239Y-33565714D01*
X-14025477Y-33613333D01*
X-14073096Y-33613333D01*
X-14168334Y-33565714D01*
X-14215953Y-33470476D01*
X-14215953Y-33327619D01*
X-14263572Y-33232380D01*
X-14358810Y-33184761D01*
X-14406429Y-33184761D01*
X-14501667Y-33232380D01*
X-14549286Y-33327619D01*
X-14549286Y-33470476D01*
X-14501667Y-33565714D01*
X-13930239Y-34756190D02*
X-13882620Y-34851428D01*
X-13882620Y-35041904D01*
X-13930239Y-35137142D01*
X-14025477Y-35184761D01*
X-14073096Y-35184761D01*
X-14168334Y-35137142D01*
X-14215953Y-35041904D01*
X-14215953Y-34899047D01*
X-14263572Y-34803809D01*
X-14358810Y-34756190D01*
X-14406429Y-34756190D01*
X-14501667Y-34803809D01*
X-14549286Y-34899047D01*
X-14549286Y-35041904D01*
X-14501667Y-35137142D01*
X-13882620Y-35613333D02*
X-14549286Y-35613333D01*
X-14882620Y-35613333D02*
X-14835000Y-35565714D01*
X-14787381Y-35613333D01*
X-14835000Y-35660952D01*
X-14882620Y-35613333D01*
X-14787381Y-35613333D01*
X-13882620Y-36518095D02*
X-14882620Y-36518095D01*
X-13930239Y-36518095D02*
X-13882620Y-36422857D01*
X-13882620Y-36232380D01*
X-13930239Y-36137142D01*
X-13977858Y-36089523D01*
X-14073096Y-36041904D01*
X-14358810Y-36041904D01*
X-14454048Y-36089523D01*
X-14501667Y-36137142D01*
X-14549286Y-36232380D01*
X-14549286Y-36422857D01*
X-14501667Y-36518095D01*
X-13930239Y-37375238D02*
X-13882620Y-37280000D01*
X-13882620Y-37089523D01*
X-13930239Y-36994285D01*
X-14025477Y-36946666D01*
X-14406429Y-36946666D01*
X-14501667Y-36994285D01*
X-14549286Y-37089523D01*
X-14549286Y-37280000D01*
X-14501667Y-37375238D01*
X-14406429Y-37422857D01*
X-14311191Y-37422857D01*
X-14215953Y-36946666D01*
X-13977858Y-37851428D02*
X-13930239Y-37899047D01*
X-13882620Y-37851428D01*
X-13930239Y-37803809D01*
X-13977858Y-37851428D01*
X-13882620Y-37851428D01*
%TO.C,D1*%
X-119159924Y-14961904D02*
X-119159924Y-14161904D01*
X-119350400Y-14161904D01*
X-119464686Y-14200000D01*
X-119540877Y-14276190D01*
X-119578972Y-14352380D01*
X-119617067Y-14504761D01*
X-119617067Y-14619047D01*
X-119578972Y-14771428D01*
X-119540877Y-14847619D01*
X-119464686Y-14923809D01*
X-119350400Y-14961904D01*
X-119159924Y-14961904D01*
X-120378972Y-14961904D02*
X-119921829Y-14961904D01*
X-120150400Y-14961904D02*
X-120150400Y-14161904D01*
X-120074210Y-14276190D01*
X-119998020Y-14352380D01*
X-119921829Y-14390476D01*
%TO.C,D2*%
X-101159924Y-14961904D02*
X-101159924Y-14161904D01*
X-101350400Y-14161904D01*
X-101464686Y-14200000D01*
X-101540877Y-14276190D01*
X-101578972Y-14352380D01*
X-101617067Y-14504761D01*
X-101617067Y-14619047D01*
X-101578972Y-14771428D01*
X-101540877Y-14847619D01*
X-101464686Y-14923809D01*
X-101350400Y-14961904D01*
X-101159924Y-14961904D01*
X-101921829Y-14238095D02*
X-101959924Y-14200000D01*
X-102036115Y-14161904D01*
X-102226591Y-14161904D01*
X-102302781Y-14200000D01*
X-102340877Y-14238095D01*
X-102378972Y-14314285D01*
X-102378972Y-14390476D01*
X-102340877Y-14504761D01*
X-101883734Y-14961904D01*
X-102378972Y-14961904D01*
%TO.C,D3*%
X-83184924Y-9961904D02*
X-83184924Y-9161904D01*
X-83375400Y-9161904D01*
X-83489686Y-9200000D01*
X-83565877Y-9276190D01*
X-83603972Y-9352380D01*
X-83642067Y-9504761D01*
X-83642067Y-9619047D01*
X-83603972Y-9771428D01*
X-83565877Y-9847619D01*
X-83489686Y-9923809D01*
X-83375400Y-9961904D01*
X-83184924Y-9961904D01*
X-83908734Y-9161904D02*
X-84403972Y-9161904D01*
X-84137305Y-9466666D01*
X-84251591Y-9466666D01*
X-84327781Y-9504761D01*
X-84365877Y-9542857D01*
X-84403972Y-9619047D01*
X-84403972Y-9809523D01*
X-84365877Y-9885714D01*
X-84327781Y-9923809D01*
X-84251591Y-9961904D01*
X-84023020Y-9961904D01*
X-83946829Y-9923809D01*
X-83908734Y-9885714D01*
%TO.C,D4*%
X-65209924Y-7711904D02*
X-65209924Y-6911904D01*
X-65400400Y-6911904D01*
X-65514686Y-6950000D01*
X-65590877Y-7026190D01*
X-65628972Y-7102380D01*
X-65667067Y-7254761D01*
X-65667067Y-7369047D01*
X-65628972Y-7521428D01*
X-65590877Y-7597619D01*
X-65514686Y-7673809D01*
X-65400400Y-7711904D01*
X-65209924Y-7711904D01*
X-66352781Y-7178571D02*
X-66352781Y-7711904D01*
X-66162305Y-6873809D02*
X-65971829Y-7445238D01*
X-66467067Y-7445238D01*
%TO.C,D5*%
X-47159924Y-9961904D02*
X-47159924Y-9161904D01*
X-47350400Y-9161904D01*
X-47464686Y-9200000D01*
X-47540877Y-9276190D01*
X-47578972Y-9352380D01*
X-47617067Y-9504761D01*
X-47617067Y-9619047D01*
X-47578972Y-9771428D01*
X-47540877Y-9847619D01*
X-47464686Y-9923809D01*
X-47350400Y-9961904D01*
X-47159924Y-9961904D01*
X-48340877Y-9161904D02*
X-47959924Y-9161904D01*
X-47921829Y-9542857D01*
X-47959924Y-9504761D01*
X-48036115Y-9466666D01*
X-48226591Y-9466666D01*
X-48302781Y-9504761D01*
X-48340877Y-9542857D01*
X-48378972Y-9619047D01*
X-48378972Y-9809523D01*
X-48340877Y-9885714D01*
X-48302781Y-9923809D01*
X-48226591Y-9961904D01*
X-48036115Y-9961904D01*
X-47959924Y-9923809D01*
X-47921829Y-9885714D01*
%TO.C,D6*%
X-29209924Y-12461904D02*
X-29209924Y-11661904D01*
X-29400400Y-11661904D01*
X-29514686Y-11700000D01*
X-29590877Y-11776190D01*
X-29628972Y-11852380D01*
X-29667067Y-12004761D01*
X-29667067Y-12119047D01*
X-29628972Y-12271428D01*
X-29590877Y-12347619D01*
X-29514686Y-12423809D01*
X-29400400Y-12461904D01*
X-29209924Y-12461904D01*
X-30352781Y-11661904D02*
X-30200400Y-11661904D01*
X-30124210Y-11700000D01*
X-30086115Y-11738095D01*
X-30009924Y-11852380D01*
X-29971829Y-12004761D01*
X-29971829Y-12309523D01*
X-30009924Y-12385714D01*
X-30048020Y-12423809D01*
X-30124210Y-12461904D01*
X-30276591Y-12461904D01*
X-30352781Y-12423809D01*
X-30390877Y-12385714D01*
X-30428972Y-12309523D01*
X-30428972Y-12119047D01*
X-30390877Y-12042857D01*
X-30352781Y-12004761D01*
X-30276591Y-11966666D01*
X-30124210Y-11966666D01*
X-30048020Y-12004761D01*
X-30009924Y-12042857D01*
X-29971829Y-12119047D01*
%TO.C,D8*%
X-101209924Y-31711904D02*
X-101209924Y-30911904D01*
X-101400400Y-30911904D01*
X-101514686Y-30950000D01*
X-101590877Y-31026190D01*
X-101628972Y-31102380D01*
X-101667067Y-31254761D01*
X-101667067Y-31369047D01*
X-101628972Y-31521428D01*
X-101590877Y-31597619D01*
X-101514686Y-31673809D01*
X-101400400Y-31711904D01*
X-101209924Y-31711904D01*
X-102124210Y-31254761D02*
X-102048020Y-31216666D01*
X-102009924Y-31178571D01*
X-101971829Y-31102380D01*
X-101971829Y-31064285D01*
X-102009924Y-30988095D01*
X-102048020Y-30950000D01*
X-102124210Y-30911904D01*
X-102276591Y-30911904D01*
X-102352781Y-30950000D01*
X-102390877Y-30988095D01*
X-102428972Y-31064285D01*
X-102428972Y-31102380D01*
X-102390877Y-31178571D01*
X-102352781Y-31216666D01*
X-102276591Y-31254761D01*
X-102124210Y-31254761D01*
X-102048020Y-31292857D01*
X-102009924Y-31330952D01*
X-101971829Y-31407142D01*
X-101971829Y-31559523D01*
X-102009924Y-31635714D01*
X-102048020Y-31673809D01*
X-102124210Y-31711904D01*
X-102276591Y-31711904D01*
X-102352781Y-31673809D01*
X-102390877Y-31635714D01*
X-102428972Y-31559523D01*
X-102428972Y-31407142D01*
X-102390877Y-31330952D01*
X-102352781Y-31292857D01*
X-102276591Y-31254761D01*
%TO.C,D9*%
X-83184924Y-26961904D02*
X-83184924Y-26161904D01*
X-83375400Y-26161904D01*
X-83489686Y-26200000D01*
X-83565877Y-26276190D01*
X-83603972Y-26352380D01*
X-83642067Y-26504761D01*
X-83642067Y-26619047D01*
X-83603972Y-26771428D01*
X-83565877Y-26847619D01*
X-83489686Y-26923809D01*
X-83375400Y-26961904D01*
X-83184924Y-26961904D01*
X-84023020Y-26961904D02*
X-84175400Y-26961904D01*
X-84251591Y-26923809D01*
X-84289686Y-26885714D01*
X-84365877Y-26771428D01*
X-84403972Y-26619047D01*
X-84403972Y-26314285D01*
X-84365877Y-26238095D01*
X-84327781Y-26200000D01*
X-84251591Y-26161904D01*
X-84099210Y-26161904D01*
X-84023020Y-26200000D01*
X-83984924Y-26238095D01*
X-83946829Y-26314285D01*
X-83946829Y-26504761D01*
X-83984924Y-26580952D01*
X-84023020Y-26619047D01*
X-84099210Y-26657142D01*
X-84251591Y-26657142D01*
X-84327781Y-26619047D01*
X-84365877Y-26580952D01*
X-84403972Y-26504761D01*
%TO.C,D10*%
X-64803972Y-24711904D02*
X-64803972Y-23911904D01*
X-64994448Y-23911904D01*
X-65108734Y-23950000D01*
X-65184924Y-24026190D01*
X-65223020Y-24102380D01*
X-65261115Y-24254761D01*
X-65261115Y-24369047D01*
X-65223020Y-24521428D01*
X-65184924Y-24597619D01*
X-65108734Y-24673809D01*
X-64994448Y-24711904D01*
X-64803972Y-24711904D01*
X-66023020Y-24711904D02*
X-65565877Y-24711904D01*
X-65794448Y-24711904D02*
X-65794448Y-23911904D01*
X-65718258Y-24026190D01*
X-65642067Y-24102380D01*
X-65565877Y-24140476D01*
X-66518258Y-23911904D02*
X-66594448Y-23911904D01*
X-66670639Y-23950000D01*
X-66708734Y-23988095D01*
X-66746829Y-24064285D01*
X-66784924Y-24216666D01*
X-66784924Y-24407142D01*
X-66746829Y-24559523D01*
X-66708734Y-24635714D01*
X-66670639Y-24673809D01*
X-66594448Y-24711904D01*
X-66518258Y-24711904D01*
X-66442067Y-24673809D01*
X-66403972Y-24635714D01*
X-66365877Y-24559523D01*
X-66327781Y-24407142D01*
X-66327781Y-24216666D01*
X-66365877Y-24064285D01*
X-66403972Y-23988095D01*
X-66442067Y-23950000D01*
X-66518258Y-23911904D01*
%TO.C,D11*%
X-46803972Y-26961904D02*
X-46803972Y-26161904D01*
X-46994448Y-26161904D01*
X-47108734Y-26200000D01*
X-47184924Y-26276190D01*
X-47223020Y-26352380D01*
X-47261115Y-26504761D01*
X-47261115Y-26619047D01*
X-47223020Y-26771428D01*
X-47184924Y-26847619D01*
X-47108734Y-26923809D01*
X-46994448Y-26961904D01*
X-46803972Y-26961904D01*
X-48023020Y-26961904D02*
X-47565877Y-26961904D01*
X-47794448Y-26961904D02*
X-47794448Y-26161904D01*
X-47718258Y-26276190D01*
X-47642067Y-26352380D01*
X-47565877Y-26390476D01*
X-48784924Y-26961904D02*
X-48327781Y-26961904D01*
X-48556353Y-26961904D02*
X-48556353Y-26161904D01*
X-48480162Y-26276190D01*
X-48403972Y-26352380D01*
X-48327781Y-26390476D01*
%TO.C,D12*%
X-28828972Y-29461904D02*
X-28828972Y-28661904D01*
X-29019448Y-28661904D01*
X-29133734Y-28700000D01*
X-29209924Y-28776190D01*
X-29248020Y-28852380D01*
X-29286115Y-29004761D01*
X-29286115Y-29119047D01*
X-29248020Y-29271428D01*
X-29209924Y-29347619D01*
X-29133734Y-29423809D01*
X-29019448Y-29461904D01*
X-28828972Y-29461904D01*
X-30048020Y-29461904D02*
X-29590877Y-29461904D01*
X-29819448Y-29461904D02*
X-29819448Y-28661904D01*
X-29743258Y-28776190D01*
X-29667067Y-28852380D01*
X-29590877Y-28890476D01*
X-30352781Y-28738095D02*
X-30390877Y-28700000D01*
X-30467067Y-28661904D01*
X-30657543Y-28661904D01*
X-30733734Y-28700000D01*
X-30771829Y-28738095D01*
X-30809924Y-28814285D01*
X-30809924Y-28890476D01*
X-30771829Y-29004761D01*
X-30314686Y-29461904D01*
X-30809924Y-29461904D01*
%TO.C,D14*%
X-100828972Y-48711904D02*
X-100828972Y-47911904D01*
X-101019448Y-47911904D01*
X-101133734Y-47950000D01*
X-101209924Y-48026190D01*
X-101248020Y-48102380D01*
X-101286115Y-48254761D01*
X-101286115Y-48369047D01*
X-101248020Y-48521428D01*
X-101209924Y-48597619D01*
X-101133734Y-48673809D01*
X-101019448Y-48711904D01*
X-100828972Y-48711904D01*
X-102048020Y-48711904D02*
X-101590877Y-48711904D01*
X-101819448Y-48711904D02*
X-101819448Y-47911904D01*
X-101743258Y-48026190D01*
X-101667067Y-48102380D01*
X-101590877Y-48140476D01*
X-102733734Y-48178571D02*
X-102733734Y-48711904D01*
X-102543258Y-47873809D02*
X-102352781Y-48445238D01*
X-102848020Y-48445238D01*
%TO.C,D15*%
X-82803972Y-43961904D02*
X-82803972Y-43161904D01*
X-82994448Y-43161904D01*
X-83108734Y-43200000D01*
X-83184924Y-43276190D01*
X-83223020Y-43352380D01*
X-83261115Y-43504761D01*
X-83261115Y-43619047D01*
X-83223020Y-43771428D01*
X-83184924Y-43847619D01*
X-83108734Y-43923809D01*
X-82994448Y-43961904D01*
X-82803972Y-43961904D01*
X-84023020Y-43961904D02*
X-83565877Y-43961904D01*
X-83794448Y-43961904D02*
X-83794448Y-43161904D01*
X-83718258Y-43276190D01*
X-83642067Y-43352380D01*
X-83565877Y-43390476D01*
X-84746829Y-43161904D02*
X-84365877Y-43161904D01*
X-84327781Y-43542857D01*
X-84365877Y-43504761D01*
X-84442067Y-43466666D01*
X-84632543Y-43466666D01*
X-84708734Y-43504761D01*
X-84746829Y-43542857D01*
X-84784924Y-43619047D01*
X-84784924Y-43809523D01*
X-84746829Y-43885714D01*
X-84708734Y-43923809D01*
X-84632543Y-43961904D01*
X-84442067Y-43961904D01*
X-84365877Y-43923809D01*
X-84327781Y-43885714D01*
%TO.C,D16*%
X-64828972Y-41711904D02*
X-64828972Y-40911904D01*
X-65019448Y-40911904D01*
X-65133734Y-40950000D01*
X-65209924Y-41026190D01*
X-65248020Y-41102380D01*
X-65286115Y-41254761D01*
X-65286115Y-41369047D01*
X-65248020Y-41521428D01*
X-65209924Y-41597619D01*
X-65133734Y-41673809D01*
X-65019448Y-41711904D01*
X-64828972Y-41711904D01*
X-66048020Y-41711904D02*
X-65590877Y-41711904D01*
X-65819448Y-41711904D02*
X-65819448Y-40911904D01*
X-65743258Y-41026190D01*
X-65667067Y-41102380D01*
X-65590877Y-41140476D01*
X-66733734Y-40911904D02*
X-66581353Y-40911904D01*
X-66505162Y-40950000D01*
X-66467067Y-40988095D01*
X-66390877Y-41102380D01*
X-66352781Y-41254761D01*
X-66352781Y-41559523D01*
X-66390877Y-41635714D01*
X-66428972Y-41673809D01*
X-66505162Y-41711904D01*
X-66657543Y-41711904D01*
X-66733734Y-41673809D01*
X-66771829Y-41635714D01*
X-66809924Y-41559523D01*
X-66809924Y-41369047D01*
X-66771829Y-41292857D01*
X-66733734Y-41254761D01*
X-66657543Y-41216666D01*
X-66505162Y-41216666D01*
X-66428972Y-41254761D01*
X-66390877Y-41292857D01*
X-66352781Y-41369047D01*
%TO.C,D17*%
X-46778972Y-43961904D02*
X-46778972Y-43161904D01*
X-46969448Y-43161904D01*
X-47083734Y-43200000D01*
X-47159924Y-43276190D01*
X-47198020Y-43352380D01*
X-47236115Y-43504761D01*
X-47236115Y-43619047D01*
X-47198020Y-43771428D01*
X-47159924Y-43847619D01*
X-47083734Y-43923809D01*
X-46969448Y-43961904D01*
X-46778972Y-43961904D01*
X-47998020Y-43961904D02*
X-47540877Y-43961904D01*
X-47769448Y-43961904D02*
X-47769448Y-43161904D01*
X-47693258Y-43276190D01*
X-47617067Y-43352380D01*
X-47540877Y-43390476D01*
X-48264686Y-43161904D02*
X-48798020Y-43161904D01*
X-48455162Y-43961904D01*
%TO.C,D18*%
X-28828972Y-46461904D02*
X-28828972Y-45661904D01*
X-29019448Y-45661904D01*
X-29133734Y-45700000D01*
X-29209924Y-45776190D01*
X-29248020Y-45852380D01*
X-29286115Y-46004761D01*
X-29286115Y-46119047D01*
X-29248020Y-46271428D01*
X-29209924Y-46347619D01*
X-29133734Y-46423809D01*
X-29019448Y-46461904D01*
X-28828972Y-46461904D01*
X-30048020Y-46461904D02*
X-29590877Y-46461904D01*
X-29819448Y-46461904D02*
X-29819448Y-45661904D01*
X-29743258Y-45776190D01*
X-29667067Y-45852380D01*
X-29590877Y-45890476D01*
X-30505162Y-46004761D02*
X-30428972Y-45966666D01*
X-30390877Y-45928571D01*
X-30352781Y-45852380D01*
X-30352781Y-45814285D01*
X-30390877Y-45738095D01*
X-30428972Y-45700000D01*
X-30505162Y-45661904D01*
X-30657543Y-45661904D01*
X-30733734Y-45700000D01*
X-30771829Y-45738095D01*
X-30809924Y-45814285D01*
X-30809924Y-45852380D01*
X-30771829Y-45928571D01*
X-30733734Y-45966666D01*
X-30657543Y-46004761D01*
X-30505162Y-46004761D01*
X-30428972Y-46042857D01*
X-30390877Y-46080952D01*
X-30352781Y-46157142D01*
X-30352781Y-46309523D01*
X-30390877Y-46385714D01*
X-30428972Y-46423809D01*
X-30505162Y-46461904D01*
X-30657543Y-46461904D01*
X-30733734Y-46423809D01*
X-30771829Y-46385714D01*
X-30809924Y-46309523D01*
X-30809924Y-46157142D01*
X-30771829Y-46080952D01*
X-30733734Y-46042857D01*
X-30657543Y-46004761D01*
%TO.C,D19*%
X-51978972Y-64910904D02*
X-51978972Y-64110904D01*
X-52169448Y-64110904D01*
X-52283734Y-64149000D01*
X-52359924Y-64225190D01*
X-52398020Y-64301380D01*
X-52436115Y-64453761D01*
X-52436115Y-64568047D01*
X-52398020Y-64720428D01*
X-52359924Y-64796619D01*
X-52283734Y-64872809D01*
X-52169448Y-64910904D01*
X-51978972Y-64910904D01*
X-53198020Y-64910904D02*
X-52740877Y-64910904D01*
X-52969448Y-64910904D02*
X-52969448Y-64110904D01*
X-52893258Y-64225190D01*
X-52817067Y-64301380D01*
X-52740877Y-64339476D01*
X-53578972Y-64910904D02*
X-53731353Y-64910904D01*
X-53807543Y-64872809D01*
X-53845639Y-64834714D01*
X-53921829Y-64720428D01*
X-53959924Y-64568047D01*
X-53959924Y-64263285D01*
X-53921829Y-64187095D01*
X-53883734Y-64149000D01*
X-53807543Y-64110904D01*
X-53655162Y-64110904D01*
X-53578972Y-64149000D01*
X-53540877Y-64187095D01*
X-53502781Y-64263285D01*
X-53502781Y-64453761D01*
X-53540877Y-64529952D01*
X-53578972Y-64568047D01*
X-53655162Y-64606142D01*
X-53807543Y-64606142D01*
X-53883734Y-64568047D01*
X-53921829Y-64529952D01*
X-53959924Y-64453761D01*
%TO.C,D20*%
X-33396849Y-66280132D02*
X-33603904Y-67052873D01*
X-33419918Y-67102172D01*
X-33299667Y-67094954D01*
X-33206353Y-67041079D01*
X-33149836Y-66977344D01*
X-33073600Y-66840015D01*
X-33044020Y-66729624D01*
X-33041379Y-66572576D01*
X-33058456Y-66489121D01*
X-33112331Y-66395807D01*
X-33212863Y-66329431D01*
X-33396849Y-66280132D01*
X-32848241Y-67176474D02*
X-32821303Y-67223131D01*
X-32757569Y-67279648D01*
X-32573583Y-67328946D01*
X-32490129Y-67311869D01*
X-32443472Y-67284931D01*
X-32386955Y-67221197D01*
X-32367236Y-67147602D01*
X-32374453Y-67027351D01*
X-32697702Y-66467468D01*
X-32219339Y-66595645D01*
X-31948031Y-67496563D02*
X-31874437Y-67516282D01*
X-31790983Y-67499204D01*
X-31744326Y-67472267D01*
X-31687809Y-67408533D01*
X-31611573Y-67271204D01*
X-31562274Y-67087218D01*
X-31559632Y-66930169D01*
X-31576709Y-66846715D01*
X-31603647Y-66800058D01*
X-31667381Y-66743541D01*
X-31740976Y-66723822D01*
X-31824430Y-66740900D01*
X-31871087Y-66767837D01*
X-31927604Y-66831572D01*
X-32003840Y-66968900D01*
X-32053139Y-67152886D01*
X-32055781Y-67309935D01*
X-32038703Y-67393389D01*
X-32011766Y-67440046D01*
X-31948031Y-67496563D01*
%TO.C,D21*%
X-6089003Y-69747667D02*
X-6781824Y-69347667D01*
X-6877062Y-69512624D01*
X-6901213Y-69630646D01*
X-6873326Y-69734724D01*
X-6826390Y-69805811D01*
X-6713472Y-69914993D01*
X-6614498Y-69972136D01*
X-6463485Y-70015335D01*
X-6378454Y-70020439D01*
X-6274376Y-69992551D01*
X-6184242Y-69912624D01*
X-6089003Y-69747667D01*
X-7096793Y-70045591D02*
X-7148832Y-70059535D01*
X-7219919Y-70106470D01*
X-7315157Y-70271427D01*
X-7320261Y-70356458D01*
X-7306317Y-70408497D01*
X-7259382Y-70479584D01*
X-7193399Y-70517679D01*
X-7075377Y-70541830D01*
X-6450908Y-70374504D01*
X-6698527Y-70803393D01*
X-7079480Y-71463222D02*
X-6850908Y-71067325D01*
X-6965194Y-71265273D02*
X-7658014Y-70865273D01*
X-7520945Y-70856433D01*
X-7416867Y-70828546D01*
X-7345780Y-70781611D01*
%TO.C,SW1*%
X-114018867Y-13479361D02*
X-114161724Y-13526980D01*
X-114399820Y-13526980D01*
X-114495058Y-13479361D01*
X-114542677Y-13431742D01*
X-114590296Y-13336504D01*
X-114590296Y-13241266D01*
X-114542677Y-13146028D01*
X-114495058Y-13098409D01*
X-114399820Y-13050790D01*
X-114209343Y-13003171D01*
X-114114105Y-12955552D01*
X-114066486Y-12907933D01*
X-114018867Y-12812695D01*
X-114018867Y-12717457D01*
X-114066486Y-12622219D01*
X-114114105Y-12574600D01*
X-114209343Y-12526980D01*
X-114447439Y-12526980D01*
X-114590296Y-12574600D01*
X-114923629Y-12526980D02*
X-115161724Y-13526980D01*
X-115352200Y-12812695D01*
X-115542677Y-13526980D01*
X-115780772Y-12526980D01*
X-116685534Y-13526980D02*
X-116114105Y-13526980D01*
X-116399820Y-13526980D02*
X-116399820Y-12526980D01*
X-116304581Y-12669838D01*
X-116209343Y-12765076D01*
X-116114105Y-12812695D01*
%TO.C,SW2*%
X-96024767Y-13483161D02*
X-96167624Y-13530780D01*
X-96405720Y-13530780D01*
X-96500958Y-13483161D01*
X-96548577Y-13435542D01*
X-96596196Y-13340304D01*
X-96596196Y-13245066D01*
X-96548577Y-13149828D01*
X-96500958Y-13102209D01*
X-96405720Y-13054590D01*
X-96215243Y-13006971D01*
X-96120005Y-12959352D01*
X-96072386Y-12911733D01*
X-96024767Y-12816495D01*
X-96024767Y-12721257D01*
X-96072386Y-12626019D01*
X-96120005Y-12578400D01*
X-96215243Y-12530780D01*
X-96453339Y-12530780D01*
X-96596196Y-12578400D01*
X-96929529Y-12530780D02*
X-97167624Y-13530780D01*
X-97358100Y-12816495D01*
X-97548577Y-13530780D01*
X-97786672Y-12530780D01*
X-98120005Y-12626019D02*
X-98167624Y-12578400D01*
X-98262862Y-12530780D01*
X-98500958Y-12530780D01*
X-98596196Y-12578400D01*
X-98643815Y-12626019D01*
X-98691434Y-12721257D01*
X-98691434Y-12816495D01*
X-98643815Y-12959352D01*
X-98072386Y-13530780D01*
X-98691434Y-13530780D01*
%TO.C,SW3*%
X-78010667Y-8706361D02*
X-78153524Y-8753980D01*
X-78391620Y-8753980D01*
X-78486858Y-8706361D01*
X-78534477Y-8658742D01*
X-78582096Y-8563504D01*
X-78582096Y-8468266D01*
X-78534477Y-8373028D01*
X-78486858Y-8325409D01*
X-78391620Y-8277790D01*
X-78201143Y-8230171D01*
X-78105905Y-8182552D01*
X-78058286Y-8134933D01*
X-78010667Y-8039695D01*
X-78010667Y-7944457D01*
X-78058286Y-7849219D01*
X-78105905Y-7801600D01*
X-78201143Y-7753980D01*
X-78439239Y-7753980D01*
X-78582096Y-7801600D01*
X-78915429Y-7753980D02*
X-79153524Y-8753980D01*
X-79344000Y-8039695D01*
X-79534477Y-8753980D01*
X-79772572Y-7753980D01*
X-80058286Y-7753980D02*
X-80677334Y-7753980D01*
X-80344000Y-8134933D01*
X-80486858Y-8134933D01*
X-80582096Y-8182552D01*
X-80629715Y-8230171D01*
X-80677334Y-8325409D01*
X-80677334Y-8563504D01*
X-80629715Y-8658742D01*
X-80582096Y-8706361D01*
X-80486858Y-8753980D01*
X-80201143Y-8753980D01*
X-80105905Y-8706361D01*
X-80058286Y-8658742D01*
%TO.C,SW4*%
X-60000667Y-6296561D02*
X-60143524Y-6344180D01*
X-60381620Y-6344180D01*
X-60476858Y-6296561D01*
X-60524477Y-6248942D01*
X-60572096Y-6153704D01*
X-60572096Y-6058466D01*
X-60524477Y-5963228D01*
X-60476858Y-5915609D01*
X-60381620Y-5867990D01*
X-60191143Y-5820371D01*
X-60095905Y-5772752D01*
X-60048286Y-5725133D01*
X-60000667Y-5629895D01*
X-60000667Y-5534657D01*
X-60048286Y-5439419D01*
X-60095905Y-5391800D01*
X-60191143Y-5344180D01*
X-60429239Y-5344180D01*
X-60572096Y-5391800D01*
X-60905429Y-5344180D02*
X-61143524Y-6344180D01*
X-61334000Y-5629895D01*
X-61524477Y-6344180D01*
X-61762572Y-5344180D01*
X-62572096Y-5677514D02*
X-62572096Y-6344180D01*
X-62334000Y-5296561D02*
X-62095905Y-6010847D01*
X-62714953Y-6010847D01*
%TO.C,SW5*%
X-41984667Y-8617661D02*
X-42127524Y-8665280D01*
X-42365620Y-8665280D01*
X-42460858Y-8617661D01*
X-42508477Y-8570042D01*
X-42556096Y-8474804D01*
X-42556096Y-8379566D01*
X-42508477Y-8284328D01*
X-42460858Y-8236709D01*
X-42365620Y-8189090D01*
X-42175143Y-8141471D01*
X-42079905Y-8093852D01*
X-42032286Y-8046233D01*
X-41984667Y-7950995D01*
X-41984667Y-7855757D01*
X-42032286Y-7760519D01*
X-42079905Y-7712900D01*
X-42175143Y-7665280D01*
X-42413239Y-7665280D01*
X-42556096Y-7712900D01*
X-42889429Y-7665280D02*
X-43127524Y-8665280D01*
X-43318000Y-7950995D01*
X-43508477Y-8665280D01*
X-43746572Y-7665280D01*
X-44603715Y-7665280D02*
X-44127524Y-7665280D01*
X-44079905Y-8141471D01*
X-44127524Y-8093852D01*
X-44222762Y-8046233D01*
X-44460858Y-8046233D01*
X-44556096Y-8093852D01*
X-44603715Y-8141471D01*
X-44651334Y-8236709D01*
X-44651334Y-8474804D01*
X-44603715Y-8570042D01*
X-44556096Y-8617661D01*
X-44460858Y-8665280D01*
X-44222762Y-8665280D01*
X-44127524Y-8617661D01*
X-44079905Y-8570042D01*
%TO.C,SW6*%
X-23971667Y-11018661D02*
X-24114524Y-11066280D01*
X-24352620Y-11066280D01*
X-24447858Y-11018661D01*
X-24495477Y-10971042D01*
X-24543096Y-10875804D01*
X-24543096Y-10780566D01*
X-24495477Y-10685328D01*
X-24447858Y-10637709D01*
X-24352620Y-10590090D01*
X-24162143Y-10542471D01*
X-24066905Y-10494852D01*
X-24019286Y-10447233D01*
X-23971667Y-10351995D01*
X-23971667Y-10256757D01*
X-24019286Y-10161519D01*
X-24066905Y-10113900D01*
X-24162143Y-10066280D01*
X-24400239Y-10066280D01*
X-24543096Y-10113900D01*
X-24876429Y-10066280D02*
X-25114524Y-11066280D01*
X-25305000Y-10351995D01*
X-25495477Y-11066280D01*
X-25733572Y-10066280D01*
X-26543096Y-10066280D02*
X-26352620Y-10066280D01*
X-26257381Y-10113900D01*
X-26209762Y-10161519D01*
X-26114524Y-10304376D01*
X-26066905Y-10494852D01*
X-26066905Y-10875804D01*
X-26114524Y-10971042D01*
X-26162143Y-11018661D01*
X-26257381Y-11066280D01*
X-26447858Y-11066280D01*
X-26543096Y-11018661D01*
X-26590715Y-10971042D01*
X-26638334Y-10875804D01*
X-26638334Y-10637709D01*
X-26590715Y-10542471D01*
X-26543096Y-10494852D01*
X-26447858Y-10447233D01*
X-26257381Y-10447233D01*
X-26162143Y-10494852D01*
X-26114524Y-10542471D01*
X-26066905Y-10637709D01*
%TO.C,SW7*%
X-114018867Y-30462261D02*
X-114161724Y-30509880D01*
X-114399820Y-30509880D01*
X-114495058Y-30462261D01*
X-114542677Y-30414642D01*
X-114590296Y-30319404D01*
X-114590296Y-30224166D01*
X-114542677Y-30128928D01*
X-114495058Y-30081309D01*
X-114399820Y-30033690D01*
X-114209343Y-29986071D01*
X-114114105Y-29938452D01*
X-114066486Y-29890833D01*
X-114018867Y-29795595D01*
X-114018867Y-29700357D01*
X-114066486Y-29605119D01*
X-114114105Y-29557500D01*
X-114209343Y-29509880D01*
X-114447439Y-29509880D01*
X-114590296Y-29557500D01*
X-114923629Y-29509880D02*
X-115161724Y-30509880D01*
X-115352200Y-29795595D01*
X-115542677Y-30509880D01*
X-115780772Y-29509880D01*
X-116066486Y-29509880D02*
X-116733153Y-29509880D01*
X-116304581Y-30509880D01*
%TO.C,SW8*%
X-96024767Y-30496761D02*
X-96167624Y-30544380D01*
X-96405720Y-30544380D01*
X-96500958Y-30496761D01*
X-96548577Y-30449142D01*
X-96596196Y-30353904D01*
X-96596196Y-30258666D01*
X-96548577Y-30163428D01*
X-96500958Y-30115809D01*
X-96405720Y-30068190D01*
X-96215243Y-30020571D01*
X-96120005Y-29972952D01*
X-96072386Y-29925333D01*
X-96024767Y-29830095D01*
X-96024767Y-29734857D01*
X-96072386Y-29639619D01*
X-96120005Y-29592000D01*
X-96215243Y-29544380D01*
X-96453339Y-29544380D01*
X-96596196Y-29592000D01*
X-96929529Y-29544380D02*
X-97167624Y-30544380D01*
X-97358100Y-29830095D01*
X-97548577Y-30544380D01*
X-97786672Y-29544380D01*
X-98310481Y-29972952D02*
X-98215243Y-29925333D01*
X-98167624Y-29877714D01*
X-98120005Y-29782476D01*
X-98120005Y-29734857D01*
X-98167624Y-29639619D01*
X-98215243Y-29592000D01*
X-98310481Y-29544380D01*
X-98500958Y-29544380D01*
X-98596196Y-29592000D01*
X-98643815Y-29639619D01*
X-98691434Y-29734857D01*
X-98691434Y-29782476D01*
X-98643815Y-29877714D01*
X-98596196Y-29925333D01*
X-98500958Y-29972952D01*
X-98310481Y-29972952D01*
X-98215243Y-30020571D01*
X-98167624Y-30068190D01*
X-98120005Y-30163428D01*
X-98120005Y-30353904D01*
X-98167624Y-30449142D01*
X-98215243Y-30496761D01*
X-98310481Y-30544380D01*
X-98500958Y-30544380D01*
X-98596196Y-30496761D01*
X-98643815Y-30449142D01*
X-98691434Y-30353904D01*
X-98691434Y-30163428D01*
X-98643815Y-30068190D01*
X-98596196Y-30020571D01*
X-98500958Y-29972952D01*
%TO.C,SW9*%
X-78008667Y-25694961D02*
X-78151524Y-25742580D01*
X-78389620Y-25742580D01*
X-78484858Y-25694961D01*
X-78532477Y-25647342D01*
X-78580096Y-25552104D01*
X-78580096Y-25456866D01*
X-78532477Y-25361628D01*
X-78484858Y-25314009D01*
X-78389620Y-25266390D01*
X-78199143Y-25218771D01*
X-78103905Y-25171152D01*
X-78056286Y-25123533D01*
X-78008667Y-25028295D01*
X-78008667Y-24933057D01*
X-78056286Y-24837819D01*
X-78103905Y-24790200D01*
X-78199143Y-24742580D01*
X-78437239Y-24742580D01*
X-78580096Y-24790200D01*
X-78913429Y-24742580D02*
X-79151524Y-25742580D01*
X-79342000Y-25028295D01*
X-79532477Y-25742580D01*
X-79770572Y-24742580D01*
X-80199143Y-25742580D02*
X-80389620Y-25742580D01*
X-80484858Y-25694961D01*
X-80532477Y-25647342D01*
X-80627715Y-25504485D01*
X-80675334Y-25314009D01*
X-80675334Y-24933057D01*
X-80627715Y-24837819D01*
X-80580096Y-24790200D01*
X-80484858Y-24742580D01*
X-80294381Y-24742580D01*
X-80199143Y-24790200D01*
X-80151524Y-24837819D01*
X-80103905Y-24933057D01*
X-80103905Y-25171152D01*
X-80151524Y-25266390D01*
X-80199143Y-25314009D01*
X-80294381Y-25361628D01*
X-80484858Y-25361628D01*
X-80580096Y-25314009D01*
X-80627715Y-25266390D01*
X-80675334Y-25171152D01*
%TO.C,SW10*%
X-59517477Y-23297761D02*
X-59660334Y-23345380D01*
X-59898429Y-23345380D01*
X-59993667Y-23297761D01*
X-60041286Y-23250142D01*
X-60088905Y-23154904D01*
X-60088905Y-23059666D01*
X-60041286Y-22964428D01*
X-59993667Y-22916809D01*
X-59898429Y-22869190D01*
X-59707953Y-22821571D01*
X-59612715Y-22773952D01*
X-59565096Y-22726333D01*
X-59517477Y-22631095D01*
X-59517477Y-22535857D01*
X-59565096Y-22440619D01*
X-59612715Y-22393000D01*
X-59707953Y-22345380D01*
X-59946048Y-22345380D01*
X-60088905Y-22393000D01*
X-60422239Y-22345380D02*
X-60660334Y-23345380D01*
X-60850810Y-22631095D01*
X-61041286Y-23345380D01*
X-61279381Y-22345380D01*
X-62184143Y-23345380D02*
X-61612715Y-23345380D01*
X-61898429Y-23345380D02*
X-61898429Y-22345380D01*
X-61803191Y-22488238D01*
X-61707953Y-22583476D01*
X-61612715Y-22631095D01*
X-62803191Y-22345380D02*
X-62898429Y-22345380D01*
X-62993667Y-22393000D01*
X-63041286Y-22440619D01*
X-63088905Y-22535857D01*
X-63136524Y-22726333D01*
X-63136524Y-22964428D01*
X-63088905Y-23154904D01*
X-63041286Y-23250142D01*
X-62993667Y-23297761D01*
X-62898429Y-23345380D01*
X-62803191Y-23345380D01*
X-62707953Y-23297761D01*
X-62660334Y-23250142D01*
X-62612715Y-23154904D01*
X-62565096Y-22964428D01*
X-62565096Y-22726333D01*
X-62612715Y-22535857D01*
X-62660334Y-22440619D01*
X-62707953Y-22393000D01*
X-62803191Y-22345380D01*
%TO.C,SW11*%
X-41508477Y-25632461D02*
X-41651334Y-25680080D01*
X-41889429Y-25680080D01*
X-41984667Y-25632461D01*
X-42032286Y-25584842D01*
X-42079905Y-25489604D01*
X-42079905Y-25394366D01*
X-42032286Y-25299128D01*
X-41984667Y-25251509D01*
X-41889429Y-25203890D01*
X-41698953Y-25156271D01*
X-41603715Y-25108652D01*
X-41556096Y-25061033D01*
X-41508477Y-24965795D01*
X-41508477Y-24870557D01*
X-41556096Y-24775319D01*
X-41603715Y-24727700D01*
X-41698953Y-24680080D01*
X-41937048Y-24680080D01*
X-42079905Y-24727700D01*
X-42413239Y-24680080D02*
X-42651334Y-25680080D01*
X-42841810Y-24965795D01*
X-43032286Y-25680080D01*
X-43270381Y-24680080D01*
X-44175143Y-25680080D02*
X-43603715Y-25680080D01*
X-43889429Y-25680080D02*
X-43889429Y-24680080D01*
X-43794191Y-24822938D01*
X-43698953Y-24918176D01*
X-43603715Y-24965795D01*
X-45127524Y-25680080D02*
X-44556096Y-25680080D01*
X-44841810Y-25680080D02*
X-44841810Y-24680080D01*
X-44746572Y-24822938D01*
X-44651334Y-24918176D01*
X-44556096Y-24965795D01*
%TO.C,SW12*%
X-23495477Y-28059761D02*
X-23638334Y-28107380D01*
X-23876429Y-28107380D01*
X-23971667Y-28059761D01*
X-24019286Y-28012142D01*
X-24066905Y-27916904D01*
X-24066905Y-27821666D01*
X-24019286Y-27726428D01*
X-23971667Y-27678809D01*
X-23876429Y-27631190D01*
X-23685953Y-27583571D01*
X-23590715Y-27535952D01*
X-23543096Y-27488333D01*
X-23495477Y-27393095D01*
X-23495477Y-27297857D01*
X-23543096Y-27202619D01*
X-23590715Y-27155000D01*
X-23685953Y-27107380D01*
X-23924048Y-27107380D01*
X-24066905Y-27155000D01*
X-24400239Y-27107380D02*
X-24638334Y-28107380D01*
X-24828810Y-27393095D01*
X-25019286Y-28107380D01*
X-25257381Y-27107380D01*
X-26162143Y-28107380D02*
X-25590715Y-28107380D01*
X-25876429Y-28107380D02*
X-25876429Y-27107380D01*
X-25781191Y-27250238D01*
X-25685953Y-27345476D01*
X-25590715Y-27393095D01*
X-26543096Y-27202619D02*
X-26590715Y-27155000D01*
X-26685953Y-27107380D01*
X-26924048Y-27107380D01*
X-27019286Y-27155000D01*
X-27066905Y-27202619D01*
X-27114524Y-27297857D01*
X-27114524Y-27393095D01*
X-27066905Y-27535952D01*
X-26495477Y-28107380D01*
X-27114524Y-28107380D01*
%TO.C,SW13*%
X-113542677Y-47492761D02*
X-113685534Y-47540380D01*
X-113923629Y-47540380D01*
X-114018867Y-47492761D01*
X-114066486Y-47445142D01*
X-114114105Y-47349904D01*
X-114114105Y-47254666D01*
X-114066486Y-47159428D01*
X-114018867Y-47111809D01*
X-113923629Y-47064190D01*
X-113733153Y-47016571D01*
X-113637915Y-46968952D01*
X-113590296Y-46921333D01*
X-113542677Y-46826095D01*
X-113542677Y-46730857D01*
X-113590296Y-46635619D01*
X-113637915Y-46588000D01*
X-113733153Y-46540380D01*
X-113971248Y-46540380D01*
X-114114105Y-46588000D01*
X-114447439Y-46540380D02*
X-114685534Y-47540380D01*
X-114876010Y-46826095D01*
X-115066486Y-47540380D01*
X-115304581Y-46540380D01*
X-116209343Y-47540380D02*
X-115637915Y-47540380D01*
X-115923629Y-47540380D02*
X-115923629Y-46540380D01*
X-115828391Y-46683238D01*
X-115733153Y-46778476D01*
X-115637915Y-46826095D01*
X-116542677Y-46540380D02*
X-117161724Y-46540380D01*
X-116828391Y-46921333D01*
X-116971248Y-46921333D01*
X-117066486Y-46968952D01*
X-117114105Y-47016571D01*
X-117161724Y-47111809D01*
X-117161724Y-47349904D01*
X-117114105Y-47445142D01*
X-117066486Y-47492761D01*
X-116971248Y-47540380D01*
X-116685534Y-47540380D01*
X-116590296Y-47492761D01*
X-116542677Y-47445142D01*
%TO.C,SW14*%
X-95548577Y-47480761D02*
X-95691434Y-47528380D01*
X-95929529Y-47528380D01*
X-96024767Y-47480761D01*
X-96072386Y-47433142D01*
X-96120005Y-47337904D01*
X-96120005Y-47242666D01*
X-96072386Y-47147428D01*
X-96024767Y-47099809D01*
X-95929529Y-47052190D01*
X-95739053Y-47004571D01*
X-95643815Y-46956952D01*
X-95596196Y-46909333D01*
X-95548577Y-46814095D01*
X-95548577Y-46718857D01*
X-95596196Y-46623619D01*
X-95643815Y-46576000D01*
X-95739053Y-46528380D01*
X-95977148Y-46528380D01*
X-96120005Y-46576000D01*
X-96453339Y-46528380D02*
X-96691434Y-47528380D01*
X-96881910Y-46814095D01*
X-97072386Y-47528380D01*
X-97310481Y-46528380D01*
X-98215243Y-47528380D02*
X-97643815Y-47528380D01*
X-97929529Y-47528380D02*
X-97929529Y-46528380D01*
X-97834291Y-46671238D01*
X-97739053Y-46766476D01*
X-97643815Y-46814095D01*
X-99072386Y-46861714D02*
X-99072386Y-47528380D01*
X-98834291Y-46480761D02*
X-98596196Y-47195047D01*
X-99215243Y-47195047D01*
%TO.C,SW15*%
X-77531477Y-42707761D02*
X-77674334Y-42755380D01*
X-77912429Y-42755380D01*
X-78007667Y-42707761D01*
X-78055286Y-42660142D01*
X-78102905Y-42564904D01*
X-78102905Y-42469666D01*
X-78055286Y-42374428D01*
X-78007667Y-42326809D01*
X-77912429Y-42279190D01*
X-77721953Y-42231571D01*
X-77626715Y-42183952D01*
X-77579096Y-42136333D01*
X-77531477Y-42041095D01*
X-77531477Y-41945857D01*
X-77579096Y-41850619D01*
X-77626715Y-41803000D01*
X-77721953Y-41755380D01*
X-77960048Y-41755380D01*
X-78102905Y-41803000D01*
X-78436239Y-41755380D02*
X-78674334Y-42755380D01*
X-78864810Y-42041095D01*
X-79055286Y-42755380D01*
X-79293381Y-41755380D01*
X-80198143Y-42755380D02*
X-79626715Y-42755380D01*
X-79912429Y-42755380D02*
X-79912429Y-41755380D01*
X-79817191Y-41898238D01*
X-79721953Y-41993476D01*
X-79626715Y-42041095D01*
X-81102905Y-41755380D02*
X-80626715Y-41755380D01*
X-80579096Y-42231571D01*
X-80626715Y-42183952D01*
X-80721953Y-42136333D01*
X-80960048Y-42136333D01*
X-81055286Y-42183952D01*
X-81102905Y-42231571D01*
X-81150524Y-42326809D01*
X-81150524Y-42564904D01*
X-81102905Y-42660142D01*
X-81055286Y-42707761D01*
X-80960048Y-42755380D01*
X-80721953Y-42755380D01*
X-80626715Y-42707761D01*
X-80579096Y-42660142D01*
%TO.C,SW16*%
X-59528477Y-40286761D02*
X-59671334Y-40334380D01*
X-59909429Y-40334380D01*
X-60004667Y-40286761D01*
X-60052286Y-40239142D01*
X-60099905Y-40143904D01*
X-60099905Y-40048666D01*
X-60052286Y-39953428D01*
X-60004667Y-39905809D01*
X-59909429Y-39858190D01*
X-59718953Y-39810571D01*
X-59623715Y-39762952D01*
X-59576096Y-39715333D01*
X-59528477Y-39620095D01*
X-59528477Y-39524857D01*
X-59576096Y-39429619D01*
X-59623715Y-39382000D01*
X-59718953Y-39334380D01*
X-59957048Y-39334380D01*
X-60099905Y-39382000D01*
X-60433239Y-39334380D02*
X-60671334Y-40334380D01*
X-60861810Y-39620095D01*
X-61052286Y-40334380D01*
X-61290381Y-39334380D01*
X-62195143Y-40334380D02*
X-61623715Y-40334380D01*
X-61909429Y-40334380D02*
X-61909429Y-39334380D01*
X-61814191Y-39477238D01*
X-61718953Y-39572476D01*
X-61623715Y-39620095D01*
X-63052286Y-39334380D02*
X-62861810Y-39334380D01*
X-62766572Y-39382000D01*
X-62718953Y-39429619D01*
X-62623715Y-39572476D01*
X-62576096Y-39762952D01*
X-62576096Y-40143904D01*
X-62623715Y-40239142D01*
X-62671334Y-40286761D01*
X-62766572Y-40334380D01*
X-62957048Y-40334380D01*
X-63052286Y-40286761D01*
X-63099905Y-40239142D01*
X-63147524Y-40143904D01*
X-63147524Y-39905809D01*
X-63099905Y-39810571D01*
X-63052286Y-39762952D01*
X-62957048Y-39715333D01*
X-62766572Y-39715333D01*
X-62671334Y-39762952D01*
X-62623715Y-39810571D01*
X-62576096Y-39905809D01*
%TO.C,SW17*%
X-41508477Y-42623761D02*
X-41651334Y-42671380D01*
X-41889429Y-42671380D01*
X-41984667Y-42623761D01*
X-42032286Y-42576142D01*
X-42079905Y-42480904D01*
X-42079905Y-42385666D01*
X-42032286Y-42290428D01*
X-41984667Y-42242809D01*
X-41889429Y-42195190D01*
X-41698953Y-42147571D01*
X-41603715Y-42099952D01*
X-41556096Y-42052333D01*
X-41508477Y-41957095D01*
X-41508477Y-41861857D01*
X-41556096Y-41766619D01*
X-41603715Y-41719000D01*
X-41698953Y-41671380D01*
X-41937048Y-41671380D01*
X-42079905Y-41719000D01*
X-42413239Y-41671380D02*
X-42651334Y-42671380D01*
X-42841810Y-41957095D01*
X-43032286Y-42671380D01*
X-43270381Y-41671380D01*
X-44175143Y-42671380D02*
X-43603715Y-42671380D01*
X-43889429Y-42671380D02*
X-43889429Y-41671380D01*
X-43794191Y-41814238D01*
X-43698953Y-41909476D01*
X-43603715Y-41957095D01*
X-44508477Y-41671380D02*
X-45175143Y-41671380D01*
X-44746572Y-42671380D01*
%TO.C,SW19*%
X-46560477Y-63459761D02*
X-46703334Y-63507380D01*
X-46941429Y-63507380D01*
X-47036667Y-63459761D01*
X-47084286Y-63412142D01*
X-47131905Y-63316904D01*
X-47131905Y-63221666D01*
X-47084286Y-63126428D01*
X-47036667Y-63078809D01*
X-46941429Y-63031190D01*
X-46750953Y-62983571D01*
X-46655715Y-62935952D01*
X-46608096Y-62888333D01*
X-46560477Y-62793095D01*
X-46560477Y-62697857D01*
X-46608096Y-62602619D01*
X-46655715Y-62555000D01*
X-46750953Y-62507380D01*
X-46989048Y-62507380D01*
X-47131905Y-62555000D01*
X-47465239Y-62507380D02*
X-47703334Y-63507380D01*
X-47893810Y-62793095D01*
X-48084286Y-63507380D01*
X-48322381Y-62507380D01*
X-49227143Y-63507380D02*
X-48655715Y-63507380D01*
X-48941429Y-63507380D02*
X-48941429Y-62507380D01*
X-48846191Y-62650238D01*
X-48750953Y-62745476D01*
X-48655715Y-62793095D01*
X-49703334Y-63507380D02*
X-49893810Y-63507380D01*
X-49989048Y-63459761D01*
X-50036667Y-63412142D01*
X-50131905Y-63269285D01*
X-50179524Y-63078809D01*
X-50179524Y-62697857D01*
X-50131905Y-62602619D01*
X-50084286Y-62555000D01*
X-49989048Y-62507380D01*
X-49798572Y-62507380D01*
X-49703334Y-62555000D01*
X-49655715Y-62602619D01*
X-49608096Y-62697857D01*
X-49608096Y-62935952D01*
X-49655715Y-63031190D01*
X-49703334Y-63078809D01*
X-49798572Y-63126428D01*
X-49989048Y-63126428D01*
X-50084286Y-63078809D01*
X-50131905Y-63031190D01*
X-50179524Y-62935952D01*
%TO.C,SW20*%
X-29478616Y-65994229D02*
X-29328302Y-65985207D01*
X-29098320Y-66046831D01*
X-29018652Y-66117476D01*
X-28984980Y-66175798D01*
X-28963633Y-66280115D01*
X-28988282Y-66372108D01*
X-29058928Y-66451776D01*
X-29117249Y-66485448D01*
X-29221567Y-66506795D01*
X-29417877Y-66503493D01*
X-29522195Y-66524840D01*
X-29580516Y-66558512D01*
X-29651162Y-66638180D01*
X-29675812Y-66730173D01*
X-29654465Y-66834490D01*
X-29620793Y-66892812D01*
X-29541125Y-66963458D01*
X-29311142Y-67025081D01*
X-29160828Y-67016059D01*
X-28851178Y-67148328D02*
X-28362376Y-66244026D01*
X-28363261Y-66983272D01*
X-27994405Y-66342624D01*
X-28023241Y-67370173D01*
X-27676616Y-67364453D02*
X-27642945Y-67422774D01*
X-27563277Y-67493420D01*
X-27333294Y-67555044D01*
X-27228977Y-67533697D01*
X-27170655Y-67500025D01*
X-27100009Y-67420357D01*
X-27075360Y-67328364D01*
X-27084382Y-67178050D01*
X-27488443Y-66478196D01*
X-26890489Y-66638417D01*
X-26551354Y-67764564D02*
X-26459361Y-67789214D01*
X-26355044Y-67767866D01*
X-26296722Y-67734195D01*
X-26226077Y-67654527D01*
X-26130781Y-67482865D01*
X-26069158Y-67252883D01*
X-26065855Y-67056572D01*
X-26087202Y-66952255D01*
X-26120874Y-66893934D01*
X-26200542Y-66823288D01*
X-26292535Y-66798638D01*
X-26396853Y-66819985D01*
X-26455174Y-66853657D01*
X-26525820Y-66933325D01*
X-26621115Y-67104986D01*
X-26682739Y-67334969D01*
X-26686041Y-67531279D01*
X-26664694Y-67635597D01*
X-26631022Y-67693918D01*
X-26551354Y-67764564D01*
%TO.C,SW21*%
X-4687427Y-64438304D02*
X-4717616Y-64585831D01*
X-4836663Y-64792028D01*
X-4925522Y-64850697D01*
X-4990571Y-64868127D01*
X-5096859Y-64861747D01*
X-5179337Y-64814128D01*
X-5238006Y-64725270D01*
X-5255436Y-64660221D01*
X-5249056Y-64553933D01*
X-5195058Y-64365166D01*
X-5188678Y-64258878D01*
X-5206108Y-64193829D01*
X-5264777Y-64104971D01*
X-5347255Y-64057351D01*
X-5453544Y-64050972D01*
X-5518592Y-64068402D01*
X-5607451Y-64127071D01*
X-5726498Y-64333267D01*
X-5756688Y-64480795D01*
X-5964594Y-64745660D02*
X-5217616Y-65451857D01*
X-5931443Y-65259671D01*
X-5408092Y-65781771D01*
X-6393165Y-65487968D01*
X-6477353Y-65824262D02*
X-6542402Y-65841692D01*
X-6631260Y-65900361D01*
X-6750308Y-66106557D01*
X-6756688Y-66212845D01*
X-6739258Y-66277894D01*
X-6680589Y-66366753D01*
X-6598110Y-66414372D01*
X-6450583Y-66444561D01*
X-5669997Y-66235404D01*
X-5979521Y-66771514D01*
X-6455711Y-67596301D02*
X-6169997Y-67101429D01*
X-6312854Y-67348865D02*
X-7178879Y-66848865D01*
X-7007542Y-66837815D01*
X-6877445Y-66802955D01*
X-6788586Y-66744286D01*
%TO.C,SW18*%
X-23488477Y-45049761D02*
X-23631334Y-45097380D01*
X-23869429Y-45097380D01*
X-23964667Y-45049761D01*
X-24012286Y-45002142D01*
X-24059905Y-44906904D01*
X-24059905Y-44811666D01*
X-24012286Y-44716428D01*
X-23964667Y-44668809D01*
X-23869429Y-44621190D01*
X-23678953Y-44573571D01*
X-23583715Y-44525952D01*
X-23536096Y-44478333D01*
X-23488477Y-44383095D01*
X-23488477Y-44287857D01*
X-23536096Y-44192619D01*
X-23583715Y-44145000D01*
X-23678953Y-44097380D01*
X-23917048Y-44097380D01*
X-24059905Y-44145000D01*
X-24393239Y-44097380D02*
X-24631334Y-45097380D01*
X-24821810Y-44383095D01*
X-25012286Y-45097380D01*
X-25250381Y-44097380D01*
X-26155143Y-45097380D02*
X-25583715Y-45097380D01*
X-25869429Y-45097380D02*
X-25869429Y-44097380D01*
X-25774191Y-44240238D01*
X-25678953Y-44335476D01*
X-25583715Y-44383095D01*
X-26726572Y-44525952D02*
X-26631334Y-44478333D01*
X-26583715Y-44430714D01*
X-26536096Y-44335476D01*
X-26536096Y-44287857D01*
X-26583715Y-44192619D01*
X-26631334Y-44145000D01*
X-26726572Y-44097380D01*
X-26917048Y-44097380D01*
X-27012286Y-44145000D01*
X-27059905Y-44192619D01*
X-27107524Y-44287857D01*
X-27107524Y-44335476D01*
X-27059905Y-44430714D01*
X-27012286Y-44478333D01*
X-26917048Y-44525952D01*
X-26726572Y-44525952D01*
X-26631334Y-44573571D01*
X-26583715Y-44621190D01*
X-26536096Y-44716428D01*
X-26536096Y-44906904D01*
X-26583715Y-45002142D01*
X-26631334Y-45049761D01*
X-26726572Y-45097380D01*
X-26917048Y-45097380D01*
X-27012286Y-45049761D01*
X-27059905Y-45002142D01*
X-27107524Y-44906904D01*
X-27107524Y-44716428D01*
X-27059905Y-44621190D01*
X-27012286Y-44573571D01*
X-26917048Y-44525952D01*
%TO.C,D13*%
X-118828972Y-48711904D02*
X-118828972Y-47911904D01*
X-119019448Y-47911904D01*
X-119133734Y-47950000D01*
X-119209924Y-48026190D01*
X-119248020Y-48102380D01*
X-119286115Y-48254761D01*
X-119286115Y-48369047D01*
X-119248020Y-48521428D01*
X-119209924Y-48597619D01*
X-119133734Y-48673809D01*
X-119019448Y-48711904D01*
X-118828972Y-48711904D01*
X-120048020Y-48711904D02*
X-119590877Y-48711904D01*
X-119819448Y-48711904D02*
X-119819448Y-47911904D01*
X-119743258Y-48026190D01*
X-119667067Y-48102380D01*
X-119590877Y-48140476D01*
X-120314686Y-47911904D02*
X-120809924Y-47911904D01*
X-120543258Y-48216666D01*
X-120657543Y-48216666D01*
X-120733734Y-48254761D01*
X-120771829Y-48292857D01*
X-120809924Y-48369047D01*
X-120809924Y-48559523D01*
X-120771829Y-48635714D01*
X-120733734Y-48673809D01*
X-120657543Y-48711904D01*
X-120428972Y-48711904D01*
X-120352781Y-48673809D01*
X-120314686Y-48635714D01*
%TO.C,D7*%
X-119209924Y-31711904D02*
X-119209924Y-30911904D01*
X-119400400Y-30911904D01*
X-119514686Y-30950000D01*
X-119590877Y-31026190D01*
X-119628972Y-31102380D01*
X-119667067Y-31254761D01*
X-119667067Y-31369047D01*
X-119628972Y-31521428D01*
X-119590877Y-31597619D01*
X-119514686Y-31673809D01*
X-119400400Y-31711904D01*
X-119209924Y-31711904D01*
X-119933734Y-30911904D02*
X-120467067Y-30911904D01*
X-120124210Y-31711904D01*
%TO.C,JP10*%
X-10457420Y-51740476D02*
X-9743134Y-51740476D01*
X-9600277Y-51692857D01*
X-9505039Y-51597619D01*
X-9457420Y-51454761D01*
X-9457420Y-51359523D01*
X-9457420Y-52216666D02*
X-10457420Y-52216666D01*
X-10457420Y-52597619D01*
X-10409800Y-52692857D01*
X-10362181Y-52740476D01*
X-10266943Y-52788095D01*
X-10124086Y-52788095D01*
X-10028848Y-52740476D01*
X-9981229Y-52692857D01*
X-9933610Y-52597619D01*
X-9933610Y-52216666D01*
X-9457420Y-53740476D02*
X-9457420Y-53169047D01*
X-9457420Y-53454761D02*
X-10457420Y-53454761D01*
X-10314562Y-53359523D01*
X-10219324Y-53264285D01*
X-10171705Y-53169047D01*
X-10457420Y-54359523D02*
X-10457420Y-54454761D01*
X-10409800Y-54550000D01*
X-10362181Y-54597619D01*
X-10266943Y-54645238D01*
X-10076467Y-54692857D01*
X-9838372Y-54692857D01*
X-9647896Y-54645238D01*
X-9552658Y-54597619D01*
X-9505039Y-54550000D01*
X-9457420Y-54454761D01*
X-9457420Y-54359523D01*
X-9505039Y-54264285D01*
X-9552658Y-54216666D01*
X-9647896Y-54169047D01*
X-9838372Y-54121428D01*
X-10076467Y-54121428D01*
X-10266943Y-54169047D01*
X-10362181Y-54216666D01*
X-10409800Y-54264285D01*
X-10457420Y-54359523D01*
%TO.C,JP38*%
X-1622377Y-20049080D02*
X-1622377Y-20763366D01*
X-1574758Y-20906223D01*
X-1479520Y-21001461D01*
X-1336662Y-21049080D01*
X-1241424Y-21049080D01*
X-2098567Y-21049080D02*
X-2098567Y-20049080D01*
X-2479520Y-20049080D01*
X-2574758Y-20096700D01*
X-2622377Y-20144319D01*
X-2669996Y-20239557D01*
X-2669996Y-20382414D01*
X-2622377Y-20477652D01*
X-2574758Y-20525271D01*
X-2479520Y-20572890D01*
X-2098567Y-20572890D01*
X-3003329Y-20049080D02*
X-3622377Y-20049080D01*
X-3289043Y-20430033D01*
X-3431900Y-20430033D01*
X-3527139Y-20477652D01*
X-3574758Y-20525271D01*
X-3622377Y-20620509D01*
X-3622377Y-20858604D01*
X-3574758Y-20953842D01*
X-3527139Y-21001461D01*
X-3431900Y-21049080D01*
X-3146186Y-21049080D01*
X-3050948Y-21001461D01*
X-3003329Y-20953842D01*
X-4193805Y-20477652D02*
X-4098567Y-20430033D01*
X-4050948Y-20382414D01*
X-4003329Y-20287176D01*
X-4003329Y-20239557D01*
X-4050948Y-20144319D01*
X-4098567Y-20096700D01*
X-4193805Y-20049080D01*
X-4384281Y-20049080D01*
X-4479520Y-20096700D01*
X-4527139Y-20144319D01*
X-4574758Y-20239557D01*
X-4574758Y-20287176D01*
X-4527139Y-20382414D01*
X-4479520Y-20430033D01*
X-4384281Y-20477652D01*
X-4193805Y-20477652D01*
X-4098567Y-20525271D01*
X-4050948Y-20572890D01*
X-4003329Y-20668128D01*
X-4003329Y-20858604D01*
X-4050948Y-20953842D01*
X-4098567Y-21001461D01*
X-4193805Y-21049080D01*
X-4384281Y-21049080D01*
X-4479520Y-21001461D01*
X-4527139Y-20953842D01*
X-4574758Y-20858604D01*
X-4574758Y-20668128D01*
X-4527139Y-20572890D01*
X-4479520Y-20525271D01*
X-4384281Y-20477652D01*
%TO.C,JP1*%
X-14144020Y-52216666D02*
X-13429734Y-52216666D01*
X-13286877Y-52169047D01*
X-13191639Y-52073809D01*
X-13144020Y-51930952D01*
X-13144020Y-51835714D01*
X-13144020Y-52692857D02*
X-14144020Y-52692857D01*
X-14144020Y-53073809D01*
X-14096400Y-53169047D01*
X-14048781Y-53216666D01*
X-13953543Y-53264285D01*
X-13810686Y-53264285D01*
X-13715448Y-53216666D01*
X-13667829Y-53169047D01*
X-13620210Y-53073809D01*
X-13620210Y-52692857D01*
X-13144020Y-54216666D02*
X-13144020Y-53645238D01*
X-13144020Y-53930952D02*
X-14144020Y-53930952D01*
X-14001162Y-53835714D01*
X-13905924Y-53740476D01*
X-13858305Y-53645238D01*
%TO.C,JP43*%
X-1622377Y-38390680D02*
X-1622377Y-39104966D01*
X-1574758Y-39247823D01*
X-1479520Y-39343061D01*
X-1336662Y-39390680D01*
X-1241424Y-39390680D01*
X-2098567Y-39390680D02*
X-2098567Y-38390680D01*
X-2479520Y-38390680D01*
X-2574758Y-38438300D01*
X-2622377Y-38485919D01*
X-2669996Y-38581157D01*
X-2669996Y-38724014D01*
X-2622377Y-38819252D01*
X-2574758Y-38866871D01*
X-2479520Y-38914490D01*
X-2098567Y-38914490D01*
X-3527139Y-38724014D02*
X-3527139Y-39390680D01*
X-3289043Y-38343061D02*
X-3050948Y-39057347D01*
X-3669996Y-39057347D01*
X-3955710Y-38390680D02*
X-4574758Y-38390680D01*
X-4241424Y-38771633D01*
X-4384281Y-38771633D01*
X-4479520Y-38819252D01*
X-4527139Y-38866871D01*
X-4574758Y-38962109D01*
X-4574758Y-39200204D01*
X-4527139Y-39295442D01*
X-4479520Y-39343061D01*
X-4384281Y-39390680D01*
X-4098567Y-39390680D01*
X-4003329Y-39343061D01*
X-3955710Y-39295442D01*
%TO.C,JP9*%
X-8651867Y-42059080D02*
X-8651867Y-42773366D01*
X-8604248Y-42916223D01*
X-8509010Y-43011461D01*
X-8366153Y-43059080D01*
X-8270915Y-43059080D01*
X-9128058Y-43059080D02*
X-9128058Y-42059080D01*
X-9509010Y-42059080D01*
X-9604248Y-42106700D01*
X-9651867Y-42154319D01*
X-9699486Y-42249557D01*
X-9699486Y-42392414D01*
X-9651867Y-42487652D01*
X-9604248Y-42535271D01*
X-9509010Y-42582890D01*
X-9128058Y-42582890D01*
X-10175677Y-43059080D02*
X-10366153Y-43059080D01*
X-10461391Y-43011461D01*
X-10509010Y-42963842D01*
X-10604248Y-42820985D01*
X-10651867Y-42630509D01*
X-10651867Y-42249557D01*
X-10604248Y-42154319D01*
X-10556629Y-42106700D01*
X-10461391Y-42059080D01*
X-10270915Y-42059080D01*
X-10175677Y-42106700D01*
X-10128058Y-42154319D01*
X-10080439Y-42249557D01*
X-10080439Y-42487652D01*
X-10128058Y-42582890D01*
X-10175677Y-42630509D01*
X-10270915Y-42678128D01*
X-10461391Y-42678128D01*
X-10556629Y-42630509D01*
X-10604248Y-42582890D01*
X-10651867Y-42487652D01*
%TO.C,JP41*%
X-1622377Y-31054080D02*
X-1622377Y-31768366D01*
X-1574758Y-31911223D01*
X-1479520Y-32006461D01*
X-1336662Y-32054080D01*
X-1241424Y-32054080D01*
X-2098567Y-32054080D02*
X-2098567Y-31054080D01*
X-2479520Y-31054080D01*
X-2574758Y-31101700D01*
X-2622377Y-31149319D01*
X-2669996Y-31244557D01*
X-2669996Y-31387414D01*
X-2622377Y-31482652D01*
X-2574758Y-31530271D01*
X-2479520Y-31577890D01*
X-2098567Y-31577890D01*
X-3527139Y-31387414D02*
X-3527139Y-32054080D01*
X-3289043Y-31006461D02*
X-3050948Y-31720747D01*
X-3669996Y-31720747D01*
X-4574758Y-32054080D02*
X-4003329Y-32054080D01*
X-4289043Y-32054080D02*
X-4289043Y-31054080D01*
X-4193805Y-31196938D01*
X-4098567Y-31292176D01*
X-4003329Y-31339795D01*
%TO.C,JP5*%
X-8651867Y-27385680D02*
X-8651867Y-28099966D01*
X-8604248Y-28242823D01*
X-8509010Y-28338061D01*
X-8366153Y-28385680D01*
X-8270915Y-28385680D01*
X-9128058Y-28385680D02*
X-9128058Y-27385680D01*
X-9509010Y-27385680D01*
X-9604248Y-27433300D01*
X-9651867Y-27480919D01*
X-9699486Y-27576157D01*
X-9699486Y-27719014D01*
X-9651867Y-27814252D01*
X-9604248Y-27861871D01*
X-9509010Y-27909490D01*
X-9128058Y-27909490D01*
X-10604248Y-27385680D02*
X-10128058Y-27385680D01*
X-10080439Y-27861871D01*
X-10128058Y-27814252D01*
X-10223296Y-27766633D01*
X-10461391Y-27766633D01*
X-10556629Y-27814252D01*
X-10604248Y-27861871D01*
X-10651867Y-27957109D01*
X-10651867Y-28195204D01*
X-10604248Y-28290442D01*
X-10556629Y-28338061D01*
X-10461391Y-28385680D01*
X-10223296Y-28385680D01*
X-10128058Y-28338061D01*
X-10080439Y-28290442D01*
%TO.C,JP8*%
X-8651867Y-38390680D02*
X-8651867Y-39104966D01*
X-8604248Y-39247823D01*
X-8509010Y-39343061D01*
X-8366153Y-39390680D01*
X-8270915Y-39390680D01*
X-9128058Y-39390680D02*
X-9128058Y-38390680D01*
X-9509010Y-38390680D01*
X-9604248Y-38438300D01*
X-9651867Y-38485919D01*
X-9699486Y-38581157D01*
X-9699486Y-38724014D01*
X-9651867Y-38819252D01*
X-9604248Y-38866871D01*
X-9509010Y-38914490D01*
X-9128058Y-38914490D01*
X-10270915Y-38819252D02*
X-10175677Y-38771633D01*
X-10128058Y-38724014D01*
X-10080439Y-38628776D01*
X-10080439Y-38581157D01*
X-10128058Y-38485919D01*
X-10175677Y-38438300D01*
X-10270915Y-38390680D01*
X-10461391Y-38390680D01*
X-10556629Y-38438300D01*
X-10604248Y-38485919D01*
X-10651867Y-38581157D01*
X-10651867Y-38628776D01*
X-10604248Y-38724014D01*
X-10556629Y-38771633D01*
X-10461391Y-38819252D01*
X-10270915Y-38819252D01*
X-10175677Y-38866871D01*
X-10128058Y-38914490D01*
X-10080439Y-39009728D01*
X-10080439Y-39200204D01*
X-10128058Y-39295442D01*
X-10175677Y-39343061D01*
X-10270915Y-39390680D01*
X-10461391Y-39390680D01*
X-10556629Y-39343061D01*
X-10604248Y-39295442D01*
X-10651867Y-39200204D01*
X-10651867Y-39009728D01*
X-10604248Y-38914490D01*
X-10556629Y-38866871D01*
X-10461391Y-38819252D01*
%TO.C,JP3*%
X-8651867Y-20049080D02*
X-8651867Y-20763366D01*
X-8604248Y-20906223D01*
X-8509010Y-21001461D01*
X-8366153Y-21049080D01*
X-8270915Y-21049080D01*
X-9128058Y-21049080D02*
X-9128058Y-20049080D01*
X-9509010Y-20049080D01*
X-9604248Y-20096700D01*
X-9651867Y-20144319D01*
X-9699486Y-20239557D01*
X-9699486Y-20382414D01*
X-9651867Y-20477652D01*
X-9604248Y-20525271D01*
X-9509010Y-20572890D01*
X-9128058Y-20572890D01*
X-10032820Y-20049080D02*
X-10651867Y-20049080D01*
X-10318534Y-20430033D01*
X-10461391Y-20430033D01*
X-10556629Y-20477652D01*
X-10604248Y-20525271D01*
X-10651867Y-20620509D01*
X-10651867Y-20858604D01*
X-10604248Y-20953842D01*
X-10556629Y-21001461D01*
X-10461391Y-21049080D01*
X-10175677Y-21049080D01*
X-10080439Y-21001461D01*
X-10032820Y-20953842D01*
%TO.C,J8*%
X-6047586Y-58147515D02*
X-5428996Y-58504658D01*
X-5281469Y-58534847D01*
X-5151371Y-58499987D01*
X-5038703Y-58400079D01*
X-4991084Y-58317600D01*
X-5985956Y-58897912D02*
X-5979576Y-58791623D01*
X-5997006Y-58726575D01*
X-6055675Y-58637716D01*
X-6096914Y-58613907D01*
X-6203202Y-58607527D01*
X-6268251Y-58624957D01*
X-6357110Y-58683626D01*
X-6452348Y-58848583D01*
X-6458727Y-58954871D01*
X-6441298Y-59019920D01*
X-6382629Y-59108778D01*
X-6341389Y-59132588D01*
X-6235101Y-59138968D01*
X-6170052Y-59121538D01*
X-6081194Y-59062869D01*
X-5985956Y-58897912D01*
X-5897098Y-58839242D01*
X-5832049Y-58821813D01*
X-5725761Y-58828192D01*
X-5560803Y-58923430D01*
X-5502134Y-59012289D01*
X-5484705Y-59077338D01*
X-5491084Y-59183626D01*
X-5586322Y-59348583D01*
X-5675181Y-59407252D01*
X-5740230Y-59424682D01*
X-5846518Y-59418302D01*
X-6011475Y-59323064D01*
X-6070144Y-59234206D01*
X-6087574Y-59169157D01*
X-6081194Y-59062869D01*
%TO.C,JP44*%
X-1622377Y-42059080D02*
X-1622377Y-42773366D01*
X-1574758Y-42916223D01*
X-1479520Y-43011461D01*
X-1336662Y-43059080D01*
X-1241424Y-43059080D01*
X-2098567Y-43059080D02*
X-2098567Y-42059080D01*
X-2479520Y-42059080D01*
X-2574758Y-42106700D01*
X-2622377Y-42154319D01*
X-2669996Y-42249557D01*
X-2669996Y-42392414D01*
X-2622377Y-42487652D01*
X-2574758Y-42535271D01*
X-2479520Y-42582890D01*
X-2098567Y-42582890D01*
X-3527139Y-42392414D02*
X-3527139Y-43059080D01*
X-3289043Y-42011461D02*
X-3050948Y-42725747D01*
X-3669996Y-42725747D01*
X-4479520Y-42392414D02*
X-4479520Y-43059080D01*
X-4241424Y-42011461D02*
X-4003329Y-42725747D01*
X-4622377Y-42725747D01*
%TO.C,JP6*%
X-8651867Y-31054080D02*
X-8651867Y-31768366D01*
X-8604248Y-31911223D01*
X-8509010Y-32006461D01*
X-8366153Y-32054080D01*
X-8270915Y-32054080D01*
X-9128058Y-32054080D02*
X-9128058Y-31054080D01*
X-9509010Y-31054080D01*
X-9604248Y-31101700D01*
X-9651867Y-31149319D01*
X-9699486Y-31244557D01*
X-9699486Y-31387414D01*
X-9651867Y-31482652D01*
X-9604248Y-31530271D01*
X-9509010Y-31577890D01*
X-9128058Y-31577890D01*
X-10556629Y-31054080D02*
X-10366153Y-31054080D01*
X-10270915Y-31101700D01*
X-10223296Y-31149319D01*
X-10128058Y-31292176D01*
X-10080439Y-31482652D01*
X-10080439Y-31863604D01*
X-10128058Y-31958842D01*
X-10175677Y-32006461D01*
X-10270915Y-32054080D01*
X-10461391Y-32054080D01*
X-10556629Y-32006461D01*
X-10604248Y-31958842D01*
X-10651867Y-31863604D01*
X-10651867Y-31625509D01*
X-10604248Y-31530271D01*
X-10556629Y-31482652D01*
X-10461391Y-31435033D01*
X-10270915Y-31435033D01*
X-10175677Y-31482652D01*
X-10128058Y-31530271D01*
X-10080439Y-31625509D01*
%TO.C,JP40*%
X-1622377Y-27385680D02*
X-1622377Y-28099966D01*
X-1574758Y-28242823D01*
X-1479520Y-28338061D01*
X-1336662Y-28385680D01*
X-1241424Y-28385680D01*
X-2098567Y-28385680D02*
X-2098567Y-27385680D01*
X-2479520Y-27385680D01*
X-2574758Y-27433300D01*
X-2622377Y-27480919D01*
X-2669996Y-27576157D01*
X-2669996Y-27719014D01*
X-2622377Y-27814252D01*
X-2574758Y-27861871D01*
X-2479520Y-27909490D01*
X-2098567Y-27909490D01*
X-3527139Y-27719014D02*
X-3527139Y-28385680D01*
X-3289043Y-27338061D02*
X-3050948Y-28052347D01*
X-3669996Y-28052347D01*
X-4241424Y-27385680D02*
X-4336662Y-27385680D01*
X-4431900Y-27433300D01*
X-4479520Y-27480919D01*
X-4527139Y-27576157D01*
X-4574758Y-27766633D01*
X-4574758Y-28004728D01*
X-4527139Y-28195204D01*
X-4479520Y-28290442D01*
X-4431900Y-28338061D01*
X-4336662Y-28385680D01*
X-4241424Y-28385680D01*
X-4146186Y-28338061D01*
X-4098567Y-28290442D01*
X-4050948Y-28195204D01*
X-4003329Y-28004728D01*
X-4003329Y-27766633D01*
X-4050948Y-27576157D01*
X-4098567Y-27480919D01*
X-4146186Y-27433300D01*
X-4241424Y-27385680D01*
%TO.C,JP14*%
X-3084020Y-51740476D02*
X-2369734Y-51740476D01*
X-2226877Y-51692857D01*
X-2131639Y-51597619D01*
X-2084020Y-51454761D01*
X-2084020Y-51359523D01*
X-2084020Y-52216666D02*
X-3084020Y-52216666D01*
X-3084020Y-52597619D01*
X-3036400Y-52692857D01*
X-2988781Y-52740476D01*
X-2893543Y-52788095D01*
X-2750686Y-52788095D01*
X-2655448Y-52740476D01*
X-2607829Y-52692857D01*
X-2560210Y-52597619D01*
X-2560210Y-52216666D01*
X-2084020Y-53740476D02*
X-2084020Y-53169047D01*
X-2084020Y-53454761D02*
X-3084020Y-53454761D01*
X-2941162Y-53359523D01*
X-2845924Y-53264285D01*
X-2798305Y-53169047D01*
X-2750686Y-54597619D02*
X-2084020Y-54597619D01*
X-3131639Y-54359523D02*
X-2417353Y-54121428D01*
X-2417353Y-54740476D01*
%TO.C,JP7*%
X-8651867Y-34722380D02*
X-8651867Y-35436666D01*
X-8604248Y-35579523D01*
X-8509010Y-35674761D01*
X-8366153Y-35722380D01*
X-8270915Y-35722380D01*
X-9128058Y-35722380D02*
X-9128058Y-34722380D01*
X-9509010Y-34722380D01*
X-9604248Y-34770000D01*
X-9651867Y-34817619D01*
X-9699486Y-34912857D01*
X-9699486Y-35055714D01*
X-9651867Y-35150952D01*
X-9604248Y-35198571D01*
X-9509010Y-35246190D01*
X-9128058Y-35246190D01*
X-10032820Y-34722380D02*
X-10699486Y-34722380D01*
X-10270915Y-35722380D01*
%TO.C,JP12*%
X-6770720Y-51740476D02*
X-6056434Y-51740476D01*
X-5913577Y-51692857D01*
X-5818339Y-51597619D01*
X-5770720Y-51454761D01*
X-5770720Y-51359523D01*
X-5770720Y-52216666D02*
X-6770720Y-52216666D01*
X-6770720Y-52597619D01*
X-6723100Y-52692857D01*
X-6675481Y-52740476D01*
X-6580243Y-52788095D01*
X-6437386Y-52788095D01*
X-6342148Y-52740476D01*
X-6294529Y-52692857D01*
X-6246910Y-52597619D01*
X-6246910Y-52216666D01*
X-5770720Y-53740476D02*
X-5770720Y-53169047D01*
X-5770720Y-53454761D02*
X-6770720Y-53454761D01*
X-6627862Y-53359523D01*
X-6532624Y-53264285D01*
X-6485005Y-53169047D01*
X-6675481Y-54121428D02*
X-6723100Y-54169047D01*
X-6770720Y-54264285D01*
X-6770720Y-54502380D01*
X-6723100Y-54597619D01*
X-6675481Y-54645238D01*
X-6580243Y-54692857D01*
X-6485005Y-54692857D01*
X-6342148Y-54645238D01*
X-5770720Y-54073809D01*
X-5770720Y-54692857D01*
%TO.C,JP39*%
X-1622377Y-23717380D02*
X-1622377Y-24431666D01*
X-1574758Y-24574523D01*
X-1479520Y-24669761D01*
X-1336662Y-24717380D01*
X-1241424Y-24717380D01*
X-2098567Y-24717380D02*
X-2098567Y-23717380D01*
X-2479520Y-23717380D01*
X-2574758Y-23765000D01*
X-2622377Y-23812619D01*
X-2669996Y-23907857D01*
X-2669996Y-24050714D01*
X-2622377Y-24145952D01*
X-2574758Y-24193571D01*
X-2479520Y-24241190D01*
X-2098567Y-24241190D01*
X-3003329Y-23717380D02*
X-3622377Y-23717380D01*
X-3289043Y-24098333D01*
X-3431900Y-24098333D01*
X-3527139Y-24145952D01*
X-3574758Y-24193571D01*
X-3622377Y-24288809D01*
X-3622377Y-24526904D01*
X-3574758Y-24622142D01*
X-3527139Y-24669761D01*
X-3431900Y-24717380D01*
X-3146186Y-24717380D01*
X-3050948Y-24669761D01*
X-3003329Y-24622142D01*
X-4098567Y-24717380D02*
X-4289043Y-24717380D01*
X-4384281Y-24669761D01*
X-4431900Y-24622142D01*
X-4527139Y-24479285D01*
X-4574758Y-24288809D01*
X-4574758Y-23907857D01*
X-4527139Y-23812619D01*
X-4479520Y-23765000D01*
X-4384281Y-23717380D01*
X-4193805Y-23717380D01*
X-4098567Y-23765000D01*
X-4050948Y-23812619D01*
X-4003329Y-23907857D01*
X-4003329Y-24145952D01*
X-4050948Y-24241190D01*
X-4098567Y-24288809D01*
X-4193805Y-24336428D01*
X-4384281Y-24336428D01*
X-4479520Y-24288809D01*
X-4527139Y-24241190D01*
X-4574758Y-24145952D01*
%TO.C,JP42*%
X-1622377Y-34722380D02*
X-1622377Y-35436666D01*
X-1574758Y-35579523D01*
X-1479520Y-35674761D01*
X-1336662Y-35722380D01*
X-1241424Y-35722380D01*
X-2098567Y-35722380D02*
X-2098567Y-34722380D01*
X-2479520Y-34722380D01*
X-2574758Y-34770000D01*
X-2622377Y-34817619D01*
X-2669996Y-34912857D01*
X-2669996Y-35055714D01*
X-2622377Y-35150952D01*
X-2574758Y-35198571D01*
X-2479520Y-35246190D01*
X-2098567Y-35246190D01*
X-3527139Y-35055714D02*
X-3527139Y-35722380D01*
X-3289043Y-34674761D02*
X-3050948Y-35389047D01*
X-3669996Y-35389047D01*
X-4003329Y-34817619D02*
X-4050948Y-34770000D01*
X-4146186Y-34722380D01*
X-4384281Y-34722380D01*
X-4479520Y-34770000D01*
X-4527139Y-34817619D01*
X-4574758Y-34912857D01*
X-4574758Y-35008095D01*
X-4527139Y-35150952D01*
X-3955710Y-35722380D01*
X-4574758Y-35722380D01*
%TO.C,JP4*%
X-8651867Y-23717380D02*
X-8651867Y-24431666D01*
X-8604248Y-24574523D01*
X-8509010Y-24669761D01*
X-8366153Y-24717380D01*
X-8270915Y-24717380D01*
X-9128058Y-24717380D02*
X-9128058Y-23717380D01*
X-9509010Y-23717380D01*
X-9604248Y-23765000D01*
X-9651867Y-23812619D01*
X-9699486Y-23907857D01*
X-9699486Y-24050714D01*
X-9651867Y-24145952D01*
X-9604248Y-24193571D01*
X-9509010Y-24241190D01*
X-9128058Y-24241190D01*
X-10556629Y-24050714D02*
X-10556629Y-24717380D01*
X-10318534Y-23669761D02*
X-10080439Y-24384047D01*
X-10699486Y-24384047D01*
%TO.C,D1*%
X-117439000Y-16762000D02*
X-117439000Y-15238000D01*
X-117312000Y-15238000D02*
X-117312000Y-16762000D01*
X-117693000Y-16762000D02*
X-117693000Y-15238000D01*
X-117820000Y-15238000D02*
X-117820000Y-16762000D01*
X-122265000Y-15238000D02*
X-117185000Y-15238000D01*
X-122265000Y-16762000D02*
X-122265000Y-15238000D01*
X-117947000Y-15238000D02*
X-117947000Y-16762000D01*
X-117185000Y-15238000D02*
X-117185000Y-16762000D01*
X-117185000Y-16762000D02*
X-122265000Y-16762000D01*
X-117566000Y-15238000D02*
X-117566000Y-16762000D01*
X-122265000Y-15238000D02*
X-121757000Y-15238000D01*
%TO.C,D2*%
X-104265000Y-15238000D02*
X-99185000Y-15238000D01*
X-104265000Y-15238000D02*
X-103757000Y-15238000D01*
X-99312000Y-15238000D02*
X-99312000Y-16762000D01*
X-99947000Y-15238000D02*
X-99947000Y-16762000D01*
X-99439000Y-16762000D02*
X-99439000Y-15238000D01*
X-99185000Y-16762000D02*
X-104265000Y-16762000D01*
X-99693000Y-16762000D02*
X-99693000Y-15238000D01*
X-99820000Y-15238000D02*
X-99820000Y-16762000D01*
X-99566000Y-15238000D02*
X-99566000Y-16762000D01*
X-104265000Y-16762000D02*
X-104265000Y-15238000D01*
X-99185000Y-15238000D02*
X-99185000Y-16762000D01*
%TO.C,D3*%
X-86290000Y-11762000D02*
X-86290000Y-10238000D01*
X-81337000Y-10238000D02*
X-81337000Y-11762000D01*
X-86290000Y-10238000D02*
X-81210000Y-10238000D01*
X-86290000Y-10238000D02*
X-85782000Y-10238000D01*
X-81464000Y-11762000D02*
X-81464000Y-10238000D01*
X-81845000Y-10238000D02*
X-81845000Y-11762000D01*
X-81210000Y-11762000D02*
X-86290000Y-11762000D01*
X-81210000Y-10238000D02*
X-81210000Y-11762000D01*
X-81718000Y-11762000D02*
X-81718000Y-10238000D01*
X-81972000Y-10238000D02*
X-81972000Y-11762000D01*
X-81591000Y-10238000D02*
X-81591000Y-11762000D01*
%TO.C,D4*%
X-68315000Y-7988000D02*
X-63235000Y-7988000D01*
X-68315000Y-9512000D02*
X-68315000Y-7988000D01*
X-63235000Y-9512000D02*
X-68315000Y-9512000D01*
X-63997000Y-7988000D02*
X-63997000Y-9512000D01*
X-63616000Y-7988000D02*
X-63616000Y-9512000D01*
X-63235000Y-7988000D02*
X-63235000Y-9512000D01*
X-68315000Y-7988000D02*
X-67807000Y-7988000D01*
X-63362000Y-7988000D02*
X-63362000Y-9512000D01*
X-63489000Y-9512000D02*
X-63489000Y-7988000D01*
X-63870000Y-7988000D02*
X-63870000Y-9512000D01*
X-63743000Y-9512000D02*
X-63743000Y-7988000D01*
%TO.C,D5*%
X-45566000Y-10238000D02*
X-45566000Y-11762000D01*
X-45185000Y-10238000D02*
X-45185000Y-11762000D01*
X-45693000Y-11762000D02*
X-45693000Y-10238000D01*
X-50265000Y-10238000D02*
X-49757000Y-10238000D01*
X-45312000Y-10238000D02*
X-45312000Y-11762000D01*
X-45439000Y-11762000D02*
X-45439000Y-10238000D01*
X-50265000Y-11762000D02*
X-50265000Y-10238000D01*
X-45820000Y-10238000D02*
X-45820000Y-11762000D01*
X-45185000Y-11762000D02*
X-50265000Y-11762000D01*
X-50265000Y-10238000D02*
X-45185000Y-10238000D01*
X-45947000Y-10238000D02*
X-45947000Y-11762000D01*
%TO.C,D6*%
X-32315000Y-12738000D02*
X-27235000Y-12738000D01*
X-27235000Y-12738000D02*
X-27235000Y-14262000D01*
X-27235000Y-14262000D02*
X-32315000Y-14262000D01*
X-27616000Y-12738000D02*
X-27616000Y-14262000D01*
X-27362000Y-12738000D02*
X-27362000Y-14262000D01*
X-32315000Y-12738000D02*
X-31807000Y-12738000D01*
X-27743000Y-14262000D02*
X-27743000Y-12738000D01*
X-27997000Y-12738000D02*
X-27997000Y-14262000D01*
X-32315000Y-14262000D02*
X-32315000Y-12738000D01*
X-27870000Y-12738000D02*
X-27870000Y-14262000D01*
X-27489000Y-14262000D02*
X-27489000Y-12738000D01*
%TO.C,D8*%
X-99870000Y-31988000D02*
X-99870000Y-33512000D01*
X-99997000Y-31988000D02*
X-99997000Y-33512000D01*
X-99489000Y-33512000D02*
X-99489000Y-31988000D01*
X-99362000Y-31988000D02*
X-99362000Y-33512000D01*
X-104315000Y-31988000D02*
X-99235000Y-31988000D01*
X-104315000Y-33512000D02*
X-104315000Y-31988000D01*
X-99616000Y-31988000D02*
X-99616000Y-33512000D01*
X-99743000Y-33512000D02*
X-99743000Y-31988000D01*
X-99235000Y-33512000D02*
X-104315000Y-33512000D01*
X-99235000Y-31988000D02*
X-99235000Y-33512000D01*
X-104315000Y-31988000D02*
X-103807000Y-31988000D01*
%TO.C,D9*%
X-81210000Y-28762000D02*
X-86290000Y-28762000D01*
X-86290000Y-27238000D02*
X-81210000Y-27238000D01*
X-81972000Y-27238000D02*
X-81972000Y-28762000D01*
X-81464000Y-28762000D02*
X-81464000Y-27238000D01*
X-81718000Y-28762000D02*
X-81718000Y-27238000D01*
X-86290000Y-28762000D02*
X-86290000Y-27238000D01*
X-81210000Y-27238000D02*
X-81210000Y-28762000D01*
X-86290000Y-27238000D02*
X-85782000Y-27238000D01*
X-81845000Y-27238000D02*
X-81845000Y-28762000D01*
X-81337000Y-27238000D02*
X-81337000Y-28762000D01*
X-81591000Y-27238000D02*
X-81591000Y-28762000D01*
%TO.C,D10*%
X-68290000Y-26512000D02*
X-68290000Y-24988000D01*
X-63718000Y-26512000D02*
X-63718000Y-24988000D01*
X-68290000Y-24988000D02*
X-67782000Y-24988000D01*
X-63591000Y-24988000D02*
X-63591000Y-26512000D01*
X-68290000Y-24988000D02*
X-63210000Y-24988000D01*
X-63464000Y-26512000D02*
X-63464000Y-24988000D01*
X-63845000Y-24988000D02*
X-63845000Y-26512000D01*
X-63972000Y-24988000D02*
X-63972000Y-26512000D01*
X-63210000Y-26512000D02*
X-68290000Y-26512000D01*
X-63337000Y-24988000D02*
X-63337000Y-26512000D01*
X-63210000Y-24988000D02*
X-63210000Y-26512000D01*
%TO.C,D11*%
X-45972000Y-27238000D02*
X-45972000Y-28762000D01*
X-50290000Y-27238000D02*
X-49782000Y-27238000D01*
X-45337000Y-27238000D02*
X-45337000Y-28762000D01*
X-45591000Y-27238000D02*
X-45591000Y-28762000D01*
X-45210000Y-28762000D02*
X-50290000Y-28762000D01*
X-45210000Y-27238000D02*
X-45210000Y-28762000D01*
X-50290000Y-28762000D02*
X-50290000Y-27238000D01*
X-45718000Y-28762000D02*
X-45718000Y-27238000D01*
X-50290000Y-27238000D02*
X-45210000Y-27238000D01*
X-45464000Y-28762000D02*
X-45464000Y-27238000D01*
X-45845000Y-27238000D02*
X-45845000Y-28762000D01*
%TO.C,D12*%
X-27743000Y-31262000D02*
X-27743000Y-29738000D01*
X-32315000Y-29738000D02*
X-31807000Y-29738000D01*
X-32315000Y-29738000D02*
X-27235000Y-29738000D01*
X-27870000Y-29738000D02*
X-27870000Y-31262000D01*
X-27616000Y-29738000D02*
X-27616000Y-31262000D01*
X-32315000Y-31262000D02*
X-32315000Y-29738000D01*
X-27235000Y-29738000D02*
X-27235000Y-31262000D01*
X-27997000Y-29738000D02*
X-27997000Y-31262000D01*
X-27235000Y-31262000D02*
X-32315000Y-31262000D01*
X-27362000Y-29738000D02*
X-27362000Y-31262000D01*
X-27489000Y-31262000D02*
X-27489000Y-29738000D01*
%TO.C,D14*%
X-99489000Y-50512000D02*
X-99489000Y-48988000D01*
X-99870000Y-48988000D02*
X-99870000Y-50512000D01*
X-104315000Y-50512000D02*
X-104315000Y-48988000D01*
X-99235000Y-48988000D02*
X-99235000Y-50512000D01*
X-99362000Y-48988000D02*
X-99362000Y-50512000D01*
X-104315000Y-48988000D02*
X-103807000Y-48988000D01*
X-104315000Y-48988000D02*
X-99235000Y-48988000D01*
X-99616000Y-48988000D02*
X-99616000Y-50512000D01*
X-99743000Y-50512000D02*
X-99743000Y-48988000D01*
X-99235000Y-50512000D02*
X-104315000Y-50512000D01*
X-99997000Y-48988000D02*
X-99997000Y-50512000D01*
%TO.C,D15*%
X-81972000Y-44238000D02*
X-81972000Y-45762000D01*
X-86290000Y-45762000D02*
X-86290000Y-44238000D01*
X-81464000Y-45762000D02*
X-81464000Y-44238000D01*
X-81210000Y-44238000D02*
X-81210000Y-45762000D01*
X-86290000Y-44238000D02*
X-81210000Y-44238000D01*
X-81718000Y-45762000D02*
X-81718000Y-44238000D01*
X-81337000Y-44238000D02*
X-81337000Y-45762000D01*
X-81845000Y-44238000D02*
X-81845000Y-45762000D01*
X-86290000Y-44238000D02*
X-85782000Y-44238000D01*
X-81210000Y-45762000D02*
X-86290000Y-45762000D01*
X-81591000Y-44238000D02*
X-81591000Y-45762000D01*
%TO.C,D16*%
X-63362000Y-41988000D02*
X-63362000Y-43512000D01*
X-68315000Y-41988000D02*
X-67807000Y-41988000D01*
X-68315000Y-41988000D02*
X-63235000Y-41988000D01*
X-63489000Y-43512000D02*
X-63489000Y-41988000D01*
X-63616000Y-41988000D02*
X-63616000Y-43512000D01*
X-63870000Y-41988000D02*
X-63870000Y-43512000D01*
X-63997000Y-41988000D02*
X-63997000Y-43512000D01*
X-63743000Y-43512000D02*
X-63743000Y-41988000D01*
X-63235000Y-41988000D02*
X-63235000Y-43512000D01*
X-68315000Y-43512000D02*
X-68315000Y-41988000D01*
X-63235000Y-43512000D02*
X-68315000Y-43512000D01*
%TO.C,D17*%
X-45947000Y-44238000D02*
X-45947000Y-45762000D01*
X-45185000Y-45762000D02*
X-50265000Y-45762000D01*
X-45312000Y-44238000D02*
X-45312000Y-45762000D01*
X-50265000Y-44238000D02*
X-45185000Y-44238000D01*
X-45185000Y-44238000D02*
X-45185000Y-45762000D01*
X-50265000Y-45762000D02*
X-50265000Y-44238000D01*
X-45566000Y-44238000D02*
X-45566000Y-45762000D01*
X-45820000Y-44238000D02*
X-45820000Y-45762000D01*
X-45439000Y-45762000D02*
X-45439000Y-44238000D01*
X-45693000Y-45762000D02*
X-45693000Y-44238000D01*
X-50265000Y-44238000D02*
X-49757000Y-44238000D01*
%TO.C,D18*%
X-27235000Y-48262000D02*
X-32315000Y-48262000D01*
X-27870000Y-46738000D02*
X-27870000Y-48262000D01*
X-27616000Y-46738000D02*
X-27616000Y-48262000D01*
X-32315000Y-48262000D02*
X-32315000Y-46738000D01*
X-27489000Y-48262000D02*
X-27489000Y-46738000D01*
X-32315000Y-46738000D02*
X-31807000Y-46738000D01*
X-27743000Y-48262000D02*
X-27743000Y-46738000D01*
X-27997000Y-46738000D02*
X-27997000Y-48262000D01*
X-27362000Y-46738000D02*
X-27362000Y-48262000D01*
X-32315000Y-46738000D02*
X-27235000Y-46738000D01*
X-27235000Y-46738000D02*
X-27235000Y-48262000D01*
%TO.C,D19*%
X-50893000Y-66711000D02*
X-50893000Y-65187000D01*
X-55465000Y-65187000D02*
X-54957000Y-65187000D01*
X-55465000Y-66711000D02*
X-55465000Y-65187000D01*
X-55465000Y-65187000D02*
X-50385000Y-65187000D01*
X-51020000Y-65187000D02*
X-51020000Y-66711000D01*
X-50639000Y-66711000D02*
X-50639000Y-65187000D01*
X-50385000Y-66711000D02*
X-55465000Y-66711000D01*
X-51147000Y-65187000D02*
X-51147000Y-66711000D01*
X-50512000Y-65187000D02*
X-50512000Y-66711000D01*
X-50766000Y-65187000D02*
X-50766000Y-66711000D01*
X-50385000Y-65187000D02*
X-50385000Y-66711000D01*
%TO.C,D20*%
X-30607346Y-68062755D02*
X-31001786Y-69534826D01*
X-30879114Y-69567696D02*
X-30484673Y-68095625D01*
X-30975364Y-67964145D02*
X-31369804Y-69436216D01*
X-31124459Y-69501956D02*
X-30730019Y-68029885D01*
X-35146231Y-66846564D02*
X-34655541Y-66978044D01*
X-30239328Y-68161365D02*
X-30633769Y-69633436D01*
X-30852691Y-67997015D02*
X-31247131Y-69469086D01*
X-30362001Y-68128495D02*
X-30756441Y-69600566D01*
X-35146231Y-66846564D02*
X-30239328Y-68161365D01*
X-35540672Y-68318635D02*
X-35146231Y-66846564D01*
X-30633769Y-69633436D02*
X-35540672Y-68318635D01*
%TO.C,D21*%
X-5370411Y-69055222D02*
X-4050589Y-69817222D01*
X-3733089Y-69267295D02*
X-6273089Y-73666705D01*
X-5116411Y-68615281D02*
X-3796589Y-69377281D01*
X-6273089Y-73666705D02*
X-7592911Y-72904705D01*
X-5052911Y-68505295D02*
X-3733089Y-69267295D01*
X-7592911Y-72904705D02*
X-5052911Y-68505295D01*
X-3860089Y-69487266D02*
X-5179911Y-68725266D01*
X-7592911Y-72904705D02*
X-7338911Y-72464764D01*
X-5433911Y-69165207D02*
X-4114089Y-69927207D01*
X-3987089Y-69707236D02*
X-5306911Y-68945236D01*
X-5243411Y-68835251D02*
X-3923589Y-69597251D01*
%TO.C,SW1*%
X-121297200Y-7469600D02*
X-118797200Y-7469600D01*
X-126797200Y-5169600D02*
X-126797200Y-4169600D01*
X-117297200Y-9669600D02*
X-112797200Y-9669600D01*
X-112797200Y-4169600D02*
X-112797200Y-5169600D01*
X-126797200Y-4169600D02*
X-125797200Y-4169600D01*
X-121797200Y-3469600D02*
X-121297200Y-2969600D01*
X-112797200Y-17169600D02*
X-112797200Y-18169600D01*
X-112797200Y-4969600D02*
X-117297200Y-4969600D01*
X-118297200Y-2969600D02*
X-117797200Y-3469600D01*
X-113797200Y-4169600D02*
X-112797200Y-4169600D01*
X-121297200Y-2969600D02*
X-118297200Y-2969600D01*
X-121797200Y-6969600D02*
X-121297200Y-7469600D01*
X-112797200Y-5569600D02*
X-112797200Y-4969600D01*
X-117297200Y-8969600D02*
X-117297200Y-9669600D01*
X-112797200Y-18169600D02*
X-113797200Y-18169600D01*
X-126797200Y-18169600D02*
X-126797200Y-17169600D01*
X-112797200Y-9669600D02*
X-112797200Y-9169600D01*
X-117797200Y-4469600D02*
X-117797200Y-3469600D01*
X-125797200Y-18169600D02*
X-126797200Y-18169600D01*
X-117797200Y-4469600D02*
G75*
G03*
X-117297200Y-4969600I500001J1D01*
G01*
X-117297200Y-8969600D02*
G75*
G03*
X-118797200Y-7469600I-1500001J-1D01*
G01*
%TO.C,SW2*%
X-103303100Y-7473400D02*
X-100803100Y-7473400D01*
X-99303100Y-9673400D02*
X-94803100Y-9673400D01*
X-94803100Y-9673400D02*
X-94803100Y-9173400D01*
X-107803100Y-18173400D02*
X-108803100Y-18173400D01*
X-99303100Y-8973400D02*
X-99303100Y-9673400D01*
X-100303100Y-2973400D02*
X-99803100Y-3473400D01*
X-95803100Y-4173400D02*
X-94803100Y-4173400D01*
X-108803100Y-5173400D02*
X-108803100Y-4173400D01*
X-94803100Y-4973400D02*
X-99303100Y-4973400D01*
X-103803100Y-3473400D02*
X-103303100Y-2973400D01*
X-94803100Y-17173400D02*
X-94803100Y-18173400D01*
X-103303100Y-2973400D02*
X-100303100Y-2973400D01*
X-108803100Y-18173400D02*
X-108803100Y-17173400D01*
X-99803100Y-4473400D02*
X-99803100Y-3473400D01*
X-94803100Y-18173400D02*
X-95803100Y-18173400D01*
X-94803100Y-4173400D02*
X-94803100Y-5173400D01*
X-108803100Y-4173400D02*
X-107803100Y-4173400D01*
X-103803100Y-6973400D02*
X-103303100Y-7473400D01*
X-94803100Y-5573400D02*
X-94803100Y-4973400D01*
X-99803100Y-4473400D02*
G75*
G03*
X-99303100Y-4973400I500001J1D01*
G01*
X-99303100Y-8973400D02*
G75*
G03*
X-100803100Y-7473400I-1500001J-1D01*
G01*
%TO.C,SW3*%
X-89789000Y-13396600D02*
X-90789000Y-13396600D01*
X-76789000Y-12396600D02*
X-76789000Y-13396600D01*
X-81789000Y303400D02*
X-81789000Y1303400D01*
X-85289000Y-2696600D02*
X-82789000Y-2696600D01*
X-90789000Y603400D02*
X-89789000Y603400D01*
X-81289000Y-4196600D02*
X-81289000Y-4896600D01*
X-90789000Y-13396600D02*
X-90789000Y-12396600D01*
X-76789000Y-196600D02*
X-81289000Y-196600D01*
X-85789000Y-2196600D02*
X-85289000Y-2696600D01*
X-82289000Y1803400D02*
X-81789000Y1303400D01*
X-77789000Y603400D02*
X-76789000Y603400D01*
X-76789000Y-13396600D02*
X-77789000Y-13396600D01*
X-90789000Y-396600D02*
X-90789000Y603400D01*
X-76789000Y603400D02*
X-76789000Y-396600D01*
X-76789000Y-4896600D02*
X-76789000Y-4396600D01*
X-85289000Y1803400D02*
X-82289000Y1803400D01*
X-81289000Y-4896600D02*
X-76789000Y-4896600D01*
X-76789000Y-796600D02*
X-76789000Y-196600D01*
X-85789000Y1303400D02*
X-85289000Y1803400D01*
X-81289000Y-4196600D02*
G75*
G03*
X-82789000Y-2696600I-1500001J-1D01*
G01*
X-81789000Y303400D02*
G75*
G03*
X-81289000Y-196600I500001J1D01*
G01*
%TO.C,SW4*%
X-63279000Y-1786800D02*
X-63279000Y-2486800D01*
X-72779000Y2013200D02*
X-72779000Y3013200D01*
X-63279000Y-2486800D02*
X-58779000Y-2486800D01*
X-67279000Y-286800D02*
X-64779000Y-286800D01*
X-58779000Y-10986800D02*
X-59779000Y-10986800D01*
X-59779000Y3013200D02*
X-58779000Y3013200D01*
X-58779000Y3013200D02*
X-58779000Y2013200D01*
X-67779000Y3713200D02*
X-67279000Y4213200D01*
X-67279000Y4213200D02*
X-64279000Y4213200D01*
X-58779000Y2213200D02*
X-63279000Y2213200D01*
X-58779000Y-9986800D02*
X-58779000Y-10986800D01*
X-72779000Y3013200D02*
X-71779000Y3013200D01*
X-72779000Y-10986800D02*
X-72779000Y-9986800D01*
X-64279000Y4213200D02*
X-63779000Y3713200D01*
X-71779000Y-10986800D02*
X-72779000Y-10986800D01*
X-58779000Y-2486800D02*
X-58779000Y-1986800D01*
X-67779000Y213200D02*
X-67279000Y-286800D01*
X-58779000Y1613200D02*
X-58779000Y2213200D01*
X-63779000Y2713200D02*
X-63779000Y3713200D01*
X-63279000Y-1786800D02*
G75*
G03*
X-64779000Y-286800I-1500001J-1D01*
G01*
X-63779000Y2713200D02*
G75*
G03*
X-63279000Y2213200I500001J1D01*
G01*
%TO.C,SW5*%
X-40763000Y-12307900D02*
X-40763000Y-13307900D01*
X-49763000Y1392100D02*
X-49263000Y1892100D01*
X-40763000Y-13307900D02*
X-41763000Y-13307900D01*
X-40763000Y692100D02*
X-40763000Y-307900D01*
X-40763000Y-4807900D02*
X-40763000Y-4307900D01*
X-54763000Y-13307900D02*
X-54763000Y-12307900D01*
X-45263000Y-4107900D02*
X-45263000Y-4807900D01*
X-49763000Y-2107900D02*
X-49263000Y-2607900D01*
X-46263000Y1892100D02*
X-45763000Y1392100D01*
X-41763000Y692100D02*
X-40763000Y692100D01*
X-53763000Y-13307900D02*
X-54763000Y-13307900D01*
X-54763000Y692100D02*
X-53763000Y692100D01*
X-54763000Y-307900D02*
X-54763000Y692100D01*
X-40763000Y-107900D02*
X-45263000Y-107900D01*
X-49263000Y1892100D02*
X-46263000Y1892100D01*
X-49263000Y-2607900D02*
X-46763000Y-2607900D01*
X-45763000Y392100D02*
X-45763000Y1392100D01*
X-40763000Y-707900D02*
X-40763000Y-107900D01*
X-45263000Y-4807900D02*
X-40763000Y-4807900D01*
X-45763000Y392100D02*
G75*
G03*
X-45263000Y-107900I500001J1D01*
G01*
X-45263000Y-4107900D02*
G75*
G03*
X-46763000Y-2607900I-1500001J-1D01*
G01*
%TO.C,SW6*%
X-22750000Y-2508900D02*
X-27250000Y-2508900D01*
X-22750000Y-1708900D02*
X-22750000Y-2708900D01*
X-36750000Y-15708900D02*
X-36750000Y-14708900D01*
X-22750000Y-3108900D02*
X-22750000Y-2508900D01*
X-27250000Y-7208900D02*
X-22750000Y-7208900D01*
X-27750000Y-2008900D02*
X-27750000Y-1008900D01*
X-22750000Y-15708900D02*
X-23750000Y-15708900D01*
X-35750000Y-15708900D02*
X-36750000Y-15708900D01*
X-31750000Y-1008900D02*
X-31250000Y-508900D01*
X-31250000Y-5008900D02*
X-28750000Y-5008900D01*
X-23750000Y-1708900D02*
X-22750000Y-1708900D01*
X-22750000Y-7208900D02*
X-22750000Y-6708900D01*
X-22750000Y-14708900D02*
X-22750000Y-15708900D01*
X-31250000Y-508900D02*
X-28250000Y-508900D01*
X-36750000Y-2708900D02*
X-36750000Y-1708900D01*
X-28250000Y-508900D02*
X-27750000Y-1008900D01*
X-27250000Y-6508900D02*
X-27250000Y-7208900D01*
X-36750000Y-1708900D02*
X-35750000Y-1708900D01*
X-31750000Y-4508900D02*
X-31250000Y-5008900D01*
X-27250000Y-6508900D02*
G75*
G03*
X-28750000Y-5008900I-1500001J-1D01*
G01*
X-27750000Y-2008900D02*
G75*
G03*
X-27250000Y-2508900I500001J1D01*
G01*
%TO.C,SW7*%
X-126797200Y-21152500D02*
X-125797200Y-21152500D01*
X-121797200Y-23952500D02*
X-121297200Y-24452500D01*
X-117797200Y-21452500D02*
X-117797200Y-20452500D01*
X-112797200Y-21152500D02*
X-112797200Y-22152500D01*
X-112797200Y-26652500D02*
X-112797200Y-26152500D01*
X-117297200Y-26652500D02*
X-112797200Y-26652500D01*
X-112797200Y-34152500D02*
X-112797200Y-35152500D01*
X-112797200Y-22552500D02*
X-112797200Y-21952500D01*
X-125797200Y-35152500D02*
X-126797200Y-35152500D01*
X-126797200Y-35152500D02*
X-126797200Y-34152500D01*
X-118297200Y-19952500D02*
X-117797200Y-20452500D01*
X-121297200Y-24452500D02*
X-118797200Y-24452500D01*
X-117297200Y-25952500D02*
X-117297200Y-26652500D01*
X-112797200Y-35152500D02*
X-113797200Y-35152500D01*
X-126797200Y-22152500D02*
X-126797200Y-21152500D01*
X-121297200Y-19952500D02*
X-118297200Y-19952500D01*
X-112797200Y-21952500D02*
X-117297200Y-21952500D01*
X-113797200Y-21152500D02*
X-112797200Y-21152500D01*
X-121797200Y-20452500D02*
X-121297200Y-19952500D01*
X-117797200Y-21452500D02*
G75*
G03*
X-117297200Y-21952500I500001J1D01*
G01*
X-117297200Y-25952500D02*
G75*
G03*
X-118797200Y-24452500I-1500001J-1D01*
G01*
%TO.C,SW8*%
X-94803100Y-35187000D02*
X-95803100Y-35187000D01*
X-108803100Y-22187000D02*
X-108803100Y-21187000D01*
X-108803100Y-35187000D02*
X-108803100Y-34187000D01*
X-99303100Y-26687000D02*
X-94803100Y-26687000D01*
X-107803100Y-35187000D02*
X-108803100Y-35187000D01*
X-103303100Y-24487000D02*
X-100803100Y-24487000D01*
X-103803100Y-20487000D02*
X-103303100Y-19987000D01*
X-94803100Y-21187000D02*
X-94803100Y-22187000D01*
X-95803100Y-21187000D02*
X-94803100Y-21187000D01*
X-108803100Y-21187000D02*
X-107803100Y-21187000D01*
X-94803100Y-26687000D02*
X-94803100Y-26187000D01*
X-99303100Y-25987000D02*
X-99303100Y-26687000D01*
X-103803100Y-23987000D02*
X-103303100Y-24487000D01*
X-99803100Y-21487000D02*
X-99803100Y-20487000D01*
X-94803100Y-21987000D02*
X-99303100Y-21987000D01*
X-103303100Y-19987000D02*
X-100303100Y-19987000D01*
X-94803100Y-22587000D02*
X-94803100Y-21987000D01*
X-100303100Y-19987000D02*
X-99803100Y-20487000D01*
X-94803100Y-34187000D02*
X-94803100Y-35187000D01*
X-99303100Y-25987000D02*
G75*
G03*
X-100803100Y-24487000I-1500001J-1D01*
G01*
X-99803100Y-21487000D02*
G75*
G03*
X-99303100Y-21987000I500001J1D01*
G01*
%TO.C,SW9*%
X-76787000Y-16385200D02*
X-76787000Y-17385200D01*
X-76787000Y-17785200D02*
X-76787000Y-17185200D01*
X-90787000Y-30385200D02*
X-90787000Y-29385200D01*
X-85287000Y-15185200D02*
X-82287000Y-15185200D01*
X-81287000Y-21885200D02*
X-76787000Y-21885200D01*
X-90787000Y-17385200D02*
X-90787000Y-16385200D01*
X-81787000Y-16685200D02*
X-81787000Y-15685200D01*
X-76787000Y-21885200D02*
X-76787000Y-21385200D01*
X-85287000Y-19685200D02*
X-82787000Y-19685200D01*
X-90787000Y-16385200D02*
X-89787000Y-16385200D01*
X-76787000Y-29385200D02*
X-76787000Y-30385200D01*
X-85787000Y-19185200D02*
X-85287000Y-19685200D01*
X-77787000Y-16385200D02*
X-76787000Y-16385200D01*
X-81287000Y-21185200D02*
X-81287000Y-21885200D01*
X-76787000Y-30385200D02*
X-77787000Y-30385200D01*
X-89787000Y-30385200D02*
X-90787000Y-30385200D01*
X-82287000Y-15185200D02*
X-81787000Y-15685200D01*
X-76787000Y-17185200D02*
X-81287000Y-17185200D01*
X-85787000Y-15685200D02*
X-85287000Y-15185200D01*
X-81787000Y-16685200D02*
G75*
G03*
X-81287000Y-17185200I500001J1D01*
G01*
X-81287000Y-21185200D02*
G75*
G03*
X-82787000Y-19685200I-1500001J-1D01*
G01*
%TO.C,SW10*%
X-59772000Y-13988000D02*
X-58772000Y-13988000D01*
X-63272000Y-19488000D02*
X-58772000Y-19488000D01*
X-58772000Y-27988000D02*
X-59772000Y-27988000D01*
X-71772000Y-27988000D02*
X-72772000Y-27988000D01*
X-63772000Y-14288000D02*
X-63772000Y-13288000D01*
X-72772000Y-27988000D02*
X-72772000Y-26988000D01*
X-67272000Y-12788000D02*
X-64272000Y-12788000D01*
X-72772000Y-14988000D02*
X-72772000Y-13988000D01*
X-67272000Y-17288000D02*
X-64772000Y-17288000D01*
X-64272000Y-12788000D02*
X-63772000Y-13288000D01*
X-63272000Y-18788000D02*
X-63272000Y-19488000D01*
X-58772000Y-19488000D02*
X-58772000Y-18988000D01*
X-72772000Y-13988000D02*
X-71772000Y-13988000D01*
X-58772000Y-15388000D02*
X-58772000Y-14788000D01*
X-67772000Y-13288000D02*
X-67272000Y-12788000D01*
X-67772000Y-16788000D02*
X-67272000Y-17288000D01*
X-58772000Y-14788000D02*
X-63272000Y-14788000D01*
X-58772000Y-13988000D02*
X-58772000Y-14988000D01*
X-58772000Y-26988000D02*
X-58772000Y-27988000D01*
X-63272000Y-18788000D02*
G75*
G03*
X-64772000Y-17288000I-1500001J-1D01*
G01*
X-63772000Y-14288000D02*
G75*
G03*
X-63272000Y-14788000I500001J1D01*
G01*
%TO.C,SW11*%
X-49263000Y-19622700D02*
X-46763000Y-19622700D01*
X-40763000Y-21822700D02*
X-40763000Y-21322700D01*
X-49763000Y-15622700D02*
X-49263000Y-15122700D01*
X-49263000Y-15122700D02*
X-46263000Y-15122700D01*
X-46263000Y-15122700D02*
X-45763000Y-15622700D01*
X-45763000Y-16622700D02*
X-45763000Y-15622700D01*
X-40763000Y-17722700D02*
X-40763000Y-17122700D01*
X-40763000Y-16322700D02*
X-40763000Y-17322700D01*
X-54763000Y-17322700D02*
X-54763000Y-16322700D01*
X-40763000Y-29322700D02*
X-40763000Y-30322700D01*
X-40763000Y-30322700D02*
X-41763000Y-30322700D01*
X-45263000Y-21122700D02*
X-45263000Y-21822700D01*
X-45263000Y-21822700D02*
X-40763000Y-21822700D01*
X-41763000Y-16322700D02*
X-40763000Y-16322700D01*
X-54763000Y-16322700D02*
X-53763000Y-16322700D01*
X-40763000Y-17122700D02*
X-45263000Y-17122700D01*
X-53763000Y-30322700D02*
X-54763000Y-30322700D01*
X-49763000Y-19122700D02*
X-49263000Y-19622700D01*
X-54763000Y-30322700D02*
X-54763000Y-29322700D01*
X-45263000Y-21122700D02*
G75*
G03*
X-46763000Y-19622700I-1500001J-1D01*
G01*
X-45763000Y-16622700D02*
G75*
G03*
X-45263000Y-17122700I500001J1D01*
G01*
%TO.C,SW12*%
X-22750000Y-20150000D02*
X-22750000Y-19550000D01*
X-31750000Y-21550000D02*
X-31250000Y-22050000D01*
X-35750000Y-32750000D02*
X-36750000Y-32750000D01*
X-31750000Y-18050000D02*
X-31250000Y-17550000D01*
X-22750000Y-18750000D02*
X-22750000Y-19750000D01*
X-27250000Y-24250000D02*
X-22750000Y-24250000D01*
X-31250000Y-22050000D02*
X-28750000Y-22050000D01*
X-36750000Y-19750000D02*
X-36750000Y-18750000D01*
X-31250000Y-17550000D02*
X-28250000Y-17550000D01*
X-27250000Y-23550000D02*
X-27250000Y-24250000D01*
X-28250000Y-17550000D02*
X-27750000Y-18050000D01*
X-22750000Y-32750000D02*
X-23750000Y-32750000D01*
X-36750000Y-18750000D02*
X-35750000Y-18750000D01*
X-22750000Y-24250000D02*
X-22750000Y-23750000D01*
X-23750000Y-18750000D02*
X-22750000Y-18750000D01*
X-36750000Y-32750000D02*
X-36750000Y-31750000D01*
X-22750000Y-19550000D02*
X-27250000Y-19550000D01*
X-22750000Y-31750000D02*
X-22750000Y-32750000D01*
X-27750000Y-19050000D02*
X-27750000Y-18050000D01*
X-27750000Y-19050000D02*
G75*
G03*
X-27250000Y-19550000I500001J1D01*
G01*
X-27250000Y-23550000D02*
G75*
G03*
X-28750000Y-22050000I-1500001J-1D01*
G01*
%TO.C,SW13*%
X-118297200Y-36983000D02*
X-117797200Y-37483000D01*
X-126797200Y-52183000D02*
X-126797200Y-51183000D01*
X-112797200Y-51183000D02*
X-112797200Y-52183000D01*
X-121297200Y-41483000D02*
X-118797200Y-41483000D01*
X-112797200Y-38983000D02*
X-117297200Y-38983000D01*
X-121797200Y-40983000D02*
X-121297200Y-41483000D01*
X-125797200Y-52183000D02*
X-126797200Y-52183000D01*
X-112797200Y-52183000D02*
X-113797200Y-52183000D01*
X-121297200Y-36983000D02*
X-118297200Y-36983000D01*
X-112797200Y-43683000D02*
X-112797200Y-43183000D01*
X-113797200Y-38183000D02*
X-112797200Y-38183000D01*
X-126797200Y-39183000D02*
X-126797200Y-38183000D01*
X-121797200Y-37483000D02*
X-121297200Y-36983000D01*
X-117297200Y-42983000D02*
X-117297200Y-43683000D01*
X-112797200Y-39583000D02*
X-112797200Y-38983000D01*
X-112797200Y-38183000D02*
X-112797200Y-39183000D01*
X-126797200Y-38183000D02*
X-125797200Y-38183000D01*
X-117297200Y-43683000D02*
X-112797200Y-43683000D01*
X-117797200Y-38483000D02*
X-117797200Y-37483000D01*
X-117797200Y-38483000D02*
G75*
G03*
X-117297200Y-38983000I500001J1D01*
G01*
X-117297200Y-42983000D02*
G75*
G03*
X-118797200Y-41483000I-1500001J-1D01*
G01*
%TO.C,SW14*%
X-103803100Y-37471000D02*
X-103303100Y-36971000D01*
X-94803100Y-52171000D02*
X-95803100Y-52171000D01*
X-94803100Y-38971000D02*
X-99303100Y-38971000D01*
X-99303100Y-43671000D02*
X-94803100Y-43671000D01*
X-108803100Y-38171000D02*
X-107803100Y-38171000D01*
X-100303100Y-36971000D02*
X-99803100Y-37471000D01*
X-107803100Y-52171000D02*
X-108803100Y-52171000D01*
X-99803100Y-38471000D02*
X-99803100Y-37471000D01*
X-94803100Y-39571000D02*
X-94803100Y-38971000D01*
X-103303100Y-41471000D02*
X-100803100Y-41471000D01*
X-103803100Y-40971000D02*
X-103303100Y-41471000D01*
X-94803100Y-38171000D02*
X-94803100Y-39171000D01*
X-95803100Y-38171000D02*
X-94803100Y-38171000D01*
X-103303100Y-36971000D02*
X-100303100Y-36971000D01*
X-94803100Y-43671000D02*
X-94803100Y-43171000D01*
X-99303100Y-42971000D02*
X-99303100Y-43671000D01*
X-94803100Y-51171000D02*
X-94803100Y-52171000D01*
X-108803100Y-39171000D02*
X-108803100Y-38171000D01*
X-108803100Y-52171000D02*
X-108803100Y-51171000D01*
X-99803100Y-38471000D02*
G75*
G03*
X-99303100Y-38971000I500001J1D01*
G01*
X-99303100Y-42971000D02*
G75*
G03*
X-100803100Y-41471000I-1500001J-1D01*
G01*
%TO.C,SW15*%
X-76786000Y-33398000D02*
X-76786000Y-34398000D01*
X-76786000Y-47398000D02*
X-77786000Y-47398000D01*
X-85786000Y-36198000D02*
X-85286000Y-36698000D01*
X-76786000Y-46398000D02*
X-76786000Y-47398000D01*
X-85286000Y-36698000D02*
X-82786000Y-36698000D01*
X-90786000Y-34398000D02*
X-90786000Y-33398000D01*
X-90786000Y-47398000D02*
X-90786000Y-46398000D01*
X-89786000Y-47398000D02*
X-90786000Y-47398000D01*
X-82286000Y-32198000D02*
X-81786000Y-32698000D01*
X-90786000Y-33398000D02*
X-89786000Y-33398000D01*
X-76786000Y-34798000D02*
X-76786000Y-34198000D01*
X-85286000Y-32198000D02*
X-82286000Y-32198000D01*
X-81286000Y-38898000D02*
X-76786000Y-38898000D01*
X-81786000Y-33698000D02*
X-81786000Y-32698000D01*
X-81286000Y-38198000D02*
X-81286000Y-38898000D01*
X-77786000Y-33398000D02*
X-76786000Y-33398000D01*
X-76786000Y-34198000D02*
X-81286000Y-34198000D01*
X-76786000Y-38898000D02*
X-76786000Y-38398000D01*
X-85786000Y-32698000D02*
X-85286000Y-32198000D01*
X-81286000Y-38198000D02*
G75*
G03*
X-82786000Y-36698000I-1500001J-1D01*
G01*
X-81786000Y-33698000D02*
G75*
G03*
X-81286000Y-34198000I500001J1D01*
G01*
%TO.C,SW16*%
X-67283000Y-34277000D02*
X-64783000Y-34277000D01*
X-58783000Y-31777000D02*
X-63283000Y-31777000D01*
X-59783000Y-30977000D02*
X-58783000Y-30977000D01*
X-72783000Y-44977000D02*
X-72783000Y-43977000D01*
X-58783000Y-43977000D02*
X-58783000Y-44977000D01*
X-58783000Y-36477000D02*
X-58783000Y-35977000D01*
X-63283000Y-35777000D02*
X-63283000Y-36477000D01*
X-67783000Y-33777000D02*
X-67283000Y-34277000D01*
X-64283000Y-29777000D02*
X-63783000Y-30277000D01*
X-67783000Y-30277000D02*
X-67283000Y-29777000D01*
X-58783000Y-44977000D02*
X-59783000Y-44977000D01*
X-63283000Y-36477000D02*
X-58783000Y-36477000D01*
X-67283000Y-29777000D02*
X-64283000Y-29777000D01*
X-71783000Y-44977000D02*
X-72783000Y-44977000D01*
X-72783000Y-30977000D02*
X-71783000Y-30977000D01*
X-63783000Y-31277000D02*
X-63783000Y-30277000D01*
X-72783000Y-31977000D02*
X-72783000Y-30977000D01*
X-58783000Y-30977000D02*
X-58783000Y-31977000D01*
X-58783000Y-32377000D02*
X-58783000Y-31777000D01*
X-63783000Y-31277000D02*
G75*
G03*
X-63283000Y-31777000I500001J1D01*
G01*
X-63283000Y-35777000D02*
G75*
G03*
X-64783000Y-34277000I-1500001J-1D01*
G01*
%TO.C,SW17*%
X-40763000Y-34714000D02*
X-40763000Y-34114000D01*
X-40763000Y-38814000D02*
X-40763000Y-38314000D01*
X-40763000Y-33314000D02*
X-40763000Y-34314000D01*
X-40763000Y-46314000D02*
X-40763000Y-47314000D01*
X-40763000Y-47314000D02*
X-41763000Y-47314000D01*
X-45763000Y-33614000D02*
X-45763000Y-32614000D01*
X-54763000Y-47314000D02*
X-54763000Y-46314000D01*
X-49263000Y-36614000D02*
X-46763000Y-36614000D01*
X-41763000Y-33314000D02*
X-40763000Y-33314000D01*
X-45263000Y-38814000D02*
X-40763000Y-38814000D01*
X-49263000Y-32114000D02*
X-46263000Y-32114000D01*
X-40763000Y-34114000D02*
X-45263000Y-34114000D01*
X-54763000Y-34314000D02*
X-54763000Y-33314000D01*
X-49763000Y-32614000D02*
X-49263000Y-32114000D01*
X-46263000Y-32114000D02*
X-45763000Y-32614000D01*
X-45263000Y-38114000D02*
X-45263000Y-38814000D01*
X-49763000Y-36114000D02*
X-49263000Y-36614000D01*
X-54763000Y-33314000D02*
X-53763000Y-33314000D01*
X-53763000Y-47314000D02*
X-54763000Y-47314000D01*
X-45263000Y-38114000D02*
G75*
G03*
X-46763000Y-36614000I-1500001J-1D01*
G01*
X-45763000Y-33614000D02*
G75*
G03*
X-45263000Y-34114000I500001J1D01*
G01*
%TO.C,SW19*%
X-51315000Y-52950000D02*
X-50815000Y-53450000D01*
X-54815000Y-56950000D02*
X-54315000Y-57450000D01*
X-45815000Y-59650000D02*
X-45815000Y-59150000D01*
X-59815000Y-68150000D02*
X-59815000Y-67150000D01*
X-50315000Y-58950000D02*
X-50315000Y-59650000D01*
X-54315000Y-57450000D02*
X-51815000Y-57450000D01*
X-59815000Y-55150000D02*
X-59815000Y-54150000D01*
X-45815000Y-55550000D02*
X-45815000Y-54950000D01*
X-58815000Y-68150000D02*
X-59815000Y-68150000D01*
X-50815000Y-54450000D02*
X-50815000Y-53450000D01*
X-54315000Y-52950000D02*
X-51315000Y-52950000D01*
X-45815000Y-68150000D02*
X-46815000Y-68150000D01*
X-59815000Y-54150000D02*
X-58815000Y-54150000D01*
X-45815000Y-54950000D02*
X-50315000Y-54950000D01*
X-45815000Y-67150000D02*
X-45815000Y-68150000D01*
X-46815000Y-54150000D02*
X-45815000Y-54150000D01*
X-54815000Y-53450000D02*
X-54315000Y-52950000D01*
X-45815000Y-54150000D02*
X-45815000Y-55150000D01*
X-50315000Y-59650000D02*
X-45815000Y-59650000D01*
X-50815000Y-54450000D02*
G75*
G03*
X-50315000Y-54950000I500001J1D01*
G01*
X-50315000Y-58950000D02*
G75*
G03*
X-51815000Y-57450000I-1500001J-1D01*
G01*
%TO.C,SW20*%
X-36585747Y-55289786D02*
X-35619822Y-55548605D01*
X-40209214Y-68812747D02*
X-39950395Y-67846822D01*
X-28832957Y-63061159D02*
X-24486291Y-64225845D01*
X-32127258Y-59900846D02*
X-29712444Y-60547893D01*
X-39243288Y-69071567D02*
X-40209214Y-68812747D01*
X-31574945Y-55907733D02*
X-30962573Y-55554180D01*
X-26427433Y-71470288D02*
X-26686253Y-72436214D01*
X-32480812Y-59288473D02*
X-32127258Y-59900846D01*
X-36844567Y-56255712D02*
X-36585747Y-55289786D01*
X-28651784Y-62385011D02*
X-28832957Y-63061159D01*
X-24028712Y-58654433D02*
X-23062786Y-58913253D01*
X-28064795Y-56330637D02*
X-27711242Y-56943009D01*
X-23425133Y-60265549D02*
X-23269841Y-59685993D01*
X-23269841Y-59685993D02*
X-27616507Y-58521307D01*
X-27970061Y-57908935D02*
X-27711242Y-56943009D01*
X-30962573Y-55554180D02*
X-28064795Y-56330637D01*
X-26686253Y-72436214D02*
X-27652178Y-72177395D01*
X-24486291Y-64225845D02*
X-24356881Y-63742882D01*
X-23062786Y-58913253D02*
X-23321605Y-59879178D01*
X-27970060Y-57908935D02*
G75*
G03*
X-27616507Y-58521307I482963J-129409D01*
G01*
X-28651783Y-62385011D02*
G75*
G03*
X-29712444Y-60547893I-1448890J388228D01*
G01*
%TO.C,SW21*%
X-17666408Y-65899038D02*
X-16166408Y-63300962D01*
X-14452307Y-68332051D02*
X-13769294Y-68149038D01*
X-9864038Y-65784936D02*
X-7614038Y-61887822D01*
X-16166408Y-63300962D02*
X-15483396Y-63117949D01*
X-7614038Y-61887822D02*
X-8047051Y-61637822D01*
X-19377178Y-71262178D02*
X-18877178Y-70396152D01*
X-12377178Y-59137822D02*
X-11511152Y-59637822D01*
X-11684358Y-59537822D02*
X-13934358Y-63434936D01*
X-10470256Y-65434936D02*
X-9864038Y-65784936D01*
X-252822Y-66137822D02*
X-752822Y-67003848D01*
X-18511152Y-71762178D02*
X-19377178Y-71262178D01*
X-6752822Y-77396152D02*
X-7252822Y-78262178D01*
X-17483396Y-66582051D02*
X-17666408Y-65899038D01*
X-13769294Y-68149038D02*
X-12519294Y-65983975D01*
X-12877178Y-60003848D02*
X-12377178Y-59137822D01*
X-1118848Y-65637822D02*
X-252822Y-66137822D01*
X-14617370Y-63617949D02*
X-15483396Y-63117949D01*
X-11164742Y-59837822D02*
X-11684358Y-59537822D01*
X-7252822Y-78262178D02*
X-8118848Y-77762178D01*
X-14617370Y-63617949D02*
G75*
G03*
X-13934358Y-63434936I249999J433014D01*
G01*
X-10470257Y-65434937D02*
G75*
G03*
X-12519294Y-65983975I-749999J-1299039D01*
G01*
%TO.C,SW18*%
X-36743000Y-49740000D02*
X-36743000Y-48740000D01*
X-36743000Y-35740000D02*
X-35743000Y-35740000D01*
X-22743000Y-49740000D02*
X-23743000Y-49740000D01*
X-22743000Y-37140000D02*
X-22743000Y-36540000D01*
X-31743000Y-35040000D02*
X-31243000Y-34540000D01*
X-23743000Y-35740000D02*
X-22743000Y-35740000D01*
X-28243000Y-34540000D02*
X-27743000Y-35040000D01*
X-31743000Y-38540000D02*
X-31243000Y-39040000D01*
X-27743000Y-36040000D02*
X-27743000Y-35040000D01*
X-31243000Y-34540000D02*
X-28243000Y-34540000D01*
X-31243000Y-39040000D02*
X-28743000Y-39040000D01*
X-22743000Y-36540000D02*
X-27243000Y-36540000D01*
X-36743000Y-36740000D02*
X-36743000Y-35740000D01*
X-22743000Y-41240000D02*
X-22743000Y-40740000D01*
X-27243000Y-40540000D02*
X-27243000Y-41240000D01*
X-27243000Y-41240000D02*
X-22743000Y-41240000D01*
X-22743000Y-35740000D02*
X-22743000Y-36740000D01*
X-35743000Y-49740000D02*
X-36743000Y-49740000D01*
X-22743000Y-48740000D02*
X-22743000Y-49740000D01*
X-27243000Y-40540000D02*
G75*
G03*
X-28743000Y-39040000I-1500001J-1D01*
G01*
X-27743000Y-36040000D02*
G75*
G03*
X-27243000Y-36540000I500001J1D01*
G01*
%TO.C,D13*%
X-117489000Y-50512000D02*
X-117489000Y-48988000D01*
X-117870000Y-48988000D02*
X-117870000Y-50512000D01*
X-122315000Y-48988000D02*
X-117235000Y-48988000D01*
X-117616000Y-48988000D02*
X-117616000Y-50512000D01*
X-117743000Y-50512000D02*
X-117743000Y-48988000D01*
X-117362000Y-48988000D02*
X-117362000Y-50512000D01*
X-117235000Y-50512000D02*
X-122315000Y-50512000D01*
X-122315000Y-48988000D02*
X-121807000Y-48988000D01*
X-117235000Y-48988000D02*
X-117235000Y-50512000D01*
X-122315000Y-50512000D02*
X-122315000Y-48988000D01*
X-117997000Y-48988000D02*
X-117997000Y-50512000D01*
%TO.C,D7*%
X-117616000Y-31988000D02*
X-117616000Y-33512000D01*
X-122315000Y-31988000D02*
X-121807000Y-31988000D01*
X-117870000Y-31988000D02*
X-117870000Y-33512000D01*
X-117489000Y-33512000D02*
X-117489000Y-31988000D01*
X-117743000Y-33512000D02*
X-117743000Y-31988000D01*
X-122315000Y-33512000D02*
X-122315000Y-31988000D01*
X-117362000Y-31988000D02*
X-117362000Y-33512000D01*
X-117997000Y-31988000D02*
X-117997000Y-33512000D01*
X-117235000Y-31988000D02*
X-117235000Y-33512000D01*
X-117235000Y-33512000D02*
X-122315000Y-33512000D01*
X-122315000Y-31988000D02*
X-117235000Y-31988000D01*
D11*
%TO.C,JP10*%
X-9109800Y-54450000D02*
X-7109800Y-54450000D01*
X-7109800Y-54450000D02*
X-7109800Y-51650000D01*
X-9109800Y-51650000D02*
X-9109800Y-54450000D01*
X-7109800Y-51650000D02*
X-9109800Y-51650000D01*
%TO.C,JP38*%
X-1531900Y-21396700D02*
X-4331900Y-21396700D01*
X-1531900Y-23396700D02*
X-1531900Y-21396700D01*
X-4331900Y-23396700D02*
X-1531900Y-23396700D01*
X-4331900Y-21396700D02*
X-4331900Y-23396700D01*
%TO.C,JP1*%
X-10796400Y-54450000D02*
X-10796400Y-51650000D01*
X-12796400Y-51650000D02*
X-12796400Y-54450000D01*
X-10796400Y-51650000D02*
X-12796400Y-51650000D01*
X-12796400Y-54450000D02*
X-10796400Y-54450000D01*
%TO.C,JP43*%
X-4331900Y-41738300D02*
X-1531900Y-41738300D01*
X-1531900Y-39738300D02*
X-4331900Y-39738300D01*
X-1531900Y-41738300D02*
X-1531900Y-39738300D01*
X-4331900Y-39738300D02*
X-4331900Y-41738300D01*
%TO.C,JP9*%
X-8085200Y-43406700D02*
X-10885200Y-43406700D01*
X-8085200Y-45406700D02*
X-8085200Y-43406700D01*
X-10885200Y-43406700D02*
X-10885200Y-45406700D01*
X-10885200Y-45406700D02*
X-8085200Y-45406700D01*
%TO.C,JP41*%
X-1531900Y-34401700D02*
X-1531900Y-32401700D01*
X-4331900Y-32401700D02*
X-4331900Y-34401700D01*
X-1531900Y-32401700D02*
X-4331900Y-32401700D01*
X-4331900Y-34401700D02*
X-1531900Y-34401700D01*
%TO.C,JP5*%
X-8085200Y-30733300D02*
X-8085200Y-28733300D01*
X-10885200Y-30733300D02*
X-8085200Y-30733300D01*
X-8085200Y-28733300D02*
X-10885200Y-28733300D01*
X-10885200Y-28733300D02*
X-10885200Y-30733300D01*
%TO.C,JP8*%
X-10885200Y-41738300D02*
X-8085200Y-41738300D01*
X-8085200Y-41738300D02*
X-8085200Y-39738300D01*
X-10885200Y-39738300D02*
X-10885200Y-41738300D01*
X-8085200Y-39738300D02*
X-10885200Y-39738300D01*
%TO.C,JP3*%
X-10885200Y-21396700D02*
X-10885200Y-23396700D01*
X-10885200Y-23396700D02*
X-8085200Y-23396700D01*
X-8085200Y-21396700D02*
X-10885200Y-21396700D01*
X-8085200Y-23396700D02*
X-8085200Y-21396700D01*
%TO.C,J8*%
X227647Y-60899256D02*
X-22353Y-61332269D01*
X-4644993Y-59898916D02*
X-4119993Y-58989589D01*
X284634Y-59800551D02*
X-55366Y-60389449D01*
X-1761128Y-61563916D02*
X-4644993Y-59898916D01*
X448872Y-57736084D02*
X-2434993Y-56071084D01*
X1117647Y-59357731D02*
X867647Y-59790744D01*
X-4036057Y-56717102D02*
X-3854871Y-57110385D01*
X-4286057Y-57150115D02*
X-4036057Y-56717102D01*
X-3854871Y-57110385D02*
X-4286057Y-57150115D01*
X-55366Y-60389449D02*
X227647Y-60899256D01*
X-2434993Y-56071084D02*
X-2959993Y-56980411D01*
X867647Y-59790744D02*
X284634Y-59800551D01*
X-2959993Y-56980411D02*
X-3141858Y-56875411D01*
%TO.C,JP44*%
X-1531900Y-45406700D02*
X-1531900Y-43406700D01*
X-4331900Y-43406700D02*
X-4331900Y-45406700D01*
X-1531900Y-43406700D02*
X-4331900Y-43406700D01*
X-4331900Y-45406700D02*
X-1531900Y-45406700D01*
%TO.C,JP6*%
X-10885200Y-32401700D02*
X-10885200Y-34401700D01*
X-8085200Y-34401700D02*
X-8085200Y-32401700D01*
X-10885200Y-34401700D02*
X-8085200Y-34401700D01*
X-8085200Y-32401700D02*
X-10885200Y-32401700D01*
%TO.C,JP40*%
X-4331900Y-30733300D02*
X-1531900Y-30733300D01*
X-1531900Y-28733300D02*
X-4331900Y-28733300D01*
X-1531900Y-30733300D02*
X-1531900Y-28733300D01*
X-4331900Y-28733300D02*
X-4331900Y-30733300D01*
%TO.C,JP14*%
X263600Y-54450000D02*
X263600Y-51650000D01*
X-1736400Y-54450000D02*
X263600Y-54450000D01*
X-1736400Y-51650000D02*
X-1736400Y-54450000D01*
X263600Y-51650000D02*
X-1736400Y-51650000D01*
%TO.C,JP7*%
X-10885200Y-38070000D02*
X-8085200Y-38070000D01*
X-8085200Y-38070000D02*
X-8085200Y-36070000D01*
X-8085200Y-36070000D02*
X-10885200Y-36070000D01*
X-10885200Y-36070000D02*
X-10885200Y-38070000D01*
%TO.C,JP12*%
X-5423100Y-54450000D02*
X-3423100Y-54450000D01*
X-3423100Y-54450000D02*
X-3423100Y-51650000D01*
X-5423100Y-51650000D02*
X-5423100Y-54450000D01*
X-3423100Y-51650000D02*
X-5423100Y-51650000D01*
%TO.C,JP39*%
X-1531900Y-25065000D02*
X-4331900Y-25065000D01*
X-4331900Y-25065000D02*
X-4331900Y-27065000D01*
X-1531900Y-27065000D02*
X-1531900Y-25065000D01*
X-4331900Y-27065000D02*
X-1531900Y-27065000D01*
%TO.C,JP42*%
X-1531900Y-36070000D02*
X-4331900Y-36070000D01*
X-4331900Y-36070000D02*
X-4331900Y-38070000D01*
X-4331900Y-38070000D02*
X-1531900Y-38070000D01*
X-1531900Y-38070000D02*
X-1531900Y-36070000D01*
%TO.C,JP4*%
X-8085200Y-27065000D02*
X-8085200Y-25065000D01*
X-10885200Y-25065000D02*
X-10885200Y-27065000D01*
X-10885200Y-27065000D02*
X-8085200Y-27065000D01*
X-8085200Y-25065000D02*
X-10885200Y-25065000D01*
%TD*%
D12*
%TO.C,D1*%
X-115825000Y-16000000D03*
D13*
X-123625000Y-16000000D03*
%TD*%
D12*
%TO.C,D2*%
X-97825000Y-16000000D03*
D13*
X-105625000Y-16000000D03*
%TD*%
D12*
%TO.C,D3*%
X-79850000Y-11000000D03*
D13*
X-87650000Y-11000000D03*
%TD*%
D12*
%TO.C,D4*%
X-61875000Y-8750000D03*
D13*
X-69675000Y-8750000D03*
%TD*%
D12*
%TO.C,D5*%
X-43825000Y-11000000D03*
D13*
X-51625000Y-11000000D03*
%TD*%
D12*
%TO.C,D6*%
X-25875000Y-13500000D03*
D13*
X-33675000Y-13500000D03*
%TD*%
D12*
%TO.C,D8*%
X-97875000Y-32750000D03*
D13*
X-105675000Y-32750000D03*
%TD*%
D12*
%TO.C,D9*%
X-79850000Y-28000000D03*
D13*
X-87650000Y-28000000D03*
%TD*%
D12*
%TO.C,D10*%
X-61850000Y-25750000D03*
D13*
X-69650000Y-25750000D03*
%TD*%
D12*
%TO.C,D11*%
X-43850000Y-28000000D03*
D13*
X-51650000Y-28000000D03*
%TD*%
D12*
%TO.C,D12*%
X-25875000Y-30500000D03*
D13*
X-33675000Y-30500000D03*
%TD*%
D12*
%TO.C,D14*%
X-97875000Y-49750000D03*
D13*
X-105675000Y-49750000D03*
%TD*%
D12*
%TO.C,D15*%
X-79850000Y-45000000D03*
D13*
X-87650000Y-45000000D03*
%TD*%
D12*
%TO.C,D16*%
X-61875000Y-42750000D03*
D13*
X-69675000Y-42750000D03*
%TD*%
D12*
%TO.C,D17*%
X-43825000Y-45000000D03*
D13*
X-51625000Y-45000000D03*
%TD*%
D12*
%TO.C,D18*%
X-25875000Y-47500000D03*
D13*
X-33675000Y-47500000D03*
%TD*%
D12*
%TO.C,D19*%
X-49025000Y-65949000D03*
D13*
X-56825000Y-65949000D03*
%TD*%
D14*
%TO.C,D20*%
X-29122889Y-69249394D03*
D13*
X-36657111Y-67230606D03*
%TD*%
D15*
%TO.C,D21*%
X-3713000Y-67708501D03*
D13*
X-7613000Y-74463499D03*
%TD*%
D12*
%TO.C,D13*%
X-115875000Y-49750000D03*
D13*
X-123675000Y-49750000D03*
%TD*%
D12*
%TO.C,D7*%
X-115875000Y-32750000D03*
D13*
X-123675000Y-32750000D03*
%TD*%
%LPC*%
D16*
X-64259822Y-49647380D02*
X-64450298Y-49647380D01*
X-64545536Y-49695000D01*
X-64640774Y-49790238D01*
X-64688393Y-49980714D01*
X-64688393Y-50314047D01*
X-64640774Y-50504523D01*
X-64545536Y-50599761D01*
X-64450298Y-50647380D01*
X-64259822Y-50647380D01*
X-64164584Y-50599761D01*
X-64069346Y-50504523D01*
X-64021727Y-50314047D01*
X-64021727Y-49980714D01*
X-64069346Y-49790238D01*
X-64164584Y-49695000D01*
X-64259822Y-49647380D01*
X-65116965Y-50647380D02*
X-65116965Y-49980714D01*
X-65116965Y-50171190D02*
X-65164584Y-50075952D01*
X-65212203Y-50028333D01*
X-65307441Y-49980714D01*
X-65402679Y-49980714D01*
X-65736012Y-50647380D02*
X-65736012Y-49980714D01*
X-65736012Y-49647380D02*
X-65688393Y-49695000D01*
X-65736012Y-49742619D01*
X-65783631Y-49695000D01*
X-65736012Y-49647380D01*
X-65736012Y-49742619D01*
X-66640774Y-49980714D02*
X-66640774Y-50790238D01*
X-66593155Y-50885476D01*
X-66545536Y-50933095D01*
X-66450298Y-50980714D01*
X-66307441Y-50980714D01*
X-66212203Y-50933095D01*
X-66640774Y-50599761D02*
X-66545536Y-50647380D01*
X-66355060Y-50647380D01*
X-66259822Y-50599761D01*
X-66212203Y-50552142D01*
X-66164584Y-50456904D01*
X-66164584Y-50171190D01*
X-66212203Y-50075952D01*
X-66259822Y-50028333D01*
X-66355060Y-49980714D01*
X-66545536Y-49980714D01*
X-66640774Y-50028333D01*
X-67116965Y-50647380D02*
X-67116965Y-49980714D01*
X-67116965Y-49647380D02*
X-67069346Y-49695000D01*
X-67116965Y-49742619D01*
X-67164584Y-49695000D01*
X-67116965Y-49647380D01*
X-67116965Y-49742619D01*
X-67593155Y-49980714D02*
X-67593155Y-50647380D01*
X-67593155Y-50075952D02*
X-67640774Y-50028333D01*
X-67736012Y-49980714D01*
X-67878870Y-49980714D01*
X-67974108Y-50028333D01*
X-68021727Y-50123571D01*
X-68021727Y-50647380D01*
X-68926489Y-50647380D02*
X-68926489Y-50123571D01*
X-68878870Y-50028333D01*
X-68783631Y-49980714D01*
X-68593155Y-49980714D01*
X-68497917Y-50028333D01*
X-68926489Y-50599761D02*
X-68831250Y-50647380D01*
X-68593155Y-50647380D01*
X-68497917Y-50599761D01*
X-68450298Y-50504523D01*
X-68450298Y-50409285D01*
X-68497917Y-50314047D01*
X-68593155Y-50266428D01*
X-68831250Y-50266428D01*
X-68926489Y-50218809D01*
X-69545536Y-50647380D02*
X-69450298Y-50599761D01*
X-69402679Y-50504523D01*
X-69402679Y-49647380D01*
X-70688393Y-50647380D02*
X-70688393Y-49647380D01*
X-71069346Y-49647380D01*
X-71164584Y-49695000D01*
X-71212203Y-49742619D01*
X-71259822Y-49837857D01*
X-71259822Y-49980714D01*
X-71212203Y-50075952D01*
X-71164584Y-50123571D01*
X-71069346Y-50171190D01*
X-70688393Y-50171190D01*
X-72259822Y-50552142D02*
X-72212203Y-50599761D01*
X-72069346Y-50647380D01*
X-71974108Y-50647380D01*
X-71831250Y-50599761D01*
X-71736012Y-50504523D01*
X-71688393Y-50409285D01*
X-71640774Y-50218809D01*
X-71640774Y-50075952D01*
X-71688393Y-49885476D01*
X-71736012Y-49790238D01*
X-71831250Y-49695000D01*
X-71974108Y-49647380D01*
X-72069346Y-49647380D01*
X-72212203Y-49695000D01*
X-72259822Y-49742619D01*
X-73021727Y-50123571D02*
X-73164584Y-50171190D01*
X-73212203Y-50218809D01*
X-73259822Y-50314047D01*
X-73259822Y-50456904D01*
X-73212203Y-50552142D01*
X-73164584Y-50599761D01*
X-73069346Y-50647380D01*
X-72688393Y-50647380D01*
X-72688393Y-49647380D01*
X-73021727Y-49647380D01*
X-73116965Y-49695000D01*
X-73164584Y-49742619D01*
X-73212203Y-49837857D01*
X-73212203Y-49933095D01*
X-73164584Y-50028333D01*
X-73116965Y-50075952D01*
X-73021727Y-50123571D01*
X-72688393Y-50123571D01*
X-74878870Y-50647380D02*
X-74878870Y-49647380D01*
X-74878870Y-50599761D02*
X-74783631Y-50647380D01*
X-74593155Y-50647380D01*
X-74497917Y-50599761D01*
X-74450298Y-50552142D01*
X-74402679Y-50456904D01*
X-74402679Y-50171190D01*
X-74450298Y-50075952D01*
X-74497917Y-50028333D01*
X-74593155Y-49980714D01*
X-74783631Y-49980714D01*
X-74878870Y-50028333D01*
X-75736012Y-50599761D02*
X-75640774Y-50647380D01*
X-75450298Y-50647380D01*
X-75355060Y-50599761D01*
X-75307441Y-50504523D01*
X-75307441Y-50123571D01*
X-75355060Y-50028333D01*
X-75450298Y-49980714D01*
X-75640774Y-49980714D01*
X-75736012Y-50028333D01*
X-75783631Y-50123571D01*
X-75783631Y-50218809D01*
X-75307441Y-50314047D01*
X-76164584Y-50599761D02*
X-76259822Y-50647380D01*
X-76450298Y-50647380D01*
X-76545536Y-50599761D01*
X-76593155Y-50504523D01*
X-76593155Y-50456904D01*
X-76545536Y-50361666D01*
X-76450298Y-50314047D01*
X-76307441Y-50314047D01*
X-76212203Y-50266428D01*
X-76164584Y-50171190D01*
X-76164584Y-50123571D01*
X-76212203Y-50028333D01*
X-76307441Y-49980714D01*
X-76450298Y-49980714D01*
X-76545536Y-50028333D01*
X-77021727Y-50647380D02*
X-77021727Y-49980714D01*
X-77021727Y-49647380D02*
X-76974108Y-49695000D01*
X-77021727Y-49742619D01*
X-77069346Y-49695000D01*
X-77021727Y-49647380D01*
X-77021727Y-49742619D01*
X-77926489Y-49980714D02*
X-77926489Y-50790238D01*
X-77878870Y-50885476D01*
X-77831250Y-50933095D01*
X-77736012Y-50980714D01*
X-77593155Y-50980714D01*
X-77497917Y-50933095D01*
X-77926489Y-50599761D02*
X-77831250Y-50647380D01*
X-77640774Y-50647380D01*
X-77545536Y-50599761D01*
X-77497917Y-50552142D01*
X-77450298Y-50456904D01*
X-77450298Y-50171190D01*
X-77497917Y-50075952D01*
X-77545536Y-50028333D01*
X-77640774Y-49980714D01*
X-77831250Y-49980714D01*
X-77926489Y-50028333D01*
X-78402679Y-49980714D02*
X-78402679Y-50647380D01*
X-78402679Y-50075952D02*
X-78450298Y-50028333D01*
X-78545536Y-49980714D01*
X-78688393Y-49980714D01*
X-78783631Y-50028333D01*
X-78831250Y-50123571D01*
X-78831250Y-50647380D01*
X-79688393Y-50599761D02*
X-79593155Y-50647380D01*
X-79402679Y-50647380D01*
X-79307441Y-50599761D01*
X-79259822Y-50504523D01*
X-79259822Y-50123571D01*
X-79307441Y-50028333D01*
X-79402679Y-49980714D01*
X-79593155Y-49980714D01*
X-79688393Y-50028333D01*
X-79736012Y-50123571D01*
X-79736012Y-50218809D01*
X-79259822Y-50314047D01*
X-80593155Y-50647380D02*
X-80593155Y-49647380D01*
X-80593155Y-50599761D02*
X-80497917Y-50647380D01*
X-80307441Y-50647380D01*
X-80212203Y-50599761D01*
X-80164584Y-50552142D01*
X-80116965Y-50456904D01*
X-80116965Y-50171190D01*
X-80164584Y-50075952D01*
X-80212203Y-50028333D01*
X-80307441Y-49980714D01*
X-80497917Y-49980714D01*
X-80593155Y-50028333D01*
X-81831250Y-50647380D02*
X-81831250Y-49647380D01*
X-81831250Y-50028333D02*
X-81926489Y-49980714D01*
X-82116965Y-49980714D01*
X-82212203Y-50028333D01*
X-82259822Y-50075952D01*
X-82307441Y-50171190D01*
X-82307441Y-50456904D01*
X-82259822Y-50552142D01*
X-82212203Y-50599761D01*
X-82116965Y-50647380D01*
X-81926489Y-50647380D01*
X-81831250Y-50599761D01*
X-82640774Y-49980714D02*
X-82878870Y-50647380D01*
X-83116965Y-49980714D02*
X-82878870Y-50647380D01*
X-82783631Y-50885476D01*
X-82736012Y-50933095D01*
X-82640774Y-50980714D01*
X-84116965Y-49980714D02*
X-84497917Y-49980714D01*
X-84259822Y-50647380D02*
X-84259822Y-49790238D01*
X-84307441Y-49695000D01*
X-84402679Y-49647380D01*
X-84497917Y-49647380D01*
X-84974108Y-50647380D02*
X-84878870Y-50599761D01*
X-84831250Y-50552142D01*
X-84783631Y-50456904D01*
X-84783631Y-50171190D01*
X-84831250Y-50075952D01*
X-84878870Y-50028333D01*
X-84974108Y-49980714D01*
X-85116965Y-49980714D01*
X-85212203Y-50028333D01*
X-85259822Y-50075952D01*
X-85307441Y-50171190D01*
X-85307441Y-50456904D01*
X-85259822Y-50552142D01*
X-85212203Y-50599761D01*
X-85116965Y-50647380D01*
X-84974108Y-50647380D01*
X-85878870Y-50647380D02*
X-85783631Y-50599761D01*
X-85736012Y-50552142D01*
X-85688393Y-50456904D01*
X-85688393Y-50171190D01*
X-85736012Y-50075952D01*
X-85783631Y-50028333D01*
X-85878870Y-49980714D01*
X-86021727Y-49980714D01*
X-86116965Y-50028333D01*
X-86164584Y-50075952D01*
X-86212203Y-50171190D01*
X-86212203Y-50456904D01*
X-86164584Y-50552142D01*
X-86116965Y-50599761D01*
X-86021727Y-50647380D01*
X-85878870Y-50647380D01*
X-86593155Y-50599761D02*
X-86688393Y-50647380D01*
X-86878870Y-50647380D01*
X-86974108Y-50599761D01*
X-87021727Y-50504523D01*
X-87021727Y-50456904D01*
X-86974108Y-50361666D01*
X-86878870Y-50314047D01*
X-86736012Y-50314047D01*
X-86640774Y-50266428D01*
X-86593155Y-50171190D01*
X-86593155Y-50123571D01*
X-86640774Y-50028333D01*
X-86736012Y-49980714D01*
X-86878870Y-49980714D01*
X-86974108Y-50028333D01*
X-87307441Y-49980714D02*
X-87688393Y-49980714D01*
X-87450298Y-49647380D02*
X-87450298Y-50504523D01*
X-87497917Y-50599761D01*
X-87593155Y-50647380D01*
X-87688393Y-50647380D01*
X-88450298Y-50647380D02*
X-88450298Y-50123571D01*
X-88402679Y-50028333D01*
X-88307441Y-49980714D01*
X-88116965Y-49980714D01*
X-88021727Y-50028333D01*
X-88450298Y-50599761D02*
X-88355060Y-50647380D01*
X-88116965Y-50647380D01*
X-88021727Y-50599761D01*
X-87974108Y-50504523D01*
X-87974108Y-50409285D01*
X-88021727Y-50314047D01*
X-88116965Y-50266428D01*
X-88355060Y-50266428D01*
X-88450298Y-50218809D01*
X-88926489Y-49980714D02*
X-88926489Y-50647380D01*
X-88926489Y-50075952D02*
X-88974108Y-50028333D01*
X-89069346Y-49980714D01*
X-89212203Y-49980714D01*
X-89307441Y-50028333D01*
X-89355060Y-50123571D01*
X-89355060Y-50647380D01*
X-64021727Y-51971666D02*
X-64497917Y-51971666D01*
X-63926489Y-52257380D02*
X-64259822Y-51257380D01*
X-64593155Y-52257380D01*
X-64926489Y-52257380D02*
X-64926489Y-51257380D01*
X-64926489Y-51638333D02*
X-65021727Y-51590714D01*
X-65212203Y-51590714D01*
X-65307441Y-51638333D01*
X-65355060Y-51685952D01*
X-65402679Y-51781190D01*
X-65402679Y-52066904D01*
X-65355060Y-52162142D01*
X-65307441Y-52209761D01*
X-65212203Y-52257380D01*
X-65021727Y-52257380D01*
X-64926489Y-52209761D01*
X-65974108Y-52257380D02*
X-65878870Y-52209761D01*
X-65831250Y-52162142D01*
X-65783631Y-52066904D01*
X-65783631Y-51781190D01*
X-65831250Y-51685952D01*
X-65878870Y-51638333D01*
X-65974108Y-51590714D01*
X-66116965Y-51590714D01*
X-66212203Y-51638333D01*
X-66259822Y-51685952D01*
X-66307441Y-51781190D01*
X-66307441Y-52066904D01*
X-66259822Y-52162142D01*
X-66212203Y-52209761D01*
X-66116965Y-52257380D01*
X-65974108Y-52257380D01*
X-66736012Y-52257380D02*
X-66736012Y-51590714D01*
X-66736012Y-51685952D02*
X-66783631Y-51638333D01*
X-66878870Y-51590714D01*
X-67021727Y-51590714D01*
X-67116965Y-51638333D01*
X-67164584Y-51733571D01*
X-67164584Y-52257380D01*
X-67164584Y-51733571D02*
X-67212203Y-51638333D01*
X-67307441Y-51590714D01*
X-67450298Y-51590714D01*
X-67545536Y-51638333D01*
X-67593155Y-51733571D01*
X-67593155Y-52257380D01*
X-68069346Y-52257380D02*
X-68069346Y-51590714D01*
X-68069346Y-51257380D02*
X-68021727Y-51305000D01*
X-68069346Y-51352619D01*
X-68116965Y-51305000D01*
X-68069346Y-51257380D01*
X-68069346Y-51352619D01*
X-68545536Y-51590714D02*
X-68545536Y-52257380D01*
X-68545536Y-51685952D02*
X-68593155Y-51638333D01*
X-68688393Y-51590714D01*
X-68831250Y-51590714D01*
X-68926489Y-51638333D01*
X-68974108Y-51733571D01*
X-68974108Y-52257380D01*
X-69878870Y-52257380D02*
X-69878870Y-51733571D01*
X-69831250Y-51638333D01*
X-69736012Y-51590714D01*
X-69545536Y-51590714D01*
X-69450298Y-51638333D01*
X-69878870Y-52209761D02*
X-69783631Y-52257380D01*
X-69545536Y-52257380D01*
X-69450298Y-52209761D01*
X-69402679Y-52114523D01*
X-69402679Y-52019285D01*
X-69450298Y-51924047D01*
X-69545536Y-51876428D01*
X-69783631Y-51876428D01*
X-69878870Y-51828809D01*
X-70212203Y-51590714D02*
X-70593155Y-51590714D01*
X-70355060Y-51257380D02*
X-70355060Y-52114523D01*
X-70402679Y-52209761D01*
X-70497917Y-52257380D01*
X-70593155Y-52257380D01*
X-70926489Y-52257380D02*
X-70926489Y-51590714D01*
X-70926489Y-51257380D02*
X-70878870Y-51305000D01*
X-70926489Y-51352619D01*
X-70974108Y-51305000D01*
X-70926489Y-51257380D01*
X-70926489Y-51352619D01*
X-71545536Y-52257380D02*
X-71450298Y-52209761D01*
X-71402679Y-52162142D01*
X-71355060Y-52066904D01*
X-71355060Y-51781190D01*
X-71402679Y-51685952D01*
X-71450298Y-51638333D01*
X-71545536Y-51590714D01*
X-71688393Y-51590714D01*
X-71783631Y-51638333D01*
X-71831250Y-51685952D01*
X-71878870Y-51781190D01*
X-71878870Y-52066904D01*
X-71831250Y-52162142D01*
X-71783631Y-52209761D01*
X-71688393Y-52257380D01*
X-71545536Y-52257380D01*
X-72307441Y-51590714D02*
X-72307441Y-52257380D01*
X-72307441Y-51685952D02*
X-72355060Y-51638333D01*
X-72450298Y-51590714D01*
X-72593155Y-51590714D01*
X-72688393Y-51638333D01*
X-72736012Y-51733571D01*
X-72736012Y-52257380D01*
X-73878870Y-51590714D02*
X-74116965Y-52257380D01*
X-74355060Y-51590714D01*
X-75259822Y-52257380D02*
X-74688393Y-52257380D01*
X-74974108Y-52257380D02*
X-74974108Y-51257380D01*
X-74878870Y-51400238D01*
X-74783631Y-51495476D01*
X-74688393Y-51543095D01*
X-75688393Y-52162142D02*
X-75736012Y-52209761D01*
X-75688393Y-52257380D01*
X-75640774Y-52209761D01*
X-75688393Y-52162142D01*
X-75688393Y-52257380D01*
X-76116965Y-51352619D02*
X-76164584Y-51305000D01*
X-76259822Y-51257380D01*
X-76497917Y-51257380D01*
X-76593155Y-51305000D01*
X-76640774Y-51352619D01*
X-76688393Y-51447857D01*
X-76688393Y-51543095D01*
X-76640774Y-51685952D01*
X-76069346Y-52257380D01*
X-76688393Y-52257380D01*
X-77878870Y-52257380D02*
X-77878870Y-51257380D01*
X-77878870Y-51638333D02*
X-77974108Y-51590714D01*
X-78164584Y-51590714D01*
X-78259822Y-51638333D01*
X-78307441Y-51685952D01*
X-78355060Y-51781190D01*
X-78355060Y-52066904D01*
X-78307441Y-52162142D01*
X-78259822Y-52209761D01*
X-78164584Y-52257380D01*
X-77974108Y-52257380D01*
X-77878870Y-52209761D01*
X-78688393Y-51590714D02*
X-78926489Y-52257380D01*
X-79164584Y-51590714D02*
X-78926489Y-52257380D01*
X-78831250Y-52495476D01*
X-78783631Y-52543095D01*
X-78688393Y-52590714D01*
X-80497917Y-51257380D02*
X-80688393Y-51257380D01*
X-80783631Y-51305000D01*
X-80878870Y-51400238D01*
X-80926489Y-51590714D01*
X-80926489Y-51924047D01*
X-80878870Y-52114523D01*
X-80783631Y-52209761D01*
X-80688393Y-52257380D01*
X-80497917Y-52257380D01*
X-80402679Y-52209761D01*
X-80307441Y-52114523D01*
X-80259822Y-51924047D01*
X-80259822Y-51590714D01*
X-80307441Y-51400238D01*
X-80402679Y-51305000D01*
X-80497917Y-51257380D01*
X-81355060Y-52257380D02*
X-81355060Y-51590714D01*
X-81355060Y-51781190D02*
X-81402679Y-51685952D01*
X-81450298Y-51638333D01*
X-81545536Y-51590714D01*
X-81640774Y-51590714D01*
X-82402679Y-52257380D02*
X-82402679Y-51733571D01*
X-82355060Y-51638333D01*
X-82259822Y-51590714D01*
X-82069346Y-51590714D01*
X-81974108Y-51638333D01*
X-82402679Y-52209761D02*
X-82307441Y-52257380D01*
X-82069346Y-52257380D01*
X-81974108Y-52209761D01*
X-81926489Y-52114523D01*
X-81926489Y-52019285D01*
X-81974108Y-51924047D01*
X-82069346Y-51876428D01*
X-82307441Y-51876428D01*
X-82402679Y-51828809D01*
X-82878870Y-51590714D02*
X-82878870Y-52257380D01*
X-82878870Y-51685952D02*
X-82926489Y-51638333D01*
X-83021727Y-51590714D01*
X-83164584Y-51590714D01*
X-83259822Y-51638333D01*
X-83307441Y-51733571D01*
X-83307441Y-52257380D01*
X-84212203Y-51590714D02*
X-84212203Y-52400238D01*
X-84164584Y-52495476D01*
X-84116965Y-52543095D01*
X-84021727Y-52590714D01*
X-83878870Y-52590714D01*
X-83783631Y-52543095D01*
X-84212203Y-52209761D02*
X-84116965Y-52257380D01*
X-83926489Y-52257380D01*
X-83831250Y-52209761D01*
X-83783631Y-52162142D01*
X-83736012Y-52066904D01*
X-83736012Y-51781190D01*
X-83783631Y-51685952D01*
X-83831250Y-51638333D01*
X-83926489Y-51590714D01*
X-84116965Y-51590714D01*
X-84212203Y-51638333D01*
X-85069346Y-52209761D02*
X-84974108Y-52257380D01*
X-84783631Y-52257380D01*
X-84688393Y-52209761D01*
X-84640774Y-52114523D01*
X-84640774Y-51733571D01*
X-84688393Y-51638333D01*
X-84783631Y-51590714D01*
X-84974108Y-51590714D01*
X-85069346Y-51638333D01*
X-85116965Y-51733571D01*
X-85116965Y-51828809D01*
X-84640774Y-51924047D01*
X-86116965Y-52162142D02*
X-86069346Y-52209761D01*
X-85926489Y-52257380D01*
X-85831250Y-52257380D01*
X-85688393Y-52209761D01*
X-85593155Y-52114523D01*
X-85545536Y-52019285D01*
X-85497917Y-51828809D01*
X-85497917Y-51685952D01*
X-85545536Y-51495476D01*
X-85593155Y-51400238D01*
X-85688393Y-51305000D01*
X-85831250Y-51257380D01*
X-85926489Y-51257380D01*
X-86069346Y-51305000D01*
X-86116965Y-51352619D01*
X-86545536Y-52257380D02*
X-86545536Y-51590714D01*
X-86545536Y-51781190D02*
X-86593155Y-51685952D01*
X-86640774Y-51638333D01*
X-86736012Y-51590714D01*
X-86831250Y-51590714D01*
X-87593155Y-51590714D02*
X-87593155Y-52257380D01*
X-87164584Y-51590714D02*
X-87164584Y-52114523D01*
X-87212203Y-52209761D01*
X-87307441Y-52257380D01*
X-87450298Y-52257380D01*
X-87545536Y-52209761D01*
X-87593155Y-52162142D01*
X-88021727Y-52209761D02*
X-88116965Y-52257380D01*
X-88307441Y-52257380D01*
X-88402679Y-52209761D01*
X-88450298Y-52114523D01*
X-88450298Y-52066904D01*
X-88402679Y-51971666D01*
X-88307441Y-51924047D01*
X-88164584Y-51924047D01*
X-88069346Y-51876428D01*
X-88021727Y-51781190D01*
X-88021727Y-51733571D01*
X-88069346Y-51638333D01*
X-88164584Y-51590714D01*
X-88307441Y-51590714D01*
X-88402679Y-51638333D01*
X-89307441Y-52257380D02*
X-89307441Y-51733571D01*
X-89259822Y-51638333D01*
X-89164584Y-51590714D01*
X-88974108Y-51590714D01*
X-88878870Y-51638333D01*
X-89307441Y-52209761D02*
X-89212203Y-52257380D01*
X-88974108Y-52257380D01*
X-88878870Y-52209761D01*
X-88831250Y-52114523D01*
X-88831250Y-52019285D01*
X-88878870Y-51924047D01*
X-88974108Y-51876428D01*
X-89212203Y-51876428D01*
X-89307441Y-51828809D01*
X-90212203Y-52257380D02*
X-90212203Y-51257380D01*
X-90212203Y-52209761D02*
X-90116965Y-52257380D01*
X-89926489Y-52257380D01*
X-89831250Y-52209761D01*
X-89783631Y-52162142D01*
X-89736012Y-52066904D01*
X-89736012Y-51781190D01*
X-89783631Y-51685952D01*
X-89831250Y-51638333D01*
X-89926489Y-51590714D01*
X-90116965Y-51590714D01*
X-90212203Y-51638333D01*
X-91069346Y-52209761D02*
X-90974108Y-52257380D01*
X-90783631Y-52257380D01*
X-90688393Y-52209761D01*
X-90640774Y-52114523D01*
X-90640774Y-51733571D01*
X-90688393Y-51638333D01*
X-90783631Y-51590714D01*
X-90974108Y-51590714D01*
X-91069346Y-51638333D01*
X-91116965Y-51733571D01*
X-91116965Y-51828809D01*
X-90640774Y-51924047D01*
X-91545536Y-52257380D02*
X-91545536Y-51590714D01*
X-91545536Y-51781190D02*
X-91593155Y-51685952D01*
X-91640774Y-51638333D01*
X-91736012Y-51590714D01*
X-91831250Y-51590714D01*
D17*
%TO.C,U1*%
X-14812280Y564120D03*
X-14812280Y-1975880D03*
X-14812280Y-4515880D03*
X-14812280Y-7055880D03*
X-14812280Y-9595880D03*
X-14812280Y-12135880D03*
X-14812280Y-14675880D03*
X2352280Y-14675880D03*
X2352280Y-12135880D03*
X2352280Y-9595880D03*
X2352280Y-7055880D03*
X2352280Y-4515880D03*
X2352280Y-1975880D03*
X2352280Y564120D03*
D18*
X-10573400Y-4515880D03*
X-1885400Y-4515880D03*
X-10573400Y-7055880D03*
X-1885400Y-7055880D03*
D19*
X-9488700Y-17073700D03*
D20*
X-2945400Y-17933700D03*
D19*
X-2935400Y-17073700D03*
D20*
X-9485400Y-17953700D03*
D19*
X-11977900Y-17073700D03*
D20*
X-455400Y-17933700D03*
X-12005400Y-17973700D03*
D19*
X-446200Y-17073700D03*
%TD*%
D12*
%TO.C,D1*%
X-115825000Y-16000000D03*
D21*
X-118325000Y-16000000D03*
X-121125000Y-16000000D03*
D13*
X-123625000Y-16000000D03*
%TD*%
D21*
%TO.C,D2*%
X-100325000Y-16000000D03*
D12*
X-97825000Y-16000000D03*
D21*
X-103125000Y-16000000D03*
D13*
X-105625000Y-16000000D03*
%TD*%
D12*
%TO.C,D3*%
X-79850000Y-11000000D03*
D21*
X-82350000Y-11000000D03*
X-85150000Y-11000000D03*
D13*
X-87650000Y-11000000D03*
%TD*%
D21*
%TO.C,D4*%
X-64375000Y-8750000D03*
D12*
X-61875000Y-8750000D03*
D21*
X-67175000Y-8750000D03*
D13*
X-69675000Y-8750000D03*
%TD*%
D21*
%TO.C,D5*%
X-46325000Y-11000000D03*
D12*
X-43825000Y-11000000D03*
D21*
X-49125000Y-11000000D03*
D13*
X-51625000Y-11000000D03*
%TD*%
D12*
%TO.C,D6*%
X-25875000Y-13500000D03*
D21*
X-28375000Y-13500000D03*
D13*
X-33675000Y-13500000D03*
D21*
X-31175000Y-13500000D03*
%TD*%
%TO.C,D8*%
X-100375000Y-32750000D03*
D12*
X-97875000Y-32750000D03*
D21*
X-103175000Y-32750000D03*
D13*
X-105675000Y-32750000D03*
%TD*%
D21*
%TO.C,D9*%
X-82350000Y-28000000D03*
D12*
X-79850000Y-28000000D03*
D13*
X-87650000Y-28000000D03*
D21*
X-85150000Y-28000000D03*
%TD*%
D12*
%TO.C,D10*%
X-61850000Y-25750000D03*
D21*
X-64350000Y-25750000D03*
X-67150000Y-25750000D03*
D13*
X-69650000Y-25750000D03*
%TD*%
D21*
%TO.C,D11*%
X-46350000Y-28000000D03*
D12*
X-43850000Y-28000000D03*
D21*
X-49150000Y-28000000D03*
D13*
X-51650000Y-28000000D03*
%TD*%
D21*
%TO.C,D12*%
X-28375000Y-30500000D03*
D12*
X-25875000Y-30500000D03*
D21*
X-31175000Y-30500000D03*
D13*
X-33675000Y-30500000D03*
%TD*%
D12*
%TO.C,D14*%
X-97875000Y-49750000D03*
D21*
X-100375000Y-49750000D03*
D13*
X-105675000Y-49750000D03*
D21*
X-103175000Y-49750000D03*
%TD*%
%TO.C,D15*%
X-82350000Y-45000000D03*
D12*
X-79850000Y-45000000D03*
D21*
X-85150000Y-45000000D03*
D13*
X-87650000Y-45000000D03*
%TD*%
D21*
%TO.C,D16*%
X-64375000Y-42750000D03*
D12*
X-61875000Y-42750000D03*
D21*
X-67175000Y-42750000D03*
D13*
X-69675000Y-42750000D03*
%TD*%
D21*
%TO.C,D17*%
X-46325000Y-45000000D03*
D12*
X-43825000Y-45000000D03*
D21*
X-49125000Y-45000000D03*
D13*
X-51625000Y-45000000D03*
%TD*%
D21*
%TO.C,D18*%
X-28375000Y-47500000D03*
D12*
X-25875000Y-47500000D03*
D13*
X-33675000Y-47500000D03*
D21*
X-31175000Y-47500000D03*
%TD*%
D12*
%TO.C,D19*%
X-49025000Y-65949000D03*
D21*
X-51525000Y-65949000D03*
X-54325000Y-65949000D03*
D13*
X-56825000Y-65949000D03*
%TD*%
D14*
%TO.C,D20*%
X-29122889Y-69249394D03*
D22*
X-31537704Y-68602347D03*
X-34242296Y-67877653D03*
D13*
X-36657111Y-67230606D03*
%TD*%
D23*
%TO.C,D21*%
X-4963000Y-69873564D03*
D15*
X-3713000Y-67708501D03*
D23*
X-6363000Y-72298436D03*
D13*
X-7613000Y-74463499D03*
%TD*%
D24*
%TO.C,SW1*%
X-119797200Y-5219600D03*
D25*
X-125297200Y-11169600D03*
X-114297200Y-11169600D03*
D24*
X-114797200Y-7419600D03*
X-124797200Y-7419600D03*
D26*
X-119797200Y-11169600D03*
D27*
X-123072200Y-5219600D03*
X-111522200Y-7419600D03*
%TD*%
D25*
%TO.C,SW2*%
X-96303100Y-11173400D03*
D24*
X-106803100Y-7423400D03*
D26*
X-101803100Y-11173400D03*
D24*
X-101803100Y-5223400D03*
X-96803100Y-7423400D03*
D25*
X-107303100Y-11173400D03*
D27*
X-105078100Y-5223400D03*
X-93528100Y-7423400D03*
%TD*%
D26*
%TO.C,SW3*%
X-83789000Y-6396600D03*
D25*
X-78289000Y-6396600D03*
X-89289000Y-6396600D03*
D24*
X-83789000Y-446600D03*
X-78789000Y-2646600D03*
X-88789000Y-2646600D03*
D27*
X-87064000Y-446600D03*
X-75514000Y-2646600D03*
%TD*%
D24*
%TO.C,SW4*%
X-70779000Y-236800D03*
D25*
X-71279000Y-3986800D03*
D24*
X-65779000Y1963200D03*
X-60779000Y-236800D03*
D25*
X-60279000Y-3986800D03*
D26*
X-65779000Y-3986800D03*
D27*
X-69054000Y1963200D03*
X-57504000Y-236800D03*
%TD*%
D25*
%TO.C,SW5*%
X-53263000Y-6307900D03*
X-42263000Y-6307900D03*
D24*
X-52763000Y-2557900D03*
D26*
X-47763000Y-6307900D03*
D24*
X-42763000Y-2557900D03*
X-47763000Y-357900D03*
D27*
X-51038000Y-357900D03*
X-39488000Y-2557900D03*
%TD*%
D26*
%TO.C,SW6*%
X-29750000Y-8708900D03*
D24*
X-29750000Y-2758900D03*
X-24750000Y-4958900D03*
D25*
X-24250000Y-8708900D03*
D24*
X-34750000Y-4958900D03*
D25*
X-35250000Y-8708900D03*
D27*
X-33025000Y-2758900D03*
X-21475000Y-4958900D03*
%TD*%
D24*
%TO.C,SW7*%
X-114797200Y-24402500D03*
D25*
X-114297200Y-28152500D03*
D24*
X-124797200Y-24402500D03*
D26*
X-119797200Y-28152500D03*
D25*
X-125297200Y-28152500D03*
D24*
X-119797200Y-22202500D03*
D27*
X-123072200Y-22202500D03*
X-111522200Y-24402500D03*
%TD*%
D25*
%TO.C,SW8*%
X-107303100Y-28187000D03*
D26*
X-101803100Y-28187000D03*
D24*
X-106803100Y-24437000D03*
X-96803100Y-24437000D03*
X-101803100Y-22237000D03*
D25*
X-96303100Y-28187000D03*
D27*
X-105078100Y-22237000D03*
X-93528100Y-24437000D03*
%TD*%
D25*
%TO.C,SW9*%
X-89287000Y-23385200D03*
D24*
X-78787000Y-19635200D03*
D25*
X-78287000Y-23385200D03*
D24*
X-83787000Y-17435200D03*
X-88787000Y-19635200D03*
D26*
X-83787000Y-23385200D03*
D27*
X-87062000Y-17435200D03*
X-75512000Y-19635200D03*
%TD*%
D25*
%TO.C,SW10*%
X-60272000Y-20988000D03*
X-71272000Y-20988000D03*
D24*
X-70772000Y-17238000D03*
X-65772000Y-15038000D03*
D26*
X-65772000Y-20988000D03*
D24*
X-60772000Y-17238000D03*
D27*
X-69047000Y-15038000D03*
X-57497000Y-17238000D03*
%TD*%
D24*
%TO.C,SW11*%
X-52763000Y-19572700D03*
X-42763000Y-19572700D03*
X-47763000Y-17372700D03*
D25*
X-53263000Y-23322700D03*
D26*
X-47763000Y-23322700D03*
D25*
X-42263000Y-23322700D03*
D27*
X-51038000Y-17372700D03*
X-39488000Y-19572700D03*
%TD*%
D24*
%TO.C,SW12*%
X-29750000Y-19800000D03*
D25*
X-35250000Y-25750000D03*
X-24250000Y-25750000D03*
D24*
X-34750000Y-22000000D03*
X-24750000Y-22000000D03*
D26*
X-29750000Y-25750000D03*
D27*
X-33025000Y-19800000D03*
X-21475000Y-22000000D03*
%TD*%
D24*
%TO.C,SW13*%
X-124797200Y-41433000D03*
X-114797200Y-41433000D03*
D26*
X-119797200Y-45183000D03*
D24*
X-119797200Y-39233000D03*
D25*
X-125297200Y-45183000D03*
X-114297200Y-45183000D03*
D27*
X-123072200Y-39233000D03*
X-111522200Y-41433000D03*
%TD*%
D25*
%TO.C,SW14*%
X-96303100Y-45171000D03*
D24*
X-96803100Y-41421000D03*
D25*
X-107303100Y-45171000D03*
D26*
X-101803100Y-45171000D03*
D24*
X-101803100Y-39221000D03*
X-106803100Y-41421000D03*
D27*
X-105078100Y-39221000D03*
X-93528100Y-41421000D03*
%TD*%
D24*
%TO.C,SW15*%
X-88786000Y-36648000D03*
X-78786000Y-36648000D03*
D26*
X-83786000Y-40398000D03*
D25*
X-78286000Y-40398000D03*
X-89286000Y-40398000D03*
D24*
X-83786000Y-34448000D03*
D27*
X-87061000Y-34448000D03*
X-75511000Y-36648000D03*
%TD*%
D25*
%TO.C,SW16*%
X-71283000Y-37977000D03*
D24*
X-70783000Y-34227000D03*
D25*
X-60283000Y-37977000D03*
D24*
X-65783000Y-32027000D03*
X-60783000Y-34227000D03*
D26*
X-65783000Y-37977000D03*
D27*
X-69058000Y-32027000D03*
X-57508000Y-34227000D03*
%TD*%
D24*
%TO.C,SW17*%
X-52763000Y-36564000D03*
X-42763000Y-36564000D03*
X-47763000Y-34364000D03*
D25*
X-53263000Y-40314000D03*
D26*
X-47763000Y-40314000D03*
D25*
X-42263000Y-40314000D03*
D27*
X-51038000Y-34364000D03*
X-39488000Y-36564000D03*
%TD*%
D24*
%TO.C,SW19*%
X-52815000Y-55200000D03*
D25*
X-47315000Y-61150000D03*
X-58315000Y-61150000D03*
D24*
X-57815000Y-57400000D03*
X-47815000Y-57400000D03*
D26*
X-52815000Y-61150000D03*
D27*
X-56090000Y-55200000D03*
X-44540000Y-57400000D03*
%TD*%
D24*
%TO.C,SW20*%
X-30096027Y-58115741D03*
D25*
X-36948592Y-62439495D03*
D24*
X-35495058Y-58946683D03*
D25*
X-26323408Y-65286505D03*
D26*
X-31636000Y-63863000D03*
D24*
X-25835799Y-61534873D03*
D28*
X-33259434Y-57268109D03*
X-22672392Y-62382506D03*
%TD*%
D24*
%TO.C,SW21*%
X-10562595Y-62494873D03*
D25*
X-7065000Y-63936860D03*
D24*
X-14967851Y-65725000D03*
D25*
X-12565000Y-73463140D03*
D24*
X-15562595Y-71155127D03*
D26*
X-9815000Y-68700000D03*
D29*
X-16605351Y-68561233D03*
X-8925095Y-59658640D03*
%TD*%
D25*
%TO.C,SW18*%
X-24243000Y-42740000D03*
D24*
X-29743000Y-36790000D03*
X-24743000Y-38990000D03*
D25*
X-35243000Y-42740000D03*
D24*
X-34743000Y-38990000D03*
D26*
X-29743000Y-42740000D03*
D27*
X-33018000Y-36790000D03*
X-21468000Y-38990000D03*
%TD*%
D21*
%TO.C,D13*%
X-118375000Y-49750000D03*
D12*
X-115875000Y-49750000D03*
D21*
X-121175000Y-49750000D03*
D13*
X-123675000Y-49750000D03*
%TD*%
D21*
%TO.C,D7*%
X-118375000Y-32750000D03*
D12*
X-115875000Y-32750000D03*
D13*
X-123675000Y-32750000D03*
D21*
X-121175000Y-32750000D03*
%TD*%
D30*
%TO.C,J9*%
X-18225000Y-58010000D03*
D31*
X-18225000Y-55470000D03*
%TD*%
D32*
%TO.C,SW23*%
X5536500Y-39928000D03*
X5536500Y-31728000D03*
D33*
X5536500Y-33828000D03*
D34*
X5536500Y-35828000D03*
X5536500Y-37828000D03*
%TD*%
D30*
%TO.C,J1*%
X-1235000Y-48000000D03*
D31*
X-3775000Y-48000000D03*
X-6315000Y-48000000D03*
X-8855000Y-48000000D03*
X-11395000Y-48000000D03*
%TD*%
D35*
%TO.C,JP10*%
X-8109800Y-52325000D03*
D36*
X-8109800Y-53775000D03*
%TD*%
D37*
%TO.C,JP38*%
X-2206900Y-22396700D03*
D38*
X-3656900Y-22396700D03*
%TD*%
D35*
%TO.C,JP1*%
X-11796400Y-52325000D03*
D36*
X-11796400Y-53775000D03*
%TD*%
D37*
%TO.C,JP43*%
X-2206900Y-40738300D03*
D38*
X-3656900Y-40738300D03*
%TD*%
D37*
%TO.C,JP9*%
X-8760200Y-44406700D03*
D38*
X-10210200Y-44406700D03*
%TD*%
D37*
%TO.C,JP41*%
X-2206900Y-33401700D03*
D38*
X-3656900Y-33401700D03*
%TD*%
D37*
%TO.C,JP5*%
X-8760200Y-29733300D03*
D38*
X-10210200Y-29733300D03*
%TD*%
D37*
%TO.C,JP8*%
X-8760200Y-40738300D03*
D38*
X-10210200Y-40738300D03*
%TD*%
D37*
%TO.C,JP3*%
X-8760200Y-22396700D03*
D38*
X-10210200Y-22396700D03*
%TD*%
D39*
%TO.C,J8*%
X-3053798Y-57572885D03*
X-3653798Y-58612115D03*
D40*
X790448Y-58464456D03*
X-959552Y-61495544D03*
%TD*%
D37*
%TO.C,JP44*%
X-2206900Y-44406700D03*
D38*
X-3656900Y-44406700D03*
%TD*%
D37*
%TO.C,JP6*%
X-8760200Y-33401700D03*
D38*
X-10210200Y-33401700D03*
%TD*%
D37*
%TO.C,JP40*%
X-2206900Y-29733300D03*
D38*
X-3656900Y-29733300D03*
%TD*%
D35*
%TO.C,JP14*%
X-736400Y-52325000D03*
D36*
X-736400Y-53775000D03*
%TD*%
D37*
%TO.C,JP7*%
X-8760200Y-37070000D03*
D38*
X-10210200Y-37070000D03*
%TD*%
D35*
%TO.C,JP12*%
X-4423100Y-52325000D03*
D36*
X-4423100Y-53775000D03*
%TD*%
D37*
%TO.C,JP39*%
X-2206900Y-26065000D03*
D38*
X-3656900Y-26065000D03*
%TD*%
D37*
%TO.C,JP42*%
X-2206900Y-37070000D03*
D38*
X-3656900Y-37070000D03*
%TD*%
D37*
%TO.C,JP4*%
X-8760200Y-26065000D03*
D38*
X-10210200Y-26065000D03*
%TD*%
M02*
