%TF.GenerationSoftware,KiCad,Pcbnew,(6.0.0)*%
%TF.CreationDate,2023-02-19T18:14:09-06:00*%
%TF.ProjectId,corne-chocolate,636f726e-652d-4636-986f-636f6c617465,1.0*%
%TF.SameCoordinates,Original*%
%TF.FileFunction,Profile,NP*%
%FSLAX46Y46*%
G04 Gerber Fmt 4.6, Leading zero omitted, Abs format (unit mm)*
G04 Created by KiCad (PCBNEW (6.0.0)) date 2023-02-19 18:14:09*
%MOMM*%
%LPD*%
G01*
G04 APERTURE LIST*
%TA.AperFunction,Profile*%
%ADD10C,0.150000*%
%TD*%
%TA.AperFunction,Profile*%
%ADD11C,0.120000*%
%TD*%
G04 APERTURE END LIST*
D10*
X-10770000Y-2480000D02*
X-10780000Y3500000D01*
X-10780000Y3500000D02*
X-55250000Y3500000D01*
X-111303100Y-15073224D02*
X-111303100Y-9926777D01*
X-94750000Y-2000000D02*
X-110803100Y-2000000D01*
X-111750000Y-26500000D02*
G75*
G03*
X-112250000Y-27000000I1J-500001D01*
G01*
X-112250000Y-27000000D02*
X-112250000Y-32146447D01*
X-111303100Y-27000000D02*
G75*
G03*
X-111750000Y-26500000I-503153J1D01*
G01*
X-108700150Y-36667750D02*
G75*
G03*
X-108700150Y-36667750I-2100000J0D01*
G01*
X-111303100Y-54000000D02*
G75*
G03*
X-110803100Y-54500000I500001J1D01*
G01*
X-112250000Y-44353553D02*
X-112250000Y-54000000D01*
X-112750000Y-2000000D02*
X-129250000Y-2000000D01*
X-129750000Y-2500000D02*
X-129750000Y-54000000D01*
X-75250000Y5500000D02*
G75*
G03*
X-75750000Y5000000I1J-500001D01*
G01*
X-112250000Y-4146447D02*
G75*
G03*
X-111750000Y-4646447I500001J1D01*
G01*
X6250000Y-61000000D02*
G75*
G03*
X8249999Y-54000000I-13512310J7646372D01*
G01*
X-110803100Y-2000000D02*
G75*
G03*
X-111303100Y-2500000I1J-500001D01*
G01*
X-129250000Y-2000000D02*
G75*
G03*
X-129750000Y-2500000I1J-500001D01*
G01*
X7252115Y1710000D02*
G75*
G03*
X7252115Y1710000I-1112115J0D01*
G01*
X-90696050Y-14815300D02*
G75*
G03*
X-90696050Y-14815300I-2100000J0D01*
G01*
X-1750000Y3500000D02*
X-1750000Y-2480000D01*
X-94250000Y-1500000D02*
X-94250000Y2500000D01*
X-111303100Y-44353553D02*
G75*
G03*
X-111750000Y-43853553I-503153J1D01*
G01*
X-112250000Y-2500000D02*
X-112250000Y-4146447D01*
X-93750000Y3000000D02*
G75*
G03*
X-94250000Y2500000I1J-500001D01*
G01*
X-76250000Y3000000D02*
G75*
G03*
X-75750000Y3500000I-1J500001D01*
G01*
X8250000Y3000000D02*
X8249999Y-54000000D01*
X-66450000Y-55500000D02*
G75*
G03*
X-66450000Y-55500000I-2100000J0D01*
G01*
X-112250000Y-9926777D02*
X-112250000Y-15073224D01*
X-112250000Y-2500000D02*
G75*
G03*
X-112750000Y-2000000I-500001J-1D01*
G01*
X-55750000Y5000000D02*
G75*
G03*
X-56250000Y5500000I-500001J-1D01*
G01*
X-111303100Y-9926777D02*
G75*
G03*
X-111750000Y-9426777I-503153J1D01*
G01*
X-108700150Y-19661050D02*
G75*
G03*
X-108700150Y-19661050I-2100000J0D01*
G01*
X-112750000Y-54500000D02*
X-129250000Y-54500000D01*
X-75750000Y5000000D02*
X-75750000Y3500000D01*
X-15750000Y-84000000D02*
G75*
G03*
X-59750000Y-72000001I-40715408J-62623169D01*
G01*
X-75250000Y5500000D02*
X-56250000Y5500000D01*
X-111750000Y-4646447D02*
G75*
G03*
X-111303100Y-4146447I-56276J500019D01*
G01*
X7252115Y-50112885D02*
G75*
G03*
X7252115Y-50112885I-1112115J0D01*
G01*
X-21450000Y-54000000D02*
G75*
G03*
X-21450000Y-54000000I-2100000J0D01*
G01*
X-112750000Y-54500000D02*
G75*
G03*
X-112250000Y-54000000I-1J500001D01*
G01*
X-111750000Y-9426777D02*
G75*
G03*
X-112250000Y-9926777I1J-500001D01*
G01*
X-55750000Y5000000D02*
X-55750000Y4000000D01*
X6350000Y-54860000D02*
G75*
G03*
X6350000Y-54860000I-2000000J0D01*
G01*
X-67658358Y-67879418D02*
G75*
G03*
X-59750000Y-72000000I7506002J4756485D01*
G01*
X-55750000Y4000000D02*
G75*
G03*
X-55250000Y3500000I500001J1D01*
G01*
X-112250000Y-32146447D02*
G75*
G03*
X-111750000Y-32646447I500001J1D01*
G01*
X-111303100Y-2500000D02*
X-111303100Y-4146447D01*
X-111750000Y-32646447D02*
G75*
G03*
X-111303100Y-32146447I-56268J500012D01*
G01*
X8250000Y3000000D02*
G75*
G03*
X7750000Y3500000I-500001J-1D01*
G01*
X-93750000Y3000000D02*
X-76250000Y3000000D01*
X-1750000Y-2480000D02*
X-10770000Y-2480000D01*
X-111750000Y-15573224D02*
G75*
G03*
X-111303100Y-15073224I-56268J500012D01*
G01*
X-36656500Y-14815300D02*
G75*
G03*
X-36656500Y-14815300I-2100000J0D01*
G01*
X-111303100Y-32146447D02*
X-111303100Y-27000000D01*
X-94750000Y-2000000D02*
G75*
G03*
X-94250000Y-1500000I-1J500001D01*
G01*
X-67658358Y-67879418D02*
G75*
G03*
X-90750000Y-54500000I-24305404J-15332155D01*
G01*
X-90696050Y-31891600D02*
G75*
G03*
X-90696050Y-31891600I-2100000J0D01*
G01*
X-5750000Y-82000000D02*
X6250000Y-61000000D01*
X-111750000Y-43853553D02*
G75*
G03*
X-112250000Y-44353553I1J-500001D01*
G01*
X-129750000Y-54000000D02*
G75*
G03*
X-129250000Y-54500000I500001J1D01*
G01*
X-90750000Y-54500000D02*
X-110803100Y-54500000D01*
X-15750001Y-84000001D02*
G75*
G03*
X-5750000Y-82000000I4022720J5886404D01*
G01*
X7750000Y3500000D02*
X-1750000Y3500000D01*
X-111303100Y-54000000D02*
X-111303100Y-44353553D01*
X-112250000Y-15073224D02*
G75*
G03*
X-111750000Y-15573224I500001J1D01*
G01*
D11*
%TO.C,U1*%
X-4230800Y-16522900D02*
X-4230800Y-12611300D01*
X-8193300Y-16522900D02*
X-8193300Y-12611300D01*
X-1885400Y-3482100D02*
X-1885400Y-8130300D01*
X-12892300Y-16522900D02*
X-8193300Y-16522900D01*
X-10573400Y-3482100D02*
X-10573400Y-8130300D01*
X-1885400Y-3482100D02*
X-10573400Y-3482100D01*
X-8193300Y-12611300D02*
X-12892300Y-12611300D01*
X-4230800Y-12611300D02*
X468200Y-12611300D01*
X-10573400Y-8130300D02*
X-1885400Y-8130300D01*
X468200Y-12611300D02*
X468200Y-16522900D01*
X-12892300Y-12611300D02*
X-12892300Y-16522900D01*
X468200Y-16522900D02*
X-4230800Y-16522900D01*
%TD*%
M02*
