%TF.GenerationSoftware,KiCad,Pcbnew,(6.0.0)*%
%TF.CreationDate,2023-02-19T18:14:09-06:00*%
%TF.ProjectId,corne-chocolate,636f726e-652d-4636-986f-636f6c617465,1.0*%
%TF.SameCoordinates,Original*%
%TF.FileFunction,Legend,Top*%
%TF.FilePolarity,Positive*%
%FSLAX46Y46*%
G04 Gerber Fmt 4.6, Leading zero omitted, Abs format (unit mm)*
G04 Created by KiCad (PCBNEW (6.0.0)) date 2023-02-19 18:14:09*
%MOMM*%
%LPD*%
G01*
G04 APERTURE LIST*
G04 Aperture macros list*
%AMRotRect*
0 Rectangle, with rotation*
0 The origin of the aperture is its center*
0 $1 length*
0 $2 width*
0 $3 Rotation angle, in degrees counterclockwise*
0 Add horizontal line*
21,1,$1,$2,0,0,$3*%
%AMFreePoly0*
4,1,6,1.000000,0.000000,0.500000,-0.750000,-0.500000,-0.750000,-0.500000,0.750000,0.500000,0.750000,1.000000,0.000000,1.000000,0.000000,$1*%
%AMFreePoly1*
4,1,6,0.500000,-0.750000,-0.650000,-0.750000,-0.150000,0.000000,-0.650000,0.750000,0.500000,0.750000,0.500000,-0.750000,0.500000,-0.750000,$1*%
G04 Aperture macros list end*
%ADD10C,0.150000*%
%ADD11C,0.101600*%
%ADD12C,0.076200*%
%ADD13C,0.066040*%
%ADD14C,0.127000*%
%ADD15C,0.120000*%
%ADD16C,0.125000*%
%ADD17O,3.748280X1.998980*%
%ADD18C,1.998980*%
%ADD19C,1.000000*%
%ADD20O,1.998980X2.998470*%
%ADD21R,1.600000X1.600000*%
%ADD22R,1.600000X1.200000*%
%ADD23C,1.600000*%
%ADD24RotRect,1.600000X1.200000X345.000000*%
%ADD25RotRect,1.600000X1.600000X345.000000*%
%ADD26RotRect,1.600000X1.600000X60.000000*%
%ADD27RotRect,1.600000X1.200000X60.000000*%
%ADD28C,3.000000*%
%ADD29C,1.701800*%
%ADD30C,3.429000*%
%ADD31R,2.600000X2.600000*%
%ADD32RotRect,2.600000X2.600000X165.000000*%
%ADD33RotRect,2.600000X2.600000X240.000000*%
%ADD34FreePoly0,90.000000*%
%ADD35FreePoly1,90.000000*%
%ADD36FreePoly0,0.000000*%
%ADD37FreePoly1,0.000000*%
%ADD38R,1.700000X1.700000*%
%ADD39O,1.700000X1.700000*%
%ADD40O,3.500000X2.200000*%
%ADD41R,2.500000X1.500000*%
%ADD42O,2.500000X1.500000*%
G04 APERTURE END LIST*
D10*
X4584119Y-42238603D02*
X4774595Y-42238603D01*
X4869833Y-42286223D01*
X4965071Y-42381461D01*
X5012690Y-42571937D01*
X5012690Y-42905270D01*
X4965071Y-43095746D01*
X4869833Y-43190984D01*
X4774595Y-43238603D01*
X4584119Y-43238603D01*
X4488880Y-43190984D01*
X4393642Y-43095746D01*
X4346023Y-42905270D01*
X4346023Y-42571937D01*
X4393642Y-42381461D01*
X4488880Y-42286223D01*
X4584119Y-42238603D01*
X5774595Y-42714794D02*
X5441261Y-42714794D01*
X5441261Y-43238603D02*
X5441261Y-42238603D01*
X5917452Y-42238603D01*
X6631738Y-42714794D02*
X6298404Y-42714794D01*
X6298404Y-43238603D02*
X6298404Y-42238603D01*
X6774595Y-42238603D01*
X4917452Y-28202380D02*
X5107928Y-28202380D01*
X5203166Y-28250000D01*
X5298404Y-28345238D01*
X5346023Y-28535714D01*
X5346023Y-28869047D01*
X5298404Y-29059523D01*
X5203166Y-29154761D01*
X5107928Y-29202380D01*
X4917452Y-29202380D01*
X4822214Y-29154761D01*
X4726976Y-29059523D01*
X4679357Y-28869047D01*
X4679357Y-28535714D01*
X4726976Y-28345238D01*
X4822214Y-28250000D01*
X4917452Y-28202380D01*
X5774595Y-29202380D02*
X5774595Y-28202380D01*
X6346023Y-29202380D01*
X6346023Y-28202380D01*
X-18672620Y-35796666D02*
X-18672620Y-36272857D01*
X-19672620Y-36272857D01*
X-18720239Y-35082380D02*
X-18672620Y-35177619D01*
X-18672620Y-35368095D01*
X-18720239Y-35463333D01*
X-18815477Y-35510952D01*
X-19196429Y-35510952D01*
X-19291667Y-35463333D01*
X-19339286Y-35368095D01*
X-19339286Y-35177619D01*
X-19291667Y-35082380D01*
X-19196429Y-35034761D01*
X-19101191Y-35034761D01*
X-19005953Y-35510952D01*
X-19339286Y-34749047D02*
X-19339286Y-34368095D01*
X-18672620Y-34606190D02*
X-19529762Y-34606190D01*
X-19625000Y-34558571D01*
X-19672620Y-34463333D01*
X-19672620Y-34368095D01*
X-19339286Y-34177619D02*
X-19339286Y-33796666D01*
X-19672620Y-34034761D02*
X-18815477Y-34034761D01*
X-18720239Y-33987142D01*
X-18672620Y-33891904D01*
X-18672620Y-33796666D01*
X-18720239Y-32749047D02*
X-18672620Y-32606190D01*
X-18672620Y-32368095D01*
X-18720239Y-32272857D01*
X-18767858Y-32225238D01*
X-18863096Y-32177619D01*
X-18958334Y-32177619D01*
X-19053572Y-32225238D01*
X-19101191Y-32272857D01*
X-19148810Y-32368095D01*
X-19196429Y-32558571D01*
X-19244048Y-32653809D01*
X-19291667Y-32701428D01*
X-19386905Y-32749047D01*
X-19482143Y-32749047D01*
X-19577381Y-32701428D01*
X-19625000Y-32653809D01*
X-19672620Y-32558571D01*
X-19672620Y-32320476D01*
X-19625000Y-32177619D01*
X-18672620Y-31749047D02*
X-19339286Y-31749047D01*
X-19672620Y-31749047D02*
X-19625000Y-31796666D01*
X-19577381Y-31749047D01*
X-19625000Y-31701428D01*
X-19672620Y-31749047D01*
X-19577381Y-31749047D01*
X-18672620Y-30844285D02*
X-19672620Y-30844285D01*
X-18720239Y-30844285D02*
X-18672620Y-30939523D01*
X-18672620Y-31130000D01*
X-18720239Y-31225238D01*
X-18767858Y-31272857D01*
X-18863096Y-31320476D01*
X-19148810Y-31320476D01*
X-19244048Y-31272857D01*
X-19291667Y-31225238D01*
X-19339286Y-31130000D01*
X-19339286Y-30939523D01*
X-19291667Y-30844285D01*
X-18720239Y-29987142D02*
X-18672620Y-30082380D01*
X-18672620Y-30272857D01*
X-18720239Y-30368095D01*
X-18815477Y-30415714D01*
X-19196429Y-30415714D01*
X-19291667Y-30368095D01*
X-19339286Y-30272857D01*
X-19339286Y-30082380D01*
X-19291667Y-29987142D01*
X-19196429Y-29939523D01*
X-19101191Y-29939523D01*
X-19005953Y-30415714D01*
X-18062620Y-38415714D02*
X-17062620Y-37749047D01*
X-18062620Y-37749047D02*
X-17062620Y-38415714D01*
X-17062620Y-37368095D02*
X-18062620Y-37368095D01*
X-17348334Y-36939523D02*
X-17348334Y-36463333D01*
X-17062620Y-37034761D02*
X-18062620Y-36701428D01*
X-17062620Y-36368095D01*
X-18062620Y-35844285D02*
X-18062620Y-35653809D01*
X-18015000Y-35558571D01*
X-17919762Y-35463333D01*
X-17729286Y-35415714D01*
X-17395953Y-35415714D01*
X-17205477Y-35463333D01*
X-17110239Y-35558571D01*
X-17062620Y-35653809D01*
X-17062620Y-35844285D01*
X-17110239Y-35939523D01*
X-17205477Y-36034761D01*
X-17395953Y-36082380D01*
X-17729286Y-36082380D01*
X-17919762Y-36034761D01*
X-18015000Y-35939523D01*
X-18062620Y-35844285D01*
X-18062620Y-34368095D02*
X-18062620Y-33796666D01*
X-17062620Y-34082380D02*
X-18062620Y-34082380D01*
X-17062620Y-33463333D02*
X-18062620Y-33463333D01*
X-17062620Y-33034761D02*
X-17586429Y-33034761D01*
X-17681667Y-33082380D01*
X-17729286Y-33177619D01*
X-17729286Y-33320476D01*
X-17681667Y-33415714D01*
X-17634048Y-33463333D01*
X-17062620Y-32558571D02*
X-17729286Y-32558571D01*
X-18062620Y-32558571D02*
X-18015000Y-32606190D01*
X-17967381Y-32558571D01*
X-18015000Y-32510952D01*
X-18062620Y-32558571D01*
X-17967381Y-32558571D01*
X-17110239Y-32130000D02*
X-17062620Y-32034761D01*
X-17062620Y-31844285D01*
X-17110239Y-31749047D01*
X-17205477Y-31701428D01*
X-17253096Y-31701428D01*
X-17348334Y-31749047D01*
X-17395953Y-31844285D01*
X-17395953Y-31987142D01*
X-17443572Y-32082380D01*
X-17538810Y-32130000D01*
X-17586429Y-32130000D01*
X-17681667Y-32082380D01*
X-17729286Y-31987142D01*
X-17729286Y-31844285D01*
X-17681667Y-31749047D01*
X-17110239Y-30558571D02*
X-17062620Y-30463333D01*
X-17062620Y-30272857D01*
X-17110239Y-30177619D01*
X-17205477Y-30130000D01*
X-17253096Y-30130000D01*
X-17348334Y-30177619D01*
X-17395953Y-30272857D01*
X-17395953Y-30415714D01*
X-17443572Y-30510952D01*
X-17538810Y-30558571D01*
X-17586429Y-30558571D01*
X-17681667Y-30510952D01*
X-17729286Y-30415714D01*
X-17729286Y-30272857D01*
X-17681667Y-30177619D01*
X-17062620Y-29701428D02*
X-17729286Y-29701428D01*
X-18062620Y-29701428D02*
X-18015000Y-29749047D01*
X-17967381Y-29701428D01*
X-18015000Y-29653809D01*
X-18062620Y-29701428D01*
X-17967381Y-29701428D01*
X-17062620Y-28796666D02*
X-18062620Y-28796666D01*
X-17110239Y-28796666D02*
X-17062620Y-28891904D01*
X-17062620Y-29082380D01*
X-17110239Y-29177619D01*
X-17157858Y-29225238D01*
X-17253096Y-29272857D01*
X-17538810Y-29272857D01*
X-17634048Y-29225238D01*
X-17681667Y-29177619D01*
X-17729286Y-29082380D01*
X-17729286Y-28891904D01*
X-17681667Y-28796666D01*
X-17110239Y-27939523D02*
X-17062620Y-28034761D01*
X-17062620Y-28225238D01*
X-17110239Y-28320476D01*
X-17205477Y-28368095D01*
X-17586429Y-28368095D01*
X-17681667Y-28320476D01*
X-17729286Y-28225238D01*
X-17729286Y-28034761D01*
X-17681667Y-27939523D01*
X-17586429Y-27891904D01*
X-17491191Y-27891904D01*
X-17395953Y-28368095D01*
X-15500239Y-40153809D02*
X-15452620Y-40010952D01*
X-15452620Y-39772857D01*
X-15500239Y-39677619D01*
X-15547858Y-39630000D01*
X-15643096Y-39582380D01*
X-15738334Y-39582380D01*
X-15833572Y-39630000D01*
X-15881191Y-39677619D01*
X-15928810Y-39772857D01*
X-15976429Y-39963333D01*
X-16024048Y-40058571D01*
X-16071667Y-40106190D01*
X-16166905Y-40153809D01*
X-16262143Y-40153809D01*
X-16357381Y-40106190D01*
X-16405000Y-40058571D01*
X-16452620Y-39963333D01*
X-16452620Y-39725238D01*
X-16405000Y-39582380D01*
X-15452620Y-39010952D02*
X-15500239Y-39106190D01*
X-15547858Y-39153809D01*
X-15643096Y-39201428D01*
X-15928810Y-39201428D01*
X-16024048Y-39153809D01*
X-16071667Y-39106190D01*
X-16119286Y-39010952D01*
X-16119286Y-38868095D01*
X-16071667Y-38772857D01*
X-16024048Y-38725238D01*
X-15928810Y-38677619D01*
X-15643096Y-38677619D01*
X-15547858Y-38725238D01*
X-15500239Y-38772857D01*
X-15452620Y-38868095D01*
X-15452620Y-39010952D01*
X-15452620Y-38106190D02*
X-15500239Y-38201428D01*
X-15595477Y-38249047D01*
X-16452620Y-38249047D01*
X-15452620Y-37296666D02*
X-16452620Y-37296666D01*
X-15500239Y-37296666D02*
X-15452620Y-37391904D01*
X-15452620Y-37582380D01*
X-15500239Y-37677619D01*
X-15547858Y-37725238D01*
X-15643096Y-37772857D01*
X-15928810Y-37772857D01*
X-16024048Y-37725238D01*
X-16071667Y-37677619D01*
X-16119286Y-37582380D01*
X-16119286Y-37391904D01*
X-16071667Y-37296666D01*
X-15500239Y-36439523D02*
X-15452620Y-36534761D01*
X-15452620Y-36725238D01*
X-15500239Y-36820476D01*
X-15595477Y-36868095D01*
X-15976429Y-36868095D01*
X-16071667Y-36820476D01*
X-16119286Y-36725238D01*
X-16119286Y-36534761D01*
X-16071667Y-36439523D01*
X-15976429Y-36391904D01*
X-15881191Y-36391904D01*
X-15785953Y-36868095D01*
X-15452620Y-35963333D02*
X-16119286Y-35963333D01*
X-15928810Y-35963333D02*
X-16024048Y-35915714D01*
X-16071667Y-35868095D01*
X-16119286Y-35772857D01*
X-16119286Y-35677619D01*
X-15452620Y-34153809D02*
X-15976429Y-34153809D01*
X-16071667Y-34201428D01*
X-16119286Y-34296666D01*
X-16119286Y-34487142D01*
X-16071667Y-34582380D01*
X-15500239Y-34153809D02*
X-15452620Y-34249047D01*
X-15452620Y-34487142D01*
X-15500239Y-34582380D01*
X-15595477Y-34630000D01*
X-15690715Y-34630000D01*
X-15785953Y-34582380D01*
X-15833572Y-34487142D01*
X-15833572Y-34249047D01*
X-15881191Y-34153809D01*
X-15452620Y-33534761D02*
X-15500239Y-33630000D01*
X-15595477Y-33677619D01*
X-16452620Y-33677619D01*
X-15452620Y-33010952D02*
X-15500239Y-33106190D01*
X-15595477Y-33153809D01*
X-16452620Y-33153809D01*
X-16452620Y-31582380D02*
X-15738334Y-31582380D01*
X-15595477Y-31630000D01*
X-15500239Y-31725238D01*
X-15452620Y-31868095D01*
X-15452620Y-31963333D01*
X-16119286Y-30677619D02*
X-15452620Y-30677619D01*
X-16119286Y-31106190D02*
X-15595477Y-31106190D01*
X-15500239Y-31058571D01*
X-15452620Y-30963333D01*
X-15452620Y-30820476D01*
X-15500239Y-30725238D01*
X-15547858Y-30677619D01*
X-15452620Y-30201428D02*
X-16119286Y-30201428D01*
X-16024048Y-30201428D02*
X-16071667Y-30153809D01*
X-16119286Y-30058571D01*
X-16119286Y-29915714D01*
X-16071667Y-29820476D01*
X-15976429Y-29772857D01*
X-15452620Y-29772857D01*
X-15976429Y-29772857D02*
X-16071667Y-29725238D01*
X-16119286Y-29630000D01*
X-16119286Y-29487142D01*
X-16071667Y-29391904D01*
X-15976429Y-29344285D01*
X-15452620Y-29344285D01*
X-16119286Y-28868095D02*
X-15119286Y-28868095D01*
X-16071667Y-28868095D02*
X-16119286Y-28772857D01*
X-16119286Y-28582380D01*
X-16071667Y-28487142D01*
X-16024048Y-28439523D01*
X-15928810Y-28391904D01*
X-15643096Y-28391904D01*
X-15547858Y-28439523D01*
X-15500239Y-28487142D01*
X-15452620Y-28582380D01*
X-15452620Y-28772857D01*
X-15500239Y-28868095D01*
X-15500239Y-27582380D02*
X-15452620Y-27677619D01*
X-15452620Y-27868095D01*
X-15500239Y-27963333D01*
X-15595477Y-28010952D01*
X-15976429Y-28010952D01*
X-16071667Y-27963333D01*
X-16119286Y-27868095D01*
X-16119286Y-27677619D01*
X-16071667Y-27582380D01*
X-15976429Y-27534761D01*
X-15881191Y-27534761D01*
X-15785953Y-28010952D01*
X-15452620Y-27106190D02*
X-16119286Y-27106190D01*
X-15928810Y-27106190D02*
X-16024048Y-27058571D01*
X-16071667Y-27010952D01*
X-16119286Y-26915714D01*
X-16119286Y-26820476D01*
X-15500239Y-26534761D02*
X-15452620Y-26439523D01*
X-15452620Y-26249047D01*
X-15500239Y-26153809D01*
X-15595477Y-26106190D01*
X-15643096Y-26106190D01*
X-15738334Y-26153809D01*
X-15785953Y-26249047D01*
X-15785953Y-26391904D01*
X-15833572Y-26487142D01*
X-15928810Y-26534761D01*
X-15976429Y-26534761D01*
X-16071667Y-26487142D01*
X-16119286Y-26391904D01*
X-16119286Y-26249047D01*
X-16071667Y-26153809D01*
X-13842620Y-37558571D02*
X-13890239Y-37653809D01*
X-13937858Y-37701428D01*
X-14033096Y-37749047D01*
X-14318810Y-37749047D01*
X-14414048Y-37701428D01*
X-14461667Y-37653809D01*
X-14509286Y-37558571D01*
X-14509286Y-37415714D01*
X-14461667Y-37320476D01*
X-14414048Y-37272857D01*
X-14318810Y-37225238D01*
X-14033096Y-37225238D01*
X-13937858Y-37272857D01*
X-13890239Y-37320476D01*
X-13842620Y-37415714D01*
X-13842620Y-37558571D01*
X-14509286Y-36796666D02*
X-13842620Y-36796666D01*
X-14414048Y-36796666D02*
X-14461667Y-36749047D01*
X-14509286Y-36653809D01*
X-14509286Y-36510952D01*
X-14461667Y-36415714D01*
X-14366429Y-36368095D01*
X-13842620Y-36368095D01*
X-14509286Y-35272857D02*
X-14509286Y-34891904D01*
X-14842620Y-35130000D02*
X-13985477Y-35130000D01*
X-13890239Y-35082380D01*
X-13842620Y-34987142D01*
X-13842620Y-34891904D01*
X-13842620Y-34558571D02*
X-14842620Y-34558571D01*
X-13842620Y-34130000D02*
X-14366429Y-34130000D01*
X-14461667Y-34177619D01*
X-14509286Y-34272857D01*
X-14509286Y-34415714D01*
X-14461667Y-34510952D01*
X-14414048Y-34558571D01*
X-13842620Y-33653809D02*
X-14509286Y-33653809D01*
X-14842620Y-33653809D02*
X-14795000Y-33701428D01*
X-14747381Y-33653809D01*
X-14795000Y-33606190D01*
X-14842620Y-33653809D01*
X-14747381Y-33653809D01*
X-13890239Y-33225238D02*
X-13842620Y-33130000D01*
X-13842620Y-32939523D01*
X-13890239Y-32844285D01*
X-13985477Y-32796666D01*
X-14033096Y-32796666D01*
X-14128334Y-32844285D01*
X-14175953Y-32939523D01*
X-14175953Y-33082380D01*
X-14223572Y-33177619D01*
X-14318810Y-33225238D01*
X-14366429Y-33225238D01*
X-14461667Y-33177619D01*
X-14509286Y-33082380D01*
X-14509286Y-32939523D01*
X-14461667Y-32844285D01*
X-13890239Y-31653809D02*
X-13842620Y-31558571D01*
X-13842620Y-31368095D01*
X-13890239Y-31272857D01*
X-13985477Y-31225238D01*
X-14033096Y-31225238D01*
X-14128334Y-31272857D01*
X-14175953Y-31368095D01*
X-14175953Y-31510952D01*
X-14223572Y-31606190D01*
X-14318810Y-31653809D01*
X-14366429Y-31653809D01*
X-14461667Y-31606190D01*
X-14509286Y-31510952D01*
X-14509286Y-31368095D01*
X-14461667Y-31272857D01*
X-13842620Y-30796666D02*
X-14509286Y-30796666D01*
X-14842620Y-30796666D02*
X-14795000Y-30844285D01*
X-14747381Y-30796666D01*
X-14795000Y-30749047D01*
X-14842620Y-30796666D01*
X-14747381Y-30796666D01*
X-13842620Y-29891904D02*
X-14842620Y-29891904D01*
X-13890239Y-29891904D02*
X-13842620Y-29987142D01*
X-13842620Y-30177619D01*
X-13890239Y-30272857D01*
X-13937858Y-30320476D01*
X-14033096Y-30368095D01*
X-14318810Y-30368095D01*
X-14414048Y-30320476D01*
X-14461667Y-30272857D01*
X-14509286Y-30177619D01*
X-14509286Y-29987142D01*
X-14461667Y-29891904D01*
X-13890239Y-29034761D02*
X-13842620Y-29130000D01*
X-13842620Y-29320476D01*
X-13890239Y-29415714D01*
X-13985477Y-29463333D01*
X-14366429Y-29463333D01*
X-14461667Y-29415714D01*
X-14509286Y-29320476D01*
X-14509286Y-29130000D01*
X-14461667Y-29034761D01*
X-14366429Y-28987142D01*
X-14271191Y-28987142D01*
X-14175953Y-29463333D01*
X-13937858Y-28558571D02*
X-13890239Y-28510952D01*
X-13842620Y-28558571D01*
X-13890239Y-28606190D01*
X-13937858Y-28558571D01*
X-13842620Y-28558571D01*
X-16180953Y-58151428D02*
X-15419048Y-58151428D01*
X-15800000Y-58532380D02*
X-15800000Y-57770476D01*
D11*
%TO.C,U1*%
X-6488234Y4713634D02*
X-6488234Y3993967D01*
X-6445900Y3909300D01*
X-6403567Y3866967D01*
X-6318900Y3824634D01*
X-6149567Y3824634D01*
X-6064900Y3866967D01*
X-6022567Y3909300D01*
X-5980234Y3993967D01*
X-5980234Y4713634D01*
X-5091234Y3824634D02*
X-5599234Y3824634D01*
X-5345234Y3824634D02*
X-5345234Y4713634D01*
X-5429900Y4586634D01*
X-5514567Y4501967D01*
X-5599234Y4459634D01*
D12*
X-10609686Y-6908160D02*
X-10522600Y-6937189D01*
X-10377458Y-6937189D01*
X-10319400Y-6908160D01*
X-10290372Y-6879132D01*
X-10261343Y-6821075D01*
X-10261343Y-6763018D01*
X-10290372Y-6704960D01*
X-10319400Y-6675932D01*
X-10377458Y-6646903D01*
X-10493572Y-6617875D01*
X-10551629Y-6588846D01*
X-10580658Y-6559818D01*
X-10609686Y-6501760D01*
X-10609686Y-6443703D01*
X-10580658Y-6385646D01*
X-10551629Y-6356618D01*
X-10493572Y-6327589D01*
X-10348429Y-6327589D01*
X-10261343Y-6356618D01*
X-9767858Y-6908160D02*
X-9825915Y-6937189D01*
X-9942029Y-6937189D01*
X-10000086Y-6908160D01*
X-10029115Y-6850103D01*
X-10029115Y-6617875D01*
X-10000086Y-6559818D01*
X-9942029Y-6530789D01*
X-9825915Y-6530789D01*
X-9767858Y-6559818D01*
X-9738829Y-6617875D01*
X-9738829Y-6675932D01*
X-10029115Y-6733989D01*
X-9245343Y-6908160D02*
X-9303400Y-6937189D01*
X-9419515Y-6937189D01*
X-9477572Y-6908160D01*
X-9506600Y-6850103D01*
X-9506600Y-6617875D01*
X-9477572Y-6559818D01*
X-9419515Y-6530789D01*
X-9303400Y-6530789D01*
X-9245343Y-6559818D01*
X-9216315Y-6617875D01*
X-9216315Y-6675932D01*
X-9506600Y-6733989D01*
X-8722829Y-6908160D02*
X-8780886Y-6937189D01*
X-8897000Y-6937189D01*
X-8955058Y-6908160D01*
X-8984086Y-6850103D01*
X-8984086Y-6617875D01*
X-8955058Y-6559818D01*
X-8897000Y-6530789D01*
X-8780886Y-6530789D01*
X-8722829Y-6559818D01*
X-8693800Y-6617875D01*
X-8693800Y-6675932D01*
X-8984086Y-6733989D01*
X-8171286Y-6937189D02*
X-8171286Y-6327589D01*
X-8171286Y-6908160D02*
X-8229343Y-6937189D01*
X-8345458Y-6937189D01*
X-8403515Y-6908160D01*
X-8432543Y-6879132D01*
X-8461572Y-6821075D01*
X-8461572Y-6646903D01*
X-8432543Y-6588846D01*
X-8403515Y-6559818D01*
X-8345458Y-6530789D01*
X-8229343Y-6530789D01*
X-8171286Y-6559818D01*
X-7619743Y-6530789D02*
X-7619743Y-6937189D01*
X-7881000Y-6530789D02*
X-7881000Y-6850103D01*
X-7851972Y-6908160D01*
X-7793915Y-6937189D01*
X-7706829Y-6937189D01*
X-7648772Y-6908160D01*
X-7619743Y-6879132D01*
X-7329458Y-6937189D02*
X-7329458Y-6530789D01*
X-7329458Y-6327589D02*
X-7358486Y-6356618D01*
X-7329458Y-6385646D01*
X-7300429Y-6356618D01*
X-7329458Y-6327589D01*
X-7329458Y-6385646D01*
X-7039172Y-6530789D02*
X-7039172Y-6937189D01*
X-7039172Y-6588846D02*
X-7010143Y-6559818D01*
X-6952086Y-6530789D01*
X-6865000Y-6530789D01*
X-6806943Y-6559818D01*
X-6777915Y-6617875D01*
X-6777915Y-6937189D01*
X-6400543Y-6937189D02*
X-6458600Y-6908160D01*
X-6487629Y-6879132D01*
X-6516658Y-6821075D01*
X-6516658Y-6646903D01*
X-6487629Y-6588846D01*
X-6458600Y-6559818D01*
X-6400543Y-6530789D01*
X-6313458Y-6530789D01*
X-6255400Y-6559818D01*
X-6226372Y-6588846D01*
X-6197343Y-6646903D01*
X-6197343Y-6821075D01*
X-6226372Y-6879132D01*
X-6255400Y-6908160D01*
X-6313458Y-6937189D01*
X-6400543Y-6937189D01*
X-5994143Y-6327589D02*
X-5587743Y-6937189D01*
X-5587743Y-6327589D02*
X-5994143Y-6937189D01*
X-5355515Y-6937189D02*
X-5355515Y-6327589D01*
X-5094258Y-6763018D02*
X-4803972Y-6763018D01*
X-5152315Y-6937189D02*
X-4949115Y-6327589D01*
X-4745915Y-6937189D01*
X-4426600Y-6327589D02*
X-4310486Y-6327589D01*
X-4252429Y-6356618D01*
X-4194372Y-6414675D01*
X-4165343Y-6530789D01*
X-4165343Y-6733989D01*
X-4194372Y-6850103D01*
X-4252429Y-6908160D01*
X-4310486Y-6937189D01*
X-4426600Y-6937189D01*
X-4484658Y-6908160D01*
X-4542715Y-6850103D01*
X-4571743Y-6733989D01*
X-4571743Y-6530789D01*
X-4542715Y-6414675D01*
X-4484658Y-6356618D01*
X-4426600Y-6327589D01*
X-4049229Y-6995246D02*
X-3584772Y-6995246D01*
X-3265458Y-6327589D02*
X-3265458Y-6763018D01*
X-3294486Y-6850103D01*
X-3352543Y-6908160D01*
X-3439629Y-6937189D01*
X-3497686Y-6937189D01*
X-2975172Y-6937189D02*
X-2975172Y-6327589D01*
X-2975172Y-6617875D02*
X-2626829Y-6617875D01*
X-2626829Y-6937189D02*
X-2626829Y-6327589D01*
X-2336543Y-6937189D02*
X-2336543Y-6327589D01*
X-2133343Y-6763018D01*
X-1930143Y-6327589D01*
X-1930143Y-6937189D01*
D10*
%TO.C,SW1*%
X-125575534Y-13479361D02*
X-125432677Y-13526980D01*
X-125194581Y-13526980D01*
X-125099343Y-13479361D01*
X-125051724Y-13431742D01*
X-125004105Y-13336504D01*
X-125004105Y-13241266D01*
X-125051724Y-13146028D01*
X-125099343Y-13098409D01*
X-125194581Y-13050790D01*
X-125385058Y-13003171D01*
X-125480296Y-12955552D01*
X-125527915Y-12907933D01*
X-125575534Y-12812695D01*
X-125575534Y-12717457D01*
X-125527915Y-12622219D01*
X-125480296Y-12574600D01*
X-125385058Y-12526980D01*
X-125146962Y-12526980D01*
X-125004105Y-12574600D01*
X-124670772Y-12526980D02*
X-124432677Y-13526980D01*
X-124242200Y-12812695D01*
X-124051724Y-13526980D01*
X-123813629Y-12526980D01*
X-122908867Y-13526980D02*
X-123480296Y-13526980D01*
X-123194581Y-13526980D02*
X-123194581Y-12526980D01*
X-123289820Y-12669838D01*
X-123385058Y-12765076D01*
X-123480296Y-12812695D01*
%TO.C,SW2*%
X-107581434Y-13483161D02*
X-107438577Y-13530780D01*
X-107200481Y-13530780D01*
X-107105243Y-13483161D01*
X-107057624Y-13435542D01*
X-107010005Y-13340304D01*
X-107010005Y-13245066D01*
X-107057624Y-13149828D01*
X-107105243Y-13102209D01*
X-107200481Y-13054590D01*
X-107390958Y-13006971D01*
X-107486196Y-12959352D01*
X-107533815Y-12911733D01*
X-107581434Y-12816495D01*
X-107581434Y-12721257D01*
X-107533815Y-12626019D01*
X-107486196Y-12578400D01*
X-107390958Y-12530780D01*
X-107152862Y-12530780D01*
X-107010005Y-12578400D01*
X-106676672Y-12530780D02*
X-106438577Y-13530780D01*
X-106248100Y-12816495D01*
X-106057624Y-13530780D01*
X-105819529Y-12530780D01*
X-105486196Y-12626019D02*
X-105438577Y-12578400D01*
X-105343339Y-12530780D01*
X-105105243Y-12530780D01*
X-105010005Y-12578400D01*
X-104962386Y-12626019D01*
X-104914767Y-12721257D01*
X-104914767Y-12816495D01*
X-104962386Y-12959352D01*
X-105533815Y-13530780D01*
X-104914767Y-13530780D01*
%TO.C,SW3*%
X-89567334Y-8706361D02*
X-89424477Y-8753980D01*
X-89186381Y-8753980D01*
X-89091143Y-8706361D01*
X-89043524Y-8658742D01*
X-88995905Y-8563504D01*
X-88995905Y-8468266D01*
X-89043524Y-8373028D01*
X-89091143Y-8325409D01*
X-89186381Y-8277790D01*
X-89376858Y-8230171D01*
X-89472096Y-8182552D01*
X-89519715Y-8134933D01*
X-89567334Y-8039695D01*
X-89567334Y-7944457D01*
X-89519715Y-7849219D01*
X-89472096Y-7801600D01*
X-89376858Y-7753980D01*
X-89138762Y-7753980D01*
X-88995905Y-7801600D01*
X-88662572Y-7753980D02*
X-88424477Y-8753980D01*
X-88234000Y-8039695D01*
X-88043524Y-8753980D01*
X-87805429Y-7753980D01*
X-87519715Y-7753980D02*
X-86900667Y-7753980D01*
X-87234000Y-8134933D01*
X-87091143Y-8134933D01*
X-86995905Y-8182552D01*
X-86948286Y-8230171D01*
X-86900667Y-8325409D01*
X-86900667Y-8563504D01*
X-86948286Y-8658742D01*
X-86995905Y-8706361D01*
X-87091143Y-8753980D01*
X-87376858Y-8753980D01*
X-87472096Y-8706361D01*
X-87519715Y-8658742D01*
%TO.C,SW4*%
X-71557334Y-6296561D02*
X-71414477Y-6344180D01*
X-71176381Y-6344180D01*
X-71081143Y-6296561D01*
X-71033524Y-6248942D01*
X-70985905Y-6153704D01*
X-70985905Y-6058466D01*
X-71033524Y-5963228D01*
X-71081143Y-5915609D01*
X-71176381Y-5867990D01*
X-71366858Y-5820371D01*
X-71462096Y-5772752D01*
X-71509715Y-5725133D01*
X-71557334Y-5629895D01*
X-71557334Y-5534657D01*
X-71509715Y-5439419D01*
X-71462096Y-5391800D01*
X-71366858Y-5344180D01*
X-71128762Y-5344180D01*
X-70985905Y-5391800D01*
X-70652572Y-5344180D02*
X-70414477Y-6344180D01*
X-70224000Y-5629895D01*
X-70033524Y-6344180D01*
X-69795429Y-5344180D01*
X-68985905Y-5677514D02*
X-68985905Y-6344180D01*
X-69224000Y-5296561D02*
X-69462096Y-6010847D01*
X-68843048Y-6010847D01*
%TO.C,SW5*%
X-53541334Y-8617661D02*
X-53398477Y-8665280D01*
X-53160381Y-8665280D01*
X-53065143Y-8617661D01*
X-53017524Y-8570042D01*
X-52969905Y-8474804D01*
X-52969905Y-8379566D01*
X-53017524Y-8284328D01*
X-53065143Y-8236709D01*
X-53160381Y-8189090D01*
X-53350858Y-8141471D01*
X-53446096Y-8093852D01*
X-53493715Y-8046233D01*
X-53541334Y-7950995D01*
X-53541334Y-7855757D01*
X-53493715Y-7760519D01*
X-53446096Y-7712900D01*
X-53350858Y-7665280D01*
X-53112762Y-7665280D01*
X-52969905Y-7712900D01*
X-52636572Y-7665280D02*
X-52398477Y-8665280D01*
X-52208000Y-7950995D01*
X-52017524Y-8665280D01*
X-51779429Y-7665280D01*
X-50922286Y-7665280D02*
X-51398477Y-7665280D01*
X-51446096Y-8141471D01*
X-51398477Y-8093852D01*
X-51303239Y-8046233D01*
X-51065143Y-8046233D01*
X-50969905Y-8093852D01*
X-50922286Y-8141471D01*
X-50874667Y-8236709D01*
X-50874667Y-8474804D01*
X-50922286Y-8570042D01*
X-50969905Y-8617661D01*
X-51065143Y-8665280D01*
X-51303239Y-8665280D01*
X-51398477Y-8617661D01*
X-51446096Y-8570042D01*
%TO.C,SW6*%
X-35528334Y-11018661D02*
X-35385477Y-11066280D01*
X-35147381Y-11066280D01*
X-35052143Y-11018661D01*
X-35004524Y-10971042D01*
X-34956905Y-10875804D01*
X-34956905Y-10780566D01*
X-35004524Y-10685328D01*
X-35052143Y-10637709D01*
X-35147381Y-10590090D01*
X-35337858Y-10542471D01*
X-35433096Y-10494852D01*
X-35480715Y-10447233D01*
X-35528334Y-10351995D01*
X-35528334Y-10256757D01*
X-35480715Y-10161519D01*
X-35433096Y-10113900D01*
X-35337858Y-10066280D01*
X-35099762Y-10066280D01*
X-34956905Y-10113900D01*
X-34623572Y-10066280D02*
X-34385477Y-11066280D01*
X-34195000Y-10351995D01*
X-34004524Y-11066280D01*
X-33766429Y-10066280D01*
X-32956905Y-10066280D02*
X-33147381Y-10066280D01*
X-33242620Y-10113900D01*
X-33290239Y-10161519D01*
X-33385477Y-10304376D01*
X-33433096Y-10494852D01*
X-33433096Y-10875804D01*
X-33385477Y-10971042D01*
X-33337858Y-11018661D01*
X-33242620Y-11066280D01*
X-33052143Y-11066280D01*
X-32956905Y-11018661D01*
X-32909286Y-10971042D01*
X-32861667Y-10875804D01*
X-32861667Y-10637709D01*
X-32909286Y-10542471D01*
X-32956905Y-10494852D01*
X-33052143Y-10447233D01*
X-33242620Y-10447233D01*
X-33337858Y-10494852D01*
X-33385477Y-10542471D01*
X-33433096Y-10637709D01*
%TO.C,SW7*%
X-125575534Y-30462261D02*
X-125432677Y-30509880D01*
X-125194581Y-30509880D01*
X-125099343Y-30462261D01*
X-125051724Y-30414642D01*
X-125004105Y-30319404D01*
X-125004105Y-30224166D01*
X-125051724Y-30128928D01*
X-125099343Y-30081309D01*
X-125194581Y-30033690D01*
X-125385058Y-29986071D01*
X-125480296Y-29938452D01*
X-125527915Y-29890833D01*
X-125575534Y-29795595D01*
X-125575534Y-29700357D01*
X-125527915Y-29605119D01*
X-125480296Y-29557500D01*
X-125385058Y-29509880D01*
X-125146962Y-29509880D01*
X-125004105Y-29557500D01*
X-124670772Y-29509880D02*
X-124432677Y-30509880D01*
X-124242200Y-29795595D01*
X-124051724Y-30509880D01*
X-123813629Y-29509880D01*
X-123527915Y-29509880D02*
X-122861248Y-29509880D01*
X-123289820Y-30509880D01*
%TO.C,SW8*%
X-107581434Y-30496761D02*
X-107438577Y-30544380D01*
X-107200481Y-30544380D01*
X-107105243Y-30496761D01*
X-107057624Y-30449142D01*
X-107010005Y-30353904D01*
X-107010005Y-30258666D01*
X-107057624Y-30163428D01*
X-107105243Y-30115809D01*
X-107200481Y-30068190D01*
X-107390958Y-30020571D01*
X-107486196Y-29972952D01*
X-107533815Y-29925333D01*
X-107581434Y-29830095D01*
X-107581434Y-29734857D01*
X-107533815Y-29639619D01*
X-107486196Y-29592000D01*
X-107390958Y-29544380D01*
X-107152862Y-29544380D01*
X-107010005Y-29592000D01*
X-106676672Y-29544380D02*
X-106438577Y-30544380D01*
X-106248100Y-29830095D01*
X-106057624Y-30544380D01*
X-105819529Y-29544380D01*
X-105295720Y-29972952D02*
X-105390958Y-29925333D01*
X-105438577Y-29877714D01*
X-105486196Y-29782476D01*
X-105486196Y-29734857D01*
X-105438577Y-29639619D01*
X-105390958Y-29592000D01*
X-105295720Y-29544380D01*
X-105105243Y-29544380D01*
X-105010005Y-29592000D01*
X-104962386Y-29639619D01*
X-104914767Y-29734857D01*
X-104914767Y-29782476D01*
X-104962386Y-29877714D01*
X-105010005Y-29925333D01*
X-105105243Y-29972952D01*
X-105295720Y-29972952D01*
X-105390958Y-30020571D01*
X-105438577Y-30068190D01*
X-105486196Y-30163428D01*
X-105486196Y-30353904D01*
X-105438577Y-30449142D01*
X-105390958Y-30496761D01*
X-105295720Y-30544380D01*
X-105105243Y-30544380D01*
X-105010005Y-30496761D01*
X-104962386Y-30449142D01*
X-104914767Y-30353904D01*
X-104914767Y-30163428D01*
X-104962386Y-30068190D01*
X-105010005Y-30020571D01*
X-105105243Y-29972952D01*
%TO.C,SW9*%
X-89565334Y-25694961D02*
X-89422477Y-25742580D01*
X-89184381Y-25742580D01*
X-89089143Y-25694961D01*
X-89041524Y-25647342D01*
X-88993905Y-25552104D01*
X-88993905Y-25456866D01*
X-89041524Y-25361628D01*
X-89089143Y-25314009D01*
X-89184381Y-25266390D01*
X-89374858Y-25218771D01*
X-89470096Y-25171152D01*
X-89517715Y-25123533D01*
X-89565334Y-25028295D01*
X-89565334Y-24933057D01*
X-89517715Y-24837819D01*
X-89470096Y-24790200D01*
X-89374858Y-24742580D01*
X-89136762Y-24742580D01*
X-88993905Y-24790200D01*
X-88660572Y-24742580D02*
X-88422477Y-25742580D01*
X-88232000Y-25028295D01*
X-88041524Y-25742580D01*
X-87803429Y-24742580D01*
X-87374858Y-25742580D02*
X-87184381Y-25742580D01*
X-87089143Y-25694961D01*
X-87041524Y-25647342D01*
X-86946286Y-25504485D01*
X-86898667Y-25314009D01*
X-86898667Y-24933057D01*
X-86946286Y-24837819D01*
X-86993905Y-24790200D01*
X-87089143Y-24742580D01*
X-87279620Y-24742580D01*
X-87374858Y-24790200D01*
X-87422477Y-24837819D01*
X-87470096Y-24933057D01*
X-87470096Y-25171152D01*
X-87422477Y-25266390D01*
X-87374858Y-25314009D01*
X-87279620Y-25361628D01*
X-87089143Y-25361628D01*
X-86993905Y-25314009D01*
X-86946286Y-25266390D01*
X-86898667Y-25171152D01*
%TO.C,SW10*%
X-72026524Y-23297761D02*
X-71883667Y-23345380D01*
X-71645572Y-23345380D01*
X-71550334Y-23297761D01*
X-71502715Y-23250142D01*
X-71455096Y-23154904D01*
X-71455096Y-23059666D01*
X-71502715Y-22964428D01*
X-71550334Y-22916809D01*
X-71645572Y-22869190D01*
X-71836048Y-22821571D01*
X-71931286Y-22773952D01*
X-71978905Y-22726333D01*
X-72026524Y-22631095D01*
X-72026524Y-22535857D01*
X-71978905Y-22440619D01*
X-71931286Y-22393000D01*
X-71836048Y-22345380D01*
X-71597953Y-22345380D01*
X-71455096Y-22393000D01*
X-71121762Y-22345380D02*
X-70883667Y-23345380D01*
X-70693191Y-22631095D01*
X-70502715Y-23345380D01*
X-70264620Y-22345380D01*
X-69359858Y-23345380D02*
X-69931286Y-23345380D01*
X-69645572Y-23345380D02*
X-69645572Y-22345380D01*
X-69740810Y-22488238D01*
X-69836048Y-22583476D01*
X-69931286Y-22631095D01*
X-68740810Y-22345380D02*
X-68645572Y-22345380D01*
X-68550334Y-22393000D01*
X-68502715Y-22440619D01*
X-68455096Y-22535857D01*
X-68407477Y-22726333D01*
X-68407477Y-22964428D01*
X-68455096Y-23154904D01*
X-68502715Y-23250142D01*
X-68550334Y-23297761D01*
X-68645572Y-23345380D01*
X-68740810Y-23345380D01*
X-68836048Y-23297761D01*
X-68883667Y-23250142D01*
X-68931286Y-23154904D01*
X-68978905Y-22964428D01*
X-68978905Y-22726333D01*
X-68931286Y-22535857D01*
X-68883667Y-22440619D01*
X-68836048Y-22393000D01*
X-68740810Y-22345380D01*
%TO.C,SW11*%
X-54017524Y-25632461D02*
X-53874667Y-25680080D01*
X-53636572Y-25680080D01*
X-53541334Y-25632461D01*
X-53493715Y-25584842D01*
X-53446096Y-25489604D01*
X-53446096Y-25394366D01*
X-53493715Y-25299128D01*
X-53541334Y-25251509D01*
X-53636572Y-25203890D01*
X-53827048Y-25156271D01*
X-53922286Y-25108652D01*
X-53969905Y-25061033D01*
X-54017524Y-24965795D01*
X-54017524Y-24870557D01*
X-53969905Y-24775319D01*
X-53922286Y-24727700D01*
X-53827048Y-24680080D01*
X-53588953Y-24680080D01*
X-53446096Y-24727700D01*
X-53112762Y-24680080D02*
X-52874667Y-25680080D01*
X-52684191Y-24965795D01*
X-52493715Y-25680080D01*
X-52255620Y-24680080D01*
X-51350858Y-25680080D02*
X-51922286Y-25680080D01*
X-51636572Y-25680080D02*
X-51636572Y-24680080D01*
X-51731810Y-24822938D01*
X-51827048Y-24918176D01*
X-51922286Y-24965795D01*
X-50398477Y-25680080D02*
X-50969905Y-25680080D01*
X-50684191Y-25680080D02*
X-50684191Y-24680080D01*
X-50779429Y-24822938D01*
X-50874667Y-24918176D01*
X-50969905Y-24965795D01*
%TO.C,SW12*%
X-36004524Y-28059761D02*
X-35861667Y-28107380D01*
X-35623572Y-28107380D01*
X-35528334Y-28059761D01*
X-35480715Y-28012142D01*
X-35433096Y-27916904D01*
X-35433096Y-27821666D01*
X-35480715Y-27726428D01*
X-35528334Y-27678809D01*
X-35623572Y-27631190D01*
X-35814048Y-27583571D01*
X-35909286Y-27535952D01*
X-35956905Y-27488333D01*
X-36004524Y-27393095D01*
X-36004524Y-27297857D01*
X-35956905Y-27202619D01*
X-35909286Y-27155000D01*
X-35814048Y-27107380D01*
X-35575953Y-27107380D01*
X-35433096Y-27155000D01*
X-35099762Y-27107380D02*
X-34861667Y-28107380D01*
X-34671191Y-27393095D01*
X-34480715Y-28107380D01*
X-34242620Y-27107380D01*
X-33337858Y-28107380D02*
X-33909286Y-28107380D01*
X-33623572Y-28107380D02*
X-33623572Y-27107380D01*
X-33718810Y-27250238D01*
X-33814048Y-27345476D01*
X-33909286Y-27393095D01*
X-32956905Y-27202619D02*
X-32909286Y-27155000D01*
X-32814048Y-27107380D01*
X-32575953Y-27107380D01*
X-32480715Y-27155000D01*
X-32433096Y-27202619D01*
X-32385477Y-27297857D01*
X-32385477Y-27393095D01*
X-32433096Y-27535952D01*
X-33004524Y-28107380D01*
X-32385477Y-28107380D01*
%TO.C,SW13*%
X-126051724Y-47492761D02*
X-125908867Y-47540380D01*
X-125670772Y-47540380D01*
X-125575534Y-47492761D01*
X-125527915Y-47445142D01*
X-125480296Y-47349904D01*
X-125480296Y-47254666D01*
X-125527915Y-47159428D01*
X-125575534Y-47111809D01*
X-125670772Y-47064190D01*
X-125861248Y-47016571D01*
X-125956486Y-46968952D01*
X-126004105Y-46921333D01*
X-126051724Y-46826095D01*
X-126051724Y-46730857D01*
X-126004105Y-46635619D01*
X-125956486Y-46588000D01*
X-125861248Y-46540380D01*
X-125623153Y-46540380D01*
X-125480296Y-46588000D01*
X-125146962Y-46540380D02*
X-124908867Y-47540380D01*
X-124718391Y-46826095D01*
X-124527915Y-47540380D01*
X-124289820Y-46540380D01*
X-123385058Y-47540380D02*
X-123956486Y-47540380D01*
X-123670772Y-47540380D02*
X-123670772Y-46540380D01*
X-123766010Y-46683238D01*
X-123861248Y-46778476D01*
X-123956486Y-46826095D01*
X-123051724Y-46540380D02*
X-122432677Y-46540380D01*
X-122766010Y-46921333D01*
X-122623153Y-46921333D01*
X-122527915Y-46968952D01*
X-122480296Y-47016571D01*
X-122432677Y-47111809D01*
X-122432677Y-47349904D01*
X-122480296Y-47445142D01*
X-122527915Y-47492761D01*
X-122623153Y-47540380D01*
X-122908867Y-47540380D01*
X-123004105Y-47492761D01*
X-123051724Y-47445142D01*
%TO.C,SW14*%
X-108057624Y-47480761D02*
X-107914767Y-47528380D01*
X-107676672Y-47528380D01*
X-107581434Y-47480761D01*
X-107533815Y-47433142D01*
X-107486196Y-47337904D01*
X-107486196Y-47242666D01*
X-107533815Y-47147428D01*
X-107581434Y-47099809D01*
X-107676672Y-47052190D01*
X-107867148Y-47004571D01*
X-107962386Y-46956952D01*
X-108010005Y-46909333D01*
X-108057624Y-46814095D01*
X-108057624Y-46718857D01*
X-108010005Y-46623619D01*
X-107962386Y-46576000D01*
X-107867148Y-46528380D01*
X-107629053Y-46528380D01*
X-107486196Y-46576000D01*
X-107152862Y-46528380D02*
X-106914767Y-47528380D01*
X-106724291Y-46814095D01*
X-106533815Y-47528380D01*
X-106295720Y-46528380D01*
X-105390958Y-47528380D02*
X-105962386Y-47528380D01*
X-105676672Y-47528380D02*
X-105676672Y-46528380D01*
X-105771910Y-46671238D01*
X-105867148Y-46766476D01*
X-105962386Y-46814095D01*
X-104533815Y-46861714D02*
X-104533815Y-47528380D01*
X-104771910Y-46480761D02*
X-105010005Y-47195047D01*
X-104390958Y-47195047D01*
%TO.C,SW15*%
X-90040524Y-42707761D02*
X-89897667Y-42755380D01*
X-89659572Y-42755380D01*
X-89564334Y-42707761D01*
X-89516715Y-42660142D01*
X-89469096Y-42564904D01*
X-89469096Y-42469666D01*
X-89516715Y-42374428D01*
X-89564334Y-42326809D01*
X-89659572Y-42279190D01*
X-89850048Y-42231571D01*
X-89945286Y-42183952D01*
X-89992905Y-42136333D01*
X-90040524Y-42041095D01*
X-90040524Y-41945857D01*
X-89992905Y-41850619D01*
X-89945286Y-41803000D01*
X-89850048Y-41755380D01*
X-89611953Y-41755380D01*
X-89469096Y-41803000D01*
X-89135762Y-41755380D02*
X-88897667Y-42755380D01*
X-88707191Y-42041095D01*
X-88516715Y-42755380D01*
X-88278620Y-41755380D01*
X-87373858Y-42755380D02*
X-87945286Y-42755380D01*
X-87659572Y-42755380D02*
X-87659572Y-41755380D01*
X-87754810Y-41898238D01*
X-87850048Y-41993476D01*
X-87945286Y-42041095D01*
X-86469096Y-41755380D02*
X-86945286Y-41755380D01*
X-86992905Y-42231571D01*
X-86945286Y-42183952D01*
X-86850048Y-42136333D01*
X-86611953Y-42136333D01*
X-86516715Y-42183952D01*
X-86469096Y-42231571D01*
X-86421477Y-42326809D01*
X-86421477Y-42564904D01*
X-86469096Y-42660142D01*
X-86516715Y-42707761D01*
X-86611953Y-42755380D01*
X-86850048Y-42755380D01*
X-86945286Y-42707761D01*
X-86992905Y-42660142D01*
%TO.C,SW16*%
X-72037524Y-40286761D02*
X-71894667Y-40334380D01*
X-71656572Y-40334380D01*
X-71561334Y-40286761D01*
X-71513715Y-40239142D01*
X-71466096Y-40143904D01*
X-71466096Y-40048666D01*
X-71513715Y-39953428D01*
X-71561334Y-39905809D01*
X-71656572Y-39858190D01*
X-71847048Y-39810571D01*
X-71942286Y-39762952D01*
X-71989905Y-39715333D01*
X-72037524Y-39620095D01*
X-72037524Y-39524857D01*
X-71989905Y-39429619D01*
X-71942286Y-39382000D01*
X-71847048Y-39334380D01*
X-71608953Y-39334380D01*
X-71466096Y-39382000D01*
X-71132762Y-39334380D02*
X-70894667Y-40334380D01*
X-70704191Y-39620095D01*
X-70513715Y-40334380D01*
X-70275620Y-39334380D01*
X-69370858Y-40334380D02*
X-69942286Y-40334380D01*
X-69656572Y-40334380D02*
X-69656572Y-39334380D01*
X-69751810Y-39477238D01*
X-69847048Y-39572476D01*
X-69942286Y-39620095D01*
X-68513715Y-39334380D02*
X-68704191Y-39334380D01*
X-68799429Y-39382000D01*
X-68847048Y-39429619D01*
X-68942286Y-39572476D01*
X-68989905Y-39762952D01*
X-68989905Y-40143904D01*
X-68942286Y-40239142D01*
X-68894667Y-40286761D01*
X-68799429Y-40334380D01*
X-68608953Y-40334380D01*
X-68513715Y-40286761D01*
X-68466096Y-40239142D01*
X-68418477Y-40143904D01*
X-68418477Y-39905809D01*
X-68466096Y-39810571D01*
X-68513715Y-39762952D01*
X-68608953Y-39715333D01*
X-68799429Y-39715333D01*
X-68894667Y-39762952D01*
X-68942286Y-39810571D01*
X-68989905Y-39905809D01*
%TO.C,SW17*%
X-54017524Y-42623761D02*
X-53874667Y-42671380D01*
X-53636572Y-42671380D01*
X-53541334Y-42623761D01*
X-53493715Y-42576142D01*
X-53446096Y-42480904D01*
X-53446096Y-42385666D01*
X-53493715Y-42290428D01*
X-53541334Y-42242809D01*
X-53636572Y-42195190D01*
X-53827048Y-42147571D01*
X-53922286Y-42099952D01*
X-53969905Y-42052333D01*
X-54017524Y-41957095D01*
X-54017524Y-41861857D01*
X-53969905Y-41766619D01*
X-53922286Y-41719000D01*
X-53827048Y-41671380D01*
X-53588953Y-41671380D01*
X-53446096Y-41719000D01*
X-53112762Y-41671380D02*
X-52874667Y-42671380D01*
X-52684191Y-41957095D01*
X-52493715Y-42671380D01*
X-52255620Y-41671380D01*
X-51350858Y-42671380D02*
X-51922286Y-42671380D01*
X-51636572Y-42671380D02*
X-51636572Y-41671380D01*
X-51731810Y-41814238D01*
X-51827048Y-41909476D01*
X-51922286Y-41957095D01*
X-51017524Y-41671380D02*
X-50350858Y-41671380D01*
X-50779429Y-42671380D01*
%TO.C,SW19*%
X-59069524Y-63459761D02*
X-58926667Y-63507380D01*
X-58688572Y-63507380D01*
X-58593334Y-63459761D01*
X-58545715Y-63412142D01*
X-58498096Y-63316904D01*
X-58498096Y-63221666D01*
X-58545715Y-63126428D01*
X-58593334Y-63078809D01*
X-58688572Y-63031190D01*
X-58879048Y-62983571D01*
X-58974286Y-62935952D01*
X-59021905Y-62888333D01*
X-59069524Y-62793095D01*
X-59069524Y-62697857D01*
X-59021905Y-62602619D01*
X-58974286Y-62555000D01*
X-58879048Y-62507380D01*
X-58640953Y-62507380D01*
X-58498096Y-62555000D01*
X-58164762Y-62507380D02*
X-57926667Y-63507380D01*
X-57736191Y-62793095D01*
X-57545715Y-63507380D01*
X-57307620Y-62507380D01*
X-56402858Y-63507380D02*
X-56974286Y-63507380D01*
X-56688572Y-63507380D02*
X-56688572Y-62507380D01*
X-56783810Y-62650238D01*
X-56879048Y-62745476D01*
X-56974286Y-62793095D01*
X-55926667Y-63507380D02*
X-55736191Y-63507380D01*
X-55640953Y-63459761D01*
X-55593334Y-63412142D01*
X-55498096Y-63269285D01*
X-55450477Y-63078809D01*
X-55450477Y-62697857D01*
X-55498096Y-62602619D01*
X-55545715Y-62555000D01*
X-55640953Y-62507380D01*
X-55831429Y-62507380D01*
X-55926667Y-62555000D01*
X-55974286Y-62602619D01*
X-56021905Y-62697857D01*
X-56021905Y-62935952D01*
X-55974286Y-63031190D01*
X-55926667Y-63078809D01*
X-55831429Y-63126428D01*
X-55640953Y-63126428D01*
X-55545715Y-63078809D01*
X-55498096Y-63031190D01*
X-55450477Y-62935952D01*
%TO.C,SW20*%
X-34569966Y-64630007D02*
X-34695630Y-64547036D01*
X-34925613Y-64485413D01*
X-35029930Y-64506760D01*
X-35088251Y-64540431D01*
X-35158897Y-64620100D01*
X-35183547Y-64712092D01*
X-35162200Y-64816410D01*
X-35128528Y-64874731D01*
X-35048860Y-64945377D01*
X-34877199Y-65040673D01*
X-34797530Y-65111318D01*
X-34763859Y-65169640D01*
X-34742512Y-65273957D01*
X-34767161Y-65365950D01*
X-34837807Y-65445618D01*
X-34896128Y-65479290D01*
X-35000446Y-65500637D01*
X-35230428Y-65439014D01*
X-35356093Y-65356043D01*
X-35690393Y-65315766D02*
X-35661556Y-64288217D01*
X-36030413Y-64928865D01*
X-36029528Y-64189619D01*
X-36518329Y-65093922D01*
X-36815655Y-64915656D02*
X-36873976Y-64949327D01*
X-36978294Y-64970674D01*
X-37208276Y-64909051D01*
X-37287945Y-64838405D01*
X-37321616Y-64780084D01*
X-37342963Y-64675766D01*
X-37318314Y-64583773D01*
X-37235343Y-64458108D01*
X-36535489Y-64054047D01*
X-37133443Y-63893826D01*
X-37990216Y-64699531D02*
X-38082209Y-64674881D01*
X-38161877Y-64604235D01*
X-38195549Y-64545914D01*
X-38216896Y-64441597D01*
X-38213594Y-64245286D01*
X-38151970Y-64015304D01*
X-38056675Y-63843642D01*
X-37986029Y-63763974D01*
X-37927708Y-63730302D01*
X-37823390Y-63708955D01*
X-37731397Y-63733605D01*
X-37651729Y-63804251D01*
X-37618057Y-63862572D01*
X-37596710Y-63966890D01*
X-37600013Y-64163200D01*
X-37661636Y-64393183D01*
X-37756932Y-64564844D01*
X-37827577Y-64644512D01*
X-37885899Y-64678184D01*
X-37990216Y-64699531D01*
%TO.C,SW21*%
X-10941950Y-75271457D02*
X-10829282Y-75171549D01*
X-10710235Y-74965352D01*
X-10703855Y-74859064D01*
X-10721285Y-74794015D01*
X-10779954Y-74705157D01*
X-10862433Y-74657538D01*
X-10968721Y-74651158D01*
X-11033770Y-74668588D01*
X-11122628Y-74727257D01*
X-11259105Y-74868405D01*
X-11347964Y-74927074D01*
X-11413012Y-74944503D01*
X-11519301Y-74938124D01*
X-11601779Y-74890505D01*
X-11660448Y-74801646D01*
X-11677878Y-74736597D01*
X-11671498Y-74630309D01*
X-11552451Y-74424113D01*
X-11439783Y-74324204D01*
X-11314355Y-74011720D02*
X-10329282Y-74305523D01*
X-10852634Y-73783423D01*
X-10138806Y-73975609D01*
X-10885784Y-73269412D01*
X-10636639Y-73028356D02*
X-10654069Y-72963307D01*
X-10647689Y-72857019D01*
X-10528641Y-72650823D01*
X-10439783Y-72592154D01*
X-10374734Y-72574724D01*
X-10268446Y-72581104D01*
X-10185967Y-72628723D01*
X-10086059Y-72741391D01*
X-9876901Y-73521976D01*
X-9567378Y-72985865D01*
X-9091187Y-72161079D02*
X-9376901Y-72655951D01*
X-9234044Y-72408515D02*
X-10100070Y-71908515D01*
X-10023971Y-72062422D01*
X-9989111Y-72192520D01*
X-9995491Y-72298808D01*
%TO.C,SW18*%
X-35997524Y-45049761D02*
X-35854667Y-45097380D01*
X-35616572Y-45097380D01*
X-35521334Y-45049761D01*
X-35473715Y-45002142D01*
X-35426096Y-44906904D01*
X-35426096Y-44811666D01*
X-35473715Y-44716428D01*
X-35521334Y-44668809D01*
X-35616572Y-44621190D01*
X-35807048Y-44573571D01*
X-35902286Y-44525952D01*
X-35949905Y-44478333D01*
X-35997524Y-44383095D01*
X-35997524Y-44287857D01*
X-35949905Y-44192619D01*
X-35902286Y-44145000D01*
X-35807048Y-44097380D01*
X-35568953Y-44097380D01*
X-35426096Y-44145000D01*
X-35092762Y-44097380D02*
X-34854667Y-45097380D01*
X-34664191Y-44383095D01*
X-34473715Y-45097380D01*
X-34235620Y-44097380D01*
X-33330858Y-45097380D02*
X-33902286Y-45097380D01*
X-33616572Y-45097380D02*
X-33616572Y-44097380D01*
X-33711810Y-44240238D01*
X-33807048Y-44335476D01*
X-33902286Y-44383095D01*
X-32759429Y-44525952D02*
X-32854667Y-44478333D01*
X-32902286Y-44430714D01*
X-32949905Y-44335476D01*
X-32949905Y-44287857D01*
X-32902286Y-44192619D01*
X-32854667Y-44145000D01*
X-32759429Y-44097380D01*
X-32568953Y-44097380D01*
X-32473715Y-44145000D01*
X-32426096Y-44192619D01*
X-32378477Y-44287857D01*
X-32378477Y-44335476D01*
X-32426096Y-44430714D01*
X-32473715Y-44478333D01*
X-32568953Y-44525952D01*
X-32759429Y-44525952D01*
X-32854667Y-44573571D01*
X-32902286Y-44621190D01*
X-32949905Y-44716428D01*
X-32949905Y-44906904D01*
X-32902286Y-45002142D01*
X-32854667Y-45049761D01*
X-32759429Y-45097380D01*
X-32568953Y-45097380D01*
X-32473715Y-45049761D01*
X-32426096Y-45002142D01*
X-32378477Y-44906904D01*
X-32378477Y-44716428D01*
X-32426096Y-44621190D01*
X-32473715Y-44573571D01*
X-32568953Y-44525952D01*
%TO.C,JP29*%
X-3084020Y-54359523D02*
X-2369734Y-54359523D01*
X-2226877Y-54407142D01*
X-2131639Y-54502380D01*
X-2084020Y-54645238D01*
X-2084020Y-54740476D01*
X-2084020Y-53883333D02*
X-3084020Y-53883333D01*
X-3084020Y-53502380D01*
X-3036400Y-53407142D01*
X-2988781Y-53359523D01*
X-2893543Y-53311904D01*
X-2750686Y-53311904D01*
X-2655448Y-53359523D01*
X-2607829Y-53407142D01*
X-2560210Y-53502380D01*
X-2560210Y-53883333D01*
X-2988781Y-52930952D02*
X-3036400Y-52883333D01*
X-3084020Y-52788095D01*
X-3084020Y-52550000D01*
X-3036400Y-52454761D01*
X-2988781Y-52407142D01*
X-2893543Y-52359523D01*
X-2798305Y-52359523D01*
X-2655448Y-52407142D01*
X-2084020Y-52978571D01*
X-2084020Y-52359523D01*
X-2084020Y-51883333D02*
X-2084020Y-51692857D01*
X-2131639Y-51597619D01*
X-2179258Y-51550000D01*
X-2322115Y-51454761D01*
X-2512591Y-51407142D01*
X-2893543Y-51407142D01*
X-2988781Y-51454761D01*
X-3036400Y-51502380D01*
X-3084020Y-51597619D01*
X-3084020Y-51788095D01*
X-3036400Y-51883333D01*
X-2988781Y-51930952D01*
X-2893543Y-51978571D01*
X-2655448Y-51978571D01*
X-2560210Y-51930952D01*
X-2512591Y-51883333D01*
X-2464972Y-51788095D01*
X-2464972Y-51597619D01*
X-2512591Y-51502380D01*
X-2560210Y-51454761D01*
X-2655448Y-51407142D01*
%TO.C,JP28*%
X-10794724Y-42059080D02*
X-10794724Y-42773366D01*
X-10842343Y-42916223D01*
X-10937581Y-43011461D01*
X-11080439Y-43059080D01*
X-11175677Y-43059080D01*
X-10318534Y-43059080D02*
X-10318534Y-42059080D01*
X-9937581Y-42059080D01*
X-9842343Y-42106700D01*
X-9794724Y-42154319D01*
X-9747105Y-42249557D01*
X-9747105Y-42392414D01*
X-9794724Y-42487652D01*
X-9842343Y-42535271D01*
X-9937581Y-42582890D01*
X-10318534Y-42582890D01*
X-9366153Y-42154319D02*
X-9318534Y-42106700D01*
X-9223296Y-42059080D01*
X-8985200Y-42059080D01*
X-8889962Y-42106700D01*
X-8842343Y-42154319D01*
X-8794724Y-42249557D01*
X-8794724Y-42344795D01*
X-8842343Y-42487652D01*
X-9413772Y-43059080D01*
X-8794724Y-43059080D01*
X-8223296Y-42487652D02*
X-8318534Y-42440033D01*
X-8366153Y-42392414D01*
X-8413772Y-42297176D01*
X-8413772Y-42249557D01*
X-8366153Y-42154319D01*
X-8318534Y-42106700D01*
X-8223296Y-42059080D01*
X-8032820Y-42059080D01*
X-7937581Y-42106700D01*
X-7889962Y-42154319D01*
X-7842343Y-42249557D01*
X-7842343Y-42297176D01*
X-7889962Y-42392414D01*
X-7937581Y-42440033D01*
X-8032820Y-42487652D01*
X-8223296Y-42487652D01*
X-8318534Y-42535271D01*
X-8366153Y-42582890D01*
X-8413772Y-42678128D01*
X-8413772Y-42868604D01*
X-8366153Y-42963842D01*
X-8318534Y-43011461D01*
X-8223296Y-43059080D01*
X-8032820Y-43059080D01*
X-7937581Y-43011461D01*
X-7889962Y-42963842D01*
X-7842343Y-42868604D01*
X-7842343Y-42678128D01*
X-7889962Y-42582890D01*
X-7937581Y-42535271D01*
X-8032820Y-42487652D01*
%TO.C,JP33*%
X-4241424Y-31054080D02*
X-4241424Y-31768366D01*
X-4289043Y-31911223D01*
X-4384281Y-32006461D01*
X-4527139Y-32054080D01*
X-4622377Y-32054080D01*
X-3765234Y-32054080D02*
X-3765234Y-31054080D01*
X-3384281Y-31054080D01*
X-3289043Y-31101700D01*
X-3241424Y-31149319D01*
X-3193805Y-31244557D01*
X-3193805Y-31387414D01*
X-3241424Y-31482652D01*
X-3289043Y-31530271D01*
X-3384281Y-31577890D01*
X-3765234Y-31577890D01*
X-2860472Y-31054080D02*
X-2241424Y-31054080D01*
X-2574758Y-31435033D01*
X-2431900Y-31435033D01*
X-2336662Y-31482652D01*
X-2289043Y-31530271D01*
X-2241424Y-31625509D01*
X-2241424Y-31863604D01*
X-2289043Y-31958842D01*
X-2336662Y-32006461D01*
X-2431900Y-32054080D01*
X-2717615Y-32054080D01*
X-2812853Y-32006461D01*
X-2860472Y-31958842D01*
X-1908091Y-31054080D02*
X-1289043Y-31054080D01*
X-1622377Y-31435033D01*
X-1479520Y-31435033D01*
X-1384281Y-31482652D01*
X-1336662Y-31530271D01*
X-1289043Y-31625509D01*
X-1289043Y-31863604D01*
X-1336662Y-31958842D01*
X-1384281Y-32006461D01*
X-1479520Y-32054080D01*
X-1765234Y-32054080D01*
X-1860472Y-32006461D01*
X-1908091Y-31958842D01*
%TO.C,JP23*%
X-10794724Y-23717380D02*
X-10794724Y-24431666D01*
X-10842343Y-24574523D01*
X-10937581Y-24669761D01*
X-11080439Y-24717380D01*
X-11175677Y-24717380D01*
X-10318534Y-24717380D02*
X-10318534Y-23717380D01*
X-9937581Y-23717380D01*
X-9842343Y-23765000D01*
X-9794724Y-23812619D01*
X-9747105Y-23907857D01*
X-9747105Y-24050714D01*
X-9794724Y-24145952D01*
X-9842343Y-24193571D01*
X-9937581Y-24241190D01*
X-10318534Y-24241190D01*
X-9366153Y-23812619D02*
X-9318534Y-23765000D01*
X-9223296Y-23717380D01*
X-8985200Y-23717380D01*
X-8889962Y-23765000D01*
X-8842343Y-23812619D01*
X-8794724Y-23907857D01*
X-8794724Y-24003095D01*
X-8842343Y-24145952D01*
X-9413772Y-24717380D01*
X-8794724Y-24717380D01*
X-8461391Y-23717380D02*
X-7842343Y-23717380D01*
X-8175677Y-24098333D01*
X-8032820Y-24098333D01*
X-7937581Y-24145952D01*
X-7889962Y-24193571D01*
X-7842343Y-24288809D01*
X-7842343Y-24526904D01*
X-7889962Y-24622142D01*
X-7937581Y-24669761D01*
X-8032820Y-24717380D01*
X-8318534Y-24717380D01*
X-8413772Y-24669761D01*
X-8461391Y-24622142D01*
%TO.C,JP31*%
X-4241424Y-23717380D02*
X-4241424Y-24431666D01*
X-4289043Y-24574523D01*
X-4384281Y-24669761D01*
X-4527139Y-24717380D01*
X-4622377Y-24717380D01*
X-3765234Y-24717380D02*
X-3765234Y-23717380D01*
X-3384281Y-23717380D01*
X-3289043Y-23765000D01*
X-3241424Y-23812619D01*
X-3193805Y-23907857D01*
X-3193805Y-24050714D01*
X-3241424Y-24145952D01*
X-3289043Y-24193571D01*
X-3384281Y-24241190D01*
X-3765234Y-24241190D01*
X-2860472Y-23717380D02*
X-2241424Y-23717380D01*
X-2574758Y-24098333D01*
X-2431900Y-24098333D01*
X-2336662Y-24145952D01*
X-2289043Y-24193571D01*
X-2241424Y-24288809D01*
X-2241424Y-24526904D01*
X-2289043Y-24622142D01*
X-2336662Y-24669761D01*
X-2431900Y-24717380D01*
X-2717615Y-24717380D01*
X-2812853Y-24669761D01*
X-2860472Y-24622142D01*
X-1289043Y-24717380D02*
X-1860472Y-24717380D01*
X-1574758Y-24717380D02*
X-1574758Y-23717380D01*
X-1669996Y-23860238D01*
X-1765234Y-23955476D01*
X-1860472Y-24003095D01*
%TO.C,JP27*%
X-10794724Y-38390680D02*
X-10794724Y-39104966D01*
X-10842343Y-39247823D01*
X-10937581Y-39343061D01*
X-11080439Y-39390680D01*
X-11175677Y-39390680D01*
X-10318534Y-39390680D02*
X-10318534Y-38390680D01*
X-9937581Y-38390680D01*
X-9842343Y-38438300D01*
X-9794724Y-38485919D01*
X-9747105Y-38581157D01*
X-9747105Y-38724014D01*
X-9794724Y-38819252D01*
X-9842343Y-38866871D01*
X-9937581Y-38914490D01*
X-10318534Y-38914490D01*
X-9366153Y-38485919D02*
X-9318534Y-38438300D01*
X-9223296Y-38390680D01*
X-8985200Y-38390680D01*
X-8889962Y-38438300D01*
X-8842343Y-38485919D01*
X-8794724Y-38581157D01*
X-8794724Y-38676395D01*
X-8842343Y-38819252D01*
X-9413772Y-39390680D01*
X-8794724Y-39390680D01*
X-8461391Y-38390680D02*
X-7794724Y-38390680D01*
X-8223296Y-39390680D01*
%TO.C,JP24*%
X-10794724Y-27385680D02*
X-10794724Y-28099966D01*
X-10842343Y-28242823D01*
X-10937581Y-28338061D01*
X-11080439Y-28385680D01*
X-11175677Y-28385680D01*
X-10318534Y-28385680D02*
X-10318534Y-27385680D01*
X-9937581Y-27385680D01*
X-9842343Y-27433300D01*
X-9794724Y-27480919D01*
X-9747105Y-27576157D01*
X-9747105Y-27719014D01*
X-9794724Y-27814252D01*
X-9842343Y-27861871D01*
X-9937581Y-27909490D01*
X-10318534Y-27909490D01*
X-9366153Y-27480919D02*
X-9318534Y-27433300D01*
X-9223296Y-27385680D01*
X-8985200Y-27385680D01*
X-8889962Y-27433300D01*
X-8842343Y-27480919D01*
X-8794724Y-27576157D01*
X-8794724Y-27671395D01*
X-8842343Y-27814252D01*
X-9413772Y-28385680D01*
X-8794724Y-28385680D01*
X-7937581Y-27719014D02*
X-7937581Y-28385680D01*
X-8175677Y-27338061D02*
X-8413772Y-28052347D01*
X-7794724Y-28052347D01*
%TO.C,J9*%
X-18558334Y-60232380D02*
X-18558334Y-60946666D01*
X-18605953Y-61089523D01*
X-18701191Y-61184761D01*
X-18844048Y-61232380D01*
X-18939286Y-61232380D01*
X-18034524Y-61232380D02*
X-17844048Y-61232380D01*
X-17748810Y-61184761D01*
X-17701191Y-61137142D01*
X-17605953Y-60994285D01*
X-17558334Y-60803809D01*
X-17558334Y-60422857D01*
X-17605953Y-60327619D01*
X-17653572Y-60280000D01*
X-17748810Y-60232380D01*
X-17939286Y-60232380D01*
X-18034524Y-60280000D01*
X-18082143Y-60327619D01*
X-18129762Y-60422857D01*
X-18129762Y-60660952D01*
X-18082143Y-60756190D01*
X-18034524Y-60803809D01*
X-17939286Y-60851428D01*
X-17748810Y-60851428D01*
X-17653572Y-60803809D01*
X-17605953Y-60756190D01*
X-17558334Y-60660952D01*
%TO.C,JP22*%
X-10794724Y-20049080D02*
X-10794724Y-20763366D01*
X-10842343Y-20906223D01*
X-10937581Y-21001461D01*
X-11080439Y-21049080D01*
X-11175677Y-21049080D01*
X-10318534Y-21049080D02*
X-10318534Y-20049080D01*
X-9937581Y-20049080D01*
X-9842343Y-20096700D01*
X-9794724Y-20144319D01*
X-9747105Y-20239557D01*
X-9747105Y-20382414D01*
X-9794724Y-20477652D01*
X-9842343Y-20525271D01*
X-9937581Y-20572890D01*
X-10318534Y-20572890D01*
X-9366153Y-20144319D02*
X-9318534Y-20096700D01*
X-9223296Y-20049080D01*
X-8985200Y-20049080D01*
X-8889962Y-20096700D01*
X-8842343Y-20144319D01*
X-8794724Y-20239557D01*
X-8794724Y-20334795D01*
X-8842343Y-20477652D01*
X-9413772Y-21049080D01*
X-8794724Y-21049080D01*
X-8413772Y-20144319D02*
X-8366153Y-20096700D01*
X-8270915Y-20049080D01*
X-8032820Y-20049080D01*
X-7937581Y-20096700D01*
X-7889962Y-20144319D01*
X-7842343Y-20239557D01*
X-7842343Y-20334795D01*
X-7889962Y-20477652D01*
X-8461391Y-21049080D01*
X-7842343Y-21049080D01*
%TO.C,SW23*%
X2704761Y-34899523D02*
X2752380Y-34756666D01*
X2752380Y-34518571D01*
X2704761Y-34423333D01*
X2657142Y-34375714D01*
X2561904Y-34328095D01*
X2466666Y-34328095D01*
X2371428Y-34375714D01*
X2323809Y-34423333D01*
X2276190Y-34518571D01*
X2228571Y-34709047D01*
X2180952Y-34804285D01*
X2133333Y-34851904D01*
X2038095Y-34899523D01*
X1942857Y-34899523D01*
X1847619Y-34851904D01*
X1800000Y-34804285D01*
X1752380Y-34709047D01*
X1752380Y-34470952D01*
X1800000Y-34328095D01*
X1752380Y-33994761D02*
X2752380Y-33756666D01*
X2038095Y-33566190D01*
X2752380Y-33375714D01*
X1752380Y-33137619D01*
X1847619Y-32804285D02*
X1800000Y-32756666D01*
X1752380Y-32661428D01*
X1752380Y-32423333D01*
X1800000Y-32328095D01*
X1847619Y-32280476D01*
X1942857Y-32232857D01*
X2038095Y-32232857D01*
X2180952Y-32280476D01*
X2752380Y-32851904D01*
X2752380Y-32232857D01*
X1752380Y-31899523D02*
X1752380Y-31280476D01*
X2133333Y-31613809D01*
X2133333Y-31470952D01*
X2180952Y-31375714D01*
X2228571Y-31328095D01*
X2323809Y-31280476D01*
X2561904Y-31280476D01*
X2657142Y-31328095D01*
X2704761Y-31375714D01*
X2752380Y-31470952D01*
X2752380Y-31756666D01*
X2704761Y-31851904D01*
X2657142Y-31899523D01*
%TO.C,JP20*%
X-6770720Y-54359523D02*
X-6056434Y-54359523D01*
X-5913577Y-54407142D01*
X-5818339Y-54502380D01*
X-5770720Y-54645238D01*
X-5770720Y-54740476D01*
X-5770720Y-53883333D02*
X-6770720Y-53883333D01*
X-6770720Y-53502380D01*
X-6723100Y-53407142D01*
X-6675481Y-53359523D01*
X-6580243Y-53311904D01*
X-6437386Y-53311904D01*
X-6342148Y-53359523D01*
X-6294529Y-53407142D01*
X-6246910Y-53502380D01*
X-6246910Y-53883333D01*
X-6675481Y-52930952D02*
X-6723100Y-52883333D01*
X-6770720Y-52788095D01*
X-6770720Y-52550000D01*
X-6723100Y-52454761D01*
X-6675481Y-52407142D01*
X-6580243Y-52359523D01*
X-6485005Y-52359523D01*
X-6342148Y-52407142D01*
X-5770720Y-52978571D01*
X-5770720Y-52359523D01*
X-6770720Y-51740476D02*
X-6770720Y-51645238D01*
X-6723100Y-51550000D01*
X-6675481Y-51502380D01*
X-6580243Y-51454761D01*
X-6389767Y-51407142D01*
X-6151672Y-51407142D01*
X-5961196Y-51454761D01*
X-5865958Y-51502380D01*
X-5818339Y-51550000D01*
X-5770720Y-51645238D01*
X-5770720Y-51740476D01*
X-5818339Y-51835714D01*
X-5865958Y-51883333D01*
X-5961196Y-51930952D01*
X-6151672Y-51978571D01*
X-6389767Y-51978571D01*
X-6580243Y-51930952D01*
X-6675481Y-51883333D01*
X-6723100Y-51835714D01*
X-6770720Y-51740476D01*
%TO.C,JP34*%
X-4241424Y-34722380D02*
X-4241424Y-35436666D01*
X-4289043Y-35579523D01*
X-4384281Y-35674761D01*
X-4527139Y-35722380D01*
X-4622377Y-35722380D01*
X-3765234Y-35722380D02*
X-3765234Y-34722380D01*
X-3384281Y-34722380D01*
X-3289043Y-34770000D01*
X-3241424Y-34817619D01*
X-3193805Y-34912857D01*
X-3193805Y-35055714D01*
X-3241424Y-35150952D01*
X-3289043Y-35198571D01*
X-3384281Y-35246190D01*
X-3765234Y-35246190D01*
X-2860472Y-34722380D02*
X-2241424Y-34722380D01*
X-2574758Y-35103333D01*
X-2431900Y-35103333D01*
X-2336662Y-35150952D01*
X-2289043Y-35198571D01*
X-2241424Y-35293809D01*
X-2241424Y-35531904D01*
X-2289043Y-35627142D01*
X-2336662Y-35674761D01*
X-2431900Y-35722380D01*
X-2717615Y-35722380D01*
X-2812853Y-35674761D01*
X-2860472Y-35627142D01*
X-1384281Y-35055714D02*
X-1384281Y-35722380D01*
X-1622377Y-34674761D02*
X-1860472Y-35389047D01*
X-1241424Y-35389047D01*
%TO.C,JP37*%
X-4241424Y-20049080D02*
X-4241424Y-20763366D01*
X-4289043Y-20906223D01*
X-4384281Y-21001461D01*
X-4527139Y-21049080D01*
X-4622377Y-21049080D01*
X-3765234Y-21049080D02*
X-3765234Y-20049080D01*
X-3384281Y-20049080D01*
X-3289043Y-20096700D01*
X-3241424Y-20144319D01*
X-3193805Y-20239557D01*
X-3193805Y-20382414D01*
X-3241424Y-20477652D01*
X-3289043Y-20525271D01*
X-3384281Y-20572890D01*
X-3765234Y-20572890D01*
X-2860472Y-20049080D02*
X-2241424Y-20049080D01*
X-2574758Y-20430033D01*
X-2431900Y-20430033D01*
X-2336662Y-20477652D01*
X-2289043Y-20525271D01*
X-2241424Y-20620509D01*
X-2241424Y-20858604D01*
X-2289043Y-20953842D01*
X-2336662Y-21001461D01*
X-2431900Y-21049080D01*
X-2717615Y-21049080D01*
X-2812853Y-21001461D01*
X-2860472Y-20953842D01*
X-1908091Y-20049080D02*
X-1241424Y-20049080D01*
X-1669996Y-21049080D01*
%TO.C,JP16*%
X-14144020Y-54359523D02*
X-13429734Y-54359523D01*
X-13286877Y-54407142D01*
X-13191639Y-54502380D01*
X-13144020Y-54645238D01*
X-13144020Y-54740476D01*
X-13144020Y-53883333D02*
X-14144020Y-53883333D01*
X-14144020Y-53502380D01*
X-14096400Y-53407142D01*
X-14048781Y-53359523D01*
X-13953543Y-53311904D01*
X-13810686Y-53311904D01*
X-13715448Y-53359523D01*
X-13667829Y-53407142D01*
X-13620210Y-53502380D01*
X-13620210Y-53883333D01*
X-13144020Y-52359523D02*
X-13144020Y-52930952D01*
X-13144020Y-52645238D02*
X-14144020Y-52645238D01*
X-14001162Y-52740476D01*
X-13905924Y-52835714D01*
X-13858305Y-52930952D01*
X-14144020Y-51502380D02*
X-14144020Y-51692857D01*
X-14096400Y-51788095D01*
X-14048781Y-51835714D01*
X-13905924Y-51930952D01*
X-13715448Y-51978571D01*
X-13334496Y-51978571D01*
X-13239258Y-51930952D01*
X-13191639Y-51883333D01*
X-13144020Y-51788095D01*
X-13144020Y-51597619D01*
X-13191639Y-51502380D01*
X-13239258Y-51454761D01*
X-13334496Y-51407142D01*
X-13572591Y-51407142D01*
X-13667829Y-51454761D01*
X-13715448Y-51502380D01*
X-13763067Y-51597619D01*
X-13763067Y-51788095D01*
X-13715448Y-51883333D01*
X-13667829Y-51930952D01*
X-13572591Y-51978571D01*
%TO.C,JP36*%
X-4241424Y-42059080D02*
X-4241424Y-42773366D01*
X-4289043Y-42916223D01*
X-4384281Y-43011461D01*
X-4527139Y-43059080D01*
X-4622377Y-43059080D01*
X-3765234Y-43059080D02*
X-3765234Y-42059080D01*
X-3384281Y-42059080D01*
X-3289043Y-42106700D01*
X-3241424Y-42154319D01*
X-3193805Y-42249557D01*
X-3193805Y-42392414D01*
X-3241424Y-42487652D01*
X-3289043Y-42535271D01*
X-3384281Y-42582890D01*
X-3765234Y-42582890D01*
X-2860472Y-42059080D02*
X-2241424Y-42059080D01*
X-2574758Y-42440033D01*
X-2431900Y-42440033D01*
X-2336662Y-42487652D01*
X-2289043Y-42535271D01*
X-2241424Y-42630509D01*
X-2241424Y-42868604D01*
X-2289043Y-42963842D01*
X-2336662Y-43011461D01*
X-2431900Y-43059080D01*
X-2717615Y-43059080D01*
X-2812853Y-43011461D01*
X-2860472Y-42963842D01*
X-1384281Y-42059080D02*
X-1574758Y-42059080D01*
X-1669996Y-42106700D01*
X-1717615Y-42154319D01*
X-1812853Y-42297176D01*
X-1860472Y-42487652D01*
X-1860472Y-42868604D01*
X-1812853Y-42963842D01*
X-1765234Y-43011461D01*
X-1669996Y-43059080D01*
X-1479520Y-43059080D01*
X-1384281Y-43011461D01*
X-1336662Y-42963842D01*
X-1289043Y-42868604D01*
X-1289043Y-42630509D01*
X-1336662Y-42535271D01*
X-1384281Y-42487652D01*
X-1479520Y-42440033D01*
X-1669996Y-42440033D01*
X-1765234Y-42487652D01*
X-1812853Y-42535271D01*
X-1860472Y-42630509D01*
%TO.C,J1*%
X547380Y-48333333D02*
X1261666Y-48333333D01*
X1404523Y-48380952D01*
X1499761Y-48476190D01*
X1547380Y-48619047D01*
X1547380Y-48714285D01*
X1547380Y-47333333D02*
X1547380Y-47904761D01*
X1547380Y-47619047D02*
X547380Y-47619047D01*
X690238Y-47714285D01*
X785476Y-47809523D01*
X833095Y-47904761D01*
%TO.C,JP18*%
X-10457420Y-54359523D02*
X-9743134Y-54359523D01*
X-9600277Y-54407142D01*
X-9505039Y-54502380D01*
X-9457420Y-54645238D01*
X-9457420Y-54740476D01*
X-9457420Y-53883333D02*
X-10457420Y-53883333D01*
X-10457420Y-53502380D01*
X-10409800Y-53407142D01*
X-10362181Y-53359523D01*
X-10266943Y-53311904D01*
X-10124086Y-53311904D01*
X-10028848Y-53359523D01*
X-9981229Y-53407142D01*
X-9933610Y-53502380D01*
X-9933610Y-53883333D01*
X-9457420Y-52359523D02*
X-9457420Y-52930952D01*
X-9457420Y-52645238D02*
X-10457420Y-52645238D01*
X-10314562Y-52740476D01*
X-10219324Y-52835714D01*
X-10171705Y-52930952D01*
X-10028848Y-51788095D02*
X-10076467Y-51883333D01*
X-10124086Y-51930952D01*
X-10219324Y-51978571D01*
X-10266943Y-51978571D01*
X-10362181Y-51930952D01*
X-10409800Y-51883333D01*
X-10457420Y-51788095D01*
X-10457420Y-51597619D01*
X-10409800Y-51502380D01*
X-10362181Y-51454761D01*
X-10266943Y-51407142D01*
X-10219324Y-51407142D01*
X-10124086Y-51454761D01*
X-10076467Y-51502380D01*
X-10028848Y-51597619D01*
X-10028848Y-51788095D01*
X-9981229Y-51883333D01*
X-9933610Y-51930952D01*
X-9838372Y-51978571D01*
X-9647896Y-51978571D01*
X-9552658Y-51930952D01*
X-9505039Y-51883333D01*
X-9457420Y-51788095D01*
X-9457420Y-51597619D01*
X-9505039Y-51502380D01*
X-9552658Y-51454761D01*
X-9647896Y-51407142D01*
X-9838372Y-51407142D01*
X-9933610Y-51454761D01*
X-9981229Y-51502380D01*
X-10028848Y-51597619D01*
%TO.C,JP25*%
X-10794724Y-31054080D02*
X-10794724Y-31768366D01*
X-10842343Y-31911223D01*
X-10937581Y-32006461D01*
X-11080439Y-32054080D01*
X-11175677Y-32054080D01*
X-10318534Y-32054080D02*
X-10318534Y-31054080D01*
X-9937581Y-31054080D01*
X-9842343Y-31101700D01*
X-9794724Y-31149319D01*
X-9747105Y-31244557D01*
X-9747105Y-31387414D01*
X-9794724Y-31482652D01*
X-9842343Y-31530271D01*
X-9937581Y-31577890D01*
X-10318534Y-31577890D01*
X-9366153Y-31149319D02*
X-9318534Y-31101700D01*
X-9223296Y-31054080D01*
X-8985200Y-31054080D01*
X-8889962Y-31101700D01*
X-8842343Y-31149319D01*
X-8794724Y-31244557D01*
X-8794724Y-31339795D01*
X-8842343Y-31482652D01*
X-9413772Y-32054080D01*
X-8794724Y-32054080D01*
X-7889962Y-31054080D02*
X-8366153Y-31054080D01*
X-8413772Y-31530271D01*
X-8366153Y-31482652D01*
X-8270915Y-31435033D01*
X-8032820Y-31435033D01*
X-7937581Y-31482652D01*
X-7889962Y-31530271D01*
X-7842343Y-31625509D01*
X-7842343Y-31863604D01*
X-7889962Y-31958842D01*
X-7937581Y-32006461D01*
X-8032820Y-32054080D01*
X-8270915Y-32054080D01*
X-8366153Y-32006461D01*
X-8413772Y-31958842D01*
%TO.C,JP32*%
X-4241424Y-27385680D02*
X-4241424Y-28099966D01*
X-4289043Y-28242823D01*
X-4384281Y-28338061D01*
X-4527139Y-28385680D01*
X-4622377Y-28385680D01*
X-3765234Y-28385680D02*
X-3765234Y-27385680D01*
X-3384281Y-27385680D01*
X-3289043Y-27433300D01*
X-3241424Y-27480919D01*
X-3193805Y-27576157D01*
X-3193805Y-27719014D01*
X-3241424Y-27814252D01*
X-3289043Y-27861871D01*
X-3384281Y-27909490D01*
X-3765234Y-27909490D01*
X-2860472Y-27385680D02*
X-2241424Y-27385680D01*
X-2574758Y-27766633D01*
X-2431900Y-27766633D01*
X-2336662Y-27814252D01*
X-2289043Y-27861871D01*
X-2241424Y-27957109D01*
X-2241424Y-28195204D01*
X-2289043Y-28290442D01*
X-2336662Y-28338061D01*
X-2431900Y-28385680D01*
X-2717615Y-28385680D01*
X-2812853Y-28338061D01*
X-2860472Y-28290442D01*
X-1860472Y-27480919D02*
X-1812853Y-27433300D01*
X-1717615Y-27385680D01*
X-1479520Y-27385680D01*
X-1384281Y-27433300D01*
X-1336662Y-27480919D01*
X-1289043Y-27576157D01*
X-1289043Y-27671395D01*
X-1336662Y-27814252D01*
X-1908091Y-28385680D01*
X-1289043Y-28385680D01*
%TO.C,JP35*%
X-4241424Y-38390680D02*
X-4241424Y-39104966D01*
X-4289043Y-39247823D01*
X-4384281Y-39343061D01*
X-4527139Y-39390680D01*
X-4622377Y-39390680D01*
X-3765234Y-39390680D02*
X-3765234Y-38390680D01*
X-3384281Y-38390680D01*
X-3289043Y-38438300D01*
X-3241424Y-38485919D01*
X-3193805Y-38581157D01*
X-3193805Y-38724014D01*
X-3241424Y-38819252D01*
X-3289043Y-38866871D01*
X-3384281Y-38914490D01*
X-3765234Y-38914490D01*
X-2860472Y-38390680D02*
X-2241424Y-38390680D01*
X-2574758Y-38771633D01*
X-2431900Y-38771633D01*
X-2336662Y-38819252D01*
X-2289043Y-38866871D01*
X-2241424Y-38962109D01*
X-2241424Y-39200204D01*
X-2289043Y-39295442D01*
X-2336662Y-39343061D01*
X-2431900Y-39390680D01*
X-2717615Y-39390680D01*
X-2812853Y-39343061D01*
X-2860472Y-39295442D01*
X-1336662Y-38390680D02*
X-1812853Y-38390680D01*
X-1860472Y-38866871D01*
X-1812853Y-38819252D01*
X-1717615Y-38771633D01*
X-1479520Y-38771633D01*
X-1384281Y-38819252D01*
X-1336662Y-38866871D01*
X-1289043Y-38962109D01*
X-1289043Y-39200204D01*
X-1336662Y-39295442D01*
X-1384281Y-39343061D01*
X-1479520Y-39390680D01*
X-1717615Y-39390680D01*
X-1812853Y-39343061D01*
X-1860472Y-39295442D01*
%TO.C,JP26*%
X-10794724Y-34722380D02*
X-10794724Y-35436666D01*
X-10842343Y-35579523D01*
X-10937581Y-35674761D01*
X-11080439Y-35722380D01*
X-11175677Y-35722380D01*
X-10318534Y-35722380D02*
X-10318534Y-34722380D01*
X-9937581Y-34722380D01*
X-9842343Y-34770000D01*
X-9794724Y-34817619D01*
X-9747105Y-34912857D01*
X-9747105Y-35055714D01*
X-9794724Y-35150952D01*
X-9842343Y-35198571D01*
X-9937581Y-35246190D01*
X-10318534Y-35246190D01*
X-9366153Y-34817619D02*
X-9318534Y-34770000D01*
X-9223296Y-34722380D01*
X-8985200Y-34722380D01*
X-8889962Y-34770000D01*
X-8842343Y-34817619D01*
X-8794724Y-34912857D01*
X-8794724Y-35008095D01*
X-8842343Y-35150952D01*
X-9413772Y-35722380D01*
X-8794724Y-35722380D01*
X-7937581Y-34722380D02*
X-8128058Y-34722380D01*
X-8223296Y-34770000D01*
X-8270915Y-34817619D01*
X-8366153Y-34960476D01*
X-8413772Y-35150952D01*
X-8413772Y-35531904D01*
X-8366153Y-35627142D01*
X-8318534Y-35674761D01*
X-8223296Y-35722380D01*
X-8032820Y-35722380D01*
X-7937581Y-35674761D01*
X-7889962Y-35627142D01*
X-7842343Y-35531904D01*
X-7842343Y-35293809D01*
X-7889962Y-35198571D01*
X-7937581Y-35150952D01*
X-8032820Y-35103333D01*
X-8223296Y-35103333D01*
X-8318534Y-35150952D01*
X-8366153Y-35198571D01*
X-8413772Y-35293809D01*
D13*
%TO.C,U1*%
X-2826400Y861300D02*
X-1048400Y861300D01*
X-9684400Y-3205240D02*
X-9684400Y-535700D01*
D14*
X-15145400Y-17553700D02*
X2652380Y-17553700D01*
D13*
X-8795400Y226300D02*
X-3715400Y226300D01*
X-2826400Y-3205240D02*
X-2826400Y-535700D01*
X-11462400Y861300D02*
X-9684400Y861300D01*
D14*
X-10746120Y4869420D02*
X-1751980Y4869420D01*
D13*
X-2826400Y861300D02*
X-2826400Y3528300D01*
D14*
X-15145400Y2773920D02*
X-15145400Y-17553700D01*
D13*
X-11462400Y3528300D02*
X-9684400Y3528300D01*
X-2826400Y-535700D02*
X-1048400Y-535700D01*
X-8795400Y2766300D02*
X-3715400Y2766300D01*
D14*
X-10751200Y-2483880D02*
X-10751200Y4869420D01*
D13*
X-2826400Y-3205240D02*
X-1048400Y-3205240D01*
D14*
X2652380Y3444480D02*
X-14474840Y3444480D01*
D13*
X-3715400Y226300D02*
X-3715400Y2766300D01*
X-1048400Y861300D02*
X-1048400Y3528300D01*
X-11462400Y-3205240D02*
X-9684400Y-3205240D01*
X-1048400Y-3205240D02*
X-1048400Y-535700D01*
D14*
X2652380Y-17553700D02*
X2652380Y3444480D01*
D13*
X-11462400Y861300D02*
X-11462400Y3528300D01*
X-8795400Y226300D02*
X-8795400Y2766300D01*
D14*
X-1751980Y-2483880D02*
X-10751200Y-2483880D01*
D13*
X-11462400Y-3205240D02*
X-11462400Y-535700D01*
X-11462400Y-535700D02*
X-9684400Y-535700D01*
X-2826400Y3528300D02*
X-1048400Y3528300D01*
D14*
X-14474840Y3444480D02*
X-15145400Y2773920D01*
D13*
X-9684400Y861300D02*
X-9684400Y3528300D01*
D14*
X-1751980Y4869420D02*
X-1751980Y-2483880D01*
D10*
%TO.C,SW1*%
X-126797200Y-5569600D02*
X-126797200Y-4969600D01*
X-112797200Y-4169600D02*
X-112797200Y-5169600D01*
X-112797200Y-17169600D02*
X-112797200Y-18169600D01*
X-117797200Y-3469600D02*
X-118297200Y-2969600D01*
X-126797200Y-4169600D02*
X-125797200Y-4169600D01*
X-113797200Y-4169600D02*
X-112797200Y-4169600D01*
X-122297200Y-8969600D02*
X-122297200Y-9669600D01*
X-126797200Y-4969600D02*
X-122297200Y-4969600D01*
X-126797200Y-9669600D02*
X-126797200Y-9169600D01*
X-117797200Y-6969600D02*
X-118297200Y-7469600D01*
X-121297200Y-2969600D02*
X-121797200Y-3469600D01*
X-118297200Y-2969600D02*
X-121297200Y-2969600D01*
X-112797200Y-18169600D02*
X-113797200Y-18169600D01*
X-122297200Y-9669600D02*
X-126797200Y-9669600D01*
X-126797200Y-18169600D02*
X-126797200Y-17169600D01*
X-125797200Y-18169600D02*
X-126797200Y-18169600D01*
X-118297200Y-7469600D02*
X-120797200Y-7469600D01*
X-121797200Y-4469600D02*
X-121797200Y-3469600D01*
X-126797200Y-5169600D02*
X-126797200Y-4169600D01*
X-122297200Y-4969600D02*
G75*
G03*
X-121797200Y-4469600I-1J500001D01*
G01*
X-120797200Y-7469600D02*
G75*
G03*
X-122297200Y-8969600I1J-1500001D01*
G01*
%TO.C,SW2*%
X-99803100Y-6973400D02*
X-100303100Y-7473400D01*
X-94803100Y-4173400D02*
X-94803100Y-5173400D01*
X-100303100Y-7473400D02*
X-102803100Y-7473400D01*
X-108803100Y-4973400D02*
X-104303100Y-4973400D01*
X-107803100Y-18173400D02*
X-108803100Y-18173400D01*
X-108803100Y-4173400D02*
X-107803100Y-4173400D01*
X-104303100Y-9673400D02*
X-108803100Y-9673400D01*
X-94803100Y-18173400D02*
X-95803100Y-18173400D01*
X-103803100Y-4473400D02*
X-103803100Y-3473400D01*
X-94803100Y-17173400D02*
X-94803100Y-18173400D01*
X-108803100Y-18173400D02*
X-108803100Y-17173400D01*
X-108803100Y-5173400D02*
X-108803100Y-4173400D01*
X-95803100Y-4173400D02*
X-94803100Y-4173400D01*
X-100303100Y-2973400D02*
X-103303100Y-2973400D01*
X-99803100Y-3473400D02*
X-100303100Y-2973400D01*
X-108803100Y-5573400D02*
X-108803100Y-4973400D01*
X-103303100Y-2973400D02*
X-103803100Y-3473400D01*
X-104303100Y-8973400D02*
X-104303100Y-9673400D01*
X-108803100Y-9673400D02*
X-108803100Y-9173400D01*
X-104303100Y-4973400D02*
G75*
G03*
X-103803100Y-4473400I-1J500001D01*
G01*
X-102803100Y-7473400D02*
G75*
G03*
X-104303100Y-8973400I1J-1500001D01*
G01*
%TO.C,SW3*%
X-90789000Y-196600D02*
X-86289000Y-196600D01*
X-85289000Y1803400D02*
X-85789000Y1303400D01*
X-81789000Y-2196600D02*
X-82289000Y-2696600D01*
X-76789000Y-13396600D02*
X-77789000Y-13396600D01*
X-90789000Y-4896600D02*
X-90789000Y-4396600D01*
X-89789000Y-13396600D02*
X-90789000Y-13396600D01*
X-85789000Y303400D02*
X-85789000Y1303400D01*
X-86289000Y-4196600D02*
X-86289000Y-4896600D01*
X-90789000Y603400D02*
X-89789000Y603400D01*
X-76789000Y-12396600D02*
X-76789000Y-13396600D01*
X-86289000Y-4896600D02*
X-90789000Y-4896600D01*
X-90789000Y-396600D02*
X-90789000Y603400D01*
X-82289000Y1803400D02*
X-85289000Y1803400D01*
X-90789000Y-796600D02*
X-90789000Y-196600D01*
X-90789000Y-13396600D02*
X-90789000Y-12396600D01*
X-77789000Y603400D02*
X-76789000Y603400D01*
X-81789000Y1303400D02*
X-82289000Y1803400D01*
X-76789000Y603400D02*
X-76789000Y-396600D01*
X-82289000Y-2696600D02*
X-84789000Y-2696600D01*
X-86289000Y-196600D02*
G75*
G03*
X-85789000Y303400I-1J500001D01*
G01*
X-84789000Y-2696600D02*
G75*
G03*
X-86289000Y-4196600I1J-1500001D01*
G01*
%TO.C,SW4*%
X-59779000Y3013200D02*
X-58779000Y3013200D01*
X-58779000Y-10986800D02*
X-59779000Y-10986800D01*
X-68279000Y-2486800D02*
X-72779000Y-2486800D01*
X-72779000Y2013200D02*
X-72779000Y3013200D01*
X-72779000Y2213200D02*
X-68279000Y2213200D01*
X-63779000Y3713200D02*
X-64279000Y4213200D01*
X-72779000Y-10986800D02*
X-72779000Y-9986800D01*
X-72779000Y-2486800D02*
X-72779000Y-1986800D01*
X-58779000Y3013200D02*
X-58779000Y2013200D01*
X-67279000Y4213200D02*
X-67779000Y3713200D01*
X-72779000Y3013200D02*
X-71779000Y3013200D01*
X-67779000Y2713200D02*
X-67779000Y3713200D01*
X-68279000Y-1786800D02*
X-68279000Y-2486800D01*
X-63779000Y213200D02*
X-64279000Y-286800D01*
X-64279000Y-286800D02*
X-66779000Y-286800D01*
X-72779000Y1613200D02*
X-72779000Y2213200D01*
X-71779000Y-10986800D02*
X-72779000Y-10986800D01*
X-64279000Y4213200D02*
X-67279000Y4213200D01*
X-58779000Y-9986800D02*
X-58779000Y-10986800D01*
X-66779000Y-286800D02*
G75*
G03*
X-68279000Y-1786800I1J-1500001D01*
G01*
X-68279000Y2213200D02*
G75*
G03*
X-67779000Y2713200I-1J500001D01*
G01*
%TO.C,SW5*%
X-45763000Y1392100D02*
X-46263000Y1892100D01*
X-54763000Y-307900D02*
X-54763000Y692100D01*
X-54763000Y-4807900D02*
X-54763000Y-4307900D01*
X-49763000Y392100D02*
X-49763000Y1392100D01*
X-46263000Y-2607900D02*
X-48763000Y-2607900D01*
X-40763000Y692100D02*
X-40763000Y-307900D01*
X-54763000Y-107900D02*
X-50263000Y-107900D01*
X-41763000Y692100D02*
X-40763000Y692100D01*
X-49263000Y1892100D02*
X-49763000Y1392100D01*
X-54763000Y692100D02*
X-53763000Y692100D01*
X-40763000Y-12307900D02*
X-40763000Y-13307900D01*
X-40763000Y-13307900D02*
X-41763000Y-13307900D01*
X-53763000Y-13307900D02*
X-54763000Y-13307900D01*
X-50263000Y-4107900D02*
X-50263000Y-4807900D01*
X-46263000Y1892100D02*
X-49263000Y1892100D01*
X-54763000Y-13307900D02*
X-54763000Y-12307900D01*
X-50263000Y-4807900D02*
X-54763000Y-4807900D01*
X-45763000Y-2107900D02*
X-46263000Y-2607900D01*
X-54763000Y-707900D02*
X-54763000Y-107900D01*
X-48763000Y-2607900D02*
G75*
G03*
X-50263000Y-4107900I1J-1500001D01*
G01*
X-50263000Y-107900D02*
G75*
G03*
X-49763000Y392100I-1J500001D01*
G01*
%TO.C,SW6*%
X-32250000Y-6508900D02*
X-32250000Y-7208900D01*
X-28250000Y-5008900D02*
X-30750000Y-5008900D01*
X-27750000Y-4508900D02*
X-28250000Y-5008900D01*
X-27750000Y-1008900D02*
X-28250000Y-508900D01*
X-28250000Y-508900D02*
X-31250000Y-508900D01*
X-36750000Y-2708900D02*
X-36750000Y-1708900D01*
X-23750000Y-1708900D02*
X-22750000Y-1708900D01*
X-36750000Y-15708900D02*
X-36750000Y-14708900D01*
X-22750000Y-15708900D02*
X-23750000Y-15708900D01*
X-36750000Y-7208900D02*
X-36750000Y-6708900D01*
X-32250000Y-7208900D02*
X-36750000Y-7208900D01*
X-31250000Y-508900D02*
X-31750000Y-1008900D01*
X-36750000Y-1708900D02*
X-35750000Y-1708900D01*
X-22750000Y-14708900D02*
X-22750000Y-15708900D01*
X-36750000Y-2508900D02*
X-32250000Y-2508900D01*
X-31750000Y-2008900D02*
X-31750000Y-1008900D01*
X-22750000Y-1708900D02*
X-22750000Y-2708900D01*
X-36750000Y-3108900D02*
X-36750000Y-2508900D01*
X-35750000Y-15708900D02*
X-36750000Y-15708900D01*
X-30750000Y-5008900D02*
G75*
G03*
X-32250000Y-6508900I1J-1500001D01*
G01*
X-32250000Y-2508900D02*
G75*
G03*
X-31750000Y-2008900I-1J500001D01*
G01*
%TO.C,SW7*%
X-126797200Y-21952500D02*
X-122297200Y-21952500D01*
X-126797200Y-21152500D02*
X-125797200Y-21152500D01*
X-122297200Y-25952500D02*
X-122297200Y-26652500D01*
X-117797200Y-20452500D02*
X-118297200Y-19952500D01*
X-112797200Y-34152500D02*
X-112797200Y-35152500D01*
X-126797200Y-35152500D02*
X-126797200Y-34152500D01*
X-113797200Y-21152500D02*
X-112797200Y-21152500D01*
X-112797200Y-35152500D02*
X-113797200Y-35152500D01*
X-126797200Y-26652500D02*
X-126797200Y-26152500D01*
X-121797200Y-21452500D02*
X-121797200Y-20452500D01*
X-118297200Y-24452500D02*
X-120797200Y-24452500D01*
X-125797200Y-35152500D02*
X-126797200Y-35152500D01*
X-121297200Y-19952500D02*
X-121797200Y-20452500D01*
X-112797200Y-21152500D02*
X-112797200Y-22152500D01*
X-126797200Y-22552500D02*
X-126797200Y-21952500D01*
X-122297200Y-26652500D02*
X-126797200Y-26652500D01*
X-117797200Y-23952500D02*
X-118297200Y-24452500D01*
X-126797200Y-22152500D02*
X-126797200Y-21152500D01*
X-118297200Y-19952500D02*
X-121297200Y-19952500D01*
X-122297200Y-21952500D02*
G75*
G03*
X-121797200Y-21452500I-1J500001D01*
G01*
X-120797200Y-24452500D02*
G75*
G03*
X-122297200Y-25952500I1J-1500001D01*
G01*
%TO.C,SW8*%
X-99803100Y-20487000D02*
X-100303100Y-19987000D01*
X-95803100Y-21187000D02*
X-94803100Y-21187000D01*
X-103303100Y-19987000D02*
X-103803100Y-20487000D01*
X-100303100Y-24487000D02*
X-102803100Y-24487000D01*
X-100303100Y-19987000D02*
X-103303100Y-19987000D01*
X-107803100Y-35187000D02*
X-108803100Y-35187000D01*
X-108803100Y-22587000D02*
X-108803100Y-21987000D01*
X-99803100Y-23987000D02*
X-100303100Y-24487000D01*
X-108803100Y-35187000D02*
X-108803100Y-34187000D01*
X-104303100Y-25987000D02*
X-104303100Y-26687000D01*
X-108803100Y-26687000D02*
X-108803100Y-26187000D01*
X-94803100Y-34187000D02*
X-94803100Y-35187000D01*
X-94803100Y-35187000D02*
X-95803100Y-35187000D01*
X-94803100Y-21187000D02*
X-94803100Y-22187000D01*
X-108803100Y-21987000D02*
X-104303100Y-21987000D01*
X-108803100Y-22187000D02*
X-108803100Y-21187000D01*
X-103803100Y-21487000D02*
X-103803100Y-20487000D01*
X-108803100Y-21187000D02*
X-107803100Y-21187000D01*
X-104303100Y-26687000D02*
X-108803100Y-26687000D01*
X-104303100Y-21987000D02*
G75*
G03*
X-103803100Y-21487000I-1J500001D01*
G01*
X-102803100Y-24487000D02*
G75*
G03*
X-104303100Y-25987000I1J-1500001D01*
G01*
%TO.C,SW9*%
X-81787000Y-15685200D02*
X-82287000Y-15185200D01*
X-86287000Y-21185200D02*
X-86287000Y-21885200D01*
X-90787000Y-17385200D02*
X-90787000Y-16385200D01*
X-82287000Y-19685200D02*
X-84787000Y-19685200D01*
X-81787000Y-19185200D02*
X-82287000Y-19685200D01*
X-86287000Y-21885200D02*
X-90787000Y-21885200D01*
X-76787000Y-16385200D02*
X-76787000Y-17385200D01*
X-90787000Y-17185200D02*
X-86287000Y-17185200D01*
X-76787000Y-30385200D02*
X-77787000Y-30385200D01*
X-85287000Y-15185200D02*
X-85787000Y-15685200D01*
X-82287000Y-15185200D02*
X-85287000Y-15185200D01*
X-77787000Y-16385200D02*
X-76787000Y-16385200D01*
X-89787000Y-30385200D02*
X-90787000Y-30385200D01*
X-90787000Y-21885200D02*
X-90787000Y-21385200D01*
X-90787000Y-30385200D02*
X-90787000Y-29385200D01*
X-90787000Y-16385200D02*
X-89787000Y-16385200D01*
X-90787000Y-17785200D02*
X-90787000Y-17185200D01*
X-85787000Y-16685200D02*
X-85787000Y-15685200D01*
X-76787000Y-29385200D02*
X-76787000Y-30385200D01*
X-84787000Y-19685200D02*
G75*
G03*
X-86287000Y-21185200I1J-1500001D01*
G01*
X-86287000Y-17185200D02*
G75*
G03*
X-85787000Y-16685200I-1J500001D01*
G01*
%TO.C,SW10*%
X-68272000Y-18788000D02*
X-68272000Y-19488000D01*
X-63772000Y-13288000D02*
X-64272000Y-12788000D01*
X-67272000Y-12788000D02*
X-67772000Y-13288000D01*
X-72772000Y-14988000D02*
X-72772000Y-13988000D01*
X-72772000Y-13988000D02*
X-71772000Y-13988000D01*
X-67772000Y-14288000D02*
X-67772000Y-13288000D01*
X-59772000Y-13988000D02*
X-58772000Y-13988000D01*
X-63772000Y-16788000D02*
X-64272000Y-17288000D01*
X-58772000Y-27988000D02*
X-59772000Y-27988000D01*
X-68272000Y-19488000D02*
X-72772000Y-19488000D01*
X-72772000Y-14788000D02*
X-68272000Y-14788000D01*
X-64272000Y-17288000D02*
X-66772000Y-17288000D01*
X-72772000Y-27988000D02*
X-72772000Y-26988000D01*
X-71772000Y-27988000D02*
X-72772000Y-27988000D01*
X-64272000Y-12788000D02*
X-67272000Y-12788000D01*
X-58772000Y-13988000D02*
X-58772000Y-14988000D01*
X-58772000Y-26988000D02*
X-58772000Y-27988000D01*
X-72772000Y-15388000D02*
X-72772000Y-14788000D01*
X-72772000Y-19488000D02*
X-72772000Y-18988000D01*
X-66772000Y-17288000D02*
G75*
G03*
X-68272000Y-18788000I1J-1500001D01*
G01*
X-68272000Y-14788000D02*
G75*
G03*
X-67772000Y-14288000I-1J500001D01*
G01*
%TO.C,SW11*%
X-54763000Y-17122700D02*
X-50263000Y-17122700D01*
X-41763000Y-16322700D02*
X-40763000Y-16322700D01*
X-50263000Y-21122700D02*
X-50263000Y-21822700D01*
X-54763000Y-17322700D02*
X-54763000Y-16322700D01*
X-54763000Y-30322700D02*
X-54763000Y-29322700D01*
X-54763000Y-17722700D02*
X-54763000Y-17122700D01*
X-53763000Y-30322700D02*
X-54763000Y-30322700D01*
X-40763000Y-29322700D02*
X-40763000Y-30322700D01*
X-50263000Y-21822700D02*
X-54763000Y-21822700D01*
X-54763000Y-21822700D02*
X-54763000Y-21322700D01*
X-46263000Y-15122700D02*
X-49263000Y-15122700D01*
X-45763000Y-19122700D02*
X-46263000Y-19622700D01*
X-46263000Y-19622700D02*
X-48763000Y-19622700D01*
X-40763000Y-16322700D02*
X-40763000Y-17322700D01*
X-49763000Y-16622700D02*
X-49763000Y-15622700D01*
X-54763000Y-16322700D02*
X-53763000Y-16322700D01*
X-40763000Y-30322700D02*
X-41763000Y-30322700D01*
X-45763000Y-15622700D02*
X-46263000Y-15122700D01*
X-49263000Y-15122700D02*
X-49763000Y-15622700D01*
X-50263000Y-17122700D02*
G75*
G03*
X-49763000Y-16622700I-1J500001D01*
G01*
X-48763000Y-19622700D02*
G75*
G03*
X-50263000Y-21122700I1J-1500001D01*
G01*
%TO.C,SW12*%
X-35750000Y-32750000D02*
X-36750000Y-32750000D01*
X-32250000Y-24250000D02*
X-36750000Y-24250000D01*
X-22750000Y-31750000D02*
X-22750000Y-32750000D01*
X-31250000Y-17550000D02*
X-31750000Y-18050000D01*
X-36750000Y-18750000D02*
X-35750000Y-18750000D01*
X-36750000Y-32750000D02*
X-36750000Y-31750000D01*
X-28250000Y-17550000D02*
X-31250000Y-17550000D01*
X-23750000Y-18750000D02*
X-22750000Y-18750000D01*
X-28250000Y-22050000D02*
X-30750000Y-22050000D01*
X-32250000Y-23550000D02*
X-32250000Y-24250000D01*
X-22750000Y-32750000D02*
X-23750000Y-32750000D01*
X-31750000Y-19050000D02*
X-31750000Y-18050000D01*
X-36750000Y-19750000D02*
X-36750000Y-18750000D01*
X-36750000Y-20150000D02*
X-36750000Y-19550000D01*
X-36750000Y-24250000D02*
X-36750000Y-23750000D01*
X-27750000Y-21550000D02*
X-28250000Y-22050000D01*
X-36750000Y-19550000D02*
X-32250000Y-19550000D01*
X-27750000Y-18050000D02*
X-28250000Y-17550000D01*
X-22750000Y-18750000D02*
X-22750000Y-19750000D01*
X-30750000Y-22050000D02*
G75*
G03*
X-32250000Y-23550000I1J-1500001D01*
G01*
X-32250000Y-19550000D02*
G75*
G03*
X-31750000Y-19050000I-1J500001D01*
G01*
%TO.C,SW13*%
X-112797200Y-51183000D02*
X-112797200Y-52183000D01*
X-122297200Y-42983000D02*
X-122297200Y-43683000D01*
X-121297200Y-36983000D02*
X-121797200Y-37483000D01*
X-126797200Y-39183000D02*
X-126797200Y-38183000D01*
X-126797200Y-43683000D02*
X-126797200Y-43183000D01*
X-117797200Y-40983000D02*
X-118297200Y-41483000D01*
X-118297200Y-36983000D02*
X-121297200Y-36983000D01*
X-112797200Y-52183000D02*
X-113797200Y-52183000D01*
X-126797200Y-38983000D02*
X-122297200Y-38983000D01*
X-113797200Y-38183000D02*
X-112797200Y-38183000D01*
X-118297200Y-41483000D02*
X-120797200Y-41483000D01*
X-122297200Y-43683000D02*
X-126797200Y-43683000D01*
X-126797200Y-39583000D02*
X-126797200Y-38983000D01*
X-126797200Y-52183000D02*
X-126797200Y-51183000D01*
X-125797200Y-52183000D02*
X-126797200Y-52183000D01*
X-117797200Y-37483000D02*
X-118297200Y-36983000D01*
X-121797200Y-38483000D02*
X-121797200Y-37483000D01*
X-112797200Y-38183000D02*
X-112797200Y-39183000D01*
X-126797200Y-38183000D02*
X-125797200Y-38183000D01*
X-122297200Y-38983000D02*
G75*
G03*
X-121797200Y-38483000I-1J500001D01*
G01*
X-120797200Y-41483000D02*
G75*
G03*
X-122297200Y-42983000I1J-1500001D01*
G01*
%TO.C,SW14*%
X-99803100Y-40971000D02*
X-100303100Y-41471000D01*
X-107803100Y-52171000D02*
X-108803100Y-52171000D01*
X-103803100Y-38471000D02*
X-103803100Y-37471000D01*
X-95803100Y-38171000D02*
X-94803100Y-38171000D01*
X-108803100Y-39571000D02*
X-108803100Y-38971000D01*
X-108803100Y-43671000D02*
X-108803100Y-43171000D01*
X-108803100Y-38171000D02*
X-107803100Y-38171000D01*
X-103303100Y-36971000D02*
X-103803100Y-37471000D01*
X-94803100Y-38171000D02*
X-94803100Y-39171000D01*
X-100303100Y-36971000D02*
X-103303100Y-36971000D01*
X-108803100Y-52171000D02*
X-108803100Y-51171000D01*
X-94803100Y-52171000D02*
X-95803100Y-52171000D01*
X-94803100Y-51171000D02*
X-94803100Y-52171000D01*
X-99803100Y-37471000D02*
X-100303100Y-36971000D01*
X-104303100Y-42971000D02*
X-104303100Y-43671000D01*
X-104303100Y-43671000D02*
X-108803100Y-43671000D01*
X-108803100Y-39171000D02*
X-108803100Y-38171000D01*
X-100303100Y-41471000D02*
X-102803100Y-41471000D01*
X-108803100Y-38971000D02*
X-104303100Y-38971000D01*
X-102803100Y-41471000D02*
G75*
G03*
X-104303100Y-42971000I1J-1500001D01*
G01*
X-104303100Y-38971000D02*
G75*
G03*
X-103803100Y-38471000I-1J500001D01*
G01*
%TO.C,SW15*%
X-85286000Y-32198000D02*
X-85786000Y-32698000D01*
X-82286000Y-32198000D02*
X-85286000Y-32198000D01*
X-77786000Y-33398000D02*
X-76786000Y-33398000D01*
X-85786000Y-33698000D02*
X-85786000Y-32698000D01*
X-76786000Y-47398000D02*
X-77786000Y-47398000D01*
X-90786000Y-34398000D02*
X-90786000Y-33398000D01*
X-90786000Y-34798000D02*
X-90786000Y-34198000D01*
X-90786000Y-33398000D02*
X-89786000Y-33398000D01*
X-90786000Y-47398000D02*
X-90786000Y-46398000D01*
X-89786000Y-47398000D02*
X-90786000Y-47398000D01*
X-76786000Y-46398000D02*
X-76786000Y-47398000D01*
X-86286000Y-38898000D02*
X-90786000Y-38898000D01*
X-90786000Y-34198000D02*
X-86286000Y-34198000D01*
X-81786000Y-36198000D02*
X-82286000Y-36698000D01*
X-86286000Y-38198000D02*
X-86286000Y-38898000D01*
X-90786000Y-38898000D02*
X-90786000Y-38398000D01*
X-82286000Y-36698000D02*
X-84786000Y-36698000D01*
X-76786000Y-33398000D02*
X-76786000Y-34398000D01*
X-81786000Y-32698000D02*
X-82286000Y-32198000D01*
X-86286000Y-34198000D02*
G75*
G03*
X-85786000Y-33698000I-1J500001D01*
G01*
X-84786000Y-36698000D02*
G75*
G03*
X-86286000Y-38198000I1J-1500001D01*
G01*
%TO.C,SW16*%
X-72783000Y-36477000D02*
X-72783000Y-35977000D01*
X-72783000Y-32377000D02*
X-72783000Y-31777000D01*
X-58783000Y-30977000D02*
X-58783000Y-31977000D01*
X-72783000Y-30977000D02*
X-71783000Y-30977000D01*
X-64283000Y-29777000D02*
X-67283000Y-29777000D01*
X-64283000Y-34277000D02*
X-66783000Y-34277000D01*
X-58783000Y-44977000D02*
X-59783000Y-44977000D01*
X-67783000Y-31277000D02*
X-67783000Y-30277000D01*
X-68283000Y-35777000D02*
X-68283000Y-36477000D01*
X-71783000Y-44977000D02*
X-72783000Y-44977000D01*
X-58783000Y-43977000D02*
X-58783000Y-44977000D01*
X-67283000Y-29777000D02*
X-67783000Y-30277000D01*
X-72783000Y-31777000D02*
X-68283000Y-31777000D01*
X-59783000Y-30977000D02*
X-58783000Y-30977000D01*
X-68283000Y-36477000D02*
X-72783000Y-36477000D01*
X-63783000Y-30277000D02*
X-64283000Y-29777000D01*
X-72783000Y-44977000D02*
X-72783000Y-43977000D01*
X-72783000Y-31977000D02*
X-72783000Y-30977000D01*
X-63783000Y-33777000D02*
X-64283000Y-34277000D01*
X-68283000Y-31777000D02*
G75*
G03*
X-67783000Y-31277000I-1J500001D01*
G01*
X-66783000Y-34277000D02*
G75*
G03*
X-68283000Y-35777000I1J-1500001D01*
G01*
%TO.C,SW17*%
X-54763000Y-34314000D02*
X-54763000Y-33314000D01*
X-53763000Y-47314000D02*
X-54763000Y-47314000D01*
X-49763000Y-33614000D02*
X-49763000Y-32614000D01*
X-40763000Y-47314000D02*
X-41763000Y-47314000D01*
X-40763000Y-33314000D02*
X-40763000Y-34314000D01*
X-41763000Y-33314000D02*
X-40763000Y-33314000D01*
X-49263000Y-32114000D02*
X-49763000Y-32614000D01*
X-54763000Y-38814000D02*
X-54763000Y-38314000D01*
X-54763000Y-34714000D02*
X-54763000Y-34114000D01*
X-45763000Y-32614000D02*
X-46263000Y-32114000D01*
X-45763000Y-36114000D02*
X-46263000Y-36614000D01*
X-50263000Y-38814000D02*
X-54763000Y-38814000D01*
X-50263000Y-38114000D02*
X-50263000Y-38814000D01*
X-40763000Y-46314000D02*
X-40763000Y-47314000D01*
X-54763000Y-33314000D02*
X-53763000Y-33314000D01*
X-54763000Y-47314000D02*
X-54763000Y-46314000D01*
X-46263000Y-36614000D02*
X-48763000Y-36614000D01*
X-54763000Y-34114000D02*
X-50263000Y-34114000D01*
X-46263000Y-32114000D02*
X-49263000Y-32114000D01*
X-48763000Y-36614000D02*
G75*
G03*
X-50263000Y-38114000I1J-1500001D01*
G01*
X-50263000Y-34114000D02*
G75*
G03*
X-49763000Y-33614000I-1J500001D01*
G01*
%TO.C,SW19*%
X-45815000Y-68150000D02*
X-46815000Y-68150000D01*
X-51315000Y-52950000D02*
X-54315000Y-52950000D01*
X-59815000Y-54150000D02*
X-58815000Y-54150000D01*
X-59815000Y-59650000D02*
X-59815000Y-59150000D01*
X-54815000Y-54450000D02*
X-54815000Y-53450000D01*
X-59815000Y-54950000D02*
X-55315000Y-54950000D01*
X-46815000Y-54150000D02*
X-45815000Y-54150000D01*
X-50815000Y-56950000D02*
X-51315000Y-57450000D01*
X-59815000Y-55550000D02*
X-59815000Y-54950000D01*
X-55315000Y-59650000D02*
X-59815000Y-59650000D01*
X-45815000Y-67150000D02*
X-45815000Y-68150000D01*
X-45815000Y-54150000D02*
X-45815000Y-55150000D01*
X-51315000Y-57450000D02*
X-53815000Y-57450000D01*
X-50815000Y-53450000D02*
X-51315000Y-52950000D01*
X-55315000Y-58950000D02*
X-55315000Y-59650000D01*
X-54315000Y-52950000D02*
X-54815000Y-53450000D01*
X-58815000Y-68150000D02*
X-59815000Y-68150000D01*
X-59815000Y-68150000D02*
X-59815000Y-67150000D01*
X-59815000Y-55150000D02*
X-59815000Y-54150000D01*
X-55315000Y-54950000D02*
G75*
G03*
X-54815000Y-54450000I-1J500001D01*
G01*
X-53815000Y-57450000D02*
G75*
G03*
X-55315000Y-58950000I1J-1500001D01*
G01*
%TO.C,SW20*%
X-27711242Y-56943009D02*
X-28064795Y-56330637D01*
X-36844567Y-56255712D02*
X-36585747Y-55289786D01*
X-31833764Y-56873659D02*
X-31574945Y-55907733D01*
X-36585747Y-55289786D02*
X-35619822Y-55548605D01*
X-33481413Y-61090916D02*
X-33662586Y-61767064D01*
X-39243288Y-69071567D02*
X-40209214Y-68812747D01*
X-28617108Y-60323750D02*
X-29229481Y-60677303D01*
X-28064795Y-56330637D02*
X-30962573Y-55554180D01*
X-26427433Y-71470288D02*
X-26686253Y-72436214D01*
X-23062786Y-58913253D02*
X-23321605Y-59879178D01*
X-38009252Y-60602378D02*
X-37879843Y-60119415D01*
X-30962573Y-55554180D02*
X-31574945Y-55907733D01*
X-29229481Y-60677303D02*
X-31644295Y-60030255D01*
X-36792803Y-56062527D02*
X-32446136Y-57227212D01*
X-26686253Y-72436214D02*
X-27652178Y-72177395D01*
X-40209214Y-68812747D02*
X-39950395Y-67846822D01*
X-24028712Y-58654433D02*
X-23062786Y-58913253D01*
X-33662586Y-61767064D02*
X-38009252Y-60602378D01*
X-36948094Y-56642082D02*
X-36792803Y-56062527D01*
X-31644295Y-60030255D02*
G75*
G03*
X-33481413Y-61090916I-388228J-1448890D01*
G01*
X-32446136Y-57227212D02*
G75*
G03*
X-31833764Y-56873659I129408J482964D01*
G01*
%TO.C,SW21*%
X-19377178Y-71262178D02*
X-18877178Y-70396152D01*
X-12970256Y-69765064D02*
X-12364038Y-70115064D01*
X-12452307Y-64867949D02*
X-12269294Y-65550962D01*
X-18511152Y-71762178D02*
X-19377178Y-71262178D01*
X-16617370Y-67082051D02*
X-17483396Y-66582051D01*
X-1118848Y-65637822D02*
X-252822Y-66137822D01*
X-14614038Y-74012178D02*
X-15047051Y-73762178D01*
X-12269294Y-65550962D02*
X-13519294Y-67716025D01*
X-17666408Y-65899038D02*
X-17483396Y-66582051D01*
X-12364038Y-70115064D02*
X-14614038Y-74012178D01*
X-18684358Y-71662178D02*
X-16434358Y-67765064D01*
X-6752822Y-77396152D02*
X-7252822Y-78262178D01*
X-12877178Y-60003848D02*
X-12377178Y-59137822D01*
X-12377178Y-59137822D02*
X-11511152Y-59637822D01*
X-18164742Y-71962178D02*
X-18684358Y-71662178D01*
X-15483396Y-63117949D02*
X-16166408Y-63300962D01*
X-7252822Y-78262178D02*
X-8118848Y-77762178D01*
X-16166408Y-63300962D02*
X-17666408Y-65899038D01*
X-252822Y-66137822D02*
X-752822Y-67003848D01*
X-13519294Y-67716025D02*
G75*
G03*
X-12970256Y-69765064I1299041J-750000D01*
G01*
X-16434358Y-67765064D02*
G75*
G03*
X-16617370Y-67082051I-433014J250000D01*
G01*
%TO.C,SW18*%
X-27743000Y-38540000D02*
X-28243000Y-39040000D01*
X-36743000Y-36540000D02*
X-32243000Y-36540000D01*
X-31743000Y-36040000D02*
X-31743000Y-35040000D01*
X-35743000Y-49740000D02*
X-36743000Y-49740000D01*
X-28243000Y-39040000D02*
X-30743000Y-39040000D01*
X-28243000Y-34540000D02*
X-31243000Y-34540000D01*
X-22743000Y-49740000D02*
X-23743000Y-49740000D01*
X-36743000Y-35740000D02*
X-35743000Y-35740000D01*
X-27743000Y-35040000D02*
X-28243000Y-34540000D01*
X-36743000Y-36740000D02*
X-36743000Y-35740000D01*
X-22743000Y-48740000D02*
X-22743000Y-49740000D01*
X-31243000Y-34540000D02*
X-31743000Y-35040000D01*
X-36743000Y-41240000D02*
X-36743000Y-40740000D01*
X-23743000Y-35740000D02*
X-22743000Y-35740000D01*
X-36743000Y-37140000D02*
X-36743000Y-36540000D01*
X-32243000Y-40540000D02*
X-32243000Y-41240000D01*
X-36743000Y-49740000D02*
X-36743000Y-48740000D01*
X-32243000Y-41240000D02*
X-36743000Y-41240000D01*
X-22743000Y-35740000D02*
X-22743000Y-36740000D01*
X-32243000Y-36540000D02*
G75*
G03*
X-31743000Y-36040000I-1J500001D01*
G01*
X-30743000Y-39040000D02*
G75*
G03*
X-32243000Y-40540000I1J-1500001D01*
G01*
D15*
%TO.C,JP29*%
X263600Y-51650000D02*
X263600Y-54450000D01*
X263600Y-54450000D02*
X-1736400Y-54450000D01*
X-1736400Y-54450000D02*
X-1736400Y-51650000D01*
X-1736400Y-51650000D02*
X263600Y-51650000D01*
%TO.C,JP28*%
X-8085200Y-43406700D02*
X-8085200Y-45406700D01*
X-10885200Y-43406700D02*
X-8085200Y-43406700D01*
X-10885200Y-45406700D02*
X-10885200Y-43406700D01*
X-8085200Y-45406700D02*
X-10885200Y-45406700D01*
%TO.C,JP33*%
X-1531900Y-34401700D02*
X-4331900Y-34401700D01*
X-4331900Y-34401700D02*
X-4331900Y-32401700D01*
X-1531900Y-32401700D02*
X-1531900Y-34401700D01*
X-4331900Y-32401700D02*
X-1531900Y-32401700D01*
%TO.C,JP23*%
X-8085200Y-25065000D02*
X-8085200Y-27065000D01*
X-10885200Y-25065000D02*
X-8085200Y-25065000D01*
X-8085200Y-27065000D02*
X-10885200Y-27065000D01*
X-10885200Y-27065000D02*
X-10885200Y-25065000D01*
%TO.C,JP31*%
X-4331900Y-27065000D02*
X-4331900Y-25065000D01*
X-1531900Y-25065000D02*
X-1531900Y-27065000D01*
X-1531900Y-27065000D02*
X-4331900Y-27065000D01*
X-4331900Y-25065000D02*
X-1531900Y-25065000D01*
%TO.C,JP27*%
X-8085200Y-41738300D02*
X-10885200Y-41738300D01*
X-10885200Y-39738300D02*
X-8085200Y-39738300D01*
X-10885200Y-41738300D02*
X-10885200Y-39738300D01*
X-8085200Y-39738300D02*
X-8085200Y-41738300D01*
%TO.C,JP24*%
X-10885200Y-30733300D02*
X-10885200Y-28733300D01*
X-8085200Y-28733300D02*
X-8085200Y-30733300D01*
X-10885200Y-28733300D02*
X-8085200Y-28733300D01*
X-8085200Y-30733300D02*
X-10885200Y-30733300D01*
%TO.C,J9*%
X-16895000Y-56740000D02*
X-19555000Y-56740000D01*
X-18225000Y-59340000D02*
X-19555000Y-59340000D01*
X-16895000Y-54140000D02*
X-19555000Y-54140000D01*
X-16895000Y-56740000D02*
X-16895000Y-54140000D01*
X-19555000Y-59340000D02*
X-19555000Y-58010000D01*
X-19555000Y-56740000D02*
X-19555000Y-54140000D01*
%TO.C,JP22*%
X-10885200Y-23396700D02*
X-10885200Y-21396700D01*
X-10885200Y-21396700D02*
X-8085200Y-21396700D01*
X-8085200Y-21396700D02*
X-8085200Y-23396700D01*
X-8085200Y-23396700D02*
X-10885200Y-23396700D01*
%TO.C,SW23*%
X7796500Y-40238000D02*
X7486500Y-40238000D01*
X3276500Y-40238000D02*
X3586500Y-40238000D01*
X3276500Y-31418000D02*
X3586500Y-31418000D01*
X3276500Y-40238000D02*
X3276500Y-31418000D01*
X8496500Y-34328000D02*
X8496500Y-33328000D01*
X7796500Y-31418000D02*
X7796500Y-40238000D01*
X8496500Y-33328000D02*
X7996500Y-33828000D01*
X7996500Y-33828000D02*
X8496500Y-34328000D01*
X7486500Y-31418000D02*
X7796500Y-31418000D01*
%TO.C,JP20*%
X-5423100Y-54450000D02*
X-5423100Y-51650000D01*
X-3423100Y-54450000D02*
X-5423100Y-54450000D01*
X-5423100Y-51650000D02*
X-3423100Y-51650000D01*
X-3423100Y-51650000D02*
X-3423100Y-54450000D01*
%TO.C,JP34*%
X-1531900Y-38070000D02*
X-4331900Y-38070000D01*
X-4331900Y-36070000D02*
X-1531900Y-36070000D01*
X-1531900Y-36070000D02*
X-1531900Y-38070000D01*
X-4331900Y-38070000D02*
X-4331900Y-36070000D01*
%TO.C,JP37*%
X-4331900Y-21396700D02*
X-1531900Y-21396700D01*
X-4331900Y-23396700D02*
X-4331900Y-21396700D01*
X-1531900Y-21396700D02*
X-1531900Y-23396700D01*
X-1531900Y-23396700D02*
X-4331900Y-23396700D01*
%TO.C,JP16*%
X-10796400Y-54450000D02*
X-12796400Y-54450000D01*
X-12796400Y-51650000D02*
X-10796400Y-51650000D01*
X-12796400Y-54450000D02*
X-12796400Y-51650000D01*
X-10796400Y-51650000D02*
X-10796400Y-54450000D01*
%TO.C,JP36*%
X-1531900Y-43406700D02*
X-1531900Y-45406700D01*
X-4331900Y-43406700D02*
X-1531900Y-43406700D01*
X-1531900Y-45406700D02*
X-4331900Y-45406700D01*
X-4331900Y-45406700D02*
X-4331900Y-43406700D01*
%TO.C,J1*%
X-1235000Y-46670000D02*
X95000Y-46670000D01*
X95000Y-46670000D02*
X95000Y-48000000D01*
X-2505000Y-46670000D02*
X-12725000Y-46670000D01*
X-2505000Y-49330000D02*
X-12725000Y-49330000D01*
X-2505000Y-46670000D02*
X-2505000Y-49330000D01*
X-12725000Y-46670000D02*
X-12725000Y-49330000D01*
%TO.C,JP18*%
X-7109800Y-51650000D02*
X-7109800Y-54450000D01*
X-7109800Y-54450000D02*
X-9109800Y-54450000D01*
X-9109800Y-54450000D02*
X-9109800Y-51650000D01*
X-9109800Y-51650000D02*
X-7109800Y-51650000D01*
%TO.C,JP25*%
X-8085200Y-34401700D02*
X-10885200Y-34401700D01*
X-8085200Y-32401700D02*
X-8085200Y-34401700D01*
X-10885200Y-32401700D02*
X-8085200Y-32401700D01*
X-10885200Y-34401700D02*
X-10885200Y-32401700D01*
%TO.C,JP32*%
X-1531900Y-28733300D02*
X-1531900Y-30733300D01*
X-4331900Y-30733300D02*
X-4331900Y-28733300D01*
X-4331900Y-28733300D02*
X-1531900Y-28733300D01*
X-1531900Y-30733300D02*
X-4331900Y-30733300D01*
%TO.C,JP35*%
X-4331900Y-39738300D02*
X-1531900Y-39738300D01*
X-4331900Y-41738300D02*
X-4331900Y-39738300D01*
X-1531900Y-39738300D02*
X-1531900Y-41738300D01*
X-1531900Y-41738300D02*
X-4331900Y-41738300D01*
%TO.C,JP26*%
X-10885200Y-36070000D02*
X-8085200Y-36070000D01*
X-8085200Y-38070000D02*
X-10885200Y-38070000D01*
X-10885200Y-38070000D02*
X-10885200Y-36070000D01*
X-8085200Y-36070000D02*
X-8085200Y-38070000D01*
%TD*%
%LPC*%
D16*
X-91240179Y-49647380D02*
X-91049703Y-49647380D01*
X-90954465Y-49695000D01*
X-90859227Y-49790238D01*
X-90811608Y-49980714D01*
X-90811608Y-50314047D01*
X-90859227Y-50504523D01*
X-90954465Y-50599761D01*
X-91049703Y-50647380D01*
X-91240179Y-50647380D01*
X-91335417Y-50599761D01*
X-91430655Y-50504523D01*
X-91478274Y-50314047D01*
X-91478274Y-49980714D01*
X-91430655Y-49790238D01*
X-91335417Y-49695000D01*
X-91240179Y-49647380D01*
X-90383036Y-50647380D02*
X-90383036Y-49980714D01*
X-90383036Y-50171190D02*
X-90335417Y-50075952D01*
X-90287798Y-50028333D01*
X-90192560Y-49980714D01*
X-90097322Y-49980714D01*
X-89763989Y-50647380D02*
X-89763989Y-49980714D01*
X-89763989Y-49647380D02*
X-89811608Y-49695000D01*
X-89763989Y-49742619D01*
X-89716370Y-49695000D01*
X-89763989Y-49647380D01*
X-89763989Y-49742619D01*
X-88859227Y-49980714D02*
X-88859227Y-50790238D01*
X-88906846Y-50885476D01*
X-88954465Y-50933095D01*
X-89049703Y-50980714D01*
X-89192560Y-50980714D01*
X-89287798Y-50933095D01*
X-88859227Y-50599761D02*
X-88954465Y-50647380D01*
X-89144941Y-50647380D01*
X-89240179Y-50599761D01*
X-89287798Y-50552142D01*
X-89335417Y-50456904D01*
X-89335417Y-50171190D01*
X-89287798Y-50075952D01*
X-89240179Y-50028333D01*
X-89144941Y-49980714D01*
X-88954465Y-49980714D01*
X-88859227Y-50028333D01*
X-88383036Y-50647380D02*
X-88383036Y-49980714D01*
X-88383036Y-49647380D02*
X-88430655Y-49695000D01*
X-88383036Y-49742619D01*
X-88335417Y-49695000D01*
X-88383036Y-49647380D01*
X-88383036Y-49742619D01*
X-87906846Y-49980714D02*
X-87906846Y-50647380D01*
X-87906846Y-50075952D02*
X-87859227Y-50028333D01*
X-87763989Y-49980714D01*
X-87621131Y-49980714D01*
X-87525893Y-50028333D01*
X-87478274Y-50123571D01*
X-87478274Y-50647380D01*
X-86573512Y-50647380D02*
X-86573512Y-50123571D01*
X-86621131Y-50028333D01*
X-86716370Y-49980714D01*
X-86906846Y-49980714D01*
X-87002084Y-50028333D01*
X-86573512Y-50599761D02*
X-86668750Y-50647380D01*
X-86906846Y-50647380D01*
X-87002084Y-50599761D01*
X-87049703Y-50504523D01*
X-87049703Y-50409285D01*
X-87002084Y-50314047D01*
X-86906846Y-50266428D01*
X-86668750Y-50266428D01*
X-86573512Y-50218809D01*
X-85954465Y-50647380D02*
X-86049703Y-50599761D01*
X-86097322Y-50504523D01*
X-86097322Y-49647380D01*
X-84811608Y-50647380D02*
X-84811608Y-49647380D01*
X-84430655Y-49647380D01*
X-84335417Y-49695000D01*
X-84287798Y-49742619D01*
X-84240179Y-49837857D01*
X-84240179Y-49980714D01*
X-84287798Y-50075952D01*
X-84335417Y-50123571D01*
X-84430655Y-50171190D01*
X-84811608Y-50171190D01*
X-83240179Y-50552142D02*
X-83287798Y-50599761D01*
X-83430655Y-50647380D01*
X-83525893Y-50647380D01*
X-83668750Y-50599761D01*
X-83763989Y-50504523D01*
X-83811608Y-50409285D01*
X-83859227Y-50218809D01*
X-83859227Y-50075952D01*
X-83811608Y-49885476D01*
X-83763989Y-49790238D01*
X-83668750Y-49695000D01*
X-83525893Y-49647380D01*
X-83430655Y-49647380D01*
X-83287798Y-49695000D01*
X-83240179Y-49742619D01*
X-82478274Y-50123571D02*
X-82335417Y-50171190D01*
X-82287798Y-50218809D01*
X-82240179Y-50314047D01*
X-82240179Y-50456904D01*
X-82287798Y-50552142D01*
X-82335417Y-50599761D01*
X-82430655Y-50647380D01*
X-82811608Y-50647380D01*
X-82811608Y-49647380D01*
X-82478274Y-49647380D01*
X-82383036Y-49695000D01*
X-82335417Y-49742619D01*
X-82287798Y-49837857D01*
X-82287798Y-49933095D01*
X-82335417Y-50028333D01*
X-82383036Y-50075952D01*
X-82478274Y-50123571D01*
X-82811608Y-50123571D01*
X-80621131Y-50647380D02*
X-80621131Y-49647380D01*
X-80621131Y-50599761D02*
X-80716370Y-50647380D01*
X-80906846Y-50647380D01*
X-81002084Y-50599761D01*
X-81049703Y-50552142D01*
X-81097322Y-50456904D01*
X-81097322Y-50171190D01*
X-81049703Y-50075952D01*
X-81002084Y-50028333D01*
X-80906846Y-49980714D01*
X-80716370Y-49980714D01*
X-80621131Y-50028333D01*
X-79763989Y-50599761D02*
X-79859227Y-50647380D01*
X-80049703Y-50647380D01*
X-80144941Y-50599761D01*
X-80192560Y-50504523D01*
X-80192560Y-50123571D01*
X-80144941Y-50028333D01*
X-80049703Y-49980714D01*
X-79859227Y-49980714D01*
X-79763989Y-50028333D01*
X-79716370Y-50123571D01*
X-79716370Y-50218809D01*
X-80192560Y-50314047D01*
X-79335417Y-50599761D02*
X-79240179Y-50647380D01*
X-79049703Y-50647380D01*
X-78954465Y-50599761D01*
X-78906846Y-50504523D01*
X-78906846Y-50456904D01*
X-78954465Y-50361666D01*
X-79049703Y-50314047D01*
X-79192560Y-50314047D01*
X-79287798Y-50266428D01*
X-79335417Y-50171190D01*
X-79335417Y-50123571D01*
X-79287798Y-50028333D01*
X-79192560Y-49980714D01*
X-79049703Y-49980714D01*
X-78954465Y-50028333D01*
X-78478274Y-50647380D02*
X-78478274Y-49980714D01*
X-78478274Y-49647380D02*
X-78525893Y-49695000D01*
X-78478274Y-49742619D01*
X-78430655Y-49695000D01*
X-78478274Y-49647380D01*
X-78478274Y-49742619D01*
X-77573512Y-49980714D02*
X-77573512Y-50790238D01*
X-77621131Y-50885476D01*
X-77668750Y-50933095D01*
X-77763989Y-50980714D01*
X-77906846Y-50980714D01*
X-78002084Y-50933095D01*
X-77573512Y-50599761D02*
X-77668750Y-50647380D01*
X-77859227Y-50647380D01*
X-77954465Y-50599761D01*
X-78002084Y-50552142D01*
X-78049703Y-50456904D01*
X-78049703Y-50171190D01*
X-78002084Y-50075952D01*
X-77954465Y-50028333D01*
X-77859227Y-49980714D01*
X-77668750Y-49980714D01*
X-77573512Y-50028333D01*
X-77097322Y-49980714D02*
X-77097322Y-50647380D01*
X-77097322Y-50075952D02*
X-77049703Y-50028333D01*
X-76954465Y-49980714D01*
X-76811608Y-49980714D01*
X-76716370Y-50028333D01*
X-76668750Y-50123571D01*
X-76668750Y-50647380D01*
X-75811608Y-50599761D02*
X-75906846Y-50647380D01*
X-76097322Y-50647380D01*
X-76192560Y-50599761D01*
X-76240179Y-50504523D01*
X-76240179Y-50123571D01*
X-76192560Y-50028333D01*
X-76097322Y-49980714D01*
X-75906846Y-49980714D01*
X-75811608Y-50028333D01*
X-75763989Y-50123571D01*
X-75763989Y-50218809D01*
X-76240179Y-50314047D01*
X-74906846Y-50647380D02*
X-74906846Y-49647380D01*
X-74906846Y-50599761D02*
X-75002084Y-50647380D01*
X-75192560Y-50647380D01*
X-75287798Y-50599761D01*
X-75335417Y-50552142D01*
X-75383036Y-50456904D01*
X-75383036Y-50171190D01*
X-75335417Y-50075952D01*
X-75287798Y-50028333D01*
X-75192560Y-49980714D01*
X-75002084Y-49980714D01*
X-74906846Y-50028333D01*
X-73668750Y-50647380D02*
X-73668750Y-49647380D01*
X-73668750Y-50028333D02*
X-73573512Y-49980714D01*
X-73383036Y-49980714D01*
X-73287798Y-50028333D01*
X-73240179Y-50075952D01*
X-73192560Y-50171190D01*
X-73192560Y-50456904D01*
X-73240179Y-50552142D01*
X-73287798Y-50599761D01*
X-73383036Y-50647380D01*
X-73573512Y-50647380D01*
X-73668750Y-50599761D01*
X-72859227Y-49980714D02*
X-72621131Y-50647380D01*
X-72383036Y-49980714D02*
X-72621131Y-50647380D01*
X-72716370Y-50885476D01*
X-72763989Y-50933095D01*
X-72859227Y-50980714D01*
X-71383036Y-49980714D02*
X-71002084Y-49980714D01*
X-71240179Y-50647380D02*
X-71240179Y-49790238D01*
X-71192560Y-49695000D01*
X-71097322Y-49647380D01*
X-71002084Y-49647380D01*
X-70525893Y-50647380D02*
X-70621131Y-50599761D01*
X-70668750Y-50552142D01*
X-70716370Y-50456904D01*
X-70716370Y-50171190D01*
X-70668750Y-50075952D01*
X-70621131Y-50028333D01*
X-70525893Y-49980714D01*
X-70383036Y-49980714D01*
X-70287798Y-50028333D01*
X-70240179Y-50075952D01*
X-70192560Y-50171190D01*
X-70192560Y-50456904D01*
X-70240179Y-50552142D01*
X-70287798Y-50599761D01*
X-70383036Y-50647380D01*
X-70525893Y-50647380D01*
X-69621131Y-50647380D02*
X-69716370Y-50599761D01*
X-69763989Y-50552142D01*
X-69811608Y-50456904D01*
X-69811608Y-50171190D01*
X-69763989Y-50075952D01*
X-69716370Y-50028333D01*
X-69621131Y-49980714D01*
X-69478274Y-49980714D01*
X-69383036Y-50028333D01*
X-69335417Y-50075952D01*
X-69287798Y-50171190D01*
X-69287798Y-50456904D01*
X-69335417Y-50552142D01*
X-69383036Y-50599761D01*
X-69478274Y-50647380D01*
X-69621131Y-50647380D01*
X-68906846Y-50599761D02*
X-68811608Y-50647380D01*
X-68621131Y-50647380D01*
X-68525893Y-50599761D01*
X-68478274Y-50504523D01*
X-68478274Y-50456904D01*
X-68525893Y-50361666D01*
X-68621131Y-50314047D01*
X-68763989Y-50314047D01*
X-68859227Y-50266428D01*
X-68906846Y-50171190D01*
X-68906846Y-50123571D01*
X-68859227Y-50028333D01*
X-68763989Y-49980714D01*
X-68621131Y-49980714D01*
X-68525893Y-50028333D01*
X-68192560Y-49980714D02*
X-67811608Y-49980714D01*
X-68049703Y-49647380D02*
X-68049703Y-50504523D01*
X-68002084Y-50599761D01*
X-67906846Y-50647380D01*
X-67811608Y-50647380D01*
X-67049703Y-50647380D02*
X-67049703Y-50123571D01*
X-67097322Y-50028333D01*
X-67192560Y-49980714D01*
X-67383036Y-49980714D01*
X-67478274Y-50028333D01*
X-67049703Y-50599761D02*
X-67144941Y-50647380D01*
X-67383036Y-50647380D01*
X-67478274Y-50599761D01*
X-67525893Y-50504523D01*
X-67525893Y-50409285D01*
X-67478274Y-50314047D01*
X-67383036Y-50266428D01*
X-67144941Y-50266428D01*
X-67049703Y-50218809D01*
X-66573512Y-49980714D02*
X-66573512Y-50647380D01*
X-66573512Y-50075952D02*
X-66525893Y-50028333D01*
X-66430655Y-49980714D01*
X-66287798Y-49980714D01*
X-66192560Y-50028333D01*
X-66144941Y-50123571D01*
X-66144941Y-50647380D01*
X-91478274Y-51971666D02*
X-91002084Y-51971666D01*
X-91573512Y-52257380D02*
X-91240179Y-51257380D01*
X-90906846Y-52257380D01*
X-90573512Y-52257380D02*
X-90573512Y-51257380D01*
X-90573512Y-51638333D02*
X-90478274Y-51590714D01*
X-90287798Y-51590714D01*
X-90192560Y-51638333D01*
X-90144941Y-51685952D01*
X-90097322Y-51781190D01*
X-90097322Y-52066904D01*
X-90144941Y-52162142D01*
X-90192560Y-52209761D01*
X-90287798Y-52257380D01*
X-90478274Y-52257380D01*
X-90573512Y-52209761D01*
X-89525893Y-52257380D02*
X-89621131Y-52209761D01*
X-89668750Y-52162142D01*
X-89716370Y-52066904D01*
X-89716370Y-51781190D01*
X-89668750Y-51685952D01*
X-89621131Y-51638333D01*
X-89525893Y-51590714D01*
X-89383036Y-51590714D01*
X-89287798Y-51638333D01*
X-89240179Y-51685952D01*
X-89192560Y-51781190D01*
X-89192560Y-52066904D01*
X-89240179Y-52162142D01*
X-89287798Y-52209761D01*
X-89383036Y-52257380D01*
X-89525893Y-52257380D01*
X-88763989Y-52257380D02*
X-88763989Y-51590714D01*
X-88763989Y-51685952D02*
X-88716370Y-51638333D01*
X-88621131Y-51590714D01*
X-88478274Y-51590714D01*
X-88383036Y-51638333D01*
X-88335417Y-51733571D01*
X-88335417Y-52257380D01*
X-88335417Y-51733571D02*
X-88287798Y-51638333D01*
X-88192560Y-51590714D01*
X-88049703Y-51590714D01*
X-87954465Y-51638333D01*
X-87906846Y-51733571D01*
X-87906846Y-52257380D01*
X-87430655Y-52257380D02*
X-87430655Y-51590714D01*
X-87430655Y-51257380D02*
X-87478274Y-51305000D01*
X-87430655Y-51352619D01*
X-87383036Y-51305000D01*
X-87430655Y-51257380D01*
X-87430655Y-51352619D01*
X-86954465Y-51590714D02*
X-86954465Y-52257380D01*
X-86954465Y-51685952D02*
X-86906846Y-51638333D01*
X-86811608Y-51590714D01*
X-86668750Y-51590714D01*
X-86573512Y-51638333D01*
X-86525893Y-51733571D01*
X-86525893Y-52257380D01*
X-85621131Y-52257380D02*
X-85621131Y-51733571D01*
X-85668750Y-51638333D01*
X-85763989Y-51590714D01*
X-85954465Y-51590714D01*
X-86049703Y-51638333D01*
X-85621131Y-52209761D02*
X-85716370Y-52257380D01*
X-85954465Y-52257380D01*
X-86049703Y-52209761D01*
X-86097322Y-52114523D01*
X-86097322Y-52019285D01*
X-86049703Y-51924047D01*
X-85954465Y-51876428D01*
X-85716370Y-51876428D01*
X-85621131Y-51828809D01*
X-85287798Y-51590714D02*
X-84906846Y-51590714D01*
X-85144941Y-51257380D02*
X-85144941Y-52114523D01*
X-85097322Y-52209761D01*
X-85002084Y-52257380D01*
X-84906846Y-52257380D01*
X-84573512Y-52257380D02*
X-84573512Y-51590714D01*
X-84573512Y-51257380D02*
X-84621131Y-51305000D01*
X-84573512Y-51352619D01*
X-84525893Y-51305000D01*
X-84573512Y-51257380D01*
X-84573512Y-51352619D01*
X-83954465Y-52257380D02*
X-84049703Y-52209761D01*
X-84097322Y-52162142D01*
X-84144941Y-52066904D01*
X-84144941Y-51781190D01*
X-84097322Y-51685952D01*
X-84049703Y-51638333D01*
X-83954465Y-51590714D01*
X-83811608Y-51590714D01*
X-83716370Y-51638333D01*
X-83668750Y-51685952D01*
X-83621131Y-51781190D01*
X-83621131Y-52066904D01*
X-83668750Y-52162142D01*
X-83716370Y-52209761D01*
X-83811608Y-52257380D01*
X-83954465Y-52257380D01*
X-83192560Y-51590714D02*
X-83192560Y-52257380D01*
X-83192560Y-51685952D02*
X-83144941Y-51638333D01*
X-83049703Y-51590714D01*
X-82906846Y-51590714D01*
X-82811608Y-51638333D01*
X-82763989Y-51733571D01*
X-82763989Y-52257380D01*
X-81621131Y-51590714D02*
X-81383036Y-52257380D01*
X-81144941Y-51590714D01*
X-80240179Y-52257380D02*
X-80811608Y-52257380D01*
X-80525893Y-52257380D02*
X-80525893Y-51257380D01*
X-80621131Y-51400238D01*
X-80716370Y-51495476D01*
X-80811608Y-51543095D01*
X-79811608Y-52162142D02*
X-79763989Y-52209761D01*
X-79811608Y-52257380D01*
X-79859227Y-52209761D01*
X-79811608Y-52162142D01*
X-79811608Y-52257380D01*
X-79383036Y-51352619D02*
X-79335417Y-51305000D01*
X-79240179Y-51257380D01*
X-79002084Y-51257380D01*
X-78906846Y-51305000D01*
X-78859227Y-51352619D01*
X-78811608Y-51447857D01*
X-78811608Y-51543095D01*
X-78859227Y-51685952D01*
X-79430655Y-52257380D01*
X-78811608Y-52257380D01*
X-77621131Y-52257380D02*
X-77621131Y-51257380D01*
X-77621131Y-51638333D02*
X-77525893Y-51590714D01*
X-77335417Y-51590714D01*
X-77240179Y-51638333D01*
X-77192560Y-51685952D01*
X-77144941Y-51781190D01*
X-77144941Y-52066904D01*
X-77192560Y-52162142D01*
X-77240179Y-52209761D01*
X-77335417Y-52257380D01*
X-77525893Y-52257380D01*
X-77621131Y-52209761D01*
X-76811608Y-51590714D02*
X-76573512Y-52257380D01*
X-76335417Y-51590714D02*
X-76573512Y-52257380D01*
X-76668750Y-52495476D01*
X-76716370Y-52543095D01*
X-76811608Y-52590714D01*
X-75002084Y-51257380D02*
X-74811608Y-51257380D01*
X-74716370Y-51305000D01*
X-74621131Y-51400238D01*
X-74573512Y-51590714D01*
X-74573512Y-51924047D01*
X-74621131Y-52114523D01*
X-74716370Y-52209761D01*
X-74811608Y-52257380D01*
X-75002084Y-52257380D01*
X-75097322Y-52209761D01*
X-75192560Y-52114523D01*
X-75240179Y-51924047D01*
X-75240179Y-51590714D01*
X-75192560Y-51400238D01*
X-75097322Y-51305000D01*
X-75002084Y-51257380D01*
X-74144941Y-52257380D02*
X-74144941Y-51590714D01*
X-74144941Y-51781190D02*
X-74097322Y-51685952D01*
X-74049703Y-51638333D01*
X-73954465Y-51590714D01*
X-73859227Y-51590714D01*
X-73097322Y-52257380D02*
X-73097322Y-51733571D01*
X-73144941Y-51638333D01*
X-73240179Y-51590714D01*
X-73430655Y-51590714D01*
X-73525893Y-51638333D01*
X-73097322Y-52209761D02*
X-73192560Y-52257380D01*
X-73430655Y-52257380D01*
X-73525893Y-52209761D01*
X-73573512Y-52114523D01*
X-73573512Y-52019285D01*
X-73525893Y-51924047D01*
X-73430655Y-51876428D01*
X-73192560Y-51876428D01*
X-73097322Y-51828809D01*
X-72621131Y-51590714D02*
X-72621131Y-52257380D01*
X-72621131Y-51685952D02*
X-72573512Y-51638333D01*
X-72478274Y-51590714D01*
X-72335417Y-51590714D01*
X-72240179Y-51638333D01*
X-72192560Y-51733571D01*
X-72192560Y-52257380D01*
X-71287798Y-51590714D02*
X-71287798Y-52400238D01*
X-71335417Y-52495476D01*
X-71383036Y-52543095D01*
X-71478274Y-52590714D01*
X-71621131Y-52590714D01*
X-71716370Y-52543095D01*
X-71287798Y-52209761D02*
X-71383036Y-52257380D01*
X-71573512Y-52257380D01*
X-71668750Y-52209761D01*
X-71716370Y-52162142D01*
X-71763989Y-52066904D01*
X-71763989Y-51781190D01*
X-71716370Y-51685952D01*
X-71668750Y-51638333D01*
X-71573512Y-51590714D01*
X-71383036Y-51590714D01*
X-71287798Y-51638333D01*
X-70430655Y-52209761D02*
X-70525893Y-52257380D01*
X-70716370Y-52257380D01*
X-70811608Y-52209761D01*
X-70859227Y-52114523D01*
X-70859227Y-51733571D01*
X-70811608Y-51638333D01*
X-70716370Y-51590714D01*
X-70525893Y-51590714D01*
X-70430655Y-51638333D01*
X-70383036Y-51733571D01*
X-70383036Y-51828809D01*
X-70859227Y-51924047D01*
X-69383036Y-52162142D02*
X-69430655Y-52209761D01*
X-69573512Y-52257380D01*
X-69668751Y-52257380D01*
X-69811608Y-52209761D01*
X-69906846Y-52114523D01*
X-69954465Y-52019285D01*
X-70002084Y-51828809D01*
X-70002084Y-51685952D01*
X-69954465Y-51495476D01*
X-69906846Y-51400238D01*
X-69811608Y-51305000D01*
X-69668751Y-51257380D01*
X-69573512Y-51257380D01*
X-69430655Y-51305000D01*
X-69383036Y-51352619D01*
X-68954465Y-52257380D02*
X-68954465Y-51590714D01*
X-68954465Y-51781190D02*
X-68906846Y-51685952D01*
X-68859227Y-51638333D01*
X-68763989Y-51590714D01*
X-68668751Y-51590714D01*
X-67906846Y-51590714D02*
X-67906846Y-52257380D01*
X-68335417Y-51590714D02*
X-68335417Y-52114523D01*
X-68287798Y-52209761D01*
X-68192560Y-52257380D01*
X-68049703Y-52257380D01*
X-67954465Y-52209761D01*
X-67906846Y-52162142D01*
X-67478274Y-52209761D02*
X-67383036Y-52257380D01*
X-67192560Y-52257380D01*
X-67097322Y-52209761D01*
X-67049703Y-52114523D01*
X-67049703Y-52066904D01*
X-67097322Y-51971666D01*
X-67192560Y-51924047D01*
X-67335417Y-51924047D01*
X-67430655Y-51876428D01*
X-67478274Y-51781190D01*
X-67478274Y-51733571D01*
X-67430655Y-51638333D01*
X-67335417Y-51590714D01*
X-67192560Y-51590714D01*
X-67097322Y-51638333D01*
X-66192560Y-52257380D02*
X-66192560Y-51733571D01*
X-66240179Y-51638333D01*
X-66335417Y-51590714D01*
X-66525893Y-51590714D01*
X-66621131Y-51638333D01*
X-66192560Y-52209761D02*
X-66287798Y-52257380D01*
X-66525893Y-52257380D01*
X-66621131Y-52209761D01*
X-66668751Y-52114523D01*
X-66668751Y-52019285D01*
X-66621131Y-51924047D01*
X-66525893Y-51876428D01*
X-66287798Y-51876428D01*
X-66192560Y-51828809D01*
X-65287798Y-52257380D02*
X-65287798Y-51257380D01*
X-65287798Y-52209761D02*
X-65383036Y-52257380D01*
X-65573512Y-52257380D01*
X-65668751Y-52209761D01*
X-65716370Y-52162142D01*
X-65763989Y-52066904D01*
X-65763989Y-51781190D01*
X-65716370Y-51685952D01*
X-65668751Y-51638333D01*
X-65573512Y-51590714D01*
X-65383036Y-51590714D01*
X-65287798Y-51638333D01*
X-64430655Y-52209761D02*
X-64525893Y-52257380D01*
X-64716370Y-52257380D01*
X-64811608Y-52209761D01*
X-64859227Y-52114523D01*
X-64859227Y-51733571D01*
X-64811608Y-51638333D01*
X-64716370Y-51590714D01*
X-64525893Y-51590714D01*
X-64430655Y-51638333D01*
X-64383036Y-51733571D01*
X-64383036Y-51828809D01*
X-64859227Y-51924047D01*
X-63954465Y-52257380D02*
X-63954465Y-51590714D01*
X-63954465Y-51781190D02*
X-63906846Y-51685952D01*
X-63859227Y-51638333D01*
X-63763989Y-51590714D01*
X-63668751Y-51590714D01*
D17*
%TO.C,U1*%
X-14812280Y564120D03*
X-14812280Y-1975880D03*
X-14812280Y-4515880D03*
X-14812280Y-7055880D03*
X-14812280Y-9595880D03*
X-14812280Y-12135880D03*
X-14812280Y-14675880D03*
X2352280Y-14675880D03*
X2352280Y-12135880D03*
X2352280Y-9595880D03*
X2352280Y-7055880D03*
X2352280Y-4515880D03*
X2352280Y-1975880D03*
X2352280Y564120D03*
D18*
X-10573400Y-4515880D03*
X-1885400Y-4515880D03*
X-10573400Y-7055880D03*
X-1885400Y-7055880D03*
D19*
X-9495400Y-17983700D03*
D20*
X-9488700Y-17073700D03*
D19*
X-2945400Y-17983700D03*
D20*
X-2935400Y-17073700D03*
X-11977900Y-17073700D03*
X-446200Y-17073700D03*
D19*
X-455400Y-17953700D03*
X-11985400Y-17953700D03*
%TD*%
D21*
%TO.C,D1*%
X-115825000Y-16000000D03*
D22*
X-118325000Y-16000000D03*
D23*
X-123625000Y-16000000D03*
D22*
X-121125000Y-16000000D03*
%TD*%
%TO.C,D2*%
X-100325000Y-16000000D03*
D21*
X-97825000Y-16000000D03*
D22*
X-103125000Y-16000000D03*
D23*
X-105625000Y-16000000D03*
%TD*%
D21*
%TO.C,D3*%
X-79850000Y-11000000D03*
D22*
X-82350000Y-11000000D03*
X-85150000Y-11000000D03*
D23*
X-87650000Y-11000000D03*
%TD*%
D22*
%TO.C,D4*%
X-64375000Y-8750000D03*
D21*
X-61875000Y-8750000D03*
D23*
X-69675000Y-8750000D03*
D22*
X-67175000Y-8750000D03*
%TD*%
%TO.C,D5*%
X-46325000Y-11000000D03*
D21*
X-43825000Y-11000000D03*
D22*
X-49125000Y-11000000D03*
D23*
X-51625000Y-11000000D03*
%TD*%
D21*
%TO.C,D6*%
X-25875000Y-13500000D03*
D22*
X-28375000Y-13500000D03*
D23*
X-33675000Y-13500000D03*
D22*
X-31175000Y-13500000D03*
%TD*%
%TO.C,D8*%
X-100375000Y-32750000D03*
D21*
X-97875000Y-32750000D03*
D22*
X-103175000Y-32750000D03*
D23*
X-105675000Y-32750000D03*
%TD*%
D22*
%TO.C,D9*%
X-82350000Y-28000000D03*
D21*
X-79850000Y-28000000D03*
D22*
X-85150000Y-28000000D03*
D23*
X-87650000Y-28000000D03*
%TD*%
D21*
%TO.C,D10*%
X-61850000Y-25750000D03*
D22*
X-64350000Y-25750000D03*
X-67150000Y-25750000D03*
D23*
X-69650000Y-25750000D03*
%TD*%
D22*
%TO.C,D11*%
X-46350000Y-28000000D03*
D21*
X-43850000Y-28000000D03*
D22*
X-49150000Y-28000000D03*
D23*
X-51650000Y-28000000D03*
%TD*%
D21*
%TO.C,D12*%
X-25875000Y-30500000D03*
D22*
X-28375000Y-30500000D03*
X-31175000Y-30500000D03*
D23*
X-33675000Y-30500000D03*
%TD*%
D21*
%TO.C,D14*%
X-97875000Y-49750000D03*
D22*
X-100375000Y-49750000D03*
D23*
X-105675000Y-49750000D03*
D22*
X-103175000Y-49750000D03*
%TD*%
%TO.C,D15*%
X-82350000Y-45000000D03*
D21*
X-79850000Y-45000000D03*
D22*
X-85150000Y-45000000D03*
D23*
X-87650000Y-45000000D03*
%TD*%
D22*
%TO.C,D16*%
X-64375000Y-42750000D03*
D21*
X-61875000Y-42750000D03*
D23*
X-69675000Y-42750000D03*
D22*
X-67175000Y-42750000D03*
%TD*%
%TO.C,D17*%
X-46325000Y-45000000D03*
D21*
X-43825000Y-45000000D03*
D22*
X-49125000Y-45000000D03*
D23*
X-51625000Y-45000000D03*
%TD*%
D21*
%TO.C,D18*%
X-25875000Y-47500000D03*
D22*
X-28375000Y-47500000D03*
X-31175000Y-47500000D03*
D23*
X-33675000Y-47500000D03*
%TD*%
D21*
%TO.C,D19*%
X-49025000Y-65949000D03*
D22*
X-51525000Y-65949000D03*
X-54325000Y-65949000D03*
D23*
X-56825000Y-65949000D03*
%TD*%
D24*
%TO.C,D20*%
X-31537704Y-68602347D03*
D25*
X-29122889Y-69249394D03*
D24*
X-34242296Y-67877653D03*
D23*
X-36657111Y-67230606D03*
%TD*%
D26*
%TO.C,D21*%
X-3713000Y-67708501D03*
D27*
X-4963000Y-69873564D03*
X-6363000Y-72298436D03*
D23*
X-7613000Y-74463499D03*
%TD*%
D28*
%TO.C,SW1*%
X-119797200Y-5219600D03*
D29*
X-125297200Y-11169600D03*
X-114297200Y-11169600D03*
D28*
X-114797200Y-7419600D03*
X-124797200Y-7419600D03*
D30*
X-119797200Y-11169600D03*
D31*
X-116522200Y-5219600D03*
X-128072200Y-7419600D03*
%TD*%
D29*
%TO.C,SW2*%
X-96303100Y-11173400D03*
D28*
X-106803100Y-7423400D03*
D30*
X-101803100Y-11173400D03*
D28*
X-101803100Y-5223400D03*
X-96803100Y-7423400D03*
D29*
X-107303100Y-11173400D03*
D31*
X-98528100Y-5223400D03*
X-110078100Y-7423400D03*
%TD*%
D30*
%TO.C,SW3*%
X-83789000Y-6396600D03*
D29*
X-78289000Y-6396600D03*
X-89289000Y-6396600D03*
D28*
X-83789000Y-446600D03*
X-78789000Y-2646600D03*
X-88789000Y-2646600D03*
D31*
X-80514000Y-446600D03*
X-92064000Y-2646600D03*
%TD*%
D28*
%TO.C,SW4*%
X-70779000Y-236800D03*
D29*
X-71279000Y-3986800D03*
D28*
X-65779000Y1963200D03*
X-60779000Y-236800D03*
D29*
X-60279000Y-3986800D03*
D30*
X-65779000Y-3986800D03*
D31*
X-62504000Y1963200D03*
X-74054000Y-236800D03*
%TD*%
D29*
%TO.C,SW5*%
X-53263000Y-6307900D03*
X-42263000Y-6307900D03*
D28*
X-52763000Y-2557900D03*
D30*
X-47763000Y-6307900D03*
D28*
X-42763000Y-2557900D03*
X-47763000Y-357900D03*
D31*
X-44488000Y-357900D03*
X-56038000Y-2557900D03*
%TD*%
D30*
%TO.C,SW6*%
X-29750000Y-8708900D03*
D28*
X-29750000Y-2758900D03*
X-24750000Y-4958900D03*
D29*
X-24250000Y-8708900D03*
D28*
X-34750000Y-4958900D03*
D29*
X-35250000Y-8708900D03*
D31*
X-26475000Y-2758900D03*
X-38025000Y-4958900D03*
%TD*%
D28*
%TO.C,SW7*%
X-114797200Y-24402500D03*
D29*
X-114297200Y-28152500D03*
D28*
X-124797200Y-24402500D03*
D30*
X-119797200Y-28152500D03*
D29*
X-125297200Y-28152500D03*
D28*
X-119797200Y-22202500D03*
D31*
X-116522200Y-22202500D03*
X-128072200Y-24402500D03*
%TD*%
D29*
%TO.C,SW8*%
X-107303100Y-28187000D03*
D30*
X-101803100Y-28187000D03*
D28*
X-106803100Y-24437000D03*
X-96803100Y-24437000D03*
X-101803100Y-22237000D03*
D29*
X-96303100Y-28187000D03*
D31*
X-98528100Y-22237000D03*
X-110078100Y-24437000D03*
%TD*%
D29*
%TO.C,SW9*%
X-89287000Y-23385200D03*
D28*
X-78787000Y-19635200D03*
D29*
X-78287000Y-23385200D03*
D28*
X-83787000Y-17435200D03*
X-88787000Y-19635200D03*
D30*
X-83787000Y-23385200D03*
D31*
X-80512000Y-17435200D03*
X-92062000Y-19635200D03*
%TD*%
D29*
%TO.C,SW10*%
X-60272000Y-20988000D03*
X-71272000Y-20988000D03*
D28*
X-70772000Y-17238000D03*
X-65772000Y-15038000D03*
D30*
X-65772000Y-20988000D03*
D28*
X-60772000Y-17238000D03*
D31*
X-62497000Y-15038000D03*
X-74047000Y-17238000D03*
%TD*%
D28*
%TO.C,SW11*%
X-52763000Y-19572700D03*
X-42763000Y-19572700D03*
X-47763000Y-17372700D03*
D29*
X-53263000Y-23322700D03*
D30*
X-47763000Y-23322700D03*
D29*
X-42263000Y-23322700D03*
D31*
X-44488000Y-17372700D03*
X-56038000Y-19572700D03*
%TD*%
D28*
%TO.C,SW12*%
X-29750000Y-19800000D03*
D29*
X-35250000Y-25750000D03*
X-24250000Y-25750000D03*
D28*
X-34750000Y-22000000D03*
X-24750000Y-22000000D03*
D30*
X-29750000Y-25750000D03*
D31*
X-26475000Y-19800000D03*
X-38025000Y-22000000D03*
%TD*%
D28*
%TO.C,SW13*%
X-124797200Y-41433000D03*
X-114797200Y-41433000D03*
D30*
X-119797200Y-45183000D03*
D28*
X-119797200Y-39233000D03*
D29*
X-125297200Y-45183000D03*
X-114297200Y-45183000D03*
D31*
X-116522200Y-39233000D03*
X-128072200Y-41433000D03*
%TD*%
D29*
%TO.C,SW14*%
X-96303100Y-45171000D03*
D28*
X-96803100Y-41421000D03*
D29*
X-107303100Y-45171000D03*
D30*
X-101803100Y-45171000D03*
D28*
X-101803100Y-39221000D03*
X-106803100Y-41421000D03*
D31*
X-98528100Y-39221000D03*
X-110078100Y-41421000D03*
%TD*%
D28*
%TO.C,SW15*%
X-88786000Y-36648000D03*
X-78786000Y-36648000D03*
D30*
X-83786000Y-40398000D03*
D29*
X-78286000Y-40398000D03*
X-89286000Y-40398000D03*
D28*
X-83786000Y-34448000D03*
D31*
X-80511000Y-34448000D03*
X-92061000Y-36648000D03*
%TD*%
D29*
%TO.C,SW16*%
X-71283000Y-37977000D03*
D28*
X-70783000Y-34227000D03*
D29*
X-60283000Y-37977000D03*
D28*
X-65783000Y-32027000D03*
X-60783000Y-34227000D03*
D30*
X-65783000Y-37977000D03*
D31*
X-62508000Y-32027000D03*
X-74058000Y-34227000D03*
%TD*%
D28*
%TO.C,SW17*%
X-52763000Y-36564000D03*
X-42763000Y-36564000D03*
X-47763000Y-34364000D03*
D29*
X-53263000Y-40314000D03*
D30*
X-47763000Y-40314000D03*
D29*
X-42263000Y-40314000D03*
D31*
X-44488000Y-34364000D03*
X-56038000Y-36564000D03*
%TD*%
D28*
%TO.C,SW19*%
X-52815000Y-55200000D03*
D29*
X-47315000Y-61150000D03*
X-58315000Y-61150000D03*
D28*
X-57815000Y-57400000D03*
X-47815000Y-57400000D03*
D30*
X-52815000Y-61150000D03*
D31*
X-49540000Y-55200000D03*
X-61090000Y-57400000D03*
%TD*%
D28*
%TO.C,SW20*%
X-30096027Y-58115741D03*
D29*
X-36948592Y-62439495D03*
D28*
X-35495058Y-58946683D03*
D29*
X-26323408Y-65286505D03*
D30*
X-31636000Y-63863000D03*
D28*
X-25835799Y-61534873D03*
D32*
X-26932620Y-58963374D03*
X-38658465Y-58099051D03*
%TD*%
D28*
%TO.C,SW21*%
X-10562595Y-62494873D03*
D29*
X-7065000Y-63936860D03*
D28*
X-14967851Y-65725000D03*
D29*
X-12565000Y-73463140D03*
D28*
X-15562595Y-71155127D03*
D30*
X-9815000Y-68700000D03*
D33*
X-13330351Y-62888767D03*
X-17200095Y-73991360D03*
%TD*%
D29*
%TO.C,SW18*%
X-24243000Y-42740000D03*
D28*
X-29743000Y-36790000D03*
X-24743000Y-38990000D03*
D29*
X-35243000Y-42740000D03*
D28*
X-34743000Y-38990000D03*
D30*
X-29743000Y-42740000D03*
D31*
X-26468000Y-36790000D03*
X-38018000Y-38990000D03*
%TD*%
D21*
%TO.C,D13*%
X-115875000Y-49750000D03*
D22*
X-118375000Y-49750000D03*
X-121175000Y-49750000D03*
D23*
X-123675000Y-49750000D03*
%TD*%
D22*
%TO.C,D7*%
X-118375000Y-32750000D03*
D21*
X-115875000Y-32750000D03*
D23*
X-123675000Y-32750000D03*
D22*
X-121175000Y-32750000D03*
%TD*%
D34*
%TO.C,JP29*%
X-736400Y-53775000D03*
D35*
X-736400Y-52325000D03*
%TD*%
D36*
%TO.C,JP28*%
X-10210200Y-44406700D03*
D37*
X-8760200Y-44406700D03*
%TD*%
D36*
%TO.C,JP33*%
X-3656900Y-33401700D03*
D37*
X-2206900Y-33401700D03*
%TD*%
D36*
%TO.C,JP23*%
X-10210200Y-26065000D03*
D37*
X-8760200Y-26065000D03*
%TD*%
D36*
%TO.C,JP31*%
X-3656900Y-26065000D03*
D37*
X-2206900Y-26065000D03*
%TD*%
D36*
%TO.C,JP27*%
X-10210200Y-40738300D03*
D37*
X-8760200Y-40738300D03*
%TD*%
D36*
%TO.C,JP24*%
X-10210200Y-29733300D03*
D37*
X-8760200Y-29733300D03*
%TD*%
D38*
%TO.C,J9*%
X-18225000Y-58010000D03*
D39*
X-18225000Y-55470000D03*
%TD*%
D36*
%TO.C,JP22*%
X-10210200Y-22396700D03*
D37*
X-8760200Y-22396700D03*
%TD*%
D40*
%TO.C,SW23*%
X5536500Y-39928000D03*
X5536500Y-31728000D03*
D41*
X5536500Y-33828000D03*
D42*
X5536500Y-35828000D03*
X5536500Y-37828000D03*
%TD*%
D34*
%TO.C,JP20*%
X-4423100Y-53775000D03*
D35*
X-4423100Y-52325000D03*
%TD*%
D36*
%TO.C,JP34*%
X-3656900Y-37070000D03*
D37*
X-2206900Y-37070000D03*
%TD*%
D36*
%TO.C,JP37*%
X-3656900Y-22396700D03*
D37*
X-2206900Y-22396700D03*
%TD*%
D34*
%TO.C,JP16*%
X-11796400Y-53775000D03*
D35*
X-11796400Y-52325000D03*
%TD*%
D36*
%TO.C,JP36*%
X-3656900Y-44406700D03*
D37*
X-2206900Y-44406700D03*
%TD*%
D38*
%TO.C,J1*%
X-1235000Y-48000000D03*
D39*
X-3775000Y-48000000D03*
X-6315000Y-48000000D03*
X-8855000Y-48000000D03*
X-11395000Y-48000000D03*
%TD*%
D34*
%TO.C,JP18*%
X-8109800Y-53775000D03*
D35*
X-8109800Y-52325000D03*
%TD*%
D36*
%TO.C,JP25*%
X-10210200Y-33401700D03*
D37*
X-8760200Y-33401700D03*
%TD*%
D36*
%TO.C,JP32*%
X-3656900Y-29733300D03*
D37*
X-2206900Y-29733300D03*
%TD*%
D36*
%TO.C,JP35*%
X-3656900Y-40738300D03*
D37*
X-2206900Y-40738300D03*
%TD*%
D36*
%TO.C,JP26*%
X-10210200Y-37070000D03*
D37*
X-8760200Y-37070000D03*
%TD*%
M02*
