%TF.GenerationSoftware,KiCad,Pcbnew,(6.0.0)*%
%TF.CreationDate,2023-02-19T18:14:09-06:00*%
%TF.ProjectId,corne-chocolate,636f726e-652d-4636-986f-636f6c617465,1.0*%
%TF.SameCoordinates,Original*%
%TF.FileFunction,Paste,Bot*%
%TF.FilePolarity,Positive*%
%FSLAX46Y46*%
G04 Gerber Fmt 4.6, Leading zero omitted, Abs format (unit mm)*
G04 Created by KiCad (PCBNEW (6.0.0)) date 2023-02-19 18:14:09*
%MOMM*%
%LPD*%
G01*
G04 APERTURE LIST*
G04 Aperture macros list*
%AMRoundRect*
0 Rectangle with rounded corners*
0 $1 Rounding radius*
0 $2 $3 $4 $5 $6 $7 $8 $9 X,Y pos of 4 corners*
0 Add a 4 corners polygon primitive as box body*
4,1,4,$2,$3,$4,$5,$6,$7,$8,$9,$2,$3,0*
0 Add four circle primitives for the rounded corners*
1,1,$1+$1,$2,$3*
1,1,$1+$1,$4,$5*
1,1,$1+$1,$6,$7*
1,1,$1+$1,$8,$9*
0 Add four rect primitives between the rounded corners*
20,1,$1+$1,$2,$3,$4,$5,0*
20,1,$1+$1,$4,$5,$6,$7,0*
20,1,$1+$1,$6,$7,$8,$9,0*
20,1,$1+$1,$8,$9,$2,$3,0*%
%AMRotRect*
0 Rectangle, with rotation*
0 The origin of the aperture is its center*
0 $1 length*
0 $2 width*
0 $3 Rotation angle, in degrees counterclockwise*
0 Add horizontal line*
21,1,$1,$2,0,0,$3*%
G04 Aperture macros list end*
%ADD10C,1.000000*%
%ADD11R,1.600000X1.200000*%
%ADD12RotRect,1.600000X1.200000X345.000000*%
%ADD13RotRect,1.600000X1.200000X60.000000*%
%ADD14R,2.600000X2.600000*%
%ADD15RotRect,2.600000X2.600000X165.000000*%
%ADD16RotRect,2.600000X2.600000X240.000000*%
%ADD17RoundRect,0.150000X-0.163157X0.267404X-0.313157X0.007596X0.163157X-0.267404X0.313157X-0.007596X0*%
%ADD18RoundRect,0.175000X-0.107356X0.264054X-0.282356X-0.039054X0.107356X-0.264054X0.282356X0.039054X0*%
G04 APERTURE END LIST*
D10*
%TO.C,U1*%
X-455400Y-17933700D03*
X-12005400Y-17973700D03*
%TD*%
D11*
%TO.C,D1*%
X-118325000Y-16000000D03*
X-121125000Y-16000000D03*
%TD*%
%TO.C,D2*%
X-100325000Y-16000000D03*
X-103125000Y-16000000D03*
%TD*%
%TO.C,D3*%
X-82350000Y-11000000D03*
X-85150000Y-11000000D03*
%TD*%
%TO.C,D4*%
X-64375000Y-8750000D03*
X-67175000Y-8750000D03*
%TD*%
%TO.C,D5*%
X-46325000Y-11000000D03*
X-49125000Y-11000000D03*
%TD*%
%TO.C,D6*%
X-28375000Y-13500000D03*
X-31175000Y-13500000D03*
%TD*%
%TO.C,D8*%
X-100375000Y-32750000D03*
X-103175000Y-32750000D03*
%TD*%
%TO.C,D9*%
X-82350000Y-28000000D03*
X-85150000Y-28000000D03*
%TD*%
%TO.C,D10*%
X-64350000Y-25750000D03*
X-67150000Y-25750000D03*
%TD*%
%TO.C,D11*%
X-46350000Y-28000000D03*
X-49150000Y-28000000D03*
%TD*%
%TO.C,D12*%
X-28375000Y-30500000D03*
X-31175000Y-30500000D03*
%TD*%
%TO.C,D14*%
X-100375000Y-49750000D03*
X-103175000Y-49750000D03*
%TD*%
%TO.C,D15*%
X-82350000Y-45000000D03*
X-85150000Y-45000000D03*
%TD*%
%TO.C,D16*%
X-64375000Y-42750000D03*
X-67175000Y-42750000D03*
%TD*%
%TO.C,D17*%
X-46325000Y-45000000D03*
X-49125000Y-45000000D03*
%TD*%
%TO.C,D18*%
X-28375000Y-47500000D03*
X-31175000Y-47500000D03*
%TD*%
%TO.C,D19*%
X-51525000Y-65949000D03*
X-54325000Y-65949000D03*
%TD*%
D12*
%TO.C,D20*%
X-31537704Y-68602347D03*
X-34242296Y-67877653D03*
%TD*%
D13*
%TO.C,D21*%
X-4963000Y-69873564D03*
X-6363000Y-72298436D03*
%TD*%
D14*
%TO.C,SW1*%
X-123072200Y-5219600D03*
X-111522200Y-7419600D03*
%TD*%
%TO.C,SW2*%
X-105078100Y-5223400D03*
X-93528100Y-7423400D03*
%TD*%
%TO.C,SW3*%
X-87064000Y-446600D03*
X-75514000Y-2646600D03*
%TD*%
%TO.C,SW4*%
X-69054000Y1963200D03*
X-57504000Y-236800D03*
%TD*%
%TO.C,SW5*%
X-51038000Y-357900D03*
X-39488000Y-2557900D03*
%TD*%
%TO.C,SW6*%
X-33025000Y-2758900D03*
X-21475000Y-4958900D03*
%TD*%
%TO.C,SW7*%
X-123072200Y-22202500D03*
X-111522200Y-24402500D03*
%TD*%
%TO.C,SW8*%
X-105078100Y-22237000D03*
X-93528100Y-24437000D03*
%TD*%
%TO.C,SW9*%
X-87062000Y-17435200D03*
X-75512000Y-19635200D03*
%TD*%
%TO.C,SW10*%
X-69047000Y-15038000D03*
X-57497000Y-17238000D03*
%TD*%
%TO.C,SW11*%
X-51038000Y-17372700D03*
X-39488000Y-19572700D03*
%TD*%
%TO.C,SW12*%
X-33025000Y-19800000D03*
X-21475000Y-22000000D03*
%TD*%
%TO.C,SW13*%
X-123072200Y-39233000D03*
X-111522200Y-41433000D03*
%TD*%
%TO.C,SW14*%
X-105078100Y-39221000D03*
X-93528100Y-41421000D03*
%TD*%
%TO.C,SW15*%
X-87061000Y-34448000D03*
X-75511000Y-36648000D03*
%TD*%
%TO.C,SW16*%
X-69058000Y-32027000D03*
X-57508000Y-34227000D03*
%TD*%
%TO.C,SW17*%
X-51038000Y-34364000D03*
X-39488000Y-36564000D03*
%TD*%
%TO.C,SW19*%
X-56090000Y-55200000D03*
X-44540000Y-57400000D03*
%TD*%
D15*
%TO.C,SW20*%
X-33259434Y-57268109D03*
X-22672392Y-62382506D03*
%TD*%
D16*
%TO.C,SW21*%
X-16605351Y-68561233D03*
X-8925095Y-59658640D03*
%TD*%
D14*
%TO.C,SW18*%
X-33018000Y-36790000D03*
X-21468000Y-38990000D03*
%TD*%
D11*
%TO.C,D13*%
X-118375000Y-49750000D03*
X-121175000Y-49750000D03*
%TD*%
%TO.C,D7*%
X-118375000Y-32750000D03*
X-121175000Y-32750000D03*
%TD*%
D17*
%TO.C,J8*%
X-3053798Y-57572885D03*
X-3653798Y-58612115D03*
D18*
X790448Y-58464456D03*
X-959552Y-61495544D03*
%TD*%
M02*
