%TF.GenerationSoftware,KiCad,Pcbnew,(6.0.0)*%
%TF.CreationDate,2023-02-19T18:14:09-06:00*%
%TF.ProjectId,corne-chocolate,636f726e-652d-4636-986f-636f6c617465,1.0*%
%TF.SameCoordinates,Original*%
%TF.FileFunction,Paste,Top*%
%TF.FilePolarity,Positive*%
%FSLAX46Y46*%
G04 Gerber Fmt 4.6, Leading zero omitted, Abs format (unit mm)*
G04 Created by KiCad (PCBNEW (6.0.0)) date 2023-02-19 18:14:09*
%MOMM*%
%LPD*%
G01*
G04 APERTURE LIST*
G04 Aperture macros list*
%AMRotRect*
0 Rectangle, with rotation*
0 The origin of the aperture is its center*
0 $1 length*
0 $2 width*
0 $3 Rotation angle, in degrees counterclockwise*
0 Add horizontal line*
21,1,$1,$2,0,0,$3*%
G04 Aperture macros list end*
%ADD10C,1.000000*%
%ADD11R,1.600000X1.200000*%
%ADD12RotRect,1.600000X1.200000X345.000000*%
%ADD13RotRect,1.600000X1.200000X60.000000*%
%ADD14R,2.600000X2.600000*%
%ADD15RotRect,2.600000X2.600000X165.000000*%
%ADD16RotRect,2.600000X2.600000X240.000000*%
G04 APERTURE END LIST*
D10*
%TO.C,U1*%
X-455400Y-17953700D03*
X-11985400Y-17953700D03*
%TD*%
D11*
%TO.C,D1*%
X-118325000Y-16000000D03*
X-121125000Y-16000000D03*
%TD*%
%TO.C,D2*%
X-100325000Y-16000000D03*
X-103125000Y-16000000D03*
%TD*%
%TO.C,D3*%
X-82350000Y-11000000D03*
X-85150000Y-11000000D03*
%TD*%
%TO.C,D4*%
X-64375000Y-8750000D03*
X-67175000Y-8750000D03*
%TD*%
%TO.C,D5*%
X-46325000Y-11000000D03*
X-49125000Y-11000000D03*
%TD*%
%TO.C,D6*%
X-28375000Y-13500000D03*
X-31175000Y-13500000D03*
%TD*%
%TO.C,D8*%
X-100375000Y-32750000D03*
X-103175000Y-32750000D03*
%TD*%
%TO.C,D9*%
X-82350000Y-28000000D03*
X-85150000Y-28000000D03*
%TD*%
%TO.C,D10*%
X-64350000Y-25750000D03*
X-67150000Y-25750000D03*
%TD*%
%TO.C,D11*%
X-46350000Y-28000000D03*
X-49150000Y-28000000D03*
%TD*%
%TO.C,D12*%
X-28375000Y-30500000D03*
X-31175000Y-30500000D03*
%TD*%
%TO.C,D14*%
X-100375000Y-49750000D03*
X-103175000Y-49750000D03*
%TD*%
%TO.C,D15*%
X-82350000Y-45000000D03*
X-85150000Y-45000000D03*
%TD*%
%TO.C,D16*%
X-64375000Y-42750000D03*
X-67175000Y-42750000D03*
%TD*%
%TO.C,D17*%
X-46325000Y-45000000D03*
X-49125000Y-45000000D03*
%TD*%
%TO.C,D18*%
X-28375000Y-47500000D03*
X-31175000Y-47500000D03*
%TD*%
%TO.C,D19*%
X-51525000Y-65949000D03*
X-54325000Y-65949000D03*
%TD*%
D12*
%TO.C,D20*%
X-31537704Y-68602347D03*
X-34242296Y-67877653D03*
%TD*%
D13*
%TO.C,D21*%
X-4963000Y-69873564D03*
X-6363000Y-72298436D03*
%TD*%
D14*
%TO.C,SW1*%
X-116522200Y-5219600D03*
X-128072200Y-7419600D03*
%TD*%
%TO.C,SW2*%
X-98528100Y-5223400D03*
X-110078100Y-7423400D03*
%TD*%
%TO.C,SW3*%
X-80514000Y-446600D03*
X-92064000Y-2646600D03*
%TD*%
%TO.C,SW4*%
X-62504000Y1963200D03*
X-74054000Y-236800D03*
%TD*%
%TO.C,SW5*%
X-44488000Y-357900D03*
X-56038000Y-2557900D03*
%TD*%
%TO.C,SW6*%
X-26475000Y-2758900D03*
X-38025000Y-4958900D03*
%TD*%
%TO.C,SW7*%
X-116522200Y-22202500D03*
X-128072200Y-24402500D03*
%TD*%
%TO.C,SW8*%
X-98528100Y-22237000D03*
X-110078100Y-24437000D03*
%TD*%
%TO.C,SW9*%
X-80512000Y-17435200D03*
X-92062000Y-19635200D03*
%TD*%
%TO.C,SW10*%
X-62497000Y-15038000D03*
X-74047000Y-17238000D03*
%TD*%
%TO.C,SW11*%
X-44488000Y-17372700D03*
X-56038000Y-19572700D03*
%TD*%
%TO.C,SW12*%
X-26475000Y-19800000D03*
X-38025000Y-22000000D03*
%TD*%
%TO.C,SW13*%
X-116522200Y-39233000D03*
X-128072200Y-41433000D03*
%TD*%
%TO.C,SW14*%
X-98528100Y-39221000D03*
X-110078100Y-41421000D03*
%TD*%
%TO.C,SW15*%
X-80511000Y-34448000D03*
X-92061000Y-36648000D03*
%TD*%
%TO.C,SW16*%
X-62508000Y-32027000D03*
X-74058000Y-34227000D03*
%TD*%
%TO.C,SW17*%
X-44488000Y-34364000D03*
X-56038000Y-36564000D03*
%TD*%
%TO.C,SW19*%
X-49540000Y-55200000D03*
X-61090000Y-57400000D03*
%TD*%
D15*
%TO.C,SW20*%
X-26932620Y-58963374D03*
X-38658465Y-58099051D03*
%TD*%
D16*
%TO.C,SW21*%
X-13330351Y-62888767D03*
X-17200095Y-73991360D03*
%TD*%
D14*
%TO.C,SW18*%
X-26468000Y-36790000D03*
X-38018000Y-38990000D03*
%TD*%
D11*
%TO.C,D13*%
X-118375000Y-49750000D03*
X-121175000Y-49750000D03*
%TD*%
%TO.C,D7*%
X-118375000Y-32750000D03*
X-121175000Y-32750000D03*
%TD*%
M02*
